<svg width="63" height="46" viewBox="0 0 63 46" fill="none" xmlns="http://www.w3.org/2000/svg">
                  <path d="M54.9043 19.79C55.477 20.1925 56.0211 20.6525 56.5079 21.17C58.9134 23.585 60.2879 26.8912 60.2879 30.3125C60.2879 33.7337 58.942 37.04 56.5079 39.455C54.1025 41.87 50.8093 43.25 47.4016 43.25H23.0607C19.338 43.25 15.7011 42.215 12.5225 40.26C9.3725 38.305 6.79522 35.4875 5.13432 32.1525C3.47341 28.8175 2.7575 25.08 3.0725 21.3712C3.3875 17.6625 4.76204 14.0975 6.96704 11.1075C9.20068 8.1175 12.2075 5.78874 15.6439 4.43749C19.1089 3.05749 22.8602 2.68374 26.5257 3.31624C30.1911 3.97749 33.5989 5.61624 36.3766 8.11749C37.4934 9.12374 38.4957 10.245 39.3548 11.4525" stroke="black" stroke-width="5" stroke-linecap="round" stroke-linejoin="round"/>
                  <path d="M26.7266 19.1287L35.4893 27.8975L60.2884 3" stroke="black" stroke-width="5" stroke-linecap="round" stroke-linejoin="round"/>
              </svg>  