<svg width="68" height="51" viewBox="0 0 68 51" fill="none" xmlns="http://www.w3.org/2000/svg">
<path d="M37.9984 48.1763V43.1764C37.9984 40.5244 36.9448 37.9809 35.0695 36.1056C33.1942 34.2303 30.6508 33.1768 27.9987 33.1768H12.9991C10.3471 33.1768 7.8036 34.2303 5.92829 36.1056C4.05299 37.9809 2.99945 40.5244 2.99945 43.1764V48.1763" stroke="black" stroke-width="5" stroke-linecap="round" stroke-linejoin="round"/>
<path d="M20.4989 23.1771C26.0216 23.1771 30.4986 18.7001 30.4986 13.1774C30.4986 7.65475 26.0216 3.17773 20.4989 3.17773C14.9762 3.17773 10.4992 7.65475 10.4992 13.1774C10.4992 18.7001 14.9762 23.1771 20.4989 23.1771Z" stroke="black" stroke-width="5" stroke-linecap="round" stroke-linejoin="round"/>
<path d="M44.8334 23.9272L64.8334 3.92725" stroke="black" stroke-width="5"/>
<path d="M44.3334 3.17773H65.3334V23.3027" stroke="black" stroke-width="5" stroke-linejoin="round"/>
</svg>
