<svg width="77" height="59" viewBox="0 0 77 59" fill="none" xmlns="http://www.w3.org/2000/svg">
                  <path d="M37.9989 56.249V51.2492C37.9989 48.5971 36.9454 46.0537 35.0701 44.1784C33.1948 42.303 30.6513 41.2495 27.9992 41.2495H12.9997C10.3476 41.2495 7.80415 42.303 5.92884 44.1784C4.05354 46.0537 3 48.5971 3 51.2492V56.249" stroke="black" stroke-width="5" stroke-linecap="round" stroke-linejoin="round"/>
                  <path d="M20.4997 31.2499C26.0224 31.2499 30.4994 26.7729 30.4994 21.2502C30.4994 15.7275 26.0224 11.2505 20.4997 11.2505C14.977 11.2505 10.5 15.7275 10.5 21.2502C10.5 26.7729 14.977 31.2499 20.4997 31.2499Z" stroke="black" stroke-width="5" stroke-linecap="round" stroke-linejoin="round"/>
                  <path d="M44.834 10.6064H66.0472V31.8196" stroke="black" stroke-width="5" stroke-linejoin="round"/>
                  <path d="M44.834 32L64.834 12" stroke="black" stroke-width="5"/>
              </svg> 