<svg width="211" height="41" viewBox="0 0 211 41" fill="none" xmlns="http://www.w3.org/2000/svg">
<path d="M71 8.1416H82.3723C85.1133 8.1416 87.4322 8.58151 89.3289 9.46133C91.0753 10.2165 92.5581 11.4983 93.5821 13.1377C94.5406 14.7573 95.0318 16.6237 94.9984 18.5195C95.0195 20.4239 94.5091 22.2946 93.5279 23.9098C92.4334 25.616 90.8682 26.947 89.0332 27.7319C87.0225 28.6745 84.5301 29.1444 81.5558 29.1416H71V8.1416ZM81.4392 23.7984C83.2859 23.7984 84.705 23.3242 85.6965 22.3758C86.1992 21.8744 86.5919 21.2682 86.8484 20.598C87.1049 19.9277 87.2192 19.2089 87.1836 18.4895C87.2145 17.8217 87.1131 17.1545 86.8853 16.5283C86.6576 15.9022 86.3084 15.3303 85.8589 14.8474C84.9703 13.939 83.6331 13.4834 81.8474 13.4805H78.2899V23.7984H81.4392Z" fill="#5865F2"/>
<path d="M112.254 28.5426C110.755 28.1749 109.321 27.5884 108 26.8028V22.0681C109.153 22.8891 110.452 23.4942 111.83 23.8528C113.337 24.303 114.903 24.5377 116.479 24.5496C117.023 24.578 117.567 24.4861 118.069 24.2806C118.427 24.1014 118.606 23.8732 118.606 23.6369C118.61 23.5048 118.586 23.3734 118.536 23.2508C118.486 23.1281 118.411 23.0168 118.315 22.9238C117.983 22.6735 117.592 22.507 117.179 22.4389L113.682 21.6688C111.678 21.2125 110.256 20.5809 109.415 19.7742C108.993 19.3574 108.664 18.8594 108.449 18.3115C108.234 17.7637 108.138 17.1781 108.167 16.5919C108.152 15.5296 108.548 14.5011 109.274 13.7112C110.134 12.82 111.22 12.1665 112.421 11.8166C113.966 11.3411 115.58 11.1141 117.199 11.1443C118.711 11.1304 120.219 11.3029 121.687 11.6577C122.872 11.9326 124.011 12.3746 125.067 12.9697V17.4517C124.077 16.8893 123.012 16.4629 121.903 16.1845C120.702 15.8692 119.463 15.7102 118.219 15.7118C116.393 15.7118 115.48 16.0161 115.48 16.6245C115.477 16.76 115.515 16.8934 115.589 17.0079C115.663 17.1224 115.77 17.213 115.897 17.2683C116.395 17.4759 116.918 17.6237 117.453 17.7084L120.367 18.2218C122.26 18.5477 123.671 19.1182 124.601 19.9331C125.53 20.748 125.996 21.9405 125.999 23.5105C126.014 24.3361 125.808 25.1512 125.401 25.8746C124.994 26.598 124.401 27.2045 123.681 27.634C122.146 28.6418 119.955 29.1443 117.108 29.1416C115.471 29.1441 113.84 28.9428 112.254 28.5426Z" fill="#5865F2"/>
<path d="M132.884 27.9321C131.37 27.2324 130.094 26.1003 129.215 24.6766C128.395 23.2806 127.975 21.6834 128.001 20.062C127.977 18.4416 128.419 16.8488 129.276 15.4759C130.188 14.0747 131.487 12.9716 133.014 12.3019C134.87 11.4884 136.88 11.094 138.904 11.1462C141.736 11.1462 144.086 11.7444 145.955 12.9408V18.1617C145.244 17.6809 144.468 17.3066 143.65 17.0508C142.734 16.7599 141.778 16.6157 140.818 16.6235C139.062 16.6235 137.688 16.9463 136.695 17.592C136.249 17.8424 135.877 18.2073 135.616 18.6495C135.356 19.0916 135.216 19.5953 135.212 20.1092C135.208 20.6231 135.34 21.129 135.593 21.5753C135.846 22.0216 136.213 22.3925 136.655 22.6501C137.618 23.3039 139.015 23.6308 140.846 23.6308C141.791 23.6331 142.732 23.496 143.637 23.2239C144.464 22.9856 145.257 22.6453 146 22.2106V27.2566C143.811 28.5404 141.312 29.191 138.779 29.1366C136.748 29.1923 134.732 28.7803 132.884 27.9321Z" fill="#5865F2"/>
<path d="M153.121 27.9503C151.562 27.2453 150.24 26.1127 149.311 24.6865C148.435 23.2901 147.981 21.6751 148.001 20.0315C147.973 18.4073 148.429 16.811 149.311 15.4417C150.245 14.0518 151.561 12.956 153.104 12.284C156.894 10.7608 161.134 10.7608 164.925 12.284C166.461 12.9509 167.772 14.0413 168.701 15.4254C169.577 16.7998 170.028 18.3981 169.999 20.0233C170.019 21.6653 169.569 23.2793 168.701 24.6783C167.782 26.1055 166.467 27.239 164.912 27.9421C163.049 28.7335 161.043 29.1416 159.016 29.1416C156.989 29.1416 154.984 28.7335 153.121 27.9421V27.9503ZM161.881 22.8832C162.237 22.519 162.514 22.0864 162.696 21.6122C162.877 21.1379 162.959 20.6319 162.935 20.1253C162.96 19.6234 162.879 19.1219 162.698 18.6527C162.516 18.1835 162.238 17.7569 161.881 17.4C161.493 17.0481 161.039 16.7768 160.543 16.6023C160.048 16.4278 159.523 16.3536 158.998 16.3842C158.473 16.3568 157.949 16.4325 157.454 16.6069C156.959 16.7812 156.504 17.0508 156.115 17.4C155.759 17.7577 155.482 18.1845 155.301 18.6536C155.121 19.1227 155.04 19.6238 155.065 20.1253C155.042 20.6316 155.123 21.1372 155.303 21.6113C155.484 22.0854 155.76 22.5182 156.115 22.8832C156.5 23.2395 156.954 23.5153 157.449 23.694C157.945 23.8728 158.471 23.9508 158.998 23.9236C159.525 23.9539 160.052 23.8773 160.548 23.6984C161.044 23.5195 161.497 23.2421 161.881 22.8832Z" fill="#5865F2"/>
<path d="M188 11.8656V18.372C187.122 17.8361 186.109 17.5747 185.087 17.62C183.52 17.62 182.309 18.1099 181.469 19.0811C180.628 20.0524 180.208 21.5608 180.208 23.6064V29.1416H173V11.5433H180.061V17.1301C180.453 15.0844 181.086 13.576 181.96 12.6048C182.384 12.1272 182.904 11.7492 183.485 11.497C184.065 11.2447 184.692 11.1242 185.323 11.1436C186.264 11.1174 187.194 11.3679 188 11.8656Z" fill="#5865F2"/>
<path d="M211 8.1416V28.5706H204.001V24.8415C203.473 26.1691 202.525 27.2902 201.3 28.0356C199.947 28.8012 198.408 29.1826 196.852 29.1381C195.387 29.172 193.945 28.7727 192.71 27.991C191.513 27.2189 190.56 26.1273 189.959 24.8415C189.304 23.4223 188.977 21.8751 189.004 20.3139C188.958 18.6953 189.305 17.0894 190.016 15.6322C190.67 14.2976 191.69 13.1735 192.958 12.3895C194.263 11.6047 195.764 11.2015 197.288 11.2262C200.618 11.2262 202.856 12.6638 204.001 15.539V8.1416H211ZM202.973 22.8148C203.33 22.4661 203.609 22.0474 203.794 21.5854C203.979 21.1234 204.065 20.6283 204.046 20.1315C204.061 19.6496 203.974 19.17 203.789 18.7242C203.604 18.2785 203.326 17.8767 202.973 17.5454C202.172 16.8979 201.171 16.5444 200.139 16.5444C199.106 16.5444 198.105 16.8979 197.305 17.5454C196.953 17.8844 196.677 18.293 196.495 18.7449C196.313 19.1967 196.229 19.6816 196.248 20.168C196.23 20.6589 196.316 21.1481 196.5 21.604C196.684 22.0599 196.962 22.4724 197.317 22.8148C197.692 23.161 198.132 23.4293 198.613 23.604C199.094 23.7787 199.605 23.8563 200.116 23.8322C200.637 23.8608 201.158 23.7855 201.648 23.6107C202.139 23.436 202.589 23.1654 202.973 22.8148Z" fill="#5865F2"/>
<path d="M44.896 3.49154C41.4139 1.90403 37.7378 0.77779 33.9617 0.141602C33.445 1.06144 32.9775 2.00782 32.5611 2.9768C28.5388 2.37324 24.4485 2.37324 20.4262 2.9768C20.0096 2.00792 19.5421 1.06155 19.0256 0.141602C15.2471 0.783162 11.5686 1.91207 8.08292 3.49984C1.16301 13.6949 -0.712875 23.6368 0.225066 33.4376C4.27754 36.4191 8.81342 38.6867 13.6355 40.1416C14.7213 38.6874 15.6821 37.1446 16.5077 35.5297C14.9396 34.9465 13.4261 34.227 11.9848 33.3795C12.3641 33.1055 12.7351 32.8232 13.0936 32.5492C17.2877 34.5133 21.8652 35.5316 26.4999 35.5316C31.1346 35.5316 35.7122 34.5133 39.9062 32.5492C40.2689 32.844 40.6399 33.1262 41.0151 33.3795C39.5709 34.2284 38.0546 34.9493 36.4838 35.5339C37.3083 37.148 38.2692 38.6895 39.3559 40.1416C44.1822 38.6925 48.7215 36.426 52.7747 33.4417C53.8753 22.076 50.8947 12.2255 44.896 3.49154ZM17.6958 27.4102C15.082 27.4102 12.9227 25.0482 12.9227 22.1424C12.9227 19.2367 15.007 16.8539 17.6874 16.8539C20.3679 16.8539 22.5105 19.2367 22.4647 22.1424C22.4188 25.0482 20.3595 27.4102 17.6958 27.4102ZM35.304 27.4102C32.6861 27.4102 30.5351 25.0482 30.5351 22.1424C30.5351 19.2367 32.6194 16.8539 35.304 16.8539C37.9886 16.8539 40.1146 19.2367 40.0688 22.1424C40.0229 25.0482 37.9678 27.4102 35.304 27.4102Z" fill="#5865F2"/>
<path d="M101.5 14.1416C103.433 14.1416 105 12.5746 105 10.6416C105 8.70861 103.433 7.1416 101.5 7.1416C99.567 7.1416 98 8.70861 98 10.6416C98 12.5746 99.567 14.1416 101.5 14.1416Z" fill="#5865F2"/>
<path d="M98 16.1416C99.1081 16.6111 100.298 16.8529 101.5 16.8529C102.702 16.8529 103.892 16.6111 105 16.1416V29.1416H98V16.1416Z" fill="#5865F2"/>
</svg>
