<svg width="26" height="27" viewBox="0 0 26 27" fill="none" xmlns="http://www.w3.org/2000/svg">
                                            <g clip-path="url(#clip0_3141_16325)">
                                                <path d="M12.4773 0.475586C12.9651 0.584766 13.4471 0.712354 13.8623 1.00308C14.6992 1.58833 15.1727 2.3748 15.2279 3.39106C15.2305 3.44121 15.237 3.49072 15.2454 3.58276C15.5198 3.58276 15.7923 3.59229 16.0628 3.57451C16.1179 3.5707 16.1802 3.47105 16.2152 3.40376C16.4942 2.8769 17.0346 2.60776 17.6366 2.70298C18.1854 2.78931 18.6155 3.21714 18.7057 3.76685C18.8056 4.37495 18.4501 4.97163 17.8643 5.18047C17.2506 5.39883 16.5616 5.16587 16.2658 4.59775C16.1549 4.38384 16.029 4.32607 15.8111 4.34385C15.6327 4.35845 15.4523 4.34702 15.2538 4.34702V6.86006C15.3433 6.8645 15.4264 6.87212 15.5101 6.87212C16.4163 6.87275 17.3226 6.86768 18.2288 6.87656C18.4539 6.87847 18.622 6.80864 18.7764 6.65059C19.1876 6.22974 19.6106 5.81904 20.0394 5.39375C19.8487 5.06304 19.7689 4.71074 19.8805 4.32988C20.079 3.65259 20.7809 3.25459 21.4796 3.42725C22.1711 3.598 22.6006 4.29688 22.4306 4.9748C22.2587 5.66162 21.5672 6.09517 20.8704 5.9314C20.6979 5.89077 20.6012 5.9333 20.4883 6.04629C20.09 6.44556 19.6787 6.83213 19.2811 7.23203C19.006 7.50879 18.6849 7.64209 18.2879 7.63765C17.3732 7.62813 16.4578 7.63447 15.5431 7.63447H15.2493V9.19981C15.3407 9.20361 15.4316 9.21123 15.5224 9.21123C16.7828 9.21187 18.0427 9.21694 19.3031 9.20869C19.6995 9.20615 20.0258 9.32803 20.2989 9.60796C20.5071 9.82251 20.7303 10.0225 20.9392 10.2364C21.1332 10.4351 21.1422 10.6655 20.9762 10.8204C20.8088 10.9765 20.6025 10.9683 20.4008 10.7816C20.1744 10.5728 19.9674 10.3437 19.7345 10.1431C19.6385 10.0605 19.4971 9.9812 19.3758 9.98057C18.029 9.96978 16.6829 9.97422 15.3362 9.97612C15.3122 9.97612 15.2882 9.98818 15.2506 9.99898V12.168C15.5406 12.168 15.8156 12.1813 16.0881 12.1591C16.1594 12.1534 16.2418 12.0493 16.284 11.9718C16.5824 11.4297 17.1935 11.1549 17.7936 11.3028C18.3677 11.4443 18.7874 11.968 18.7913 12.5469C18.7958 13.1334 18.378 13.6533 17.7806 13.8063C17.1825 13.9593 16.5584 13.673 16.2736 13.0992C16.2113 12.9741 16.149 12.9202 16.0057 12.9271C15.765 12.9392 15.5237 12.9303 15.2584 12.9303V15.7081H15.5243C16.6894 15.7081 17.8552 15.7062 19.0203 15.71C19.1877 15.71 19.2895 15.6852 19.3751 15.5075C19.6392 14.9603 20.2626 14.6905 20.8477 14.8334C21.4549 14.9813 21.8604 15.4808 21.8623 16.0826C21.8643 16.6831 21.4536 17.1959 20.8568 17.3388C20.2645 17.481 19.6463 17.2169 19.3777 16.6748C19.294 16.5066 19.2026 16.4653 19.0281 16.466C17.7767 16.4723 16.526 16.4691 15.2545 16.4691V18.9974C15.3213 19.0038 15.3868 19.0152 15.4523 19.0152C16.4364 19.0165 17.4205 19.0139 18.4046 19.0184C18.5487 19.019 18.6278 18.986 18.6966 18.8444C18.9768 18.2719 19.5866 18.0008 20.2068 18.15C20.7822 18.2884 21.1967 18.8064 21.2013 19.3922C21.2065 19.9959 20.7854 20.5126 20.1705 20.658C19.5769 20.7982 18.9814 20.5094 18.6823 19.9502C18.6434 19.8772 18.5448 19.7858 18.4728 19.7852C17.4199 19.7763 16.367 19.7813 15.3141 19.7839C15.2986 19.7839 15.2837 19.7959 15.2512 19.8093V21.8113C15.3693 21.8113 15.4854 21.8113 15.6022 21.8113C16.1289 21.8113 16.6551 21.812 17.1818 21.8113C17.5354 21.8113 17.8383 21.9256 18.0881 22.177C18.3287 22.4194 18.5817 22.6505 18.8198 22.8955C18.9269 23.006 19.0196 23.032 19.1799 22.9895C19.8928 22.8003 20.6025 23.2078 20.7939 23.8953C20.9846 24.5814 20.5733 25.2752 19.8584 25.4727C19.176 25.6612 18.452 25.2638 18.2541 24.5859C18.1685 24.2933 18.1679 23.9987 18.319 23.7226C18.3871 23.5976 18.3696 23.515 18.2619 23.4173C18.0213 23.1989 17.7994 22.9609 17.5594 22.7419C17.4809 22.6702 17.3725 22.5857 17.2765 22.5838C16.6064 22.5699 15.9356 22.5769 15.2344 22.5769C15.2344 22.8028 15.2344 23.0034 15.2344 23.204C15.2331 24.9566 14.2931 26.0884 12.5461 26.4407C12.5221 26.4458 12.5007 26.4629 12.4773 26.4743H11.752C11.2214 26.3543 10.7044 26.2084 10.2593 25.8764C9.88891 25.6002 9.5918 25.2702 9.36086 24.8747C9.31545 24.7973 9.19738 24.709 9.11629 24.7122C7.4134 24.7731 5.84545 23.4541 5.73776 21.6685C5.73711 21.6539 5.72479 21.6393 5.71117 21.6107C5.49514 21.6107 5.27263 21.6184 5.05142 21.6088C4.79128 21.5974 4.64856 21.4616 4.64273 21.2426C4.63689 21.0166 4.79063 20.8503 5.05985 20.8592C5.73517 20.8827 6.33134 20.6903 6.87497 20.3031C7.09034 20.1495 7.32453 20.1908 7.44843 20.366C7.57753 20.5494 7.52433 20.776 7.29599 20.9315C7.10591 21.061 6.90935 21.1874 6.70176 21.287C6.55385 21.3575 6.50325 21.4413 6.51622 21.5993C6.59861 22.5876 7.0884 23.3151 8.00439 23.722C8.90156 24.1206 9.7702 24.0019 10.5701 23.4357C10.6401 23.3862 10.7011 23.3259 10.7705 23.2751C10.9878 23.1158 11.2006 23.1221 11.3479 23.2884C11.5029 23.463 11.4854 23.6934 11.2545 23.8597C10.9509 24.0781 10.622 24.2622 10.3015 24.4577C10.2373 24.497 10.164 24.5218 10.0731 24.563C10.5843 25.3438 11.2947 25.7456 12.2224 25.7018C13.139 25.6586 13.8046 25.2022 14.2574 24.3529C14.055 24.3529 13.896 24.3567 13.7371 24.3523C13.5055 24.3459 13.3628 24.2317 13.3394 24.0019C13.3187 23.7886 13.4666 23.6223 13.7151 23.6033C13.946 23.5855 14.1795 23.5995 14.4351 23.5995V20.7722C13.933 20.797 13.4225 20.7811 12.9275 20.8585C12.4533 20.9334 12.1199 21.3797 12.0615 21.8532C12.0466 21.9751 12.0297 22.1357 11.9486 22.2017C11.8467 22.2849 11.6495 22.3534 11.5457 22.3096C11.4283 22.2595 11.3012 22.0824 11.294 21.9542C11.2447 21.0623 12.0297 20.1616 12.9483 20.0778C13.4342 20.0334 13.9278 20.0702 14.4377 20.0702V14.801H14.1276C12.2457 14.801 10.3644 14.801 8.48249 14.801C8.42216 14.801 8.36183 14.801 8.3015 14.801C7.95768 14.7984 7.76631 14.6575 7.77474 14.4138C7.78252 14.1795 7.97195 14.0405 8.29696 14.0399C9.56585 14.038 10.8347 14.0393 12.1036 14.0393C12.7939 14.0393 13.4848 14.0393 14.175 14.0393C14.2593 14.0393 14.343 14.0393 14.4423 14.0393V7.63447C14.3197 7.63447 14.21 7.63574 14.0997 7.63447C13.065 7.62241 12.0264 7.65479 10.9956 7.58369C10.0355 7.51704 9.26809 6.6106 9.2629 5.67051C9.2616 5.42105 9.3907 5.26362 9.60932 5.24649C9.83053 5.22998 9.98428 5.36074 10.031 5.60513C10.2139 6.56299 10.5973 6.87275 11.5989 6.87339C12.5383 6.87339 13.4776 6.87339 14.4371 6.87339V4.33433C14.2087 4.33433 13.9862 4.3394 13.7644 4.33306C13.499 4.32481 13.3343 4.17564 13.333 3.95601C13.3317 3.73638 13.4964 3.5834 13.7605 3.57515C13.983 3.56816 14.2055 3.57388 14.4248 3.57388C14.5324 2.58491 13.767 1.60801 12.6739 1.31094C11.6949 1.04497 10.5071 1.54263 10.1082 2.36592C10.4767 2.60015 10.8704 2.79883 11.2006 3.07114C11.9246 3.66719 12.2853 4.4543 12.3216 5.38106C12.3326 5.65908 12.1925 5.83491 11.9622 5.84888C11.7397 5.86221 11.5639 5.6959 11.5509 5.41978C11.5243 4.86943 11.3485 4.37749 10.9995 3.94585C10.4021 3.20571 9.27588 2.77534 8.15229 3.1689C7.25576 3.48247 6.53828 4.42319 6.51622 5.37725C6.51363 5.49531 6.52077 5.61401 6.52401 5.73272C6.53569 6.15864 6.36118 6.31289 5.94016 6.21577C5.42313 6.09644 4.92103 6.10786 4.41308 6.27417C3.15392 6.68677 2.39816 8.20322 2.88016 9.31406C3.37189 9.24234 3.85194 9.15728 4.33653 9.10586C4.66413 9.07095 4.84967 9.21567 4.86069 9.45435C4.87107 9.69175 4.69657 9.84536 4.37091 9.85933C3.29923 9.90376 2.39297 10.3062 1.68457 11.0933C0.0978014 12.8567 0.674512 15.5195 2.49741 16.5225C2.86913 16.2197 3.2149 15.9169 3.58402 15.6459C3.82599 15.4681 4.06796 15.5132 4.19381 15.7087C4.32161 15.9061 4.25349 16.1181 3.99595 16.2813C3.05661 16.8754 2.60964 17.7076 2.79258 18.8C2.84902 19.139 3.04234 19.457 3.18505 19.7794C3.22852 19.8778 3.3135 19.9584 3.37643 20.0499C3.50812 20.2403 3.48736 20.4206 3.31415 20.5716C3.15716 20.7087 2.92167 20.6802 2.76209 20.5018C2.37156 20.0664 2.12829 19.5579 2.01801 18.9898C1.9207 18.4909 1.93627 17.9919 2.10364 17.5121C2.17694 17.302 2.1244 17.2105 1.94924 17.088C0.447461 16.0286 -0.198663 14.5864 0.0530398 12.7932C0.227545 11.5491 0.890536 10.5747 1.9473 9.8606C2.01736 9.81299 2.08612 9.76284 2.16332 9.70889C1.78577 8.57012 1.92849 7.50816 2.69787 6.57441C3.46595 5.64258 4.49093 5.26934 5.65992 5.38486C5.79485 4.9418 5.8688 4.49048 6.06472 4.09819C6.66478 2.89722 7.68068 2.29229 9.04363 2.2542C9.17857 2.25039 9.27977 2.24468 9.35761 2.10249C9.84804 1.20938 10.6168 0.692041 11.6307 0.515576C11.6722 0.508594 11.7118 0.488916 11.752 0.475586C11.994 0.475586 12.2353 0.475586 12.4773 0.475586ZM21.1507 4.14644C20.86 4.14644 20.6064 4.39653 20.6096 4.68091C20.6129 4.96084 20.8484 5.19316 21.1358 5.19951C21.4316 5.20649 21.6878 4.96846 21.6924 4.68218C21.6969 4.40352 21.4374 4.14644 21.1507 4.1458V4.14644ZM17.4763 13.0757C17.7715 13.0712 18.0226 12.8186 18.0109 12.5374C17.9998 12.2638 17.7514 12.029 17.4705 12.0271C17.1734 12.0251 16.9275 12.2651 16.9288 12.5558C16.9301 12.8484 17.174 13.0801 17.4763 13.0751V13.0757ZM19.5153 24.7522C19.8169 24.7541 20.0576 24.5211 20.0563 24.2266C20.055 23.9467 19.8227 23.7131 19.5354 23.7036C19.2428 23.6934 18.9846 23.9327 18.9794 24.2196C18.9736 24.511 19.2142 24.7503 19.5153 24.7522ZM21.0826 16.08C21.0793 15.7918 20.8231 15.5506 20.5311 15.5602C20.2509 15.569 20.005 15.8115 20.0018 16.0826C19.9985 16.3619 20.2587 16.617 20.5467 16.6164C20.8399 16.6164 21.0864 16.3695 21.0832 16.08H21.0826ZM16.8711 3.97759C16.875 4.27085 17.1202 4.5 17.4225 4.49238C17.7079 4.4854 17.9479 4.24927 17.9512 3.97314C17.9538 3.69385 17.6943 3.44121 17.4063 3.44185C17.1105 3.44312 16.8672 3.68623 16.8711 3.97695V3.97759ZM20.4196 19.4068C20.4228 19.1193 20.1744 18.8717 19.8824 18.8717C19.5912 18.8717 19.3407 19.1206 19.3433 19.4062C19.3466 19.6842 19.5834 19.9185 19.8688 19.9254C20.164 19.9331 20.4157 19.6957 20.4189 19.4068H20.4196Z" fill="black" />
                                                <path d="M5.23511 11.8069C4.9367 11.8215 4.76933 11.7085 4.74663 11.4781C4.72198 11.2242 4.88026 11.0826 5.23317 11.0458C6.03109 10.9614 6.58834 10.458 6.70576 9.71532C6.84004 8.86727 6.19392 8.04208 5.32204 7.9475C5.27079 7.94178 5.2189 7.94305 5.167 7.93671C4.88091 7.9037 4.72911 7.75453 4.74533 7.52284C4.76155 7.29305 4.93541 7.168 5.22344 7.17943C6.4813 7.22894 7.49655 8.2579 7.50303 9.48998C7.51017 10.7189 6.5053 11.7453 5.23511 11.8069Z" fill="black" />
                                                <path d="M6.11523 16.8823C6.67508 16.8563 7.23687 16.8778 7.79801 16.8778C7.79801 16.8747 7.79801 16.8715 7.79801 16.8677" fill="black" />
                                                <path d="M9.93045 20.4447C9.88764 21.4933 9.1455 22.2436 8.09588 22.3382C7.82212 22.3629 7.6301 22.2303 7.60934 22.0018C7.58923 21.784 7.73454 21.6311 8.00052 21.5898C8.64599 21.4908 9.00149 21.207 9.11761 20.6986C9.25903 20.0784 8.86591 19.4862 8.21849 19.3497C8.1348 19.3319 8.04787 19.3281 7.96289 19.3142C7.73389 19.2767 7.59701 19.1237 7.60804 18.9193C7.61972 18.7092 7.79358 18.5607 8.02971 18.5601C8.94246 18.5582 9.7832 19.2894 9.89672 20.1825C9.9097 20.2828 9.92267 20.3831 9.93045 20.444V20.4447Z" fill="black" />
                                                <path d="M13.6726 11.2571C13.6759 12.1509 12.9324 12.9062 12.0333 12.9234C11.7745 12.9285 11.6142 12.8098 11.5909 12.5971C11.5669 12.3749 11.6882 12.2283 11.9425 12.1775C12.0268 12.1604 12.115 12.1604 12.1981 12.1401C12.6223 12.0347 12.9123 11.6481 12.8941 11.2178C12.8766 10.7925 12.549 10.4395 12.1085 10.3704C12.0404 10.3596 11.9717 10.3519 11.9049 10.3361C11.6759 10.2821 11.563 10.1279 11.5935 9.91396C11.622 9.71147 11.7777 9.59785 12.0229 9.60166C12.924 9.61562 13.67 10.364 13.6733 11.2578L13.6726 11.2571Z" fill="black" />
                                                <path d="M7.74908 12.6036C7.61415 12.5623 7.44743 12.5547 7.35337 12.4703C7.27033 12.396 7.2087 12.2132 7.24503 12.118C7.29044 11.9999 7.43186 11.8799 7.55836 11.838C7.86456 11.7358 8.20838 11.7244 8.49641 11.5924C9.14188 11.2966 9.50517 10.7716 9.59793 10.074C9.60701 10.0067 9.6161 9.94008 9.62453 9.8728C9.65761 9.61127 9.81201 9.45703 10.0287 9.46782C10.2577 9.47861 10.4088 9.65888 10.3985 9.93183C10.3796 10.4225 10.2479 10.8852 9.9677 11.294C9.44094 12.0615 8.71438 12.5071 7.74908 12.6036Z" fill="black" />
                                                <path d="M5.23004 14.7989C4.75517 14.818 4.2602 14.8008 3.8061 14.5406C3.14246 14.1604 2.80383 13.5878 2.74934 12.8464C2.73247 12.6147 2.88297 12.4376 3.0951 12.4141C3.31307 12.39 3.48304 12.5423 3.51936 12.7943C3.64262 13.6468 4.09997 14.0378 4.97704 14.0391C5.24431 14.0391 5.51158 14.0385 5.7782 14.0398C5.84697 14.0398 5.91703 14.0398 5.9832 14.055C6.19598 14.1026 6.32118 14.2365 6.30367 14.4511C6.2868 14.6618 6.15251 14.79 5.93 14.797C5.7062 14.804 5.48174 14.7989 5.22939 14.7989H5.23004Z" fill="black" />
                                                <path d="M9.19904 3.71338C9.2185 3.71465 9.29765 3.71021 9.3716 3.72798C9.56686 3.77686 9.65769 3.91777 9.64795 4.10439C9.63693 4.32148 9.4994 4.44717 9.28078 4.45605C8.69693 4.48018 8.35635 4.75503 8.26618 5.33267C8.2318 5.55039 8.02616 5.6748 7.83154 5.63926C7.60838 5.59863 7.48383 5.41201 7.51432 5.16445C7.61422 4.34624 8.29862 3.73623 9.19904 3.71338Z" fill="black" />
                                                <path d="M11.9513 16.8692C12.2017 16.8692 12.4521 16.8635 12.7019 16.8711C12.9601 16.8781 13.1119 17.0127 13.1229 17.2266C13.1339 17.445 12.9756 17.6189 12.7142 17.6253C12.1965 17.6373 11.6782 17.6379 11.1612 17.6253C10.8945 17.6189 10.746 17.4532 10.7564 17.2266C10.7667 17.0095 10.9127 16.8788 11.1748 16.8718C11.4336 16.8648 11.6925 16.8705 11.9513 16.8705V16.8692Z" fill="black" />
                                                <path d="M7.79876 16.8675C7.79876 16.8706 7.79876 16.8738 7.79876 16.8776C7.23762 16.8776 6.67583 16.8567 6.11599 16.8821C5.12734 16.9278 4.33785 17.7219 4.2866 18.688C4.27103 18.9857 4.38131 19.1469 4.61615 19.1704C4.85747 19.1945 5.00279 19.0625 5.05274 18.7743C5.19351 17.9599 5.59312 17.6298 6.44359 17.6292C7.44456 17.6286 8.44619 17.6305 9.44716 17.6279C9.77476 17.6273 9.95446 17.4876 9.95705 17.2483C9.95965 17.002 9.78903 16.8694 9.45624 16.8681C8.90353 16.8656 8.35147 16.8675 7.79876 16.8675ZM11.9506 16.8681C11.6917 16.8681 11.4322 16.8624 11.174 16.8694C10.9126 16.8764 10.766 17.0071 10.7556 17.2242C10.7452 17.4502 10.8938 17.6159 11.1604 17.6228C11.6781 17.6355 12.1964 17.6355 12.7135 17.6228C12.9749 17.6165 13.1332 17.4432 13.1222 17.2242C13.1111 17.0109 12.9587 16.8764 12.7011 16.8687C12.4507 16.8618 12.2003 16.8675 11.9506 16.8668V16.8681Z" fill="#231F20" />
                                                <path d="M25.1828 13.7064C25.1873 12.7448 24.3018 12.1189 23.4435 12.4166C23.2853 12.4712 23.1912 12.4464 23.0861 12.3322C22.9414 12.1754 22.7825 12.0319 22.6294 11.8827C22.3524 11.6136 22.1247 11.5723 21.9418 11.7571C21.7627 11.938 21.8107 12.157 22.0903 12.4305C22.2428 12.5797 22.3907 12.7346 22.5509 12.8761C22.6599 12.9733 22.6845 13.0583 22.632 13.2043C22.4465 13.7242 22.5613 14.1939 22.9713 14.5684C23.3819 14.9436 23.8756 15.0217 24.3874 14.8071C24.9019 14.5919 25.1639 14.185 25.1821 13.7064H25.1828ZM26.0001 18.1841C25.9956 17.4744 25.3949 16.8929 24.6735 16.9012C23.9482 16.9094 23.3547 17.4972 23.3592 18.2018C23.3644 18.9096 23.9625 19.4834 24.6917 19.479C25.4247 19.4745 26.0047 18.9007 26.0008 18.1841H26.0001ZM23.391 9.73279C24.1208 9.72898 24.7066 9.15134 24.7034 8.43914C24.7001 7.72883 24.1033 7.15183 23.378 7.15628C22.6508 7.16135 22.0585 7.7447 22.0624 8.45183C22.0663 9.16023 22.6644 9.7366 23.391 9.73279ZM22.9966 20.8831C22.2655 20.8812 21.6745 21.4525 21.6699 22.1647C21.666 22.868 22.2629 23.4564 22.9868 23.4615C23.7056 23.4666 24.3089 22.8807 24.3122 22.1736C24.3154 21.4626 23.7264 20.885 22.9959 20.8831H22.9966Z" fill="white" />
                                                <path d="M25.1819 13.7065C25.1637 14.1851 24.9017 14.592 24.3872 14.8072C23.8747 15.0218 23.3817 14.9437 22.9711 14.5685C22.5611 14.194 22.4469 13.7243 22.6318 13.2044C22.6837 13.0584 22.6597 12.9734 22.5507 12.8762C22.3911 12.7347 22.2426 12.5804 22.0901 12.4306C21.8105 12.1564 21.7625 11.9374 21.9416 11.7572C22.1251 11.5724 22.3522 11.6137 22.6292 11.8828C22.7823 12.032 22.9412 12.1755 23.0859 12.3323C23.1916 12.4465 23.2851 12.4719 23.4433 12.4167C24.3016 12.119 25.1871 12.7449 25.1826 13.7065H25.1819ZM24.4015 13.6189C24.397 13.3238 24.1543 13.0991 23.8501 13.1067C23.5621 13.1137 23.3272 13.346 23.3246 13.6246C23.3227 13.9116 23.5711 14.1515 23.8689 14.1496C24.1725 14.1477 24.406 13.9147 24.4015 13.6183V13.6189Z" fill="black" />
                                                <path d="M25.999 18.1843C26.0036 18.9003 25.423 19.4742 24.6899 19.4792C23.9614 19.4837 23.3626 18.9099 23.3575 18.2021C23.3523 17.4975 23.9465 16.9097 24.6718 16.9015C25.3938 16.8932 25.9945 17.474 25.9984 18.1843H25.999ZM24.6906 18.715C24.989 18.7105 25.2297 18.4668 25.2206 18.1773C25.2115 17.8993 24.9695 17.6695 24.6834 17.6683C24.3915 17.6663 24.1353 17.9145 24.1379 18.197C24.1405 18.4833 24.3922 18.7194 24.6906 18.715Z" fill="black" />
                                                <path d="M23.3891 9.73231C22.6626 9.73612 22.0645 9.15975 22.0606 8.45135C22.0567 7.74422 22.649 7.16087 23.3762 7.15579C24.1021 7.15072 24.6983 7.72835 24.7015 8.43866C24.7047 9.15086 24.119 9.7285 23.3891 9.73231ZM23.3788 8.96805C23.6772 8.96995 23.925 8.73065 23.923 8.44247C23.9211 8.15428 23.672 7.91751 23.3736 7.92196C23.0881 7.9264 22.8455 8.15936 22.8397 8.43421C22.8338 8.71859 23.0836 8.96615 23.3788 8.96805Z" fill="black" />
                                                <path d="M22.9959 20.8828C23.7257 20.8847 24.3154 21.463 24.3122 22.1733C24.3089 22.8804 23.7056 23.4663 22.9868 23.4612C22.2635 23.4562 21.666 22.8677 21.6699 22.1644C21.6738 21.4522 22.2655 20.8809 22.9966 20.8828H22.9959ZM23.5292 22.1739C23.5324 21.8807 23.2924 21.6458 22.9901 21.6471C22.6884 21.6477 22.4471 21.8851 22.451 22.1765C22.4549 22.4526 22.6943 22.6875 22.9791 22.6944C23.2742 22.7021 23.5259 22.464 23.5285 22.1746L23.5292 22.1739Z" fill="black" />
                                                <path d="M19.5164 24.7521C19.216 24.7502 18.9754 24.5109 18.9806 24.2195C18.9857 23.9326 19.2439 23.6933 19.5365 23.7034C19.8239 23.7136 20.0561 23.9466 20.0574 24.2265C20.0587 24.5204 19.818 24.754 19.5164 24.7521Z" fill="white" />
                                                <path d="M20.4194 19.4062C20.4161 19.6957 20.1644 19.9324 19.8692 19.9248C19.5838 19.9172 19.347 19.6836 19.3438 19.4056C19.3405 19.1199 19.5916 18.8711 19.8829 18.8711C20.1741 18.8711 20.4232 19.1187 20.42 19.4062H20.4194Z" fill="white" />
                                                <path d="M24.4011 13.6187C24.4057 13.9152 24.1721 14.1481 23.8685 14.15C23.5708 14.1519 23.3216 13.912 23.3242 13.6251C23.3262 13.3458 23.5617 13.1141 23.8497 13.1071C24.1546 13.0995 24.3966 13.3242 24.4011 13.6194V13.6187Z" fill="white" />
                                                <path d="M24.6914 18.7142C24.3923 18.7187 24.1406 18.4825 24.1387 18.1963C24.1367 17.9138 24.3923 17.6656 24.6843 17.6675C24.9697 17.6694 25.2123 17.8992 25.2214 18.1766C25.2305 18.466 24.9904 18.7098 24.6914 18.7142Z" fill="white" />
                                                <path d="M23.5288 22.1745C23.5262 22.4639 23.2738 22.702 22.9793 22.6943C22.6945 22.6874 22.4551 22.4525 22.4512 22.1764C22.4467 21.885 22.6887 21.6476 22.9903 21.647C23.2926 21.6463 23.5326 21.8806 23.5294 22.1738L23.5288 22.1745Z" fill="white" />
                                            </g>
                                            <defs>
                                                <clipPath id="clip0_3141_16325">
                                                    <rect width="26" height="26" fill="white" transform="translate(0 0.475586)" />
                                                </clipPath>
                                            </defs>
                                        </svg>