<svg width="162" height="41" viewBox="0 0 162 41" fill="none" xmlns="http://www.w3.org/2000/svg">
<path d="M0.5 34.7177H8.2957V25.198H19.4271V18.0019H8.2957V14.2915H20.8513V7.02051H0.5V34.7177Z" fill="black"/>
<path d="M85.6498 34.7167H94.5324L88.873 24.7098C92.3211 22.9482 93.6329 19.6875 93.6329 16.4268C93.6329 11.2172 90.3722 7.01953 83.1386 7.01953H71.0703V34.7167H78.866V26.059H81.2647L85.6498 34.7167ZM78.866 14.1031H83.0637C84.7128 14.1031 85.6123 15.265 85.6123 16.6892C85.6123 18.001 84.8627 19.3127 82.8763 19.3127H78.866V14.1031Z" fill="black"/>
<path d="M111.616 35.204C117.351 35.204 123.385 32.2806 123.385 23.6229V7.01953H115.514V23.6229C115.514 26.5837 113.603 27.7081 111.616 27.7081C109.592 27.7081 107.718 26.5837 107.718 23.6229V7.01953H99.8477V23.6229C99.8477 32.2806 105.919 35.204 111.616 35.204Z" fill="black"/>
<path d="M130.433 34.7167H138.078V22.7234L144.375 31.3811H147.411L153.707 22.7234V34.7167H161.428V7.01953H155.356L145.912 20.4371L136.429 7.01953H130.433V34.7167Z" fill="black"/>
<path d="M45.0547 0.810547C34.0282 0.810547 25.0547 9.78408 25.0547 20.8105C25.0547 31.837 34.0282 40.8105 45.0547 40.8105C56.0812 40.8105 65.0547 31.837 65.0547 20.8105C65.0547 9.78408 56.0841 0.810547 45.0547 0.810547ZM53.7547 20.8105C53.7547 25.6076 49.8517 29.5105 45.0547 29.5105C40.2576 29.5105 36.3547 25.6076 36.3547 20.8105C36.3547 16.0135 40.2576 12.1105 45.0547 12.1105C49.8517 12.1105 53.7547 16.0135 53.7547 20.8105ZM42.1753 35.3635C43.1076 35.5488 44.0694 35.6458 45.0547 35.6458C46.04 35.6458 47.0017 35.5458 47.9341 35.3635L47.9606 35.3841L45.0547 40.4194L42.1459 35.3841L42.1723 35.3635H42.1753ZM59.0959 16.0341C58.4635 14.1811 57.4753 12.4958 56.2135 11.0517L56.2194 11.0047H62.04L59.1282 16.0458L59.0959 16.0311V16.0341ZM55.9253 10.7341C54.6194 9.32525 53.0429 8.17231 51.2782 7.35172L51.2665 7.31349L56.5782 4.94878L55.9694 10.7311H55.9253V10.7341ZM51.1812 7.05466L49.4017 1.57525C51.9723 2.15466 54.3517 3.23996 56.4341 4.71643L51.1812 7.05466ZM50.9312 7.16643L50.8988 7.18113C49.1635 6.43408 47.2606 6.01349 45.2635 5.98408L45.24 5.95761L49.1341 1.63408L50.9312 7.16643ZM44.8488 5.98408C42.8488 6.01055 40.9459 6.43408 39.2106 7.18113L39.1782 7.16643L40.9782 1.63114L44.8723 5.95761L44.8488 5.98408ZM38.9282 7.05466L33.6753 4.71643C35.7576 3.23996 38.14 2.15466 40.7106 1.57525L38.9312 7.05466H38.9282ZM38.8429 7.31643L38.8312 7.35172C37.0694 8.16937 35.4929 9.32525 34.1841 10.7341H34.137L33.5282 4.95172L38.84 7.31643H38.8429ZM33.8988 11.0547C32.637 12.4958 31.6488 14.1841 31.0165 16.0341L30.9841 16.0488L28.0753 11.0076H33.8929L33.8988 11.0547ZM30.7341 16.1605L25.4694 18.5017C25.7782 15.8664 26.6076 13.387 27.8547 11.1723L30.7341 16.1576V16.1605ZM30.8723 16.3988L30.887 16.4223C30.4547 17.8105 30.2223 19.287 30.2223 20.8135C30.2223 21.2664 30.2459 21.7164 30.287 22.1605L30.2635 22.187L25.5517 18.7635L30.8694 16.3958L30.8723 16.3988ZM30.3312 22.5753C30.5635 24.54 31.1841 26.39 32.1106 28.0458L32.0988 28.0841L26.4106 26.8753L30.3017 22.5547L30.3312 22.5753ZM32.0135 28.3458L30.237 33.8135C28.5459 31.887 27.2223 29.6282 26.3812 27.1488L32.0135 28.3458ZM32.2841 28.4017L32.3223 28.4105C33.3194 30.0753 34.6282 31.5282 36.1723 32.687V32.7253L30.4841 33.9341L32.2812 28.4017H32.2841ZM36.5194 32.9311C38.0782 34.0341 39.8576 34.8429 41.7782 35.2782L41.7959 35.3105L37.087 38.7311L36.4782 32.9429L36.5194 32.9341V32.9311ZM41.9312 35.5458L44.8106 40.5341C42.137 40.5017 39.587 39.9341 37.2694 38.9341L41.9312 35.5458ZM48.19 35.5458L52.8517 38.9341C50.5312 39.9341 47.9841 40.5017 45.3106 40.5341L48.19 35.5458ZM48.3282 35.3076L48.3459 35.2753C50.2635 34.84 52.0429 34.0311 53.6017 32.9311L53.6429 32.94L53.0341 38.7282L48.3282 35.3076ZM53.9459 32.6841C55.4929 31.5253 56.8017 30.0694 57.7988 28.4047L57.837 28.3958L59.6341 33.9311L53.94 32.7194V32.6811L53.9459 32.6841ZM58.1106 28.34L63.7459 27.1429C62.9017 29.6223 61.5812 31.8811 59.887 33.8105L58.1106 28.3429V28.34ZM58.0253 28.0782L58.0135 28.04C58.94 26.3841 59.5606 24.537 59.7929 22.5694L59.8223 22.5488L63.7135 26.8694L58.0253 28.0782ZM59.837 22.1547C59.8782 21.7105 59.9017 21.2635 59.9017 20.8105C59.9017 19.2841 59.6694 17.8076 59.237 16.4194L59.2517 16.3958L64.5694 18.7635L59.8635 22.1841L59.84 22.1576L59.837 22.1547ZM59.39 16.1576L62.2694 11.1694C63.5164 13.3841 64.3459 15.8635 64.6547 18.5017L59.39 16.1576ZM62.0164 10.7311H56.2576L56.8606 5.00466C58.9312 6.55466 60.687 8.50172 62.0164 10.7311ZM48.9165 1.46643L45.0576 5.75172L41.1959 1.46643C42.4459 1.21643 43.7341 1.08408 45.0547 1.08408C46.3753 1.08408 47.6665 1.21643 48.9135 1.46643H48.9165ZM33.2606 5.00761L33.8635 10.7311H28.1076C29.437 8.50172 31.1929 6.55466 33.2635 5.00761H33.2606ZM25.4135 19.0017L30.0753 22.39L26.2165 26.6753C25.64 24.8223 25.3282 22.8547 25.3282 20.8135C25.3282 20.2017 25.3606 19.5988 25.4135 19.0017ZM30.5753 34.1929L36.2017 32.9958L36.8047 38.7253C34.44 37.6311 32.3253 36.0841 30.5753 34.1929ZM53.3047 38.7282L53.9076 32.9988L59.537 34.1958C57.787 36.087 55.6723 37.6341 53.3076 38.7282H53.3047ZM63.8959 26.6753L60.037 22.39L64.6988 19.0047C64.7547 19.6017 64.7841 20.2047 64.7841 20.8164C64.7841 22.8576 64.4723 24.8252 63.8959 26.6782V26.6753Z" fill="#010000"/>
<circle cx="45.0554" cy="20.8103" r="8.86986" fill="black"/>
<circle cx="45.0557" cy="20.8096" r="7.11039" fill="white"/>
</svg>
