<svg width="31" height="21" viewBox="0 0 31 21" fill="none" xmlns="http://www.w3.org/2000/svg">
                                            <path d="M0.986328 14.2504C1.05676 13.9043 1.08963 13.5469 1.20389 13.2151C1.6218 12.0014 2.05848 10.7945 2.50221 9.58904C3.17994 7.75056 3.86784 5.91508 4.55574 4.0796C5.42521 1.7609 7.53274 0.335215 10.0989 0.333717C14.0236 0.331469 17.9483 0.331469 21.873 0.333717C24.4274 0.335215 26.5435 1.7609 27.4052 4.05637C28.0078 5.66336 28.6065 7.27109 29.2067 8.87882C29.2325 8.94924 29.2638 9.01892 29.2779 9.09159C29.3218 9.32083 29.2498 9.50213 29.0111 9.58979C28.7849 9.67295 28.5579 9.5793 28.4609 9.35005C28.3326 9.04813 28.2246 8.73722 28.1103 8.43006C27.6047 7.07705 27.1031 5.72329 26.5936 4.37178C25.8369 2.36324 24.0838 1.17354 21.8613 1.1713C17.9459 1.1668 14.0314 1.1668 10.1161 1.1713C7.89117 1.17354 6.13111 2.36024 5.37825 4.36428C4.33975 7.12949 3.31142 9.89845 2.27761 12.6659C1.79788 13.9515 1.72432 15.2543 2.09214 16.5766C2.11953 16.674 2.14692 16.7819 2.1297 16.8778C2.09135 17.0905 1.92466 17.1947 1.71414 17.2097C1.4911 17.2261 1.33302 17.113 1.28371 16.9055C1.1765 16.4522 1.08415 15.9952 0.986328 15.5397C0.986328 15.1097 0.986328 14.6797 0.986328 14.2497L0.986328 14.2504Z" fill="black" />
                                            <path d="M30.1023 14.7553C30.1093 14.0405 29.9145 13.2359 29.6124 12.45C29.448 12.0208 29.2821 11.5922 29.1295 11.1592C29.0395 10.9045 29.146 10.6842 29.3729 10.6033C29.6092 10.5187 29.8511 10.6078 29.9364 10.8618C30.2635 11.8365 30.6759 12.7999 30.8661 13.8001C31.237 15.7554 30.7409 17.5714 29.5326 19.1836C28.3892 20.7097 26.025 20.7097 24.8558 19.1941C23.836 17.8718 22.8351 16.5353 21.8537 15.186C21.41 14.5762 20.8457 14.3087 20.0741 14.3132C17.3405 14.3297 14.6069 14.329 11.8741 14.3132C11.1126 14.3087 10.557 14.5792 10.1211 15.1793C9.1796 16.4746 8.20684 17.7497 7.24346 19.0315C5.88566 20.8378 3.39936 20.7457 2.19025 18.8465C2.03373 18.6008 2.06581 18.3625 2.27242 18.2262C2.48841 18.0846 2.75058 18.1415 2.92119 18.3933C3.17475 18.7678 3.46431 19.1005 3.89787 19.293C4.8229 19.7043 5.84183 19.4496 6.46635 18.627C7.45868 17.3197 8.45101 16.0124 9.41595 14.6863C10.0201 13.8555 10.8191 13.4719 11.8717 13.4779C14.6147 13.4929 17.3585 13.4921 20.1015 13.4779C21.1416 13.4727 21.9382 13.8458 22.5385 14.6676C23.5167 16.0071 24.5138 17.3347 25.5241 18.6517C26.4084 19.8047 28.0879 19.7642 28.9112 18.5701C29.189 18.1678 29.4253 17.7317 29.6226 17.2875C29.9614 16.5233 30.1062 15.7142 30.1023 14.7545V14.7553Z" fill="black" />
                                            <path d="M10.7093 6.52262C10.7093 6.78408 10.7125 7.00659 10.7093 7.22984C10.7007 7.73404 10.4088 8.0367 9.8837 8.05843C9.50414 8.07416 9.12223 8.07341 8.74189 8.05843C8.21755 8.03745 7.92173 7.73703 7.90843 7.23359C7.90217 7.01033 7.90764 6.78708 7.90764 6.52412C7.64469 6.52412 7.40365 6.52936 7.1634 6.52337C6.62341 6.50913 6.32132 6.21321 6.31585 5.69403C6.31272 5.33892 6.30959 4.98381 6.31741 4.62945C6.32759 4.18519 6.61558 3.89002 7.07575 3.86155C7.33635 3.84507 7.5993 3.85855 7.90764 3.85855C7.90764 3.61057 7.90451 3.39107 7.90764 3.17156C7.91782 2.62541 8.22851 2.32649 8.80137 2.3175C9.15275 2.31225 9.50414 2.30926 9.85552 2.31825C10.3932 2.33173 10.7007 2.6359 10.7086 3.15058C10.7125 3.37308 10.7086 3.59559 10.7086 3.85181C10.9551 3.85181 11.1773 3.84806 11.3996 3.85181C12.0061 3.86305 12.2964 4.14024 12.3011 4.71411C12.3043 5.05948 12.3074 5.4056 12.2988 5.75097C12.287 6.21096 11.9912 6.50014 11.5131 6.51962C11.2611 6.53011 11.0083 6.52112 10.7086 6.52112L10.7093 6.52262ZM11.4105 4.68489C11.1022 4.68489 10.8111 4.68714 10.5207 4.68489C10.0238 4.67965 9.83596 4.4961 9.83361 4.01813C9.83205 3.73344 9.83361 3.44875 9.83361 3.17605H8.78259C8.78259 3.47647 8.78415 3.75516 8.78259 4.03461C8.77946 4.49685 8.5932 4.6789 8.11268 4.68564C7.81295 4.68939 7.51243 4.68564 7.20879 4.68564V5.65657C7.24322 5.67006 7.26044 5.68204 7.27766 5.68204C7.56017 5.68579 7.84347 5.68504 8.12599 5.69029C8.58459 5.69928 8.77867 5.88807 8.78259 6.32933C8.78493 6.62301 8.78259 6.91744 8.78259 7.20662H9.83361C9.83361 6.91669 9.83283 6.64698 9.83361 6.37653C9.83518 5.87009 10.0238 5.69178 10.5622 5.68879C10.8416 5.68729 11.121 5.68879 11.4105 5.68879V4.68489Z" fill="black" />
                                            <path d="M19.5225 12.6363C18.0934 12.6303 16.9352 11.5155 16.9454 10.155C16.9556 8.79 18.1193 7.68572 19.5436 7.68946C20.9617 7.69321 22.1309 8.81997 22.123 10.176C22.116 11.5402 20.9507 12.6423 19.5217 12.637L19.5225 12.6363ZM19.5358 11.8009C20.4811 11.7994 21.2504 11.0645 21.2489 10.1625C21.2473 9.26348 20.4718 8.52629 19.5303 8.52779C18.5873 8.52929 17.8141 9.26947 17.8172 10.1677C17.8203 11.0697 18.5912 11.8017 19.5366 11.8002L19.5358 11.8009Z" fill="black" />
                                            <path d="M12.9427 12.6846C12.614 12.6067 12.279 12.5475 11.959 12.4464C11.6498 12.3482 11.5317 12.1212 11.6209 11.8912C11.7171 11.6425 11.9574 11.5623 12.2751 11.6732C13.2925 12.0291 14.3067 11.5773 14.5893 10.6251C14.7818 9.97409 14.6143 9.39423 14.0853 8.94547C13.5476 8.48997 12.9161 8.39333 12.2587 8.67427C11.6146 8.94922 11.2797 9.45117 11.2405 10.1269C11.2343 10.2288 11.2499 10.3322 11.2507 10.4348C11.2507 10.6881 11.1028 10.8611 10.8688 10.8843C10.6356 10.9076 10.4431 10.7705 10.3969 10.5202C10.2983 9.98533 10.4094 9.47814 10.6716 9.00316C11.257 7.94158 12.5889 7.43438 13.7722 7.81572C14.9743 8.20304 15.7076 9.371 15.5065 10.5764C15.31 11.7534 14.2175 12.6367 12.945 12.6854L12.9427 12.6846Z" fill="black" />
                                            <path d="M14.2793 4.68299C14.2809 3.78023 15.0494 3.04229 15.9901 3.04004C16.9299 3.0378 17.7016 3.77274 17.7086 4.67699C17.7165 5.58724 16.9299 6.34166 15.9814 6.33417C15.0423 6.32743 14.2777 5.58574 14.2793 4.68224V4.68299ZM16.8298 4.69497C16.8345 4.25895 16.4549 3.88736 16.0002 3.88287C15.5448 3.87837 15.1628 4.24022 15.1589 4.67999C15.1558 5.12126 15.5275 5.48835 15.9846 5.4936C16.4346 5.49884 16.8251 5.13025 16.8298 4.69497Z" fill="black" />
                                            <path d="M22.6295 4.35171C22.2452 4.35021 21.9212 4.04455 21.9142 3.6767C21.9071 3.30211 22.2436 2.97847 22.6373 2.98147C23.0223 2.98371 23.3448 3.28863 23.3518 3.65647C23.3596 4.03256 23.0262 4.35396 22.6295 4.35171Z" fill="black" />
                                            <path d="M21.7502 5.20807C21.7424 5.57816 21.42 5.88383 21.0373 5.88383C20.6437 5.88383 20.3126 5.55943 20.3204 5.18185C20.3283 4.814 20.6523 4.50834 21.0357 4.50684C21.4302 4.50534 21.7589 4.82749 21.751 5.20807H21.7502Z" fill="black" />
                                            <path d="M22.6462 7.40706C22.251 7.41305 21.9145 7.0969 21.916 6.72006C21.9168 6.35297 22.2361 6.0473 22.6235 6.04206C23.025 6.03681 23.3568 6.34772 23.3536 6.72605C23.3505 7.09315 23.0312 7.40106 22.647 7.40706H22.6462Z" fill="black" />
                                            <path d="M23.5176 5.18689C23.5207 4.8153 23.8377 4.50964 24.2227 4.50589C24.6164 4.50215 24.949 4.82279 24.9443 5.20188C24.9396 5.56972 24.6195 5.87763 24.236 5.88288C23.8416 5.88812 23.5137 5.57122 23.5176 5.18689Z" fill="black" />
                                        </svg>