<svg width="102" height="103" viewBox="0 0 102 103" fill="none" xmlns="http://www.w3.org/2000/svg">
<path d="M102 52.899C102 39.0033 96.6265 25.6767 87.0614 15.8507C77.4964 6.02474 64.5233 0.504169 50.9959 0.503418C37.4697 0.505672 24.4983 6.02699 14.9349 15.8529C5.37146 25.6788 -0.000731644 39.0045 7.4738e-08 52.899C0.000967718 63.8085 3.31541 74.446 9.48141 83.3286C15.6474 92.2113 24.3576 98.8965 34.3981 102.452C35.1148 102.075 35.7295 101.521 36.1876 100.84C36.6457 100.159 36.9332 99.3728 37.0242 98.5506C37.0242 95.6688 36.9634 88.2562 36.9634 88.2562C35.1845 88.5257 33.3881 88.6555 31.5899 88.6444C29.0468 88.8075 26.5226 88.102 24.4106 86.6377C22.2985 85.1734 20.7174 83.0326 19.9134 80.5489C18.8045 77.6376 16.7903 75.1841 14.184 73.5698C12.8654 72.6971 12.5621 71.6685 14.0875 71.3738C21.1354 70.0194 22.9367 79.5373 27.6426 81.0561C30.8975 82.0976 34.4179 81.8093 37.471 80.2514C37.9035 77.544 39.3563 75.1203 41.515 73.5047C29.546 72.3287 22.4483 68.0812 18.7685 61.2552L18.374 60.4901L17.4501 58.3224L17.1741 57.546C15.9937 53.7101 15.4347 49.7011 15.5191 45.679C15.4054 42.911 15.846 40.1485 16.8135 37.5624C17.7809 34.9763 19.2547 32.6216 21.1436 30.6441C19.6004 25.6709 19.916 20.2854 22.0291 15.5383C22.0291 15.5383 27.2095 14.4418 37.0048 21.605C42.3121 19.2815 56.4658 19.0888 63.1634 21.0893C67.2707 18.3124 74.7904 14.3766 77.822 15.4788C78.6495 16.8304 80.4121 20.7663 78.8949 29.4172C83.1794 34.1085 85.4814 40.3515 85.2975 46.7813C85.2857 50.4116 84.8456 54.0272 83.9871 57.5488L83.5458 59.0875C83.5458 59.0875 83.2919 59.8129 83.0188 60.5042L82.6963 61.2693C79.1461 69.2373 71.8609 72.2126 60.0767 73.4537C63.8917 75.9075 64.984 78.9848 64.984 87.3127C64.984 95.6405 64.8764 96.757 64.9012 98.6724C65.0119 99.4661 65.297 100.223 65.7348 100.887C66.1725 101.551 66.7515 102.104 67.428 102.503C77.509 98.9748 86.2626 92.2948 92.4623 83.3994C98.6619 74.504 101.997 63.839 102 52.899Z" fill="url(#paint0_linear_3387_16213)"/>
<defs>
<linearGradient id="paint0_linear_3387_16213" x1="-5" y1="35" x2="109" y2="102.503" gradientUnits="userSpaceOnUse">
<stop stop-color="#47D1D5"/>
<stop offset="1" stop-color="#42C3C7"/>
</linearGradient>
</defs>
</svg>
