<svg width="185" height="48" viewBox="0 0 185 48" fill="none" xmlns="http://www.w3.org/2000/svg">
<path d="M60.519 41.6143V16.9575H68.815V41.6143H60.519ZM64.717 14.9524C63.318 14.9524 62.235 14.6016 61.469 13.8999C60.736 13.1984 60.369 12.2629 60.369 11.0934C60.369 9.99092 60.736 9.05542 61.468 8.28692C62.235 7.51852 63.317 7.13432 64.717 7.13432C66.116 7.13432 67.182 7.51852 67.915 8.28692C68.682 9.05542 69.065 9.99092 69.065 11.0934C69.065 12.2629 68.682 13.1984 67.915 13.8999C67.182 14.6016 66.116 14.9524 64.717 14.9524ZM81.193 42.1162C78.794 42.1162 76.978 41.4813 75.745 40.2114C74.546 38.9086 73.946 37.1044 73.946 34.799V23.1219H70.648V16.9571H73.946V10.9431H82.242V16.9575H87.64V23.1211H82.242V33.5956C82.242 34.3642 82.392 34.9155 82.692 35.2495C83.025 35.5503 83.525 35.7007 84.191 35.7007C85.09 35.7007 86.073 35.2997 87.139 34.4978L89.039 39.9607C88.073 40.6299 86.973 41.1644 85.74 41.5643C84.508 41.9324 82.992 42.1162 81.193 42.1162ZM101.598 42.1162C97.799 42.1162 94.801 41.0304 92.602 38.8587C90.437 36.6868 89.354 33.5293 89.354 29.3863C89.354 26.3793 89.97 23.8568 91.203 21.8186C92.469 19.7139 94.052 18.2939 95.952 17.5586C97.951 16.7902 99.8 16.406 101.5 16.406C103.632 16.406 105.415 16.8403 106.848 17.7089C108.281 18.5443 109.33 19.4631 109.996 20.4655C110.697 21.4676 111.197 22.2528 111.495 22.821L105.749 26.5296C105.217 25.4271 104.634 24.5583 104 23.9234C103.368 23.2887 102.602 22.9713 101.703 22.9713C100.437 22.9713 99.437 23.4724 98.705 24.4745C97.972 25.477 97.606 26.9973 97.606 29.0355C97.606 31.2405 98.039 32.8609 98.905 33.8965C99.771 34.9325 101.004 35.4505 102.604 35.4505C103.87 35.4505 104.919 35.2163 105.752 34.7478C106.618 34.2794 107.434 33.6779 108.201 32.9434L110.85 39.1572C110.05 39.8248 108.867 40.4932 107.302 41.1624C105.736 41.7965 103.837 42.1135 101.604 42.1135L101.598 42.1162ZM113.668 41.6143V8.13642H122.014V18.3102C122.714 17.809 123.563 17.3747 124.563 17.0073C125.562 16.6062 126.762 16.4057 128.161 16.4057C131.093 16.4057 133.275 17.2414 134.708 18.9127C136.174 20.5841 136.907 22.9397 136.907 25.9797V41.6169H128.561V26.9811C128.561 25.579 128.295 24.5601 127.763 23.9244C127.23 23.2568 126.531 22.923 125.663 22.923C124.931 22.923 124.247 23.0903 123.614 23.4249C122.981 23.7595 122.448 24.1108 122.014 24.4788V41.6193H113.669L113.668 41.6143ZM143.315 42.1162C141.982 42.1162 140.932 41.732 140.166 40.9635C139.4 40.1951 139.017 39.2095 139.017 38.0067C139.017 36.8038 139.4 35.8015 140.166 34.9997C140.932 34.1978 141.982 33.7969 143.314 33.7969C144.581 33.7969 145.597 34.1978 146.363 34.9997C147.131 35.8016 147.514 36.804 147.514 38.0067C147.514 39.2096 147.131 40.1952 146.366 40.9635C145.633 41.732 144.617 42.1162 143.317 42.1162H143.315ZM149.451 41.6143V16.9575H157.747V41.6143H149.451ZM153.648 14.9572C152.248 14.9572 151.166 14.6063 150.399 13.9047C149.667 13.203 149.3 12.2675 149.3 11.0982C149.3 9.99562 149.667 9.06012 150.399 8.29172C151.166 7.52332 152.248 7.13912 153.648 7.13912C155.047 7.13912 156.113 7.52332 156.846 8.29172C157.613 9.06012 157.996 9.99562 157.996 11.0982C157.996 12.2677 157.613 13.2031 156.846 13.9047C156.113 14.6063 155.047 14.9572 153.648 14.9572ZM172.396 42.1162C170.464 42.1162 168.748 41.7988 167.249 41.164C165.75 40.4958 164.467 39.5937 163.401 38.4577C162.368 37.2882 161.568 35.9183 161.002 34.348C160.469 32.7442 160.202 31.0067 160.202 29.1356C160.202 26.3627 160.802 23.9404 162.002 21.8688C163.234 19.8307 164.767 18.4107 166.599 17.6088C168.465 16.8069 170.397 16.406 172.396 16.406C175.261 16.406 177.626 17.0742 179.491 18.4106C181.389 19.7471 182.722 21.4176 183.49 23.4223C184.256 25.4269 184.638 27.3314 184.638 29.1356C184.638 31.0066 184.355 32.744 183.788 34.348C183.255 35.9182 182.456 37.288 181.388 38.4575C180.355 39.5935 179.072 40.4961 177.539 41.1652C176.04 41.8009 174.324 42.1188 172.391 42.1188L172.396 42.1162ZM172.396 35.7012C173.796 35.7012 174.812 35.1164 175.445 33.947C176.078 32.744 176.394 31.1404 176.394 29.1361C176.394 27.2315 176.061 25.7112 175.395 24.5752C174.729 23.4392 173.73 22.8711 172.397 22.8711C171.097 22.8711 170.114 23.4392 169.449 24.5752C168.783 25.7112 168.45 27.2314 168.45 29.1358C168.45 31.1405 168.767 32.7441 169.401 33.9467C170.068 35.1162 171.068 35.7009 172.399 35.7009L172.396 35.7012Z" fill="#F7565C"/>
<path d="M6.8701 0.294012C4.5718 1.66241 0.0434 6.87981 0 8.24811V10.5132C0 13.3845 2.6763 15.9077 5.1057 15.9077C8.0226 15.9077 10.4534 13.4829 10.4539 10.6052C10.4539 13.4827 12.8013 15.9077 15.719 15.9077C18.6365 15.9077 20.9085 13.4829 20.9085 10.6052C20.9085 13.4827 23.4037 15.9077 26.3207 15.9077H26.3731C29.2901 15.9077 31.7876 13.4829 31.7876 10.6052C31.7876 13.4827 34.0588 15.9077 36.9757 15.9077C39.8927 15.9077 42.2401 13.4829 42.2401 10.6052C42.2401 13.4827 44.671 15.9077 47.588 15.9077C50.016 15.9077 52.693 13.3847 52.693 10.5132V8.24811C52.647 6.87981 48.119 1.66241 45.822 0.294012C38.6797 0.0423123 33.7251 -0.000886394 26.3445 1.3606e-05C18.9665 0.000513606 8.9029 0.115912 6.8701 0.294012ZM20.8718 14.5555C20.5928 15.0431 20.2473 15.4892 19.8452 15.881C18.7038 17.0036 17.1685 17.6318 15.5698 17.6304C13.9052 17.6304 12.3869 16.9612 11.2859 15.8805C10.8879 15.4885 10.5852 15.0693 10.3064 14.5813C10.03 15.0702 9.6415 15.49 9.2435 15.8824C8.0992 17.0048 6.5617 17.6326 4.961 17.6311C4.7608 17.6311 4.5535 17.5761 4.3843 17.5188C4.1507 19.9684 4.0506 22.3081 4.0163 24.0169V24.0265C4.0116 24.894 4.008 25.6062 4.0034 26.5956C4.0487 31.7363 3.4958 43.2533 6.2627 46.0829C10.55 47.0867 18.4391 47.5432 26.355 47.5456C34.2704 47.5432 42.1607 47.0867 46.448 46.0853C49.215 43.2552 48.662 31.7382 48.707 26.5992C48.703 25.6098 48.699 24.8971 48.695 24.0301V24.0205C48.659 22.3136 48.56 19.9732 48.325 17.524C48.156 17.5814 47.947 17.6371 47.746 17.6371C46.145 17.6386 44.607 17.0109 43.4624 15.8886C43.0632 15.4955 42.676 15.0767 42.3988 14.5885L42.3976 14.5868C42.1195 15.0744 41.8166 15.4943 41.4174 15.886C40.3164 16.9662 38.7984 17.6354 37.1342 17.6354C35.4701 17.6354 33.9599 16.9662 32.8588 15.886C32.457 15.4939 32.1113 15.0479 31.8317 14.5605C31.556 15.0476 31.2138 15.4937 30.8151 15.886C29.6701 17.0091 28.1317 17.6371 26.5302 17.6354C26.472 17.6354 26.4134 17.633 26.3562 17.6306H26.3543C26.2964 17.633 26.2385 17.6354 26.1803 17.6354C24.5154 17.6354 22.9971 16.9662 21.8959 15.886C21.4968 15.494 21.1543 15.048 20.8783 14.561L20.8718 14.5555ZM16.4721 20.2609L16.4716 20.2628H16.4764C18.2184 20.2667 19.7675 20.2628 21.6835 22.3619C23.1945 22.2035 24.7697 22.1239 26.3497 22.1265H26.3521C27.9322 22.1241 29.5074 22.2054 31.0183 22.3631C32.9368 20.2648 34.4834 20.2695 36.2255 20.2648H36.2303V20.2624C37.0548 20.2624 40.346 20.2624 42.6409 26.7247L45.107 35.5912C46.934 42.1874 44.522 42.3499 41.5149 42.3547C37.0537 42.1898 34.5847 38.9395 34.5847 35.6916C32.1158 36.0979 29.2345 36.301 26.3545 36.301H26.3533C23.473 36.301 20.5928 36.0979 18.1243 35.6916C18.1243 38.9395 15.6554 42.1874 11.1946 42.3547C8.1871 42.3499 5.7753 42.1874 7.6025 35.5936L10.0667 26.7271C12.3616 20.2648 15.6551 20.2648 16.4773 20.2648L16.4721 20.2609ZM26.3478 25.3395V25.3412C26.3438 25.3452 21.6526 29.6659 20.8094 31.2026L23.8813 31.0793V33.7656C23.8813 33.8915 25.1143 33.8404 26.3478 33.7833H26.3495C27.5833 33.8406 28.8161 33.8915 28.8161 33.7658V31.0796L31.8879 31.2024C31.0448 29.6657 26.3495 25.3412 26.3495 25.3412V25.3397L26.3478 25.3395Z" fill="#F7565C"/>
</svg>
