<svg width="146" height="55" viewBox="0 0 146 55" fill="none" xmlns="http://www.w3.org/2000/svg">
<g clip-path="url(#clip0_1_79)">
<path d="M104.078 48.4015C101.052 47.7846 98.0748 47.109 95.0698 46.587C92.6166 46.16 90.1109 46.0199 87.6622 45.568C85.0836 45.0912 82.4548 45.1997 79.883 44.7455C79.8078 44.7319 79.7325 44.7342 79.655 44.7319C75.1042 44.6076 70.5557 44.3568 66.0004 44.4834C64.0328 44.5376 62.0469 44.5082 60.1021 44.7658C57.8176 45.0663 55.5012 45.0324 53.2303 45.5341C51.7985 45.8504 50.3074 45.8866 48.846 46.0741C47.8724 46.2006 46.8921 46.3272 45.939 46.5531C45.6198 46.6277 45.3394 46.9779 45.0955 47.2513C44.1379 48.3156 43.2168 49.4092 42.2569 50.4712C41.6162 51.1807 41.3244 51.2282 40.5196 50.7062C38.4699 49.3753 36.3952 48.0851 34.3318 46.7768C34.2087 46.7 34.0833 46.6254 33.9077 46.517C33.6318 46.8469 33.7322 47.1768 33.8097 47.4841C33.9647 48.0942 34.154 48.6952 34.3181 49.303C34.4412 49.7617 34.2269 50.0148 33.78 50.1187C32.4326 50.4306 31.0829 50.7424 29.7377 51.0655C29.1221 51.2146 28.5065 51.3705 27.9 51.5581C26.7555 51.9083 25.6155 52.2563 24.4231 52.4551C23.6274 52.5885 22.8864 53.0359 22.0907 53.1963C21.393 53.3386 20.7068 53.4674 20.0205 53.6844C19.4984 53.8493 18.9421 53.9668 18.404 54.0979C17.4236 54.3329 16.4273 54.3735 15.513 53.6098C14.0972 52.4258 12.6015 51.3321 11.0899 50.2679C10.4287 49.8001 9.98644 49.3256 9.92716 48.4693C9.87928 47.7688 9.6148 47.0819 9.45065 46.3882C9.00378 44.4947 8.57515 42.5966 8.11003 40.7054C7.73612 39.1824 7.29837 37.673 6.9313 36.1478C6.54599 34.5458 6.22679 32.9256 5.84832 31.3213C5.64312 30.4514 5.35585 29.5996 5.14153 28.7296C4.90898 27.7896 4.71518 26.8384 4.50543 25.8916C4.34355 25.164 4.19535 24.4319 4.01524 23.7088C3.48629 21.5645 2.9391 19.4224 2.41015 17.2781C2.04307 15.789 1.69196 14.2977 1.33401 12.8087C1.12425 11.9387 0.916777 11.0688 0.693342 10.2011C0.481306 9.36732 0.241911 8.54258 0.0298748 7.7088C-0.0886829 7.24558 0.155272 7.00833 0.590744 6.89987C1.98608 6.55641 3.37457 6.18132 4.77674 5.86498C6.36359 5.50571 7.9664 5.22101 9.55325 4.86399C12.3576 4.23131 15.1528 3.567 17.9549 2.92528C18.2102 2.86653 18.4838 2.86653 18.7483 2.86201C19.2476 2.85297 19.5212 3.09249 19.5668 3.59863C19.5942 3.91497 19.6603 4.23131 19.7492 4.80524C20.0228 4.42112 20.171 4.27424 20.2462 4.098C20.7387 2.95691 21.197 1.80227 21.7077 0.670223C22.0406 -0.0709177 22.0793 -0.0889943 22.9183 0.10307C25.7546 0.749308 28.5886 1.41588 31.4203 2.08698C33.9237 2.67898 36.4225 3.29133 38.9259 3.88108C39.2519 3.9579 39.6053 4.00987 39.9359 3.97372C42.567 3.69353 45.1935 3.37267 47.8246 3.09475C49.5163 2.91624 51.2126 2.76259 52.9111 2.63831C55.2527 2.46884 57.601 2.39428 59.938 2.1751C64.0715 1.78645 68.2096 1.97852 72.3432 2.02371C75.0221 2.05308 77.6965 2.40106 80.3732 2.62249C82.1835 2.77163 83.9915 2.93658 85.7972 3.12186C89.4087 3.49243 93.011 3.91949 96.5791 4.61544C99.1737 5.12158 101.782 5.56446 104.381 6.05027C105.004 6.16551 105.617 6.33949 106.385 6.52026C106.173 5.8695 106.016 5.35884 105.838 4.85495C105.603 4.18838 105.334 3.5331 105.118 2.85975C104.862 2.06438 105.102 1.77741 105.954 1.72996C111.454 1.4317 116.96 1.5266 122.461 1.49045C122.614 1.49045 122.767 1.50401 122.917 1.49045C123.51 1.43396 123.82 1.70737 123.98 2.26774C124.354 3.56926 124.764 4.85947 125.161 6.15421C125.368 6.82756 125.578 7.50092 125.808 8.24883C126.009 8.13812 126.152 8.09292 126.248 8.00254C127.837 6.49315 129.429 4.98375 131.004 3.4608C131.41 3.06763 131.759 2.62024 132.14 2.19995C132.643 1.6441 133.033 1.59891 133.583 2.13669C135.151 3.67094 136.699 5.22552 138.25 6.77785C140.222 8.75046 142.192 10.7276 144.16 12.7047C144.558 13.1047 144.944 13.5159 145.338 13.9226C145.753 14.3519 145.796 14.6276 145.434 15.084C144.944 15.7032 144.433 16.311 143.906 16.8985C142.196 18.8056 140.516 20.742 138.738 22.5858C137.855 23.501 136.782 24.2353 135.792 25.0488C133.838 26.6531 131.887 28.2619 129.919 29.8504C129.575 30.1283 129.374 30.4333 129.265 30.8604C128.77 32.7878 128.252 34.7085 127.726 36.6291C126.882 39.7111 126.025 42.7909 125.177 45.873C125.126 46.0538 125.079 46.2368 125.051 46.4221C124.782 48.3269 123.711 49.6917 122.185 50.8102C121.428 51.366 120.799 52.0891 120.095 52.7195C119.757 53.02 119.399 53.3047 119.016 53.542C118.85 53.6437 118.585 53.655 118.38 53.6188C117.906 53.5352 117.438 53.4109 116.976 53.2776C116.225 53.0607 115.485 52.8144 114.734 52.593C114.016 52.3806 113.298 52.1614 112.568 51.9919C111.727 51.7953 110.865 51.6756 110.026 51.47C109.085 51.2372 108.159 50.9367 107.224 50.6814C106.536 50.4938 105.843 50.3198 105.145 50.1594C104.201 49.9425 104.201 49.9493 104.144 49.0093C104.133 48.8285 104.108 48.65 104.082 48.415L104.078 48.4015ZM22.6037 31.2875C22.9206 31.4185 23.0985 31.4637 23.2421 31.5563C27.6036 34.3605 31.9606 37.1691 36.3199 39.9755C37.1293 40.4975 37.1407 40.502 37.8429 39.8128C38.7321 38.9384 39.5848 38.0278 40.4945 37.1759C40.7772 36.9093 41.1762 36.672 41.5524 36.611C43.3878 36.3218 45.2323 36.0981 47.0745 35.8518C49.1789 35.5693 51.2878 35.314 53.3854 34.9932C54.4729 34.8259 54.4889 34.722 54.3475 33.6555C54.0648 31.5315 53.7889 29.4075 53.5313 27.279C53.4082 26.2531 53.2987 26.0904 52.2682 26.1514C50.9071 26.2328 49.5482 26.391 48.1871 26.5017C47.633 26.5469 47.0767 26.5604 46.4543 26.5921C46.3266 25.5662 45.939 24.7008 46.0576 23.693C47.1999 23.5236 48.2828 23.3654 49.3658 23.205C50.3029 23.0671 51.2399 22.9293 52.1793 22.7937C52.7082 22.7169 52.8382 22.4299 52.7698 21.9147C52.6034 20.6855 52.5053 19.4495 52.3594 18.2181C52.2112 16.9618 51.9399 16.7652 50.6472 16.9211C50.5354 16.9346 50.426 16.9821 50.3143 16.9889C48.8391 17.1041 47.364 17.2126 45.8889 17.3278C45.4215 17.364 45.1593 17.1493 45.1251 16.6974C45.0613 15.8839 45.0202 15.0705 44.9678 14.2277C45.173 14.1847 45.3143 14.1418 45.4603 14.126C47.193 13.9249 48.9258 13.7351 50.6563 13.5295C51.7142 13.4029 51.8122 13.2899 51.6914 12.246C51.5614 11.1253 51.4018 10.009 51.2445 8.89055C51.1396 8.14715 51.0165 7.40601 50.9002 6.66261C50.8295 6.21748 50.5696 6.00734 50.1114 6.04575C49.9221 6.06157 49.7306 6.05479 49.5436 6.07738C46.6869 6.43892 43.8278 6.79593 40.9733 7.17328C39.733 7.33823 38.495 7.52351 37.2661 7.74269C36.5684 7.86697 36.4499 8.03869 36.5091 8.62167C36.6391 9.8938 36.7736 11.1659 36.9173 12.4358C37.1453 14.4514 37.3824 16.4669 37.6195 18.4802C37.884 20.7217 38.1553 22.9609 38.4152 25.2024C38.4676 25.6498 38.479 26.104 38.5087 26.5536C38.5383 27.0146 38.5611 27.4755 38.5999 28.1466C34.9155 26.0023 31.4408 23.98 27.9365 21.9396C28.0756 21.5781 28.1417 21.325 28.2626 21.1013C29.2612 19.2484 30.2735 17.4024 31.2789 15.5495C32.713 12.9058 34.1517 10.2621 35.5698 7.61163C36.0235 6.76429 35.9574 6.65358 35.0181 6.41632C31.7874 5.59384 28.5521 4.77813 25.3191 3.96242C24.3296 3.71387 24.2954 3.71839 23.9215 4.71486C22.5809 8.27369 21.2563 11.837 19.9225 15.3981C19.7196 15.9382 19.4984 16.4692 19.2864 17.0069L19.0493 16.9979C18.4587 15.3529 18.2102 13.6108 17.7474 11.9274C17.28 10.235 17.0201 8.48609 16.3999 6.77107C15.8596 6.85016 15.4082 6.88631 14.9727 6.98347C13.0484 7.41053 11.1264 7.85341 9.20669 8.29403C7.95044 8.58099 6.6919 8.8657 5.44021 9.173C4.79498 9.33117 4.70834 9.49838 4.84286 10.1243C4.96142 10.6734 5.06857 11.227 5.20309 11.7738C5.5656 13.2312 5.96232 14.6796 6.30887 16.1393C6.98602 18.9908 7.62668 21.8515 8.30839 24.7008C8.99694 27.5863 9.7288 30.4627 10.4196 33.3504C11.2245 36.715 12.0042 40.0862 12.8022 43.4507C12.9891 44.2371 13.1943 44.3546 14.0197 44.2009C14.2066 44.167 14.3845 44.0992 14.5691 44.0541C16.8126 43.5005 19.0584 42.9559 21.2996 42.3933C22.5421 42.0814 23.7756 41.7357 25.1413 41.3719C24.5348 37.9555 23.2763 34.7695 22.6083 31.2897L22.6037 31.2875ZM66.9374 16.5934C66.1417 15.9766 65.8225 15.1948 65.3779 14.5192C63.5791 11.7783 61.8052 9.02161 60.0406 6.25815C59.7806 5.85143 59.5321 5.49667 58.9963 5.52379C57.104 5.62773 55.2093 5.71811 53.3193 5.86046C52.7447 5.9034 52.6649 6.11354 52.7196 6.70555C52.8427 8.0161 52.9567 9.32665 53.0707 10.6372C53.26 12.8493 53.4333 15.0615 53.6339 17.2713C53.8892 20.08 54.1742 22.8841 54.4273 25.6927C54.6735 28.4291 54.8879 31.1654 55.1318 33.9018C55.2162 34.8553 55.3895 34.9886 56.3516 34.9434C57.8313 34.8757 59.3087 34.7966 60.7884 34.722C61.0916 34.7062 61.3971 34.6972 61.6981 34.6678C62.1769 34.6203 62.471 34.3831 62.471 33.8701C62.471 33.6058 62.4778 33.3437 62.4778 33.0793C62.4801 31.2716 62.4778 29.464 62.4892 27.6541C62.4915 27.3151 62.3684 26.9084 62.8244 26.6418C62.9338 26.7977 63.0205 26.9152 63.1003 27.0349C64.5366 29.2064 65.973 31.3756 67.4025 33.5515C67.6328 33.904 67.8357 34.2972 68.3168 34.3175C70.289 34.3944 72.2611 34.4531 74.2356 34.5186C74.7121 34.5345 74.9264 34.2791 74.9401 33.8272C74.9446 33.6758 74.9469 33.5267 74.9469 33.3753C74.9606 24.4477 74.9743 15.5201 74.9811 6.59257C74.9811 6.26945 74.915 5.94633 74.8785 5.61643C74.2036 5.55316 73.6405 5.4673 73.0773 5.45148C71.2944 5.40177 69.5092 5.37466 67.7263 5.34302C67.2179 5.33398 66.9488 5.5848 66.9443 6.09546C66.942 6.35983 66.9374 6.62194 66.9397 6.88631C66.9397 9.78761 66.942 12.6866 66.9443 15.5879C66.9443 15.8749 66.9443 16.1641 66.9443 16.5867L66.9374 16.5934ZM140.708 13.7825C140.124 13.3261 139.65 13.0098 139.242 12.6279C137.39 10.8993 135.564 9.14815 133.717 7.41505C132.956 6.70103 132.833 6.71458 132.032 7.44895C131.948 7.52577 131.873 7.60938 131.791 7.6862C129.426 9.91414 127.064 12.1466 124.693 14.3678C124.486 14.5621 124.228 14.6999 123.9 14.9327C123.701 14.3271 123.528 13.8368 123.38 13.3397C122.646 10.8519 121.925 8.36181 121.182 5.87628C120.852 4.76683 120.785 4.71486 119.575 4.73746C117.68 4.77361 115.785 4.85495 113.891 4.90466C112.981 4.92952 112.069 4.90692 111.157 4.93856C110.33 4.96793 110.231 5.11932 110.462 5.8808C110.571 6.24007 110.672 6.60386 110.792 6.96088C112.35 11.5117 113.923 16.0557 115.45 20.6155C115.633 21.1623 115.649 21.7972 115.594 22.378C115.514 23.2343 115.298 24.0794 115.145 24.929C114.598 27.9614 114.05 30.9915 113.501 34.0238C113.138 36.0213 112.749 38.0142 112.416 40.0162C112.24 41.0759 112.411 41.2409 113.433 41.503C115.521 42.0385 117.603 42.5989 119.689 43.1389C120.231 43.279 120.785 43.3807 121.44 43.523C121.631 42.9288 121.823 42.4068 121.971 41.8736C122.682 39.3022 123.382 36.7308 124.084 34.1571C124.894 31.1835 125.715 28.2144 126.488 25.2318C126.62 24.7189 126.841 24.3596 127.254 24.0478C131.353 20.9499 135.443 17.8407 139.536 14.7338C139.832 14.5101 140.113 14.2683 140.71 13.7848L140.708 13.7825ZM82.7375 27.4643C83.0476 27.8167 83.2573 27.9817 83.3713 28.1964C84.4452 30.2232 85.5441 32.2387 86.5428 34.3017C86.8916 35.0203 87.3613 35.2937 88.1022 35.3818C89.8327 35.5897 91.5564 35.8495 93.2846 36.0845C93.5103 36.1162 93.7383 36.1275 93.9663 36.1297C94.7187 36.1388 94.762 36.1026 94.933 35.3366C94.9581 35.2259 94.9831 35.1152 94.9968 35.0045C95.2408 32.8759 95.4756 30.7474 95.7264 28.6189C95.9316 26.8655 96.155 25.112 96.3716 23.3586C96.5996 21.4945 96.8322 19.628 97.0556 17.7639C97.295 15.7484 97.5299 13.7328 97.7579 11.7173C97.8605 10.8202 97.9425 9.92092 98.036 9.02387C98.0885 8.52224 97.8719 8.24883 97.3589 8.18105C96.871 8.11552 96.3876 8.01158 95.902 7.93023C94.4428 7.68394 92.9882 7.41957 91.5267 7.20039C90.0767 6.98347 90.2408 7.33597 90.1451 8.20364C89.8669 10.705 89.6047 13.2109 89.2855 15.7077C89.1647 16.6522 89.1852 17.6328 88.7817 18.5525C88.6677 18.4711 88.5765 18.4418 88.5514 18.3853C86.9577 14.605 85.364 10.8247 83.7886 7.0377C83.5241 6.40276 83.0818 6.0932 82.4069 6.05253C80.6286 5.94407 78.8479 5.83335 77.0695 5.71359C76.5999 5.68196 76.3491 5.8695 76.3149 6.33723C76.267 7.01285 76.1895 7.6862 76.1758 8.36181C76.0823 13.0278 76.0048 17.6916 75.9182 22.3576C75.8999 23.3744 75.868 24.389 75.8452 25.4058C75.7837 28.1512 75.7175 30.8988 75.6674 33.6442C75.6514 34.5684 75.7381 34.6452 76.7116 34.7062C78.1502 34.7966 79.5912 34.8757 81.0298 34.957C81.2578 34.9706 81.4858 34.9706 81.7138 34.966C82.5802 34.9434 82.7102 34.8327 82.7284 33.9899C82.7489 32.9369 82.7352 31.8817 82.7375 30.8265C82.7375 29.7803 82.7375 28.7341 82.7375 27.4665V27.4643ZM113.376 18.67C112.548 16.2274 111.807 14.022 111.057 11.8212C110.868 11.2676 110.441 11.0123 109.88 10.8812C107.482 10.3209 105.092 9.7266 102.694 9.16622C101.919 8.98546 101.134 8.82955 100.348 8.73012C99.3265 8.60133 99.2284 8.72561 99.1349 9.69044C99.0004 11.0733 98.8408 12.4562 98.6721 13.8368C98.4532 15.6263 98.2024 17.4114 97.9881 19.2033C97.7807 20.9205 97.6188 22.6401 97.4067 24.3573C96.9394 28.124 96.4492 31.8885 95.9772 35.6552C95.8837 36.3941 95.9521 36.4913 96.7022 36.6359C98.4145 36.9635 100.131 37.264 101.846 37.5781C104.828 38.1249 107.808 38.6808 110.79 39.2231C111.474 39.3474 111.581 39.275 111.782 38.6356C111.85 38.4209 111.884 38.1972 111.921 37.9758C112.179 36.4551 112.425 34.9321 112.689 33.4137C112.844 32.5189 112.753 32.3156 111.896 32.1393C110.82 31.9179 109.732 31.7529 108.651 31.5518C107.051 31.2558 105.448 30.9643 103.854 30.6322C103.663 30.5915 103.373 30.2842 103.389 30.1238C103.49 28.9849 103.446 27.8122 103.973 26.7073C105.257 26.9423 106.483 27.1637 107.71 27.3897C109.014 27.6315 110.318 27.8778 111.622 28.1218C112.044 28.2009 112.386 28.1376 112.486 27.6473C112.819 26.0362 113.154 24.4251 113.508 22.7146C110.535 21.9441 107.534 21.7249 104.602 20.7714C104.855 19.4495 105.092 18.2158 105.336 16.9527C106.761 17.2668 108.056 17.5357 109.342 17.8407C110.61 18.1413 111.843 18.6225 113.376 18.67Z" fill="black"/>
</g>
<defs>
<clipPath id="clip0_1_79">
<rect width="146" height="55" fill="white"/>
</clipPath>
</defs>
</svg>
