 <svg width="24" height="25" viewBox="0 0 24 25" fill="none" xmlns="http://www.w3.org/2000/svg">
                                            <path d="M12.001 22.8821C12.001 22.4981 11.9983 22.1148 12.0017 21.7308C12.0043 21.4571 12.1612 21.2772 12.3914 21.2711C12.6297 21.2651 12.7978 21.4511 12.7992 21.7381C12.8019 22.4974 12.8025 23.2561 12.7992 24.0154C12.7978 24.2991 12.6497 24.4637 12.4094 24.469C12.1605 24.4737 12.005 24.3024 12.0017 24.0087C11.9983 23.6334 12.001 23.2581 12.001 22.8828V22.8821Z" fill="black" />
                                            <path d="M4.00627 14.323C5.07873 14.0989 6.1265 13.8768 7.1756 13.6627C7.41986 13.6126 7.66879 13.5845 7.91638 13.5537C8.15997 13.5236 8.36085 13.6681 8.39689 13.8882C8.43226 14.1069 8.2841 14.2949 8.03651 14.3444C6.9527 14.5605 5.86756 14.7699 4.78575 14.9967C4.52815 15.0509 4.20247 15.0917 4.05565 15.265C3.93019 15.4122 4.00827 15.7407 4.00827 15.9889C4.00627 17.4333 4.00827 18.877 4.00693 20.3214C4.00693 20.8011 3.78003 20.963 3.33823 20.7951C2.48733 20.4713 1.6658 20.0926 0.964397 19.4938C0.328394 18.9513 -0.0046231 18.2923 4.84815e-05 17.4232C0.0207369 13.3329 0.0200696 9.24257 4.84815e-05 5.15223C-0.00395573 4.31061 0.320386 3.67103 0.931029 3.14318C1.7926 2.39791 2.82035 1.96907 3.88414 1.62185C5.77012 1.00569 7.71617 0.711327 9.68758 0.563475C11.6109 0.419638 13.5316 0.451081 15.4476 0.667172C17.5792 0.907347 19.6761 1.3014 21.6362 2.2253C22.3482 2.56114 23.0116 2.97459 23.5115 3.6048C23.8331 4.01022 23.9966 4.46582 23.996 4.991C23.9913 9.15626 23.986 13.3222 24 17.4875C24.0026 18.2348 23.7364 18.8335 23.2118 19.3346C22.4477 20.0645 21.5074 20.4873 20.5323 20.8392C20.2253 20.9496 19.9978 20.7415 19.9971 20.3809C19.9944 19.2624 19.9964 18.1438 19.9964 17.0252C19.9964 16.4993 19.9904 15.9735 19.9998 15.4476C20.0024 15.2891 19.9611 15.2061 19.8009 15.1653C19.221 15.0175 18.645 14.8562 18.0657 14.7037C17.7554 14.6221 17.6066 14.4461 17.6586 14.21C17.7147 13.9578 17.9276 13.8521 18.2506 13.9297C18.8232 14.0675 19.3945 14.2127 19.9958 14.3625V14.1003C19.9958 12.0049 19.9958 9.90957 19.9958 7.81423C19.9958 7.41683 20.0418 7.35528 20.4169 7.21011C21.1176 6.93916 21.7997 6.63208 22.393 6.16043C22.5358 6.0467 22.6726 5.92159 22.7934 5.78444C23.3306 5.17497 23.3259 4.57621 22.776 3.97945C22.2261 3.38269 21.5194 3.02678 20.7866 2.72037C19.3411 2.11558 17.8241 1.78576 16.2799 1.56833C14.3118 1.29069 12.3337 1.21509 10.3503 1.32213C7.95709 1.45125 5.59727 1.77639 3.34891 2.66685C2.55674 2.98061 1.79327 3.35526 1.20598 4.0022C0.682767 4.57821 0.674091 5.15825 1.17862 5.74899C1.31276 5.9062 1.4696 6.04803 1.63177 6.17648C2.1997 6.62539 2.84838 6.92511 3.51909 7.18067C3.9749 7.35461 4.00493 7.39542 4.00493 7.89384C4.00493 9.95573 4.00493 12.0176 4.00493 14.0795V14.323H4.00627ZM23.1771 16.0123V6.55314C22.5398 7.12046 21.8344 7.50648 21.0816 7.79951C20.8447 7.89183 20.7879 8.01158 20.7893 8.25377C20.7993 10.5987 20.7953 12.9435 20.7953 15.2884C20.7953 16.7241 20.7953 18.1592 20.7953 19.5949V19.8825C21.5421 19.5614 22.2308 19.2202 22.7667 18.6388C23.3446 18.0126 23.3426 17.361 22.7387 16.7616C22.4697 16.4947 22.1454 16.2812 21.8377 16.0551C21.6001 15.8805 21.5294 15.6678 21.6662 15.4597C21.7943 15.265 22.0239 15.2222 22.2588 15.3754C22.5651 15.5748 22.8601 15.7915 23.1764 16.0116L23.1771 16.0123ZM3.19341 19.8805C3.19942 19.7775 3.20676 19.7139 3.20676 19.6497C3.20676 15.8096 3.20676 11.9688 3.21143 8.12866C3.21143 7.96743 3.15737 7.89518 3.01322 7.83831C2.24174 7.53592 1.51431 7.15525 0.884313 6.60599C0.870298 6.59395 0.841601 6.59997 0.832258 6.59863V16.0043C1.16461 15.7761 1.48094 15.546 1.81129 15.3386C2.01484 15.2108 2.24107 15.2757 2.3572 15.4604C2.47332 15.645 2.4246 15.8671 2.23106 16.0089C2.16433 16.0585 2.08291 16.0899 2.02151 16.1441C1.69316 16.4344 1.32745 16.696 1.05316 17.0319C0.698784 17.4654 0.719473 17.9424 1.04648 18.398C1.57838 19.1393 2.36988 19.5065 3.19274 19.8805H3.19341Z" fill="black" />
                                            <path d="M15.3565 4.25982C15.4873 4.27788 15.6201 4.28992 15.7496 4.31602C15.9785 4.36285 16.1186 4.55552 16.0832 4.76358C16.0472 4.97767 15.8623 5.11883 15.6328 5.10277C15.5173 5.09475 15.4019 5.08003 15.2871 5.06531C15.0008 5.02718 14.8326 4.8539 14.8533 4.62042C14.8746 4.37957 15.0588 4.24978 15.3565 4.25982V4.25982Z" fill="black" />
                                            <path d="M15.0344 2.6234C15.1365 2.63611 15.2693 2.64481 15.3994 2.6709C15.617 2.71439 15.7271 2.8609 15.7291 3.07699C15.7311 3.2797 15.5563 3.45766 15.3434 3.45766C15.1712 3.45766 14.993 3.44227 14.8275 3.39611C14.6186 3.33791 14.5232 3.174 14.5519 2.95456C14.5792 2.74382 14.7608 2.61537 15.035 2.6234H15.0344Z" fill="black" />
                                            <path d="M16.9802 2.89209C17.1157 2.91885 17.2572 2.93357 17.3907 2.97572C17.5976 3.04128 17.6983 3.19515 17.671 3.41392C17.6449 3.62198 17.4607 3.77184 17.2499 3.75177C17.1024 3.73772 16.9542 3.70895 16.8127 3.66547C16.6058 3.60191 16.4964 3.39987 16.5511 3.19448C16.6085 2.9804 16.7607 2.88874 16.9802 2.89276V2.89209Z" fill="black" />
                                            <path d="M17.5885 4.66323C17.7213 4.70203 17.8607 4.72946 17.9895 4.78365C18.1898 4.86795 18.2758 5.02985 18.2291 5.24527C18.1844 5.44999 17.9875 5.58312 17.7793 5.54365C17.6338 5.51622 17.489 5.47407 17.3522 5.41788C17.152 5.33559 17.0612 5.12485 17.1346 4.92481C17.2107 4.71675 17.3709 4.63981 17.5891 4.66323H17.5885Z" fill="black" />
                                            <path d="M18.9694 3.38837C19.1022 3.4265 19.2423 3.45326 19.3711 3.50679C19.572 3.58974 19.6588 3.75164 19.6134 3.96707C19.57 4.17245 19.3738 4.30625 19.1649 4.26745C19.0194 4.24069 18.8739 4.19988 18.7371 4.14435C18.5363 4.0634 18.4442 3.85266 18.5169 3.65263C18.5923 3.44457 18.7518 3.36629 18.97 3.38837H18.9694Z" fill="black" />
                                            <path d="M13.3394 4.11648C13.6711 4.12451 13.8546 4.2737 13.8473 4.52927C13.8406 4.77881 13.6471 4.92867 13.3434 4.91863C13.0364 4.90859 12.8522 4.75472 12.8516 4.50853C12.8516 4.25029 13.0264 4.10913 13.3387 4.11648H13.3394Z" fill="black" />
                                            <path d="M13.2712 2.51126C13.6109 2.51461 13.7958 2.65376 13.7998 2.90799C13.8031 3.15017 13.6136 3.31475 13.3319 3.31475C13.0029 3.31475 12.8074 3.16422 12.8047 2.91066C12.802 2.66514 12.9849 2.50859 13.2719 2.51126H13.2712Z" fill="black" />
                                            <path d="M21.2468 4.50359C21.2468 4.72169 21.07 4.89831 20.8518 4.89897C20.5701 4.90031 20.2838 4.65345 20.2852 4.41193C20.2858 4.18915 20.4567 4.01855 20.6782 4.01855C20.9639 4.01855 21.2482 4.26074 21.2475 4.50359H21.2468Z" fill="black" />
                                            <path d="M10.0039 8.43634C10.0006 7.1137 11.077 6.02856 12.3944 6.02589C13.7145 6.02254 14.7956 7.10032 14.799 8.42229C14.8023 9.74492 13.7265 10.8301 12.4091 10.8334C11.0911 10.8367 10.0073 9.75697 10.0039 8.43634ZM13.9995 8.43834C14.0035 7.55257 13.286 6.8287 12.4038 6.82736C11.5315 6.82602 10.8121 7.53652 10.8028 8.40824C10.7934 9.29401 11.5062 10.0259 12.3858 10.0326C13.2687 10.0393 13.9954 9.32144 13.9988 8.43901L13.9995 8.43834Z" fill="black" />
                                            <path d="M10.4333 5.65511C10.4333 6.02641 10.3366 6.21172 10.2645 6.48401C10.1877 6.77236 9.98752 6.89144 9.74994 6.82387C9.52236 6.75898 9.42826 6.54222 9.50434 6.25521C9.79799 5.14398 9.28344 4.10701 8.2557 3.75177C7.69043 3.55642 7.14453 3.61462 6.61664 3.89628C6.51119 3.95247 6.36304 4.02205 6.27227 3.98726C6.14414 3.93775 6.00599 3.81599 5.9526 3.69089C5.86985 3.49754 5.98931 3.34033 6.16416 3.23797C6.90294 2.80579 7.68443 2.71815 8.49461 2.98575C9.63582 3.36374 10.4013 4.44486 10.434 5.65511H10.4333Z" fill="black" />
                                            <path d="M15.1981 21.2147C15.1981 22.1386 15.1994 23.0398 15.1961 23.9403C15.1961 24.046 15.1868 24.161 15.1454 24.256C15.07 24.4293 14.9045 24.5196 14.7363 24.4547C14.6081 24.4052 14.5014 24.2714 14.4146 24.153C14.3739 24.0975 14.3993 23.9911 14.3993 23.9081C14.3993 21.0776 14.3993 18.2476 14.3993 15.417C14.3993 15.3836 14.3986 15.3501 14.3993 15.3167C14.4073 15.0431 14.5614 14.8631 14.7917 14.8584C15.0306 14.8537 15.1968 15.0397 15.1974 15.3274C15.1994 16.8387 15.1981 18.35 15.1988 19.8606C15.1988 19.9442 15.1908 20.0292 15.2048 20.1108C15.2421 20.3263 15.3683 20.456 15.5938 20.4587C15.8194 20.4614 15.9476 20.3329 15.9909 20.1195C16.0056 20.0473 15.9976 19.9697 15.9976 19.8947C15.9976 18.2583 15.9989 16.6219 15.9976 14.9855C15.9963 13.4823 14.9719 12.4547 13.4723 12.45C12.873 12.448 12.273 12.4527 11.6737 12.4493C9.56016 12.4359 8.00586 10.8704 8.00386 8.75235C8.00252 7.74214 8.00186 6.73193 8.00453 5.72173C8.00453 5.50965 7.94246 5.34306 7.73024 5.2668C7.47664 5.17581 7.20836 5.35109 7.20902 5.63676C7.21436 6.89651 7.14562 8.16496 7.26909 9.414C7.42992 11.0404 8.37091 12.1817 9.84113 12.8815C9.93856 12.9277 10.044 12.9591 10.1374 13.0133C10.3056 13.1103 10.4044 13.2488 10.4044 13.4595C10.4017 16.9745 10.4031 20.4895 10.4017 24.0045C10.4017 24.3022 10.2476 24.4728 9.99796 24.4701C9.74369 24.4674 9.60354 24.2935 9.60354 23.9704C9.60288 20.6226 9.60154 17.2742 9.60755 13.9265C9.60755 13.7251 9.54815 13.6288 9.36463 13.5351C7.52002 12.5871 6.51496 11.0685 6.41686 8.99319C6.36413 7.87661 6.40017 6.75602 6.40751 5.63743C6.41152 4.96842 6.94474 4.44124 7.5981 4.43655C8.25813 4.43187 8.79669 4.96708 8.80137 5.65081C8.80804 6.67774 8.80203 7.70468 8.80403 8.73161C8.8067 10.4316 9.99395 11.6311 11.6877 11.6498C12.4532 11.6579 13.2227 11.6251 13.9842 11.69C15.4977 11.8178 16.7611 13.1645 16.7884 14.6905C16.8205 16.4935 16.7991 18.2971 16.7971 20.1008C16.7971 20.7042 16.2385 21.4549 15.2001 21.216L15.1981 21.2147Z" fill="black" />
                                            <path d="M5.0752 4.61944C5.202 4.49969 5.3982 4.47025 5.54169 4.56994C5.68517 4.66962 5.72989 4.84691 5.70119 5.06099C5.65647 5.39416 5.64313 5.73602 5.66448 6.0712C5.67583 6.25317 5.78061 6.43246 5.85602 6.60708C5.96547 6.86264 5.91141 7.08007 5.69919 7.18711C5.49497 7.29014 5.27874 7.21989 5.15461 6.98841C4.77822 6.28595 4.69279 5.5487 4.95173 4.79138C4.97442 4.72515 5.02314 4.66761 5.0752 4.61877V4.61944Z" fill="black" />
                                        </svg>