<svg width="69" height="52" viewBox="0 0 69 52" fill="none" xmlns="http://www.w3.org/2000/svg"><path d="M50.9987 34.9616C50.7911 34.9616 50.5835 34.8827 50.4268 34.7248L34.2572 18.4269C34.0261 18.1939 33.9556 17.8425 34.0809 17.5385 34.2063 17.2345 34.5 17.0371 34.8291 17.0371H67.1723C67.4974 17.0371 67.7951 17.2345 67.9204 17.5385 68.0458 17.8425 67.9753 18.1939 67.7442 18.4269L51.5745 34.7248C51.4178 34.8827 51.2102 34.9616 51.0026 34.9616M36.7837 18.6637 51.0026 32.9955l14.219-14.3318H36.7798 36.7837z" fill="#000"></path><path d="M50.9987 34.9616C50.7911 34.9616 50.5835 34.8827 50.4268 34.7248L34.2572 18.4269C34.0261 18.1939 33.9556 17.8425 34.0809 17.5385 34.2063 17.2345 34.5 17.0371 34.8291 17.0371H67.1723C67.4974 17.0371 67.7951 17.2345 67.9204 17.5385 68.0458 17.8425 67.9753 18.1939 67.7442 18.4269L51.5745 34.7248C51.4178 34.8827 51.2102 34.9616 51.0026 34.9616M36.7837 18.6637 51.0026 32.9955l14.219-14.3318H36.7798 36.7837z" stroke="#000" stroke-width="2"></path><path d="M51.0026 1C51.2102 1 51.4178 1.07896 51.5745 1.23689L67.7442 17.5348C67.9753 17.7677 68.0458 18.1191 67.9204 18.4231 67.7951 18.7271 67.5013 18.9245 67.1723 18.9245H34.8291C34.5039 18.9245 34.2063 18.7271 34.0809 18.4231 33.9556 18.1191 34.0261 17.7677 34.2572 17.5348L50.4307 1.24084C50.5874 1.08291 50.795 1.00395 51.0026 1.00395M65.2216 17.3018 51.0026 2.96617 36.7837 17.2979H65.2216V17.3018z" fill="#000"></path><path d="M51.0026 1C51.2102 1 51.4178 1.07896 51.5745 1.23689L67.7442 17.5348C67.9753 17.7677 68.0458 18.1191 67.9204 18.4231 67.7951 18.7271 67.5013 18.9245 67.1723 18.9245H34.8291C34.5039 18.9245 34.2063 18.7271 34.0809 18.4231 33.9556 18.1191 34.0261 17.7677 34.2572 17.5348L50.4307 1.24084C50.5874 1.08291 50.795 1.00395 51.0026 1.00395M65.2216 17.3018 51.0026 2.96617 36.7837 17.2979H65.2216V17.3018z" stroke="#000" stroke-width="2"></path><path d="M17.9831 34.9616C17.7755 34.9616 17.5679 34.8827 17.4112 34.7248L1.23764 18.4265C1.00654 18.1937.936028 17.8424 1.06137 17.5384 1.18672 17.2345 1.4805 17.0371 1.80953 17.0371H34.1527C34.4778 17.0371 34.7755 17.2345 34.9009 17.5384 35.0262 17.8424 34.9557 18.1937 34.7246 18.4265L18.555 34.7209C18.3983 34.8787 18.1907 34.9577 17.9831 34.9577M3.76415 18.6634 17.9831 32.992 32.202 18.6634H3.76415z" fill="#000"></path><path d="M17.9831 34.9616C17.7755 34.9616 17.5679 34.8827 17.4112 34.7248L1.23764 18.4265C1.00654 18.1937.936028 17.8424 1.06137 17.5384 1.18672 17.2345 1.4805 17.0371 1.80953 17.0371H34.1527C34.4778 17.0371 34.7755 17.2345 34.9009 17.5384 35.0262 17.8424 34.9557 18.1937 34.7246 18.4265L18.555 34.7209C18.3983 34.8787 18.1907 34.9577 17.9831 34.9577M3.76415 18.6634 17.9831 32.992 32.202 18.6634H3.76415z" stroke="#000" stroke-width="2"></path><path d="M34.4899 51.0007C34.2765 51.0007 34.0631 50.9217 33.9021 50.7638L17.2833 34.4659C17.0458 34.233 16.9733 33.8816 17.1021 33.5776 17.231 33.2736 17.5329 33.0762 17.8711 33.0762H51.1127C51.4468 33.0762 51.7528 33.2736 51.8816 33.5776 52.0105 33.8816 51.938 34.233 51.7005 34.4659L35.0817 50.7638C34.9206 50.9217 34.7073 51.0007 34.4939 51.0007M19.88 34.7028 34.4939 49.0345 49.1078 34.7028H19.876 19.88z" fill="#000"></path><path d="M34.4899 51.0007C34.2765 51.0007 34.0631 50.9217 33.9021 50.7638L17.2833 34.4659C17.0458 34.233 16.9733 33.8816 17.1021 33.5776 17.231 33.2736 17.5329 33.0762 17.8711 33.0762H51.1127C51.4468 33.0762 51.7528 33.2736 51.8816 33.5776 52.0105 33.8816 51.938 34.233 51.7005 34.4659L35.0817 50.7638C34.9206 50.9217 34.7073 51.0007 34.4939 51.0007M19.88 34.7028 34.4939 49.0345 49.1078 34.7028H19.876 19.88z" stroke="#000" stroke-width="2"></path><path d="M17.9831 1C18.1907 1 18.3983 1.07896 18.555 1.23689L34.7246 17.5348C34.9557 17.7677 35.0262 18.1191 34.9009 18.4231 34.7755 18.7271 34.4818 18.9245 34.1527 18.9245H1.80953C1.48442 18.9245 1.18672 18.7271 1.06137 18.4231.936028 18.1191 1.00654 17.7677 1.23764 17.5348L17.4112 1.24084C17.5679 1.08291 17.7755 1.00395 17.9831 1.00395M32.202 17.3018 17.9831 2.96617 3.76415 17.3018H32.202z" fill="#000"></path><path d="M17.9831 1C18.1907 1 18.3983 1.07896 18.555 1.23689L34.7246 17.5348C34.9557 17.7677 35.0262 18.1191 34.9009 18.4231 34.7755 18.7271 34.4818 18.9245 34.1527 18.9245H1.80953C1.48442 18.9245 1.18672 18.7271 1.06137 18.4231.936028 18.1191 1.00654 17.7677 1.23764 17.5348L17.4112 1.24084C17.5679 1.08291 17.7755 1.00395 17.9831 1.00395M32.202 17.3018 17.9831 2.96617 3.76415 17.3018H32.202z" stroke="#000" stroke-width="2"></path><path d="M34.4899 18.9245C34.2765 18.9245 34.0631 18.8456 33.9021 18.6877L17.2833 2.38944C17.0458 2.15655 16.9733 1.80524 17.1021 1.5013 17.231 1.19736 17.5329 1 17.8711 1H51.1127C51.4468 1 51.7528 1.19736 51.8816 1.5013 52.0105 1.80524 51.938 2.15655 51.7005 2.38944L35.0817 18.6837C34.9206 18.8416 34.7073 18.9206 34.4939 18.9206M19.876 2.63022 34.4899 16.9588 49.1038 2.63022H19.876z" fill="#000"></path><path d="M34.4899 18.9245C34.2765 18.9245 34.0631 18.8456 33.9021 18.6877L17.2833 2.38944C17.0458 2.15655 16.9733 1.80524 17.1021 1.5013 17.231 1.19736 17.5329 1 17.8711 1H51.1127C51.4468 1 51.7528 1.19736 51.8816 1.5013 52.0105 1.80524 51.938 2.15655 51.7005 2.38944L35.0817 18.6837C34.9206 18.8416 34.7073 18.9206 34.4939 18.9206M19.876 2.63022 34.4899 16.9588 49.1038 2.63022H19.876z" stroke="#000" stroke-width="2"></path></svg>