<svg width="380" height="124" viewBox="0 0 380 124" fill="none" xmlns="http://www.w3.org/2000/svg">
<path d="M278.305 28.413C269.444 20.1167 257.268 15.7363 242.979 15.7363H210.787C208.391 15.7363 206.352 17.7763 206.352 20.2897V103.572C206.352 106.085 208.391 108.125 210.787 108.125H242.979C257.277 108.125 269.444 103.763 278.295 95.5211C287.257 87.1702 292.001 75.5772 292.001 62.0081C292.001 48.4389 287.266 36.8095 278.305 28.4221V28.413ZM262.759 80.7226C257.905 85.8133 251.057 88.5089 242.952 88.5089H229.446C228.49 88.5089 227.716 87.7348 227.716 86.7786V37.0827C227.716 36.1265 228.49 35.3524 229.446 35.3524H242.952C259.508 35.3524 269.799 45.5611 269.799 61.9989C269.799 69.3117 267.303 75.9597 262.759 80.7226Z" fill="#8FB428"/>
<path d="M328.847 35.3524H376.522C378.443 35.3524 380 33.7951 380 31.8736V19.971C380 17.6397 378.106 15.7363 375.165 15.7363H309.787C307.884 15.7363 305.834 17.7763 305.834 20.2897V103.572C305.834 106.085 307.874 108.125 309.787 108.125H375.165C378.097 108.125 380 106.231 380 103.89V91.9877C380 90.0662 378.443 88.5089 376.522 88.5089H328.847C327.891 88.5089 327.117 87.7348 327.117 86.7786V73.2368C327.117 72.2805 327.891 71.5065 328.847 71.5065H375.975C377.897 71.5065 379.454 69.9492 379.454 68.0277V55.3692C379.454 53.4476 377.897 51.8904 375.975 51.8904H328.847C327.891 51.8904 327.117 51.1163 327.117 50.1601V37.0918C327.117 36.1356 327.891 35.3615 328.847 35.3615V35.3524Z" fill="#8FB428"/>
<path d="M186.453 64.7488C184.404 62.9183 181.863 61.4157 178.867 60.2591C178.011 59.9313 177.92 58.7656 178.703 58.3011C180.88 56.9989 182.774 55.4598 184.386 53.6931C188.265 49.504 190.223 44.1218 190.223 38.0658C190.223 30.7439 187.072 24.9611 180.862 20.8721C174.97 17.0017 166.956 15.0347 157.029 15.0347C148.004 15.0347 139.99 16.7559 132.723 20.1436C130.965 20.9632 129.936 23.0669 130.738 25.1979C130.801 25.38 130.893 25.5439 130.993 25.7079C132.905 29.0592 134.581 32.6472 135.956 36.3628C136.521 37.8837 137.987 38.9036 139.599 38.9036C140.218 38.9036 140.837 38.7488 141.393 38.4665C143.542 37.3555 145.555 36.5268 147.394 35.9894C150.181 35.1243 152.804 34.6872 155.663 34.6872C165.107 34.6872 166.318 38.6304 166.318 42.0637C166.318 45.497 165.152 47.7737 162.675 49.1306C159.734 50.7061 154.862 51.4984 148.205 51.4984H143.952C143.642 51.4984 143.332 51.5257 143.032 51.6076C141.038 52.1176 139.899 53.9663 140.054 55.815C140.236 57.8913 140.327 60.0132 140.327 62.1351C140.327 63.4374 140.291 64.8034 140.209 66.1876C140.145 67.2622 140.537 68.3277 141.265 69.12C142.003 69.9032 143.041 70.3586 144.107 70.3586H148.05C155.344 70.3586 160.654 71.1326 163.823 72.6535C166.528 73.9649 167.73 75.9502 167.73 79.1102C167.73 82.8531 166.619 85.1662 164.233 86.769C161.601 88.5267 157.148 89.4556 151.365 89.4556C147.412 89.4556 143.578 88.9365 139.535 87.9256C139.198 87.8345 138.852 87.7799 138.497 87.7799C136.93 87.7799 135.528 88.727 134.918 90.1841C133.506 93.5718 131.803 96.914 129.854 100.12C129.199 101.194 129.089 102.487 129.554 103.653C130.009 104.81 131.02 105.666 132.204 106.003C138.679 107.87 145.682 108.817 153.477 108.817C165.835 108.817 175.543 106.33 182.337 101.422C189.386 96.313 192.955 89.2825 192.955 80.1939C192.955 73.7645 190.761 68.5645 186.435 64.7397L186.453 64.7488Z" fill="#8FB428"/>
<path d="M61.9263 0C27.7849 0 0 27.7849 0 61.9263C0 96.0678 27.7849 123.853 61.9263 123.853C96.0678 123.853 123.853 96.0678 123.853 61.9263C123.853 27.7849 96.0769 0 61.9263 0ZM88.8643 61.9263C88.8643 76.7795 76.7795 88.8643 61.9263 88.8643C47.0731 88.8643 34.9884 76.7795 34.9884 61.9263C34.9884 47.0731 47.0731 34.9884 61.9263 34.9884C76.7795 34.9884 88.8643 47.0731 88.8643 61.9263ZM53.0108 106.987C55.8976 107.561 58.8755 107.861 61.9263 107.861C64.9771 107.861 67.955 107.551 70.8419 106.987L70.9239 107.051L61.9263 122.641L52.9197 107.051L53.0017 106.987H53.0108ZM105.402 47.1369C103.444 41.3996 100.384 36.1814 96.4776 31.7099L96.4958 31.5642H114.518L105.502 47.1733L105.402 47.1278V47.1369ZM95.5851 30.7264C91.5417 26.3642 86.6604 22.7944 81.1964 20.2536L81.1599 20.1352L97.6068 12.8133L95.7217 30.7173H95.5851V30.7264ZM80.8958 19.3338L75.3862 2.36777C83.3456 4.16181 90.713 7.52223 97.1606 12.0938L80.8958 19.3338ZM80.1218 19.6798L80.0216 19.7254C74.6486 17.4122 68.7564 16.11 62.5729 16.0189L62.5001 15.9369L74.5575 2.54991L80.1218 19.6798ZM61.2889 16.0189C55.0962 16.1008 49.2041 17.4122 43.8311 19.7254L43.7309 19.6798L49.3043 2.5408L61.3617 15.9369L61.2889 16.0189ZM42.9568 19.3338L26.6921 12.0938C33.1397 7.52223 40.5162 4.16181 48.4756 2.36777L42.9659 19.3338H42.9568ZM42.6927 20.1443L42.6563 20.2536C37.2013 22.7852 32.3201 26.3642 28.2675 30.7264H28.1218L26.2367 12.8224L42.6836 20.1443H42.6927ZM27.3842 31.719C23.4774 36.1814 20.4175 41.4087 18.4595 47.1369L18.3593 47.1824L9.3527 31.5733H27.366L27.3842 31.719ZM17.5853 47.5285L1.28406 54.7775C2.24028 46.6178 4.8084 38.9407 8.66969 32.0833L17.5853 47.5194V47.5285ZM18.0133 48.2661L18.0588 48.339C16.7201 52.6374 16.0007 57.209 16.0007 61.9354C16.0007 63.3379 16.0735 64.7312 16.201 66.1064L16.1282 66.1883L1.53905 55.588L18.0042 48.257L18.0133 48.2661ZM16.3376 67.3904C17.0571 73.4738 18.9786 79.202 21.8472 84.3291L21.8108 84.4475L4.19824 80.7046L16.2466 67.3267L16.3376 67.3904ZM21.5467 85.258L16.0462 102.188C10.8098 96.2226 6.71172 89.2286 4.10717 81.5515L21.5467 85.258ZM22.3845 85.431L22.5029 85.4583C25.5901 90.6128 29.6427 95.1116 34.4238 98.6996V98.818L16.8112 102.561L22.3754 85.431H22.3845ZM35.4984 99.4555C40.325 102.871 45.8346 105.375 51.7813 106.723L51.836 106.823L37.256 117.414L35.3709 99.4919L35.4984 99.4646V99.4555ZM52.2549 107.551L61.1705 122.997C52.8924 122.896 44.9968 121.139 37.8206 118.043L52.2549 107.551ZM71.6342 107.551L86.0685 118.043C78.8832 121.139 70.9967 122.896 62.7186 122.997L71.6342 107.551ZM72.0622 106.814L72.1169 106.714C78.0545 105.366 83.5641 102.861 88.3907 99.4555L88.5182 99.4828L86.6331 117.405L72.0622 106.814ZM89.4562 98.6905C94.2464 95.1025 98.299 90.5946 101.386 85.4401L101.505 85.4128L107.069 102.552L89.438 98.7998V98.6814L89.4562 98.6905ZM102.351 85.2398L119.8 81.5333C117.186 89.2103 113.098 96.2044 107.852 102.178L102.351 85.2489V85.2398ZM102.087 84.4293L102.051 84.3109C104.92 79.1837 106.841 73.4647 107.561 67.3722L107.652 67.3085L119.7 80.6864L102.087 84.4293ZM107.697 66.0881C107.825 64.713 107.898 63.3288 107.898 61.9263C107.898 57.1999 107.178 52.6283 105.839 48.3299L105.885 48.257L122.35 55.588L107.779 66.1792L107.706 66.0973L107.697 66.0881ZM106.313 47.5194L115.229 32.0742C119.09 38.9316 121.658 46.6087 122.614 54.7775L106.313 47.5194ZM114.445 30.7173H96.6142L98.4811 12.9863C104.892 17.7856 110.329 23.8143 114.445 30.7173ZM73.8836 2.03082L61.9354 15.2994L49.9782 2.03082C53.8486 1.25674 57.8374 0.846934 61.9263 0.846934C66.0153 0.846934 70.0132 1.25674 73.8745 2.03082H73.8836ZM25.408 12.9954L27.2749 30.7173H9.45287C13.5692 23.8143 19.0059 17.7856 25.4171 12.9954H25.408ZM1.11103 56.3256L15.5453 66.8167L3.59719 80.0853C1.81226 74.348 0.846934 68.2556 0.846934 61.9354C0.846934 60.0412 0.947109 58.1743 1.11103 56.3256ZM17.0935 103.362L34.5148 99.6559L36.3817 117.396C29.0598 114.008 22.512 109.218 17.0935 103.362ZM87.4709 117.405L89.3378 99.665L106.768 103.371C101.35 109.227 94.8019 114.017 87.4801 117.405H87.4709ZM120.265 80.0853L108.316 66.8167L122.751 56.3348C122.924 58.1834 123.015 60.0503 123.015 61.9445C123.015 68.2647 122.05 74.3571 120.265 80.0944V80.0853Z" fill="#8FB428"/>
<path d="M148.912 28.0859L231.16 110.334" stroke="#FF0000" stroke-width="11.6316" stroke-linecap="square"/>
</svg>
