<svg xmlns="http://www.w3.org/2000/svg" xmlns:xlink="http://www.w3.org/1999/xlink" width="1200" zoomAndPan="magnify" viewBox="0 0 900 470.999988" height="628" preserveAspectRatio="xMidYMid meet" version="1.0"><defs><filter x="0%" y="0%" width="100%" height="100%" id="0d235fb52b"><feColorMatrix values="0 0 0 0 1 0 0 0 0 1 0 0 0 0 1 0 0 0 1 0" color-interpolation-filters="sRGB"/></filter><g/><mask id="3e853c0fe0"><g filter="url(#0d235fb52b)"><rect x="-90" width="1080" fill="#000000" y="-47.099999" height="565.199986" fill-opacity="0.91"/></g></mask><clipPath id="e1a94c335b"><path d="M 0 0 L 899.996094 0 L 899.996094 471 L 0 471 Z M 0 0 " clip-rule="nonzero"/></clipPath><linearGradient x1="1.332819" gradientTransform="matrix(1.842773, 0, 0, 1.842773, -2.456071, -0.75)" y1="128" x2="489.724" gradientUnits="userSpaceOnUse" y2="128" id="eb11c7e80f"><stop stop-opacity="1" stop-color="rgb(100%, 87.016296%, 34.886169%)" offset="0"/><stop stop-opacity="1" stop-color="rgb(100%, 86.898804%, 34.867859%)" offset="0.0078125"/><stop stop-opacity="1" stop-color="rgb(100%, 86.663818%, 34.831238%)" offset="0.015625"/><stop stop-opacity="1" stop-color="rgb(100%, 86.428833%, 34.794617%)" offset="0.0234375"/><stop stop-opacity="1" stop-color="rgb(100%, 86.193848%, 34.757996%)" offset="0.03125"/><stop stop-opacity="1" stop-color="rgb(100%, 85.957336%, 34.721375%)" offset="0.0390625"/><stop stop-opacity="1" stop-color="rgb(100%, 85.722351%, 34.684753%)" offset="0.046875"/><stop stop-opacity="1" stop-color="rgb(100%, 85.487366%, 34.648132%)" offset="0.0546875"/><stop stop-opacity="1" stop-color="rgb(100%, 85.25238%, 34.611511%)" offset="0.0625"/><stop stop-opacity="1" stop-color="rgb(100%, 85.017395%, 34.57489%)" offset="0.0703125"/><stop stop-opacity="1" stop-color="rgb(100%, 84.780884%, 34.538269%)" offset="0.078125"/><stop stop-opacity="1" stop-color="rgb(100%, 84.545898%, 34.501648%)" offset="0.0859375"/><stop stop-opacity="1" stop-color="rgb(100%, 84.310913%, 34.465027%)" offset="0.09375"/><stop stop-opacity="1" stop-color="rgb(100%, 84.075928%, 34.428406%)" offset="0.101562"/><stop stop-opacity="1" stop-color="rgb(100%, 83.840942%, 34.391785%)" offset="0.109375"/><stop stop-opacity="1" stop-color="rgb(100%, 83.604431%, 34.355164%)" offset="0.117187"/><stop stop-opacity="1" stop-color="rgb(100%, 83.369446%, 34.318542%)" offset="0.125"/><stop stop-opacity="1" stop-color="rgb(100%, 83.13446%, 34.281921%)" offset="0.132813"/><stop stop-opacity="1" stop-color="rgb(100%, 82.899475%, 34.2453%)" offset="0.140625"/><stop stop-opacity="1" stop-color="rgb(100%, 82.66449%, 34.208679%)" offset="0.148438"/><stop stop-opacity="1" stop-color="rgb(100%, 82.427979%, 34.172058%)" offset="0.15625"/><stop stop-opacity="1" stop-color="rgb(100%, 82.192993%, 34.135437%)" offset="0.164062"/><stop stop-opacity="1" stop-color="rgb(100%, 81.958008%, 34.098816%)" offset="0.171875"/><stop stop-opacity="1" stop-color="rgb(100%, 81.723022%, 34.062195%)" offset="0.179688"/><stop stop-opacity="1" stop-color="rgb(100%, 81.488037%, 34.025574%)" offset="0.1875"/><stop stop-opacity="1" stop-color="rgb(100%, 81.251526%, 33.988953%)" offset="0.195313"/><stop stop-opacity="1" stop-color="rgb(100%, 81.016541%, 33.952332%)" offset="0.203125"/><stop stop-opacity="1" stop-color="rgb(100%, 80.781555%, 33.91571%)" offset="0.210938"/><stop stop-opacity="1" stop-color="rgb(100%, 80.54657%, 33.879089%)" offset="0.21875"/><stop stop-opacity="1" stop-color="rgb(100%, 80.311584%, 33.842468%)" offset="0.226562"/><stop stop-opacity="1" stop-color="rgb(100%, 80.075073%, 33.805847%)" offset="0.234375"/><stop stop-opacity="1" stop-color="rgb(100%, 79.840088%, 33.769226%)" offset="0.242188"/><stop stop-opacity="1" stop-color="rgb(100%, 79.605103%, 33.732605%)" offset="0.25"/><stop stop-opacity="1" stop-color="rgb(100%, 79.370117%, 33.695984%)" offset="0.257813"/><stop stop-opacity="1" stop-color="rgb(100%, 79.135132%, 33.659363%)" offset="0.265625"/><stop stop-opacity="1" stop-color="rgb(100%, 78.898621%, 33.622742%)" offset="0.273438"/><stop stop-opacity="1" stop-color="rgb(100%, 78.663635%, 33.586121%)" offset="0.28125"/><stop stop-opacity="1" stop-color="rgb(100%, 78.42865%, 33.5495%)" offset="0.289062"/><stop stop-opacity="1" stop-color="rgb(100%, 78.193665%, 33.512878%)" offset="0.296875"/><stop stop-opacity="1" stop-color="rgb(100%, 77.958679%, 33.476257%)" offset="0.304688"/><stop stop-opacity="1" stop-color="rgb(100%, 77.722168%, 33.439636%)" offset="0.3125"/><stop stop-opacity="1" stop-color="rgb(100%, 77.487183%, 33.403015%)" offset="0.320313"/><stop stop-opacity="1" stop-color="rgb(100%, 77.252197%, 33.366394%)" offset="0.328125"/><stop stop-opacity="1" stop-color="rgb(100%, 77.017212%, 33.329773%)" offset="0.335938"/><stop stop-opacity="1" stop-color="rgb(100%, 76.782227%, 33.293152%)" offset="0.34375"/><stop stop-opacity="1" stop-color="rgb(100%, 76.545715%, 33.256531%)" offset="0.351562"/><stop stop-opacity="1" stop-color="rgb(100%, 76.31073%, 33.21991%)" offset="0.359375"/><stop stop-opacity="1" stop-color="rgb(100%, 76.075745%, 33.183289%)" offset="0.367188"/><stop stop-opacity="1" stop-color="rgb(100%, 75.840759%, 33.146667%)" offset="0.375"/><stop stop-opacity="1" stop-color="rgb(100%, 75.605774%, 33.110046%)" offset="0.382812"/><stop stop-opacity="1" stop-color="rgb(100%, 75.369263%, 33.073425%)" offset="0.390625"/><stop stop-opacity="1" stop-color="rgb(100%, 75.134277%, 33.036804%)" offset="0.398438"/><stop stop-opacity="1" stop-color="rgb(100%, 74.899292%, 33.000183%)" offset="0.40625"/><stop stop-opacity="1" stop-color="rgb(100%, 74.664307%, 32.963562%)" offset="0.414062"/><stop stop-opacity="1" stop-color="rgb(100%, 74.429321%, 32.926941%)" offset="0.421875"/><stop stop-opacity="1" stop-color="rgb(100%, 74.19281%, 32.89032%)" offset="0.429688"/><stop stop-opacity="1" stop-color="rgb(100%, 73.957825%, 32.853699%)" offset="0.4375"/><stop stop-opacity="1" stop-color="rgb(100%, 73.722839%, 32.817078%)" offset="0.445312"/><stop stop-opacity="1" stop-color="rgb(100%, 73.487854%, 32.780457%)" offset="0.453125"/><stop stop-opacity="1" stop-color="rgb(100%, 73.252869%, 32.743835%)" offset="0.460937"/><stop stop-opacity="1" stop-color="rgb(100%, 73.016357%, 32.707214%)" offset="0.46875"/><stop stop-opacity="1" stop-color="rgb(100%, 72.781372%, 32.670593%)" offset="0.476562"/><stop stop-opacity="1" stop-color="rgb(100%, 72.546387%, 32.633972%)" offset="0.484375"/><stop stop-opacity="1" stop-color="rgb(100%, 72.311401%, 32.597351%)" offset="0.492188"/><stop stop-opacity="1" stop-color="rgb(100%, 72.07489%, 32.56073%)" offset="0.5"/><stop stop-opacity="1" stop-color="rgb(100%, 71.839905%, 32.524109%)" offset="0.507812"/><stop stop-opacity="1" stop-color="rgb(100%, 71.604919%, 32.487488%)" offset="0.515625"/><stop stop-opacity="1" stop-color="rgb(100%, 71.369934%, 32.450867%)" offset="0.523437"/><stop stop-opacity="1" stop-color="rgb(100%, 71.134949%, 32.414246%)" offset="0.53125"/><stop stop-opacity="1" stop-color="rgb(100%, 70.898438%, 32.377625%)" offset="0.539062"/><stop stop-opacity="1" stop-color="rgb(100%, 70.663452%, 32.341003%)" offset="0.546875"/><stop stop-opacity="1" stop-color="rgb(100%, 70.428467%, 32.304382%)" offset="0.554687"/><stop stop-opacity="1" stop-color="rgb(100%, 70.193481%, 32.267761%)" offset="0.5625"/><stop stop-opacity="1" stop-color="rgb(100%, 69.958496%, 32.23114%)" offset="0.570313"/><stop stop-opacity="1" stop-color="rgb(100%, 69.721985%, 32.194519%)" offset="0.578125"/><stop stop-opacity="1" stop-color="rgb(100%, 69.487%, 32.157898%)" offset="0.585938"/><stop stop-opacity="1" stop-color="rgb(100%, 69.252014%, 32.121277%)" offset="0.59375"/><stop stop-opacity="1" stop-color="rgb(100%, 69.017029%, 32.084656%)" offset="0.601562"/><stop stop-opacity="1" stop-color="rgb(100%, 68.782043%, 32.048035%)" offset="0.609375"/><stop stop-opacity="1" stop-color="rgb(100%, 68.545532%, 32.011414%)" offset="0.617188"/><stop stop-opacity="1" stop-color="rgb(100%, 68.310547%, 31.974792%)" offset="0.625"/><stop stop-opacity="1" stop-color="rgb(100%, 68.075562%, 31.938171%)" offset="0.632812"/><stop stop-opacity="1" stop-color="rgb(100%, 67.840576%, 31.90155%)" offset="0.640625"/><stop stop-opacity="1" stop-color="rgb(100%, 67.605591%, 31.864929%)" offset="0.648437"/><stop stop-opacity="1" stop-color="rgb(100%, 67.36908%, 31.828308%)" offset="0.65625"/><stop stop-opacity="1" stop-color="rgb(100%, 67.134094%, 31.791687%)" offset="0.664062"/><stop stop-opacity="1" stop-color="rgb(100%, 66.899109%, 31.755066%)" offset="0.671875"/><stop stop-opacity="1" stop-color="rgb(100%, 66.664124%, 31.718445%)" offset="0.679687"/><stop stop-opacity="1" stop-color="rgb(100%, 66.429138%, 31.681824%)" offset="0.6875"/><stop stop-opacity="1" stop-color="rgb(100%, 66.192627%, 31.645203%)" offset="0.695312"/><stop stop-opacity="1" stop-color="rgb(100%, 65.957642%, 31.608582%)" offset="0.703125"/><stop stop-opacity="1" stop-color="rgb(100%, 65.722656%, 31.57196%)" offset="0.710937"/><stop stop-opacity="1" stop-color="rgb(100%, 65.487671%, 31.535339%)" offset="0.71875"/><stop stop-opacity="1" stop-color="rgb(100%, 65.252686%, 31.498718%)" offset="0.726562"/><stop stop-opacity="1" stop-color="rgb(100%, 65.016174%, 31.462097%)" offset="0.734375"/><stop stop-opacity="1" stop-color="rgb(100%, 64.781189%, 31.425476%)" offset="0.742187"/><stop stop-opacity="1" stop-color="rgb(100%, 64.546204%, 31.388855%)" offset="0.75"/><stop stop-opacity="1" stop-color="rgb(100%, 64.311218%, 31.352234%)" offset="0.757812"/><stop stop-opacity="1" stop-color="rgb(100%, 64.076233%, 31.315613%)" offset="0.765625"/><stop stop-opacity="1" stop-color="rgb(100%, 63.839722%, 31.278992%)" offset="0.773437"/><stop stop-opacity="1" stop-color="rgb(100%, 63.604736%, 31.242371%)" offset="0.78125"/><stop stop-opacity="1" stop-color="rgb(100%, 63.369751%, 31.20575%)" offset="0.789063"/><stop stop-opacity="1" stop-color="rgb(100%, 63.134766%, 31.169128%)" offset="0.796875"/><stop stop-opacity="1" stop-color="rgb(100%, 62.89978%, 31.132507%)" offset="0.804688"/><stop stop-opacity="1" stop-color="rgb(100%, 62.663269%, 31.095886%)" offset="0.8125"/><stop stop-opacity="1" stop-color="rgb(100%, 62.428284%, 31.059265%)" offset="0.820313"/><stop stop-opacity="1" stop-color="rgb(100%, 62.193298%, 31.022644%)" offset="0.828125"/><stop stop-opacity="1" stop-color="rgb(100%, 61.958313%, 30.986023%)" offset="0.835938"/><stop stop-opacity="1" stop-color="rgb(100%, 61.723328%, 30.949402%)" offset="0.84375"/><stop stop-opacity="1" stop-color="rgb(100%, 61.486816%, 30.912781%)" offset="0.851562"/><stop stop-opacity="1" stop-color="rgb(100%, 61.251831%, 30.87616%)" offset="0.859375"/><stop stop-opacity="1" stop-color="rgb(100%, 61.016846%, 30.839539%)" offset="0.867188"/><stop stop-opacity="1" stop-color="rgb(100%, 60.78186%, 30.802917%)" offset="0.875"/><stop stop-opacity="1" stop-color="rgb(100%, 60.546875%, 30.766296%)" offset="0.882812"/><stop stop-opacity="1" stop-color="rgb(100%, 60.310364%, 30.729675%)" offset="0.890625"/><stop stop-opacity="1" stop-color="rgb(100%, 60.075378%, 30.693054%)" offset="0.898438"/><stop stop-opacity="1" stop-color="rgb(100%, 59.840393%, 30.656433%)" offset="0.90625"/><stop stop-opacity="1" stop-color="rgb(100%, 59.605408%, 30.619812%)" offset="0.914062"/><stop stop-opacity="1" stop-color="rgb(100%, 59.370422%, 30.583191%)" offset="0.921875"/><stop stop-opacity="1" stop-color="rgb(100%, 59.133911%, 30.54657%)" offset="0.929687"/><stop stop-opacity="1" stop-color="rgb(100%, 58.898926%, 30.509949%)" offset="0.9375"/><stop stop-opacity="1" stop-color="rgb(100%, 58.66394%, 30.473328%)" offset="0.945312"/><stop stop-opacity="1" stop-color="rgb(100%, 58.428955%, 30.436707%)" offset="0.953125"/><stop stop-opacity="1" stop-color="rgb(100%, 58.192444%, 30.400085%)" offset="0.960937"/><stop stop-opacity="1" stop-color="rgb(100%, 57.957458%, 30.363464%)" offset="0.96875"/><stop stop-opacity="1" stop-color="rgb(100%, 57.722473%, 30.326843%)" offset="0.976562"/><stop stop-opacity="1" stop-color="rgb(100%, 57.487488%, 30.290222%)" offset="0.984375"/><stop stop-opacity="1" stop-color="rgb(100%, 57.252502%, 30.253601%)" offset="0.992187"/><stop stop-opacity="1" stop-color="rgb(100%, 57.015991%, 30.21698%)" offset="1"/></linearGradient><clipPath id="55326cda19"><rect x="0" width="900" y="0" height="471"/></clipPath><clipPath id="cdaf841ca5"><path d="M 618 100 L 727.371094 100 L 727.371094 237 L 618 237 Z M 618 100 " clip-rule="nonzero"/></clipPath><clipPath id="4bb8ef7c3e"><path d="M 712 262 L 727.371094 262 L 727.371094 285 L 712 285 Z M 712 262 " clip-rule="nonzero"/></clipPath><clipPath id="c308ea83a9"><path d="M 169.371094 147 L 196 147 L 196 176 L 169.371094 176 Z M 169.371094 147 " clip-rule="nonzero"/></clipPath><clipPath id="bc0602fb6c"><path d="M 169.371094 122 L 196 122 L 196 159 L 169.371094 159 Z M 169.371094 122 " clip-rule="nonzero"/></clipPath><clipPath id="a98df22f97"><path d="M 169.371094 158 L 193 158 L 193 196 L 169.371094 196 Z M 169.371094 158 " clip-rule="nonzero"/></clipPath><mask id="1ebb81f35e"><g filter="url(#0d235fb52b)"><rect x="-90" width="1080" fill="#000000" y="-47.099999" height="565.199986" fill-opacity="0.47"/></g></mask><clipPath id="7b65f2cf3a"><path d="M 0 1.164062 L 900 1.164062 L 900 75.4375 L 0 75.4375 Z M 0 1.164062 " clip-rule="nonzero"/></clipPath><clipPath id="1a0324789d"><rect x="0" width="900" y="0" height="76"/></clipPath></defs><rect x="-90" width="1080" fill="#ffffff" y="-47.099999" height="565.199986" fill-opacity="1"/><rect x="-90" width="1080" fill="#fefefe" y="-47.099999" height="565.199986" fill-opacity="1"/><g mask="url(#3e853c0fe0)"><g transform="matrix(1, 0, 0, 1, 0, 0)"><g clip-path="url(#55326cda19)"><g clip-path="url(#e1a94c335b)"><path fill="url(#eb11c7e80f)" d="M 0 0 L 0 471 L 899.996094 471 L 899.996094 0 Z M 0 0 " fill-rule="nonzero"/></g></g></g></g><path fill="#000000" d="M 578.050781 119.59375 C 565.03125 107.414062 547.171875 100.933594 526.191406 100.933594 L 478.910156 100.933594 C 475.378906 100.933594 472.402344 103.949219 472.402344 107.636719 L 472.402344 230.117188 C 472.402344 233.804688 475.414062 236.820312 478.910156 236.820312 L 526.191406 236.820312 C 547.171875 236.820312 565.066406 230.414062 578.050781 218.269531 C 591.21875 205.976562 598.175781 188.953125 598.175781 168.988281 C 598.136719 149.023438 591.179688 131.925781 578.050781 119.59375 M 555.207031 196.515625 C 548.066406 204.003906 538.023438 207.953125 526.117188 207.953125 L 506.289062 207.953125 C 504.878906 207.953125 503.761719 206.796875 503.761719 205.417969 L 503.761719 132.335938 C 503.761719 130.917969 504.914062 129.800781 506.289062 129.800781 L 526.117188 129.800781 C 550.449219 129.800781 565.550781 144.8125 565.550781 168.988281 C 565.550781 179.714844 561.867188 189.511719 555.207031 196.515625 " fill-opacity="1" fill-rule="nonzero"/><g clip-path="url(#cdaf841ca5)"><path fill="#000000" d="M 652.265625 129.800781 L 722.273438 129.800781 C 725.101562 129.800781 727.371094 127.492188 727.371094 124.699219 L 727.371094 107.191406 C 727.371094 103.765625 724.582031 100.96875 720.265625 100.96875 L 624.253906 100.96875 C 621.460938 100.96875 618.449219 103.988281 618.449219 107.675781 L 618.449219 230.152344 C 618.449219 233.839844 621.460938 236.859375 624.253906 236.859375 L 720.265625 236.859375 C 724.582031 236.859375 727.371094 234.0625 727.371094 230.636719 L 727.371094 213.128906 C 727.371094 210.296875 725.101562 208.027344 722.273438 208.027344 L 652.265625 208.027344 C 650.851562 208.027344 649.734375 206.871094 649.734375 205.492188 L 649.734375 185.492188 C 649.734375 184.074219 650.886719 182.957031 652.265625 182.957031 L 721.457031 182.957031 C 724.28125 182.957031 726.550781 180.648438 726.550781 177.855469 L 726.550781 159.230469 C 726.550781 156.398438 724.246094 154.125 721.457031 154.125 L 652.265625 154.125 C 650.851562 154.125 649.734375 152.972656 649.734375 151.59375 L 649.734375 132.371094 C 649.695312 130.957031 650.851562 129.800781 652.265625 129.800781 " fill-opacity="1" fill-rule="nonzero"/></g><path fill="#000000" d="M 443.164062 173.011719 C 440.148438 170.328125 436.429688 168.09375 432.039062 166.417969 C 430.773438 165.933594 430.625 164.21875 431.78125 163.550781 C 434.976562 161.648438 437.769531 159.378906 440.113281 156.769531 C 445.804688 150.625 448.707031 142.691406 448.707031 133.789062 C 448.707031 123.023438 444.09375 114.527344 434.941406 108.496094 C 426.273438 102.796875 414.519531 99.925781 399.9375 99.925781 C 386.691406 99.925781 374.902344 102.460938 364.261719 107.453125 C 361.695312 108.644531 360.167969 111.734375 361.359375 114.902344 C 361.472656 115.164062 361.582031 115.421875 361.730469 115.648438 C 364.558594 120.5625 367.015625 125.851562 369.023438 131.292969 C 369.839844 133.527344 372 135.015625 374.378906 135.015625 C 375.273438 135.015625 376.203125 134.792969 377.019531 134.382812 C 380.183594 132.746094 383.121094 131.515625 385.835938 130.734375 C 389.929688 129.464844 393.796875 128.832031 398 128.832031 C 411.878906 128.832031 413.664062 134.644531 413.664062 139.671875 C 413.664062 144.589844 411.953125 148.054688 408.304688 150.066406 C 403.992188 152.375 396.847656 153.566406 387.066406 153.566406 L 380.816406 153.566406 C 380.367188 153.566406 379.886719 153.605469 379.476562 153.714844 C 376.539062 154.460938 374.863281 157.179688 375.085938 159.898438 C 375.347656 162.953125 375.496094 166.082031 375.496094 169.210938 C 375.496094 171.113281 375.421875 173.125 375.308594 175.171875 C 375.234375 176.773438 375.792969 178.339844 376.871094 179.492188 C 377.949219 180.648438 379.476562 181.316406 381.039062 181.316406 L 386.839844 181.316406 C 397.554688 181.316406 405.367188 182.4375 410.015625 184.671875 C 413.996094 186.609375 415.746094 189.511719 415.746094 194.167969 C 415.746094 199.683594 414.109375 203.074219 410.613281 205.417969 C 406.742188 207.988281 400.195312 209.367188 391.714844 209.367188 C 385.910156 209.367188 380.292969 208.621094 374.34375 207.09375 C 373.859375 206.945312 373.339844 206.871094 372.816406 206.871094 C 370.511719 206.871094 368.464844 208.25 367.570312 210.410156 C 365.488281 215.402344 362.996094 220.320312 360.132812 225.011719 C 359.164062 226.578125 359.015625 228.476562 359.6875 230.226562 C 360.355469 231.941406 361.84375 233.171875 363.589844 233.691406 C 373.113281 236.449219 383.382812 237.828125 394.839844 237.828125 C 412.992188 237.828125 427.242188 234.175781 437.210938 226.949219 C 447.550781 219.425781 452.796875 209.105469 452.796875 195.734375 C 452.722656 186.308594 449.523438 178.636719 443.164062 173.011719 " fill-opacity="1" fill-rule="nonzero"/><path fill="#000000" d="M 359.761719 273.363281 C 359.761719 267.105469 364.671875 262.152344 370.996094 262.152344 C 377.355469 262.152344 382.230469 267.105469 382.230469 273.324219 C 382.230469 279.507812 377.394531 284.464844 370.957031 284.464844 C 364.558594 284.464844 359.761719 279.546875 359.761719 273.363281 Z M 377.242188 273.363281 C 377.207031 269.601562 374.417969 266.957031 370.996094 266.957031 C 367.535156 266.957031 364.746094 269.675781 364.746094 273.363281 C 364.746094 277.011719 367.496094 279.734375 370.996094 279.734375 C 374.566406 279.695312 377.28125 277.011719 377.242188 273.363281 Z M 377.242188 273.363281 " fill-opacity="1" fill-rule="nonzero"/><path fill="#000000" d="M 410.425781 269.863281 C 410.425781 273.625 408.121094 276.976562 402.28125 276.976562 L 399.191406 276.976562 L 399.191406 284.128906 L 394.394531 284.128906 L 394.394531 262.5625 L 402.613281 262.5625 C 408.230469 262.5625 410.425781 266.136719 410.425781 269.863281 Z M 405.515625 269.785156 C 405.515625 268.296875 404.472656 266.992188 402.652344 266.992188 L 399.191406 266.992188 L 399.191406 272.617188 L 402.464844 272.617188 C 404.585938 272.617188 405.515625 271.203125 405.515625 269.785156 Z M 405.515625 269.785156 " fill-opacity="1" fill-rule="nonzero"/><path fill="#000000" d="M 422.070312 262.5625 L 437.097656 262.5625 L 437.097656 267.066406 L 426.90625 267.066406 L 426.90625 271.054688 L 436.355469 271.054688 L 436.355469 275.523438 L 426.90625 275.523438 L 426.90625 279.621094 L 437.0625 279.621094 L 437.0625 284.128906 L 422.070312 284.128906 Z M 422.070312 262.5625 " fill-opacity="1" fill-rule="nonzero"/><path fill="#000000" d="M 468.382812 262.5625 L 468.382812 284.128906 L 464.925781 284.128906 L 454.398438 271.648438 L 454.398438 284.128906 L 449.636719 284.128906 L 449.636719 262.5625 L 452.910156 262.5625 L 463.660156 275.152344 L 463.660156 262.5625 Z M 468.382812 262.5625 " fill-opacity="1" fill-rule="nonzero"/><path fill="#000000" d="M 495.652344 282.339844 L 497.625 278.503906 C 499.59375 279.660156 501.230469 280.066406 502.496094 280.066406 C 504.578125 280.066406 505.695312 279.0625 505.695312 277.722656 C 505.695312 276.378906 504.542969 275.449219 502.792969 275.449219 L 500.042969 275.449219 L 500.042969 271.128906 L 502.273438 271.128906 C 504.171875 271.128906 505.25 270.195312 505.25 268.894531 C 505.25 267.515625 504.058594 266.734375 502.570312 266.734375 C 501.304688 266.734375 500.152344 267.179688 498.441406 268.335938 L 496.171875 264.871094 C 497.882812 263.304688 500.488281 262.226562 503.203125 262.226562 C 507.109375 262.226562 510.121094 264.648438 510.121094 267.8125 C 510.121094 270.195312 508.449219 271.910156 506.515625 272.617188 L 506.515625 272.730469 C 509.265625 273.324219 510.753906 275.523438 510.753906 278.054688 C 510.753906 281.855469 507.519531 284.5 502.867188 284.5 C 500.152344 284.464844 497.847656 283.679688 495.652344 282.339844 Z M 495.652344 282.339844 " fill-opacity="1" fill-rule="nonzero"/><path fill="#000000" d="M 522.957031 262.5625 L 531.550781 262.5625 C 538.171875 262.5625 542.039062 266.734375 542.039062 273.363281 C 542.039062 279.992188 538.058594 284.128906 531.402344 284.128906 L 522.957031 284.128906 Z M 531.625 279.472656 C 535.269531 279.472656 537.09375 276.605469 537.09375 273.324219 C 537.09375 270.011719 535.269531 267.179688 531.625 267.179688 L 527.792969 267.179688 L 527.792969 279.472656 Z M 531.625 279.472656 " fill-opacity="1" fill-rule="nonzero"/><path fill="#000000" d="M 570.199219 262.5625 L 585.230469 262.5625 L 585.230469 267.066406 L 575.035156 267.066406 L 575.035156 271.054688 L 584.484375 271.054688 L 584.484375 275.523438 L 575.035156 275.523438 L 575.035156 279.621094 L 585.191406 279.621094 L 585.191406 284.128906 L 570.199219 284.128906 Z M 570.199219 262.5625 " fill-opacity="1" fill-rule="nonzero"/><path fill="#000000" d="M 616.550781 262.5625 L 616.550781 284.128906 L 613.09375 284.128906 L 602.566406 271.648438 L 602.566406 284.128906 L 597.804688 284.128906 L 597.804688 262.5625 L 601.078125 262.5625 L 611.828125 275.152344 L 611.828125 262.5625 Z M 616.550781 262.5625 " fill-opacity="1" fill-rule="nonzero"/><path fill="#000000" d="M 628.679688 273.363281 C 628.679688 266.808594 633.738281 262.1875 640.136719 262.1875 C 643.746094 262.1875 646.871094 263.640625 648.730469 265.539062 L 645.640625 269.042969 C 644.226562 267.699219 642.257812 266.808594 640.097656 266.808594 C 636.304688 266.808594 633.589844 269.601562 633.589844 273.289062 C 633.589844 276.863281 636.15625 279.84375 640.0625 279.84375 C 642.257812 279.84375 644.304688 278.914062 645.417969 277.796875 L 645.417969 275.300781 L 639.949219 275.300781 L 639.949219 271.164062 L 649.808594 271.164062 L 649.808594 280.253906 C 647.167969 282.898438 643.820312 284.464844 639.988281 284.464844 C 633.367188 284.425781 628.679688 279.734375 628.679688 273.363281 Z M 628.679688 273.363281 " fill-opacity="1" fill-rule="nonzero"/><path fill="#000000" d="M 662.160156 262.5625 L 666.996094 262.5625 L 666.996094 284.128906 L 662.160156 284.128906 Z M 662.160156 262.5625 " fill-opacity="1" fill-rule="nonzero"/><path fill="#000000" d="M 699.023438 262.5625 L 699.023438 284.128906 L 695.566406 284.128906 L 685.035156 271.648438 L 685.035156 284.128906 L 680.273438 284.128906 L 680.273438 262.5625 L 683.550781 262.5625 L 694.300781 275.152344 L 694.300781 262.5625 Z M 699.023438 262.5625 " fill-opacity="1" fill-rule="nonzero"/><g clip-path="url(#4bb8ef7c3e)"><path fill="#000000" d="M 712.339844 262.5625 L 727.371094 262.5625 L 727.371094 267.066406 L 717.175781 267.066406 L 717.175781 271.054688 L 726.625 271.054688 L 726.625 275.523438 L 717.175781 275.523438 L 717.175781 279.621094 L 727.332031 279.621094 L 727.332031 284.128906 L 712.339844 284.128906 Z M 712.339844 262.5625 " fill-opacity="1" fill-rule="nonzero"/></g><path fill="#1d70e9" d="M 317.722656 201.769531 L 322.003906 215.03125 L 326.355469 228.402344 C 334.722656 219.089844 341.160156 208.101562 345.140625 195.882812 L 331.414062 198.789062 Z M 317.722656 201.769531 " fill-opacity="1" fill-rule="nonzero"/><path fill="#225ae6" d="M 259.433594 258.3125 C 272.453125 258.3125 284.914062 255.519531 296.035156 250.527344 L 284.691406 242.222656 L 273.417969 233.988281 L 266.460938 246.097656 L 259.433594 258.3125 " fill-opacity="1" fill-rule="nonzero"/><path fill="#225ae6" d="M 298.976562 222.628906 L 297.523438 236.558594 L 296.074219 250.527344 C 307.644531 245.351562 317.949219 237.789062 326.355469 228.441406 L 312.628906 225.535156 Z M 298.976562 222.628906 " fill-opacity="1" fill-rule="nonzero"/><path fill="#4b8bed" d="M 201.175781 201.769531 L 187.488281 198.863281 L 173.761719 195.957031 C 177.742188 208.101562 184.175781 219.164062 192.546875 228.476562 L 196.898438 215.105469 Z M 201.175781 201.769531 " fill-opacity="1" fill-rule="nonzero"/><path fill="#4b8bed" d="M 326.355469 175.136719 L 335.691406 185.492188 L 345.066406 195.957031 C 347.894531 187.203125 349.457031 177.78125 349.457031 168.058594 C 349.457031 164.890625 349.308594 161.726562 348.972656 158.597656 L 337.589844 166.867188 Z M 326.355469 175.136719 " fill-opacity="1" fill-rule="nonzero"/><path fill="#4b8bed" d="M 323.414062 147.234375 L 336.175781 152.933594 L 349.007812 158.632812 C 347.671875 145.746094 343.652344 133.636719 337.441406 122.949219 L 330.410156 135.128906 Z M 323.414062 147.234375 " fill-opacity="1" fill-rule="nonzero"/><path fill="#4b8bed" d="M 219.886719 222.628906 L 206.199219 225.535156 L 192.472656 228.441406 C 200.839844 237.789062 211.183594 245.3125 222.753906 250.527344 L 221.300781 236.558594 Z M 219.886719 222.628906 " fill-opacity="1" fill-rule="nonzero"/><path fill="#4b8bed" d="M 259.394531 258.3125 L 252.4375 246.171875 L 245.480469 234.027344 L 234.171875 242.257812 L 222.789062 250.527344 C 233.988281 255.519531 246.375 258.277344 259.394531 258.3125 " fill-opacity="1" fill-rule="nonzero"/><path fill="#4b8bed" d="M 273.457031 233.988281 L 284.726562 242.222656 L 296.109375 250.492188 L 297.5625 236.523438 L 299.011719 222.589844 C 291.460938 228.03125 282.832031 232.015625 273.457031 233.988281 Z M 273.457031 233.988281 " fill-opacity="1" fill-rule="nonzero"/><path fill="#4b8bed" d="M 317.722656 201.769531 C 313 209.925781 306.5625 217.042969 299.011719 222.554688 L 299.011719 222.589844 L 312.703125 225.496094 L 326.429688 228.402344 L 322.078125 215.03125 Z M 317.722656 201.769531 " fill-opacity="1" fill-rule="nonzero"/><path fill="#d1e0f9" d="M 286.8125 106.445312 L 282.53125 93.109375 L 278.179688 79.738281 L 268.804688 90.167969 L 259.46875 100.597656 C 269.214844 100.636719 278.441406 102.683594 286.8125 106.445312 Z M 286.8125 106.445312 " fill-opacity="1" fill-rule="nonzero"/><path fill="#d1e0f9" d="M 259.394531 100.671875 L 250.058594 90.242188 L 240.683594 79.8125 L 236.332031 93.183594 L 232.050781 106.445312 C 240.421875 102.757812 249.683594 100.671875 259.394531 100.671875 Z M 259.394531 100.671875 " fill-opacity="1" fill-rule="nonzero"/><path fill="#d1e0f9" d="M 209.433594 122.949219 C 215.722656 115.945312 223.421875 110.320312 232.050781 106.445312 L 219.292969 100.746094 L 206.496094 95.046875 L 207.945312 109.015625 Z M 209.433594 122.949219 " fill-opacity="1" fill-rule="nonzero"/><path fill="#d1e0f9" d="M 209.433594 122.949219 L 195.484375 122.910156 L 181.421875 122.910156 L 188.453125 135.089844 L 195.410156 147.160156 C 198.386719 138.109375 203.222656 129.875 209.433594 122.949219 Z M 209.433594 122.949219 " fill-opacity="1" fill-rule="nonzero"/><g clip-path="url(#c308ea83a9)"><path fill="#d1e0f9" d="M 169.855469 158.632812 L 181.238281 166.902344 L 192.546875 175.136719 C 192.324219 172.824219 192.175781 170.480469 192.175781 168.09375 C 192.175781 160.832031 193.363281 153.789062 195.449219 147.234375 L 182.6875 152.933594 Z M 169.855469 158.632812 " fill-opacity="1" fill-rule="nonzero"/></g><path fill="#a3c4f5" d="M 209.433594 122.949219 L 207.984375 109.015625 L 206.535156 95.046875 C 196.339844 102.460938 187.820312 111.957031 181.496094 122.949219 Z M 209.433594 122.949219 " fill-opacity="1" fill-rule="nonzero"/><g clip-path="url(#bc0602fb6c)"><path fill="#a3c4f5" d="M 182.6875 152.859375 L 195.449219 147.160156 L 188.492188 135.089844 L 181.460938 122.949219 C 175.285156 133.636719 171.230469 145.746094 169.890625 158.632812 Z M 182.6875 152.859375 " fill-opacity="1" fill-rule="nonzero"/></g><path fill="#a3c4f5" d="M 232.050781 106.445312 L 236.332031 93.183594 L 240.683594 79.8125 C 228.148438 82.492188 216.503906 87.785156 206.457031 95.085938 L 219.292969 100.785156 Z M 232.050781 106.445312 " fill-opacity="1" fill-rule="nonzero"/><path fill="#a3c4f5" d="M 259.433594 100.597656 L 268.769531 90.242188 L 278.144531 79.773438 C 272.078125 78.472656 265.867188 77.835938 259.433594 77.835938 C 252.996094 77.835938 246.710938 78.546875 240.71875 79.773438 L 250.09375 90.242188 Z M 259.433594 100.597656 " fill-opacity="1" fill-rule="nonzero"/><path fill="#a3c4f5" d="M 323.414062 147.234375 L 330.371094 135.164062 L 337.402344 122.984375 L 309.429688 122.984375 L 309.429688 123.023438 C 315.679688 129.875 320.476562 138.144531 323.414062 147.234375 Z M 323.414062 147.234375 " fill-opacity="1" fill-rule="nonzero"/><path fill="#a3c4f5" d="M 286.8125 106.445312 C 295.441406 110.320312 303.179688 115.945312 309.429688 122.949219 L 309.464844 122.949219 L 310.917969 109.015625 L 312.367188 95.046875 L 299.570312 100.746094 Z M 286.8125 106.445312 " fill-opacity="1" fill-rule="nonzero"/><path fill="#a3c4f5" d="M 192.546875 175.136719 L 183.171875 185.492188 L 173.796875 195.921875 L 187.523438 198.824219 L 201.214844 201.730469 C 196.5625 193.761719 193.511719 184.746094 192.546875 175.136719 Z M 192.546875 175.136719 " fill-opacity="1" fill-rule="nonzero"/><path fill="#a3c4f5" d="M 219.886719 222.628906 C 212.261719 217.042969 205.902344 209.964844 201.175781 201.769531 L 196.898438 215.03125 L 192.546875 228.402344 L 206.273438 225.496094 Z M 219.886719 222.628906 " fill-opacity="1" fill-rule="nonzero"/><g clip-path="url(#a98df22f97)"><path fill="#77a7f1" d="M 192.472656 175.136719 L 181.164062 166.902344 L 169.855469 158.632812 C 169.519531 161.761719 169.371094 164.855469 169.371094 168.09375 C 169.371094 177.816406 170.933594 187.242188 173.761719 195.996094 L 183.132812 185.492188 Z M 192.472656 175.136719 " fill-opacity="1" fill-rule="nonzero"/></g><path fill="#77a7f1" d="M 309.429688 122.949219 L 337.402344 122.949219 C 331.078125 111.996094 322.484375 102.496094 312.367188 95.046875 L 310.917969 109.015625 Z M 309.429688 122.949219 " fill-opacity="1" fill-rule="nonzero"/><path fill="#77a7f1" d="M 286.8125 106.445312 L 299.570312 100.746094 L 312.40625 95.046875 C 302.359375 87.671875 290.753906 82.417969 278.179688 79.738281 L 282.53125 93.109375 Z M 286.8125 106.445312 " fill-opacity="1" fill-rule="nonzero"/><path fill="#77a7f1" d="M 259.433594 258.3125 L 266.460938 246.132812 L 273.417969 234.027344 C 268.917969 234.996094 264.191406 235.480469 259.433594 235.480469 C 254.671875 235.480469 249.945312 234.996094 245.445312 234.027344 L 252.402344 246.132812 L 259.433594 258.3125 " fill-opacity="1" fill-rule="nonzero"/><path fill="#77a7f1" d="M 317.722656 201.769531 L 331.414062 198.863281 L 345.140625 195.957031 L 335.691406 185.492188 L 326.355469 175.136719 C 325.351562 184.746094 322.335938 193.761719 317.722656 201.769531 Z M 317.722656 201.769531 " fill-opacity="1" fill-rule="nonzero"/><path fill="#77a7f1" d="M 326.6875 168.09375 C 326.6875 170.480469 326.578125 172.824219 326.316406 175.136719 L 337.625 166.902344 L 349.007812 158.632812 L 336.175781 152.933594 L 323.414062 147.234375 C 325.574219 153.789062 326.6875 160.792969 326.6875 168.09375 Z M 326.6875 168.09375 " fill-opacity="1" fill-rule="nonzero"/><path fill="#77a7f1" d="M 219.886719 222.628906 L 221.339844 236.558594 L 222.789062 250.527344 L 234.171875 242.257812 L 245.480469 234.027344 C 236.070312 232.015625 227.402344 228.03125 219.886719 222.628906 Z M 219.886719 222.628906 " fill-opacity="1" fill-rule="nonzero"/><path fill="#000000" d="M 259.433594 100.597656 C 222.269531 100.597656 192.136719 130.808594 192.136719 168.019531 C 192.136719 205.234375 222.269531 235.441406 259.433594 235.441406 C 296.59375 235.441406 326.726562 205.269531 326.726562 168.019531 C 326.726562 130.769531 296.59375 100.597656 259.433594 100.597656 Z M 259.433594 211.75 C 235.363281 211.75 215.796875 192.195312 215.796875 168.019531 C 215.796875 143.84375 235.324219 124.289062 259.433594 124.289062 C 283.539062 124.289062 303.066406 143.84375 303.066406 168.019531 C 303.066406 192.195312 283.539062 211.75 259.433594 211.75 Z M 259.433594 211.75 " fill-opacity="1" fill-rule="nonzero"/><g mask="url(#1ebb81f35e)"><g transform="matrix(1, 0, 0, 1, 0, 318)"><g clip-path="url(#1a0324789d)"><g clip-path="url(#7b65f2cf3a)"><path fill="#fefefe" d="M -3.03125 1.164062 L 899.859375 1.164062 L 899.859375 75.4375 L -3.03125 75.4375 Z M -3.03125 1.164062 " fill-opacity="1" fill-rule="nonzero"/></g></g></g></g><g fill="#000000" fill-opacity="1"><g transform="translate(65.648382, 376.881829)"><g><path d="M 38.15625 0 L 38.109375 -22.265625 L 27.1875 -3.921875 L 23.3125 -3.921875 L 12.453125 -21.78125 L 12.453125 0 L 4.40625 0 L 4.40625 -37.09375 L 11.5 -37.09375 L 25.390625 -14.046875 L 39.0625 -37.09375 L 46.109375 -37.09375 L 46.21875 0 Z M 38.15625 0 "/></g></g></g><g fill="#000000" fill-opacity="1"><g transform="translate(128.180818, 376.881829)"><g><path d="M 28.828125 -7.953125 L 11.609375 -7.953125 L 8.328125 0 L -0.484375 0 L 16.0625 -37.09375 L 24.53125 -37.09375 L 41.125 0 L 32.125 0 Z M 26.125 -14.46875 L 20.25 -28.671875 L 14.359375 -14.46875 Z M 26.125 -14.46875 "/></g></g></g><g fill="#000000" fill-opacity="1"><g transform="translate(180.697729, 376.881829)"><g><path d="M 16.59375 0.640625 C 13.65625 0.640625 10.816406 0.242188 8.078125 -0.546875 C 5.335938 -1.347656 3.140625 -2.382812 1.484375 -3.65625 L 4.40625 -10.125 C 5.988281 -8.957031 7.875 -8.019531 10.0625 -7.3125 C 12.257812 -6.601562 14.453125 -6.25 16.640625 -6.25 C 19.078125 -6.25 20.878906 -6.609375 22.046875 -7.328125 C 23.210938 -8.054688 23.796875 -9.023438 23.796875 -10.234375 C 23.796875 -11.109375 23.453125 -11.835938 22.765625 -12.421875 C 22.078125 -13.003906 21.191406 -13.472656 20.109375 -13.828125 C 19.035156 -14.179688 17.578125 -14.570312 15.734375 -15 C 12.910156 -15.664062 10.597656 -16.332031 8.796875 -17 C 6.992188 -17.675781 5.445312 -18.753906 4.15625 -20.234375 C 2.863281 -21.722656 2.21875 -23.707031 2.21875 -26.1875 C 2.21875 -28.34375 2.800781 -30.289062 3.96875 -32.03125 C 5.132812 -33.78125 6.890625 -35.164062 9.234375 -36.1875 C 11.585938 -37.21875 14.460938 -37.734375 17.859375 -37.734375 C 20.222656 -37.734375 22.535156 -37.453125 24.796875 -36.890625 C 27.066406 -36.328125 29.046875 -35.515625 30.734375 -34.453125 L 28.09375 -27.9375 C 24.664062 -29.875 21.238281 -30.84375 17.8125 -30.84375 C 15.40625 -30.84375 13.628906 -30.453125 12.484375 -29.671875 C 11.335938 -28.898438 10.765625 -27.878906 10.765625 -26.609375 C 10.765625 -25.335938 11.425781 -24.390625 12.75 -23.765625 C 14.070312 -23.148438 16.09375 -22.539062 18.8125 -21.9375 C 21.644531 -21.269531 23.960938 -20.597656 25.765625 -19.921875 C 27.566406 -19.253906 29.109375 -18.195312 30.390625 -16.75 C 31.679688 -15.300781 32.328125 -13.335938 32.328125 -10.859375 C 32.328125 -8.742188 31.734375 -6.8125 30.546875 -5.0625 C 29.367188 -3.3125 27.59375 -1.921875 25.21875 -0.890625 C 22.851562 0.128906 19.976562 0.640625 16.59375 0.640625 Z M 16.59375 0.640625 "/></g></g></g><g fill="#000000" fill-opacity="1"><g transform="translate(226.431635, 376.881829)"><g><path d="M 22.15625 0.640625 C 18.375 0.640625 14.953125 -0.179688 11.890625 -1.828125 C 8.835938 -3.472656 6.4375 -5.75 4.6875 -8.65625 C 2.9375 -11.570312 2.0625 -14.867188 2.0625 -18.546875 C 2.0625 -22.222656 2.9375 -25.519531 4.6875 -28.4375 C 6.4375 -31.351562 8.835938 -33.628906 11.890625 -35.265625 C 14.953125 -36.910156 18.390625 -37.734375 22.203125 -37.734375 C 25.421875 -37.734375 28.328125 -37.164062 30.921875 -36.03125 C 33.523438 -34.90625 35.707031 -33.28125 37.46875 -31.15625 L 31.953125 -26.078125 C 29.453125 -28.972656 26.34375 -30.421875 22.625 -30.421875 C 20.332031 -30.421875 18.285156 -29.914062 16.484375 -28.90625 C 14.679688 -27.90625 13.273438 -26.503906 12.265625 -24.703125 C 11.265625 -22.898438 10.765625 -20.847656 10.765625 -18.546875 C 10.765625 -16.253906 11.265625 -14.207031 12.265625 -12.40625 C 13.273438 -10.601562 14.679688 -9.195312 16.484375 -8.1875 C 18.285156 -7.175781 20.332031 -6.671875 22.625 -6.671875 C 26.34375 -6.671875 29.453125 -8.140625 31.953125 -11.078125 L 37.46875 -5.984375 C 35.707031 -3.828125 33.519531 -2.179688 30.90625 -1.046875 C 28.289062 0.078125 25.375 0.640625 22.15625 0.640625 Z M 22.15625 0.640625 "/></g></g></g><g fill="#000000" fill-opacity="1"><g transform="translate(277.199797, 376.881829)"><g><path d="M 22.359375 0.640625 C 18.515625 0.640625 15.046875 -0.1875 11.953125 -1.84375 C 8.859375 -3.507812 6.4375 -5.800781 4.6875 -8.71875 C 2.9375 -11.632812 2.0625 -14.910156 2.0625 -18.546875 C 2.0625 -22.191406 2.9375 -25.46875 4.6875 -28.375 C 6.4375 -31.289062 8.859375 -33.578125 11.953125 -35.234375 C 15.046875 -36.898438 18.515625 -37.734375 22.359375 -37.734375 C 26.210938 -37.734375 29.675781 -36.898438 32.75 -35.234375 C 35.820312 -33.578125 38.242188 -31.289062 40.015625 -28.375 C 41.785156 -25.46875 42.671875 -22.191406 42.671875 -18.546875 C 42.671875 -14.910156 41.785156 -11.632812 40.015625 -8.71875 C 38.242188 -5.800781 35.820312 -3.507812 32.75 -1.84375 C 29.675781 -0.1875 26.210938 0.640625 22.359375 0.640625 Z M 22.359375 -6.671875 C 24.554688 -6.671875 26.535156 -7.175781 28.296875 -8.1875 C 30.066406 -9.195312 31.453125 -10.601562 32.453125 -12.40625 C 33.460938 -14.207031 33.96875 -16.253906 33.96875 -18.546875 C 33.96875 -20.847656 33.460938 -22.898438 32.453125 -24.703125 C 31.453125 -26.503906 30.066406 -27.90625 28.296875 -28.90625 C 26.535156 -29.914062 24.554688 -30.421875 22.359375 -30.421875 C 20.171875 -30.421875 18.191406 -29.914062 16.421875 -28.90625 C 14.660156 -27.90625 13.273438 -26.503906 12.265625 -24.703125 C 11.265625 -22.898438 10.765625 -20.847656 10.765625 -18.546875 C 10.765625 -16.253906 11.265625 -14.207031 12.265625 -12.40625 C 13.273438 -10.601562 14.660156 -9.195312 16.421875 -8.1875 C 18.191406 -7.175781 20.171875 -6.671875 22.359375 -6.671875 Z M 22.359375 -6.671875 "/></g></g></g><g fill="#000000" fill-opacity="1"><g transform="translate(333.850085, 376.881829)"><g><path d="M 12.078125 -30.109375 L 0.21875 -30.109375 L 0.21875 -37.09375 L 32.546875 -37.09375 L 32.546875 -30.109375 L 20.671875 -30.109375 L 20.671875 0 L 12.078125 0 Z M 12.078125 -30.109375 "/></g></g></g><g fill="#000000" fill-opacity="1"><g transform="translate(378.524154, 376.881829)"><g/></g></g><g fill="#000000" fill-opacity="1"><g transform="translate(405.445829, 376.881829)"><g><path d="M 22.15625 0.640625 C 18.375 0.640625 14.953125 -0.179688 11.890625 -1.828125 C 8.835938 -3.472656 6.4375 -5.75 4.6875 -8.65625 C 2.9375 -11.570312 2.0625 -14.867188 2.0625 -18.546875 C 2.0625 -22.222656 2.9375 -25.519531 4.6875 -28.4375 C 6.4375 -31.351562 8.835938 -33.628906 11.890625 -35.265625 C 14.953125 -36.910156 18.390625 -37.734375 22.203125 -37.734375 C 25.421875 -37.734375 28.328125 -37.164062 30.921875 -36.03125 C 33.523438 -34.90625 35.707031 -33.28125 37.46875 -31.15625 L 31.953125 -26.078125 C 29.453125 -28.972656 26.34375 -30.421875 22.625 -30.421875 C 20.332031 -30.421875 18.285156 -29.914062 16.484375 -28.90625 C 14.679688 -27.90625 13.273438 -26.503906 12.265625 -24.703125 C 11.265625 -22.898438 10.765625 -20.847656 10.765625 -18.546875 C 10.765625 -16.253906 11.265625 -14.207031 12.265625 -12.40625 C 13.273438 -10.601562 14.679688 -9.195312 16.484375 -8.1875 C 18.285156 -7.175781 20.332031 -6.671875 22.625 -6.671875 C 26.34375 -6.671875 29.453125 -8.140625 31.953125 -11.078125 L 37.46875 -5.984375 C 35.707031 -3.828125 33.519531 -2.179688 30.90625 -1.046875 C 28.289062 0.078125 25.375 0.640625 22.15625 0.640625 Z M 22.15625 0.640625 "/></g></g></g><g fill="#000000" fill-opacity="1"><g transform="translate(456.213968, 376.881829)"><g><path d="M 38.421875 -37.09375 L 38.421875 0 L 29.84375 0 L 29.84375 -15.21875 L 12.984375 -15.21875 L 12.984375 0 L 4.40625 0 L 4.40625 -37.09375 L 12.984375 -37.09375 L 12.984375 -22.46875 L 29.84375 -22.46875 L 29.84375 -37.09375 Z M 38.421875 -37.09375 "/></g></g></g><g fill="#000000" fill-opacity="1"><g transform="translate(510.956549, 376.881829)"><g><path d="M 28.828125 -7.953125 L 11.609375 -7.953125 L 8.328125 0 L -0.484375 0 L 16.0625 -37.09375 L 24.53125 -37.09375 L 41.125 0 L 32.125 0 Z M 26.125 -14.46875 L 20.25 -28.671875 L 14.359375 -14.46875 Z M 26.125 -14.46875 "/></g></g></g><g fill="#000000" fill-opacity="1"><g transform="translate(563.473482, 376.881829)"><g><path d="M 4.40625 -37.09375 L 12.984375 -37.09375 L 12.984375 -7 L 31.59375 -7 L 31.59375 0 L 4.40625 0 Z M 4.40625 -37.09375 "/></g></g></g><g fill="#000000" fill-opacity="1"><g transform="translate(607.405654, 376.881829)"><g><path d="M 4.40625 -37.09375 L 12.984375 -37.09375 L 12.984375 -7 L 31.59375 -7 L 31.59375 0 L 4.40625 0 Z M 4.40625 -37.09375 "/></g></g></g><g fill="#000000" fill-opacity="1"><g transform="translate(651.337826, 376.881829)"><g><path d="M 33.125 -6.890625 L 33.125 0 L 4.40625 0 L 4.40625 -37.09375 L 32.4375 -37.09375 L 32.4375 -30.203125 L 12.9375 -30.203125 L 12.9375 -22.15625 L 30.15625 -22.15625 L 30.15625 -15.46875 L 12.9375 -15.46875 L 12.9375 -6.890625 Z M 33.125 -6.890625 "/></g></g></g><g fill="#000000" fill-opacity="1"><g transform="translate(698.820459, 376.881829)"><g><path d="M 38.421875 -37.09375 L 38.421875 0 L 31.375 0 L 12.875 -22.53125 L 12.875 0 L 4.40625 0 L 4.40625 -37.09375 L 11.5 -37.09375 L 29.9375 -14.578125 L 29.9375 -37.09375 Z M 38.421875 -37.09375 "/></g></g></g><g fill="#000000" fill-opacity="1"><g transform="translate(753.563039, 376.881829)"><g><path d="M 29.46875 -19.140625 L 37.3125 -19.140625 L 37.3125 -4.078125 C 35.300781 -2.554688 32.96875 -1.390625 30.3125 -0.578125 C 27.664062 0.234375 25 0.640625 22.3125 0.640625 C 18.457031 0.640625 14.992188 -0.179688 11.921875 -1.828125 C 8.847656 -3.472656 6.4375 -5.75 4.6875 -8.65625 C 2.9375 -11.570312 2.0625 -14.867188 2.0625 -18.546875 C 2.0625 -22.222656 2.9375 -25.519531 4.6875 -28.4375 C 6.4375 -31.351562 8.863281 -33.628906 11.96875 -35.265625 C 15.082031 -36.910156 18.582031 -37.734375 22.46875 -37.734375 C 25.71875 -37.734375 28.664062 -37.1875 31.3125 -36.09375 C 33.96875 -35 36.195312 -33.410156 38 -31.328125 L 32.484375 -26.234375 C 29.835938 -29.023438 26.640625 -30.421875 22.890625 -30.421875 C 20.523438 -30.421875 18.421875 -29.925781 16.578125 -28.9375 C 14.742188 -27.945312 13.316406 -26.550781 12.296875 -24.75 C 11.273438 -22.945312 10.765625 -20.878906 10.765625 -18.546875 C 10.765625 -16.253906 11.273438 -14.207031 12.296875 -12.40625 C 13.316406 -10.601562 14.738281 -9.195312 16.5625 -8.1875 C 18.382812 -7.175781 20.460938 -6.671875 22.796875 -6.671875 C 25.265625 -6.671875 27.488281 -7.203125 29.46875 -8.265625 Z M 29.46875 -19.140625 "/></g></g></g><g fill="#000000" fill-opacity="1"><g transform="translate(806.344926, 376.881829)"><g><path d="M 33.125 -6.890625 L 33.125 0 L 4.40625 0 L 4.40625 -37.09375 L 32.4375 -37.09375 L 32.4375 -30.203125 L 12.9375 -30.203125 L 12.9375 -22.15625 L 30.15625 -22.15625 L 30.15625 -15.46875 L 12.9375 -15.46875 L 12.9375 -6.890625 Z M 33.125 -6.890625 "/></g></g></g></svg>