<svg width="380" height="138" viewBox="0 0 380 138" fill="none" xmlns="http://www.w3.org/2000/svg">
<g clip-path="url(#clip0_4240_17543)">
<path d="M278.304 28.4135C269.443 20.1172 257.267 15.7368 242.979 15.7368H210.786C208.391 15.7368 206.351 17.7767 206.351 20.2902V103.572C206.351 106.086 208.391 108.125 210.786 108.125H242.979C257.276 108.125 269.443 103.763 278.295 95.5216C287.256 87.1707 292.001 75.5777 292.001 62.0085C292.001 48.4394 287.265 36.81 278.304 28.4226V28.4135ZM262.759 80.723C257.905 85.8138 251.056 88.5094 242.951 88.5094H229.446C228.49 88.5094 227.716 87.7353 227.716 86.7791V37.0832C227.716 36.127 228.49 35.3529 229.446 35.3529H242.951C259.508 35.3529 269.798 45.5616 269.798 61.9994C269.798 69.3122 267.303 75.9602 262.759 80.723Z" fill="#010000"/>
<path d="M328.847 35.3529H376.521C378.443 35.3529 380 33.7956 380 31.8741V19.9715C380 17.6401 378.106 15.7368 375.164 15.7368H309.786C307.883 15.7368 305.834 17.7767 305.834 20.2902V103.572C305.834 106.086 307.874 108.125 309.786 108.125H375.164C378.097 108.125 380 106.231 380 103.891V91.9882C380 90.0666 378.443 88.5094 376.521 88.5094H328.847C327.891 88.5094 327.117 87.7353 327.117 86.7791V73.2372C327.117 72.281 327.891 71.5069 328.847 71.5069H375.975C377.896 71.5069 379.453 69.9497 379.453 68.0281V55.3697C379.453 53.4481 377.896 51.8909 375.975 51.8909H328.847C327.891 51.8909 327.117 51.1168 327.117 50.1606V37.0923C327.117 36.1361 327.891 35.362 328.847 35.362V35.3529Z" fill="#010000"/>
<path d="M186.453 64.7495C184.404 62.919 181.863 61.4164 178.867 60.2598C178.011 59.932 177.92 58.7663 178.703 58.3019C180.879 56.9996 182.774 55.4605 184.385 53.6938C188.265 49.5047 190.223 44.1226 190.223 38.0665C190.223 30.7447 187.072 24.9618 180.861 20.8729C174.969 17.0025 166.955 15.0354 157.029 15.0354C148.004 15.0354 139.99 16.7566 132.723 20.1443C130.965 20.9639 129.936 23.0676 130.737 25.1986C130.801 25.3807 130.892 25.5447 130.992 25.7086C132.905 29.0599 134.58 32.648 135.955 36.3636C136.52 37.8844 137.986 38.9044 139.598 38.9044C140.217 38.9044 140.837 38.7495 141.392 38.4672C143.541 37.3562 145.554 36.5275 147.394 35.9902C150.18 35.125 152.803 34.6879 155.663 34.6879C165.106 34.6879 166.318 38.6312 166.318 42.0644C166.318 45.4977 165.152 47.7744 162.675 49.1313C159.733 50.7068 154.861 51.4991 148.204 51.4991H143.951C143.642 51.4991 143.332 51.5264 143.031 51.6084C141.037 52.1183 139.899 53.967 140.054 55.8157C140.236 57.8921 140.327 60.014 140.327 62.1358C140.327 63.4381 140.29 64.8041 140.208 66.1884C140.145 67.263 140.536 68.3285 141.265 69.1208C142.002 69.904 143.041 70.3593 144.106 70.3593H148.049C155.344 70.3593 160.653 71.1334 163.822 72.6542C166.527 73.9656 167.729 75.9509 167.729 79.1109C167.729 82.8538 166.618 85.167 164.232 86.7698C161.6 88.5274 157.147 89.4563 151.364 89.4563C147.412 89.4563 143.578 88.9372 139.534 87.9263C139.197 87.8353 138.851 87.7806 138.496 87.7806C136.93 87.7806 135.527 88.7277 134.917 90.1848C133.506 93.5726 131.803 96.9148 129.854 100.12C129.198 101.195 129.089 102.488 129.553 103.654C130.009 104.81 131.02 105.666 132.203 106.003C138.678 107.87 145.682 108.817 153.477 108.817C165.835 108.817 175.543 106.331 182.336 101.423C189.385 96.3137 192.955 89.2832 192.955 80.1946C192.955 73.7652 190.76 68.5653 186.435 64.7404L186.453 64.7495Z" fill="#010000"/>
<path d="M61.9263 0C27.7849 0 0 27.7849 0 61.9263C0 96.0678 27.7849 123.853 61.9263 123.853C96.0678 123.853 123.853 96.0678 123.853 61.9263C123.853 27.7849 96.0769 0 61.9263 0ZM88.8643 61.9263C88.8643 76.7795 76.7795 88.8643 61.9263 88.8643C47.0731 88.8643 34.9884 76.7795 34.9884 61.9263C34.9884 47.0731 47.0731 34.9884 61.9263 34.9884C76.7795 34.9884 88.8643 47.0731 88.8643 61.9263ZM53.0108 106.987C55.8976 107.561 58.8755 107.861 61.9263 107.861C64.9771 107.861 67.955 107.551 70.8419 106.987L70.9239 107.051L61.9263 122.641L52.9197 107.051L53.0017 106.987H53.0108ZM105.402 47.1369C103.444 41.3996 100.384 36.1814 96.4776 31.7099L96.4958 31.5642H114.518L105.502 47.1733L105.402 47.1278V47.1369ZM95.5851 30.7264C91.5417 26.3642 86.6604 22.7944 81.1964 20.2536L81.1599 20.1352L97.6068 12.8133L95.7217 30.7173H95.5851V30.7264ZM80.8958 19.3338L75.3862 2.36777C83.3456 4.16181 90.713 7.52223 97.1606 12.0938L80.8958 19.3338ZM80.1217 19.6798L80.0216 19.7254C74.6486 17.4122 68.7564 16.11 62.5729 16.0189L62.5001 15.9369L74.5575 2.54991L80.1217 19.6798ZM61.2889 16.0189C55.0962 16.1008 49.2041 17.4122 43.8311 19.7254L43.7309 19.6798L49.3043 2.5408L61.3617 15.9369L61.2889 16.0189ZM42.9568 19.3338L26.6921 12.0938C33.1397 7.52223 40.5162 4.16181 48.4756 2.36777L42.9659 19.3338H42.9568ZM42.6927 20.1443L42.6563 20.2536C37.2013 22.7852 32.3201 26.3642 28.2675 30.7264H28.1218L26.2367 12.8224L42.6836 20.1443H42.6927ZM27.3842 31.719C23.4774 36.1814 20.4175 41.4087 18.4595 47.1369L18.3593 47.1824L9.3527 31.5733H27.366L27.3842 31.719ZM17.5853 47.5285L1.28406 54.7775C2.24028 46.6178 4.8084 38.9407 8.66969 32.0833L17.5853 47.5194V47.5285ZM18.0133 48.2661L18.0588 48.339C16.7201 52.6374 16.0007 57.209 16.0007 61.9354C16.0007 63.3379 16.0735 64.7312 16.201 66.1064L16.1282 66.1883L1.53905 55.588L18.0042 48.257L18.0133 48.2661ZM16.3376 67.3904C17.0571 73.4738 18.9786 79.202 21.8472 84.3291L21.8108 84.4475L4.19824 80.7046L16.2466 67.3267L16.3376 67.3904ZM21.5467 85.258L16.0462 102.188C10.8098 96.2226 6.71172 89.2286 4.10717 81.5515L21.5467 85.258ZM22.3845 85.431L22.5029 85.4583C25.5901 90.6128 29.6427 95.1115 34.4238 98.6996V98.818L16.8112 102.561L22.3754 85.431H22.3845ZM35.4984 99.4555C40.325 102.871 45.8346 105.375 51.7813 106.723L51.836 106.823L37.256 117.414L35.3709 99.4919L35.4984 99.4646V99.4555ZM52.2549 107.551L61.1705 122.997C52.8924 122.896 44.9968 121.139 37.8206 118.043L52.2549 107.551ZM71.6342 107.551L86.0685 118.043C78.8832 121.139 70.9967 122.896 62.7186 122.997L71.6342 107.551ZM72.0622 106.814L72.1169 106.714C78.0545 105.366 83.5641 102.861 88.3907 99.4555L88.5182 99.4828L86.6331 117.405L72.0622 106.814ZM89.4562 98.6905C94.2464 95.1025 98.2989 90.5946 101.386 85.4401L101.505 85.4128L107.069 102.552L89.438 98.7998V98.6814L89.4562 98.6905ZM102.351 85.2398L119.8 81.5333C117.186 89.2103 113.098 96.2044 107.852 102.178L102.351 85.2489V85.2398ZM102.087 84.4293L102.051 84.3109C104.92 79.1837 106.841 73.4647 107.561 67.3722L107.652 67.3085L119.7 80.6864L102.087 84.4293ZM107.697 66.0881C107.825 64.713 107.898 63.3288 107.898 61.9263C107.898 57.1999 107.178 52.6283 105.839 48.3299L105.885 48.257L122.35 55.588L107.779 66.1792L107.706 66.0973L107.697 66.0881ZM106.313 47.5194L115.229 32.0742C119.09 38.9316 121.658 46.6087 122.614 54.7775L106.313 47.5194ZM114.445 30.7173H96.6142L98.4811 12.9863C104.892 17.7856 110.329 23.8143 114.445 30.7173ZM73.8836 2.03082L61.9354 15.2994L49.9782 2.03082C53.8486 1.25674 57.8374 0.846934 61.9263 0.846934C66.0153 0.846934 70.0132 1.25674 73.8745 2.03082H73.8836ZM25.408 12.9954L27.2749 30.7173H9.45287C13.5692 23.8143 19.0059 17.7856 25.4171 12.9954H25.408ZM1.11103 56.3256L15.5453 66.8167L3.59719 80.0853C1.81226 74.348 0.846934 68.2556 0.846934 61.9354C0.846934 60.0412 0.947109 58.1743 1.11103 56.3256ZM17.0935 103.362L34.5148 99.6559L36.3817 117.396C29.0598 114.008 22.512 109.218 17.0935 103.362ZM87.4709 117.405L89.3378 99.665L106.768 103.371C101.35 109.227 94.8019 114.017 87.48 117.405H87.4709ZM120.265 80.0853L108.316 66.8167L122.751 56.3347C122.924 58.1834 123.015 60.0503 123.015 61.9445C123.015 68.2647 122.05 74.3571 120.265 80.0944V80.0853Z" fill="#010000"/>
<path d="M130.063 131.512C130.063 128.288 132.595 125.729 135.873 125.729C139.152 125.729 141.684 128.288 141.684 131.494C141.684 134.699 139.179 137.231 135.855 137.231C132.531 137.231 130.054 134.699 130.054 131.512H130.063ZM139.097 131.494C139.079 129.554 137.64 128.179 135.873 128.179C134.107 128.179 132.65 129.581 132.65 131.494C132.65 133.406 134.07 134.781 135.873 134.781C137.677 134.781 139.115 133.379 139.097 131.494Z" fill="#010000"/>
<path d="M151.574 129.69C151.574 131.63 150.381 133.369 147.357 133.369H145.763V137.058H143.277V125.929H147.539C150.444 125.929 151.574 127.778 151.574 129.69ZM149.024 129.663C149.024 128.898 148.477 128.215 147.548 128.215H145.754V131.12H147.439C148.541 131.12 149.024 130.401 149.024 129.663Z" fill="#010000"/>
<path d="M152.912 125.92H160.681V128.242H155.408V130.309H160.289V132.613H155.408V134.735H160.662V137.058H152.903V125.929L152.912 125.92Z" fill="#010000"/>
<path d="M172.191 125.92V137.048H170.397L164.96 130.601V137.048H162.511V125.92H164.196L169.751 132.422V125.92H172.191Z" fill="#010000"/>
<path d="M176.927 136.138L177.947 134.153C178.967 134.754 179.814 134.954 180.46 134.954C181.526 134.954 182.118 134.444 182.118 133.734C182.118 133.024 181.526 132.559 180.615 132.559H179.185V130.328H180.342C181.325 130.328 181.881 129.845 181.881 129.18C181.881 128.47 181.262 128.069 180.497 128.069C179.832 128.069 179.249 128.297 178.357 128.898L177.182 127.104C178.074 126.294 179.413 125.729 180.815 125.729C182.837 125.729 184.403 126.977 184.403 128.625C184.403 129.864 183.529 130.747 182.537 131.111V131.175C183.966 131.494 184.722 132.623 184.722 133.916C184.722 135.874 183.047 137.249 180.642 137.249C179.267 137.249 178.065 136.839 176.936 136.147L176.927 136.138Z" fill="#010000"/>
<path d="M186.371 125.92H190.815C194.23 125.92 196.234 128.078 196.234 131.493C196.234 134.908 194.185 137.048 190.733 137.048H186.362V125.92H186.371ZM190.842 134.653C192.727 134.653 193.656 133.178 193.656 131.475C193.656 129.772 192.718 128.315 190.842 128.315H188.857V134.653H190.842Z" fill="#010000"/>
<path d="M201.451 125.92H209.22V128.242H203.947V130.309H208.828V132.613H203.947V134.735H209.201V137.058H201.442V125.929L201.451 125.92Z" fill="#010000"/>
<path d="M220.722 125.92V137.048H218.928L213.491 130.601V137.048H211.032V125.92H212.717L218.272 132.422V125.92H220.713H220.722Z" fill="#010000"/>
<path d="M222.324 131.494C222.324 128.106 224.929 125.729 228.244 125.729C230.111 125.729 231.722 126.485 232.688 127.459L231.094 129.262C230.356 128.57 229.346 128.115 228.235 128.115C226.277 128.115 224.874 129.563 224.874 131.457C224.874 133.351 226.195 134.827 228.216 134.827C229.346 134.827 230.402 134.344 230.985 133.77V132.486H228.153V130.346H233.243V135.027C231.886 136.384 230.138 137.194 228.171 137.194C224.756 137.194 222.324 134.772 222.324 131.475V131.494Z" fill="#010000"/>
<path d="M237.46 125.92V137.048H234.965V125.92H237.46Z" fill="#010000"/>
<path d="M249.335 125.92V137.048H247.541L242.104 130.601V137.048H239.646V125.92H241.33L246.885 132.422V125.92H249.326H249.335Z" fill="#010000"/>
<path d="M251.539 125.92H259.307V128.242H254.034V130.309H258.915V132.613H254.034V134.735H259.289V137.058H251.53V125.929L251.539 125.92Z" fill="#010000"/>
<path d="M267.012 130.473H294.359V132.449H267.012V130.473Z" fill="#010000"/>
<path d="M301.444 131.512C301.444 128.288 303.976 125.729 307.254 125.729C310.533 125.729 313.064 128.288 313.064 131.494C313.064 134.699 310.569 137.231 307.236 137.231C303.903 137.231 301.435 134.699 301.435 131.512H301.444ZM310.478 131.494C310.46 129.554 309.021 128.179 307.254 128.179C305.488 128.179 304.031 129.581 304.031 131.494C304.031 133.406 305.442 134.781 307.254 134.781C309.067 134.781 310.496 133.379 310.478 131.494Z" fill="#010000"/>
<path d="M313.338 136.138L314.358 134.153C315.378 134.754 316.225 134.954 316.871 134.954C317.937 134.954 318.529 134.444 318.529 133.734C318.529 133.024 317.946 132.559 317.026 132.559H315.596V130.328H316.753C317.727 130.328 318.292 129.845 318.292 129.18C318.292 128.47 317.673 128.069 316.908 128.069C316.243 128.069 315.66 128.297 314.768 128.898L313.593 127.104C314.485 126.294 315.824 125.729 317.226 125.729C319.248 125.729 320.815 126.977 320.815 128.625C320.815 129.864 319.94 130.747 318.948 131.111V131.175C320.377 131.494 321.133 132.623 321.133 133.916C321.133 135.874 319.458 137.249 317.053 137.249C315.678 137.249 314.476 136.839 313.347 136.147L313.338 136.138Z" fill="#010000"/>
<path d="M322.782 125.92H327.226C330.641 125.92 332.644 128.078 332.644 131.493C332.644 134.908 330.595 137.048 327.144 137.048H322.772V125.92H322.782ZM327.253 134.653C329.138 134.653 330.067 133.178 330.067 131.475C330.067 129.772 329.129 128.315 327.253 128.315H325.268V134.653H327.253Z" fill="#010000"/>
<path d="M334.293 125.92H342.061V128.242H336.788V130.309H341.669V132.613H336.788V134.735H342.043V137.058H334.284V125.929L334.293 125.92Z" fill="#010000"/>
<path d="M343.299 135.974C343.299 135.236 343.882 134.663 344.638 134.663C345.348 134.663 345.931 135.236 345.931 135.974C345.931 136.712 345.339 137.304 344.638 137.304C343.882 137.304 343.299 136.748 343.299 135.974Z" fill="#010000"/>
<path d="M346.35 131.512C346.35 128.288 348.882 125.729 352.161 125.729C355.439 125.729 357.971 128.288 357.971 131.494C357.971 134.699 355.466 137.231 352.142 137.231C348.818 137.231 346.341 134.699 346.341 131.512H346.35ZM355.384 131.494C355.366 129.554 353.927 128.179 352.161 128.179C350.394 128.179 348.937 129.581 348.937 131.494C348.937 133.406 350.348 134.781 352.161 134.781C353.973 134.781 355.403 133.379 355.384 131.494Z" fill="#010000"/>
<path d="M363.262 133.169H362.041V137.058H359.555V125.929H363.981C366.677 125.929 367.915 127.614 367.915 129.526C367.915 130.856 367.287 132.195 365.757 132.823L368.334 137.058H365.438L363.253 133.169H363.262ZM362.041 130.974H363.808C364.937 130.974 365.356 130.282 365.356 129.572C365.356 128.862 364.892 128.215 363.972 128.215H362.041V130.974Z" fill="#010000"/>
<path d="M369.035 131.494C369.035 128.106 371.64 125.729 374.955 125.729C376.821 125.729 378.433 126.485 379.399 127.459L377.805 129.262C377.067 128.57 376.057 128.115 374.945 128.115C372.988 128.115 371.585 129.563 371.585 131.457C371.585 133.351 372.906 134.827 374.927 134.827C376.057 134.827 377.113 134.344 377.696 133.77V132.486H374.864V130.346H379.954V135.027C378.597 136.384 376.849 137.194 374.882 137.194C371.467 137.194 369.035 134.772 369.035 131.475V131.494Z" fill="#010000"/>
</g>
<defs>
<clipPath id="clip0_4240_17543">
<rect width="380" height="137.294" fill="white"/>
</clipPath>
</defs>
</svg>
