<?xml version="1.0" encoding="utf-8"?>
<!-- Generator: Adobe Illustrator 28.7.1, SVG Export Plug-In . SVG Version: 9.03 Build 54978)  -->
<svg version="1.1" id="Layer_1" xmlns="http://www.w3.org/2000/svg" xmlns:xlink="http://www.w3.org/1999/xlink" x="0px" y="0px"
	 width="1312.7px" height="475.2px" viewBox="0 0 1312.7 475.2" style="enable-background:new 0 0 1312.7 475.2;"
	 xml:space="preserve">
<style type="text/css">
	.Drop_x0020_Shadow{fill:none;}
	.Outer_x0020_Glow_x0020_5_x0020_pt{fill:none;}
	.Blue_x0020_Neon{fill:none;stroke:#8AACDA;stroke-width:7;stroke-linecap:round;stroke-linejoin:round;}
	.Chrome_x0020_Highlight{fill:url(#SVGID_1_);stroke:#FFFFFF;stroke-width:0.3629;stroke-miterlimit:1;}
	.Jive_GS{fill:#FFDD00;}
	.Alyssa_GS{fill:#A6D0E4;}
	.st0{fill-rule:evenodd;clip-rule:evenodd;}
	.st1{fill-rule:evenodd;clip-rule:evenodd;fill:#901A1D;}
	.st2{fill-rule:evenodd;clip-rule:evenodd;fill:#EF5244;}
	.st3{fill-rule:evenodd;clip-rule:evenodd;fill:#6B546C;}
	.st4{fill-rule:evenodd;clip-rule:evenodd;fill:#CEB654;}
	.st5{fill-rule:evenodd;clip-rule:evenodd;fill:#FFFFFF;}
	.st6{fill-rule:evenodd;clip-rule:evenodd;fill:#1C1715;}
	.st7{fill-rule:evenodd;clip-rule:evenodd;fill:#FFFBE2;}
	.st8{fill-rule:evenodd;clip-rule:evenodd;fill:#C52F29;}
	.st9{fill-rule:evenodd;clip-rule:evenodd;fill:#97802F;}
	.st10{fill-rule:evenodd;clip-rule:evenodd;fill:#E5D6A1;}
	.st11{fill-rule:evenodd;clip-rule:evenodd;fill:#D0E1F3;}
	.st12{fill-rule:evenodd;clip-rule:evenodd;fill:#A4C1E5;}
	.st13{fill-rule:evenodd;clip-rule:evenodd;fill:#C6C6C6;}
	.st14{fill-rule:evenodd;clip-rule:evenodd;fill:#3B3735;}
	.st15{fill:#406DB4;}
	.st16{fill:#4161AC;}
	.st17{fill:#5A83C2;}
	.st18{fill:#D0DDF1;}
	.st19{fill:#A4C1E5;}
	.st20{fill:#7DA2D5;}
</style>
<linearGradient id="SVGID_1_" gradientUnits="userSpaceOnUse" x1="0" y1="-70.2504" x2="6.123234e-17" y2="-71.2504">
	<stop  offset="0" style="stop-color:#656565"/>
	<stop  offset="0.618" style="stop-color:#1B1B1B"/>
	<stop  offset="0.6292" style="stop-color:#545454"/>
	<stop  offset="0.9831" style="stop-color:#3E3E3E"/>
</linearGradient>
<g>
	<g>
		<path class="st0" d="M114.5,62.6c-4,0.5-6.3,4.1-6.3,4.1l7.9,15.9l9.4-8.6L114.5,62.6z"/>
		<path class="st0" d="M126.8,82.8c0.8,1.2,0.5,2.9-0.7,3.7c-1.2,0.8-2.9,0.5-3.7-0.7l-46-72.2c-1.3-2-1.7-2.9-1.4-3.6
			c0.6-1.2,2-0.9,2.6,0L126.8,82.8z"/>
		<path class="st0" d="M143.4,72.1c3,4.1,3.3,9.6,2.1,14.4c-1.4,5.6-4.8,10.6-9.4,14c-4.6,3.4-10.5,5.2-16.2,4.9
			c-4.9-0.3-10.2-2.2-13.2-6.2c-1-1.4-1.7-2.9-2-4.5c-1.5-8.1,6.3-15.7,12.2-20.1c3.5-2.6,7.5-4.9,11.7-6.2
			c3.7-1.1,7.8-1.3,11.3,0.5C141.2,69.7,142.4,70.8,143.4,72.1z"/>
		<path class="st1" d="M140.8,74c-4.3-5.7-13.4-3.3-22.1,3.1c-8.7,6.4-13.8,14.3-9.5,20.1c4.3,5.7,16.2,7.1,24.9,0.7
			C142.8,91.5,145,79.7,140.8,74z"/>
		<path class="st2" d="M124.9,74.6c2.4-0.6,4.7-0.7,6.6-0.1c1.9-1.1,3.9-2.1,5.8-3.1c-3.4-1.3-7.9-0.5-12.6,1.9
			c-1.1,0.5-2.1,1.2-3.2,1.8c-1,0.6-1.9,1.3-2.9,2c0,0,0,0,0,0c1.1-0.6,2.2-1.1,3.3-1.5C122.9,75.2,124,74.9,124.9,74.6z"/>
		<path class="st0" d="M115.2,88.9c0.1,0.3-0.1,0.6-0.3,0.7c-0.3,0.1-0.6-0.1-0.7-0.3c-0.9-2.8-0.9-5.3-0.3-7.7
			c0.7-2.5,2.3-4.8,4.3-6.7c0.2-0.2,0.6-0.2,0.8,0c0.2,0.2,0.2,0.6,0,0.8c-1.9,1.7-3.3,3.8-4,6.1C114.4,83.9,114.4,86.3,115.2,88.9z
			"/>
		<g>
			<path class="st0" d="M74.5,0c4.2,0,7.6,3.4,7.6,7.6c0,4.2-3.4,7.6-7.6,7.6c-4.2,0-7.6-3.4-7.6-7.6C66.9,3.4,70.3,0,74.5,0z"/>
			<path class="st3" d="M74.5,2.7c2.7,0,4.9,2.2,4.9,4.9c0,2.7-2.2,4.9-4.9,4.9c-2.7,0-4.9-2.2-4.9-4.9C69.6,4.9,71.8,2.7,74.5,2.7z
				"/>
			<path class="st4" d="M74.5,2.7c1,0,1.9,0.3,2.6,0.8c0,0.1,0,0.3,0,0.5c0,2.7-2.2,4.9-4.9,4.9c-1,0-1.9-0.3-2.6-0.8
				c0-0.1,0-0.3,0-0.5C69.6,4.9,71.8,2.7,74.5,2.7z"/>
			<path class="st5" d="M72.9,3.2c1.3-0.4,2.6-0.1,2.8,0.7c0.3,0.8-0.6,0.5-1.9,0.9c-1.3,0.4-2.5,1.4-2.7,0.6
				C70.7,4.6,71.6,3.6,72.9,3.2z"/>
		</g>
		<path class="st0" d="M255.5,62.6c4,0.5,6.3,4.1,6.3,4.1l-7.9,15.9l-9.4-8.6L255.5,62.6z"/>
		<path class="st0" d="M243.3,82.8c-0.8,1.2-0.5,2.9,0.7,3.7c1.2,0.8,2.9,0.5,3.7-0.7l46-72.2c1.3-2,1.7-2.9,1.4-3.6
			c-0.6-1.2-2-0.9-2.6,0L243.3,82.8z"/>
		<path class="st0" d="M226.7,72.1c-3,4.1-3.3,9.6-2.1,14.4c1.4,5.6,4.8,10.6,9.4,14c4.6,3.4,10.5,5.2,16.2,4.9
			c4.9-0.3,10.2-2.2,13.2-6.2c1-1.4,1.7-2.9,2-4.5c1.5-8.1-6.3-15.7-12.2-20.1c-3.5-2.6-7.5-4.9-11.7-6.2c-3.7-1.1-7.8-1.3-11.3,0.5
			C228.9,69.7,227.6,70.8,226.7,72.1z"/>
		<path class="st1" d="M229.3,74c4.3-5.7,13.4-3.3,22.1,3.1c8.7,6.4,13.8,14.3,9.5,20.1c-4.3,5.7-16.2,7.1-24.9,0.7
			C227.3,91.5,225,79.7,229.3,74z"/>
		<path class="st2" d="M245.1,74.6c-2.4-0.6-4.7-0.7-6.6-0.1c-1.9-1.1-3.9-2.1-5.8-3.1c3.4-1.3,7.9-0.5,12.6,1.9
			c1.1,0.5,2.1,1.2,3.2,1.8c1,0.6,1.9,1.3,2.9,2c0,0,0,0,0,0c-1.1-0.6-2.2-1.1-3.3-1.5C247.1,75.2,246.1,74.9,245.1,74.6z"/>
		<path class="st0" d="M254.8,88.9c-0.1,0.3,0.1,0.6,0.3,0.7c0.3,0.1,0.6-0.1,0.7-0.3c0.9-2.8,0.9-5.3,0.3-7.7
			c-0.7-2.5-2.3-4.8-4.3-6.7c-0.2-0.2-0.6-0.2-0.8,0c-0.2,0.2-0.2,0.6,0,0.8c1.9,1.7,3.3,3.8,4,6.1
			C255.7,83.9,255.7,86.3,254.8,88.9z"/>
		<path class="st0" d="M295.6,0c-4.2,0-7.6,3.4-7.6,7.6c0,4.2,3.4,7.6,7.6,7.6c4.2,0,7.6-3.4,7.6-7.6C303.2,3.4,299.8,0,295.6,0z"/>
		<path class="st3" d="M295.6,2.7c-2.7,0-4.9,2.2-4.9,4.9c0,2.7,2.2,4.9,4.9,4.9c2.7,0,4.9-2.2,4.9-4.9
			C300.5,4.9,298.3,2.7,295.6,2.7z"/>
		<path class="st4" d="M295.6,2.7c-1,0-1.9,0.3-2.6,0.8c0,0.1,0,0.3,0,0.5c0,2.7,2.2,4.9,4.9,4.9c1,0,1.9-0.3,2.6-0.8
			c0-0.1,0-0.3,0-0.5C300.5,4.9,298.3,2.7,295.6,2.7z"/>
		<path class="st5" d="M297.2,3.2c-1.3-0.4-2.6-0.1-2.8,0.7c-0.3,0.8,0.6,0.5,1.9,0.9c1.3,0.4,2.5,1.4,2.7,0.6
			C299.3,4.6,298.5,3.6,297.2,3.2z"/>
		<path class="st0" d="M225.5,272.5c15.2,8.9,53.1,48.1,46.9,64.6l15.3,6.6c9.6-25.8-32.1-71.7-54.8-85L225.5,272.5z"/>
		<path class="st6" d="M279.5,310.4c-6.6-12.1-17-23.6-27.3-33.3c-1-1-3.2-3.2-4.5-2.3c-3.1,2.2-3,4.9,4,12.9
			c9.1,10.3,19.2,23.9,20.9,27.2c0.7,1.3,3,1.5,5.6,1.2C281.8,315.6,280.5,312.4,279.5,310.4z"/>
		<path class="st0" d="M245.9,447.5c-6.6-8.1-9.8-18.2-3.4-35.8c6.4-17.5,8-11.5,8-11.5S257.8,413.6,245.9,447.5z"/>
		<path class="st0" d="M278.6,376.5C278.6,376.5,278.5,376.5,278.6,376.5c-0.6,0-1.2,0-1.7,0.1c-4.4,0.7-7.6,4.3-9.6,8
			c-2.3,4.5-3.3,9.8-3.3,14.9c0,5,1,10.4,3.3,14.9c2,3.8,5.2,7.3,9.6,8c0.1,0,0.2,0,0.3,0c1.3,0.4,2.7,0.4,4,0.4
			c1.3,0,2.7-0.3,4-0.3c0.5,0,1.1,0,1.6-0.1c4.4-0.7,7.6-4.3,9.6-8c1-1.9,1.7-3.9,2.2-5.9c3.1-1.8,4.9-5.6,4.9-9.4
			c0-3.9-1.9-7.8-5.2-9.5c-0.5-1.7-1.1-3.3-1.9-4.9c-2-3.8-5.2-7.3-9.6-8c-0.5-0.1-1.1-0.1-1.6-0.1c-1.1,0-2.2-0.2-3.3-0.2
			C280.9,376.2,279.7,376.3,278.6,376.5z"/>
		<path class="st4" d="M294.4,406.4c3.2,0,5.9-3.3,5.9-7.3c0-4-2.6-7.3-5.9-7.3c-3.2,0-5.9,3.3-5.9,7.3
			C288.6,403.1,291.2,406.4,294.4,406.4z"/>
		<path class="st0" d="M285.3,377.6c-1.1,0-2.3-0.2-3.4-0.2c-1.7-0.1-3.8,0-5.1,1.1c-0.5,0.4-1,0.9-1.4,1.5
			c-1.5,2.4-0.9,5.6-0.4,8.2c0.6,2.9,1.5,5.8,1.9,8.8c0.1,0.8,0.2,1.7,0.2,2.5c0,2-0.7,4.3-1.4,6.3c-0.7,2.1-1.6,4.3-2.1,6.5
			c-0.5,2.1-0.8,4.5,0.3,6.4c0.1,0.2,0.3,0.5,0.4,0.7c0.3,0.3,0.6,0.7,0.9,0.9c1.7,1.3,3.9,1.5,5.9,1.4c1.3,0,2.8-0.3,4.1-0.3
			c0.5,0,0.9,0,1.4-0.1c4.1-0.7,7-4,8.8-7.5c2.2-4.3,3.2-9.5,3.2-14.4c0-4.8-0.9-10-3.2-14.4c-1.8-3.5-4.7-6.8-8.8-7.5
			C286.2,377.6,285.7,377.6,285.3,377.6z"/>
		<path class="st7" d="M285.3,379.7c6.2,0,11.2,8.9,11.2,19.8c0,10.9-5,19.8-11.2,19.8c-2.5,0-7.4,1.2-9.2-1.2
			c-2.8-3.6,3.3-12,3.3-18.5c0-8-5.1-16.3-1.2-19.4C279.5,379,283.6,379.7,285.3,379.7z"/>
		<path class="st0" d="M278.5,421.5c7.4,0,13.4-9.9,13.4-21.9c0-12.1-6-21.9-13.4-21.9c-7.4,0-13.4,9.9-13.4,21.9
			C265.1,411.6,271.1,421.5,278.5,421.5z"/>
		<path class="st4" d="M278.5,419.3c6.2,0,11.2-8.9,11.2-19.8c0-10.9-5-19.8-11.2-19.8c-6.2,0-11.2,8.9-11.2,19.8
			C267.3,410.4,272.3,419.3,278.5,419.3z"/>
		<path class="st0" d="M286.6,331.7c-5.7,14.3-44.7,83.1-44.8,83.3l14.1,8c0.1-0.2,39.8-70.1,45.8-85.4L286.6,331.7z"/>
		<path class="st0" d="M275.8,381.9c2.9,0,5.6,1.9,7.5,5.1c2,3.2,3.2,7.6,3.2,12.5c0,4.9-1.2,9.3-3.2,12.5c-1.9,3.1-4.6,5.1-7.5,5.1
			s-5.6-1.9-7.5-5.1c-2-3.2-3.2-7.6-3.2-12.5c0-4.9,1.2-9.3,3.2-12.5C270.2,383.9,272.9,381.9,275.8,381.9L275.8,381.9z
			 M284.2,386.4c-2.1-3.4-5.1-5.6-8.4-5.6c-3.3,0-6.3,2.1-8.4,5.6c-2.1,3.4-3.4,8-3.4,13.1c0,5.1,1.3,9.7,3.4,13.1
			c2.1,3.4,5.1,5.6,8.4,5.6c3.3,0,6.3-2.1,8.4-5.6c2.1-3.4,3.4-8,3.4-13.1C287.5,394.4,286.3,389.8,284.2,386.4z"/>
		<path class="st0" d="M266.9,400.6c0-0.7-0.3-1.4-0.8-2c-1.3-1.5-3.1-1.3-4.6-0.4c-0.4,0.3-0.9,0.6-1.3,0.9c-1.2,1-2.4,2-3.6,3.1
			c-3.3,3.1-6.5,6.7-9.2,10.4c-3.6,5-7,11.6-6,17.9c0.4,2.8,0.5,5.5,0.9,8.3c0.6,4.1,2,7.2,4.3,10.6c0.8,1.2,1.9,2.4,2.8,3.5
			c1.5,1.8,3,3.7,4.5,5.5c1.3,1.6,2.7,3.2,4,4.9c5.5,6.8,9.6,11.3,19,11.1c7.7-0.2,15.5,0,23.2,0.1c11.3,0.2,22.6,0.5,33.9,0.6
			c4.5,0.1,9.3-0.3,12.4-4.1c2.7-3.3,3.6-6.5,2.1-10.6c-6.7-18.2-19.2-32.5-35.1-43.3c-11.3-7.7-23.5-13.1-36.4-17.5
			c-0.6-0.2-1.1-0.2-1.7-0.1C273.9,399.8,269.7,400.5,266.9,400.6z"/>
		<path class="st2" d="M276,402.7c16.5,5.6,55.3,20.5,69.4,58.9c1.4,3.7-0.2,5.9-1.5,7.4c-2,2.4-5,3-9.8,2.9
			c-26.5-0.4-44.8-1-57.2-0.8c-8,0.2-11.3-3.6-16.4-9.9c-3.9-4.8-10.1-12.3-11.2-13.7c-4.8-6.8-3.6-10.6-4.6-17.5
			c-2.1-13.5,21.3-32,18.8-29C259.4,406.2,276,402.7,276,402.7z"/>
		<path class="st8" d="M276,402.7c2.1,0.7,4.6,1.6,7.3,2.7c-3.5,1.4-11.3,1.4-15.3,1.2c-4.2-0.2-7.9,4.9-6.8,9.7
			c1.1,4.8,7.6,11.2,9.3,20.6c0.8,4.4,1.7,9,2.1,12.7c0.5,4.2,0.5,7.4,2.6,8.1c4,1.4,47.8,2.2,57.3,3.8c9.5,1.6-13.2,2.1-36.4,1.8
			c-23.2-0.2-23.1-6-24.8,7.2c-4.4-1.3-7.1-4.6-10.9-9.2c-3.9-4.8-10.1-12.3-11.2-13.7c-4.8-6.8-3.6-10.6-4.6-17.5
			c-2.1-13.5,21.3-32,18.8-29C259.4,406.2,276,402.7,276,402.7z"/>
		<path class="st0" d="M346.5,463.2c0.4,0,0.8-0.4,0.8-0.8c0-0.4-0.4-0.8-0.8-0.8l-61.3,0c-6.2,0-10.3-0.6-13.3-1.6
			c-2.9-1-4.7-2.4-6.2-4.2c-7.7-8.8-21.1-27.1-21.1-27.1c-0.3-0.4-0.8-0.4-1.1-0.2c-0.4,0.3-0.4,0.8-0.2,1.1
			c0,0.1,13.4,18.3,21.2,27.2c1.7,2,3.7,3.6,6.9,4.7c3.1,1.1,7.4,1.7,13.8,1.7L346.5,463.2z"/>
		<path class="st0" d="M276.7,389.3c-6.8,0-13.6,0-20.4,0c-1.8,0-3.2,1.5-3.2,3.2v8.7c0,1.8,1.5,3.2,3.2,3.2h21.9
			c0.6,0,1.3-0.1,1.9-0.3C286.4,401.7,285.8,389.3,276.7,389.3z"/>
		<path class="st9" d="M276.7,392.5c-20.4,0-20.4,0-20.4,0v8.7h21.9C281.7,401.2,282.7,392.5,276.7,392.5z"/>
		<path class="st4" d="M276.7,392.5h-18.8v4.6h21.9c0.4,0,0.8-0.1,1.2-0.4C280.9,394.6,279.6,392.5,276.7,392.5z"/>
		<path class="st0" d="M297,349c4.2,0,7.6-4,7.6-8.8s-3.4-8.8-7.6-8.8c-4.2,0-7.6,4-7.6,8.8S292.8,349,297,349z"/>
		<path class="st4" d="M297,346.8c3,0,5.4-3,5.4-6.7c0-3.7-2.4-6.7-5.4-6.7c-3,0-5.4,3-5.4,6.7C291.6,343.8,294,346.8,297,346.8z"/>
		<path class="st0" d="M287,318.8c-3.3,0-10.8-1-13.4,1.1c-0.6,0.5-1.1,1.1-1.5,1.8c-1.5,2.5-1.1,5.7-0.5,8.4
			c0.6,2.6,1.4,5.2,1.7,7.9c0.1,0.7,0.1,1.4,0.1,2.2c0,5.7-6.4,13.7-2.3,19c3,3.9,11.5,2.4,15.8,2.4c0.5,0,1,0,1.5-0.1
			c4.1-0.7,7.1-4,9-7.5c2.2-4.1,3.1-9.1,3.1-13.7c0-4.6-0.9-9.6-3.1-13.7c-1.8-3.5-4.8-6.8-9-7.5C288,318.8,287.5,318.8,287,318.8z"
			/>
		<path class="st9" d="M287,322c5.7,0,10.3,8.1,10.3,18.1c0,10-4.6,18.1-10.3,18.1c-2.3,0-11.6,1.1-13.3-1.1c-2.5-3.3,3-11,3-17
			c0-7.4-4.7-14.9-1.1-17.7C277,321.4,285.5,322,287,322z"/>
		<path class="st4" d="M287,322c5.7,0,10.3,8.1,10.3,18.1c0,1.4-0.1,2.8-0.3,4.2c-1.1,0.6-2.3,0.9-3.5,0.8
			c-2.3-0.2-11.6,0.2-13.3-2.1c-2.5-3.5,3-10.8,3-16.8c0-1.5-3-2.9-3.3-4.4C281.9,321.9,286.5,322,287,322z"/>
		<path class="st0" d="M279.8,319.6c-0.3,0-0.5,0.2-0.5,0.5c0,0.3,0.3,0.5,0.6,0.5c5.1,0,8.5,4.3,10.2,10.1c0.8,2.6,1.3,5.5,1.4,8.4
			c0.1,2.9,0,5.9-0.5,8.6c-1.1,6.1-3.9,11-8.2,11.2c-0.3,0-0.5,0.3-0.5,0.6c0,0.3,0.3,0.5,0.6,0.5c4.9-0.2,7.9-5.4,9.2-12
			c0.5-2.8,0.7-5.8,0.5-8.8c-0.2-3-0.6-6-1.5-8.7C289.2,324.2,285.5,319.6,279.8,319.6z"/>
		<path class="st0" d="M292.9,355.7c-1.8-1.2-6.2-1.2-8.8-0.5c-3.4,0.9-6.6,4.1-6.6,4.1c2,0.5,7.7,1.6,11.9,0.7
			C292.1,359.3,295.2,357.1,292.9,355.7z"/>
		<path class="st0" d="M274.2,361.5c7.5,0,13.5-9.6,13.5-21.3s-6.1-21.3-13.5-21.3c-7.5,0-13.5,9.6-13.5,21.3
			S266.7,361.5,274.2,361.5z"/>
		<path class="st4" d="M274.2,358.2c5.7,0,10.3-8.1,10.3-18.1c0-10-4.6-18.1-10.3-18.1c-5.7,0-10.3,8.1-10.3,18.1
			C263.9,350.1,268.5,358.2,274.2,358.2z"/>
		<path class="st0" d="M272.5,352.2c3.8,0,6.9-5.4,6.9-12.1c0-6.7-3.1-12.1-6.9-12.1c-3.8,0-6.9,5.4-6.9,12.1
			C265.6,346.8,268.7,352.2,272.5,352.2z"/>
		<path class="st9" d="M272.5,350.6c2.9,0,5.3-4.7,5.3-10.5c0-5.8-2.4-10.5-5.3-10.5s-5.3,4.7-5.3,10.5
			C267.2,345.9,269.6,350.6,272.5,350.6z"/>
		<path class="st4" d="M262.7,340.1c0-7.4,9.2-8.3,11.4-5.1c1.8,2.7,1.4,9,0,10.5C271,348.8,262.7,346.9,262.7,340.1z"/>
		<path class="st7" d="M281.8,340.1c0-8.7-3.4-15.9-8.1-17.7c-0.3-0.1-0.6-0.2-0.9-0.3c0.4-0.1,0.9-0.1,1.3-0.1c0.2,0,0.4,0,0.6,0
			c5.4,0.5,9.7,8.4,9.7,18.1c0,0.8,0,1.6-0.1,2.3c0,0.2,0,0.4-0.1,0.6c-0.7,7.3-3.8,13.1-7.9,14.7c-0.7,0.3-1.3,0.4-2,0.4
			c-0.1,0-0.2,0-0.3,0c-0.4,0-0.9,0-1.3-0.1c0.2,0,0.3-0.1,0.5-0.1c4.5-1.4,8-7.9,8.4-16C281.8,341.4,281.8,340.8,281.8,340.1z"/>
		<path class="st9" d="M266,335.9c0.6,0.5,1,1.1,1.3,1.8c0.2,0.5,0.4,1.2,0.6,2c0.4,1.4,1.5,1.8,3.6,1.7c0.9-0.1,2-0.2,3.3-0.4
			c0.1,0,0.3,0,0.4-0.1c-0.1,2-0.5,3.9-1.2,4.6c-0.1,0.1-0.2,0.2-0.3,0.3c-1,0.9-2.4,1.3-3.9,1.3c-0.5,0-1,0-1.5-0.1
			c-0.7-0.1-1.3-0.3-1.9-0.6c-0.9-0.4-1.7-1-2.3-1.8c-0.9-1.1-1.5-2.6-1.5-4.4c0-1.9,0.6-3.4,1.5-4.4c0.2-0.2,0.4-0.4,0.6-0.6
			C265.3,335.4,265.7,335.6,266,335.9z"/>
		<path class="st0" d="M263.5,340.1c0-1.7,0.5-2.9,1.3-3.9c0.8-0.9,1.9-1.5,3-1.9c1.1-0.3,2.3-0.4,3.4-0.2c1,0.2,1.8,0.6,2.3,1.3
			c0.8,1.1,1.1,2.9,1.1,4.8c0,2.1-0.4,4-1,4.7c-0.8,0.9-2.2,1.3-3.6,1.3c-0.8,0-1.7-0.2-2.5-0.5c-0.8-0.3-1.6-0.8-2.2-1.4
			C264.2,343.4,263.5,342,263.5,340.1L263.5,340.1z M263.6,335.2c-1,1.2-1.7,2.9-1.7,4.9c0,2.3,0.9,4.1,2.2,5.4
			c0.8,0.8,1.7,1.3,2.8,1.7c1,0.4,2.1,0.6,3.1,0.6c1.8,0,3.6-0.6,4.7-1.8c0.9-0.9,1.4-3.3,1.4-5.8c0-2.1-0.4-4.3-1.4-5.7
			c-0.7-1-1.9-1.7-3.3-1.9c-1.3-0.3-2.8-0.2-4.2,0.2C265.9,333.3,264.6,334,263.6,335.2z"/>
		<path class="st0" d="M254.2,378.1c-0.8,0-1.8-0.1-2.6-0.2c-1.8-0.1-3.7,0.1-5.1,1.3c-0.4,0.4-0.8,0.8-1.1,1.3
			c-1.6,2.4-1.2,5.5-0.6,8.2c0.5,2.6,1.3,5.2,1.5,7.8c0.1,0.6,0.1,1.2,0.1,1.8c0,5.4-5.5,12.9-2,17.8c0.4,0.5,0.8,1,1.4,1.4
			c1.6,1.1,3.5,1.3,5.3,1.2c1,0,2.2-0.2,3.2-0.2c4.2,0,7.2-3.2,9.1-6.7c2.1-4,3-9,3-13.5c0-4.5-0.9-9.5-3-13.5
			C261.4,381.3,258.4,378.1,254.2,378.1z"/>
		<path class="st4" d="M254.2,381.1c4.9,0,8.9,7.7,8.9,17.1c0,9.5-4,17.1-8.9,17.1c-2,0-5.9,1-7.3-1.1c-2.2-3.1,2.6-10.4,2.6-16
			c0-7-4.1-14.1-0.9-16.8C249.6,380.5,252.9,381.1,254.2,381.1z"/>
		<path class="st0" d="M246.4,418.3c7.1,0,12.9-9.1,12.9-20.3c0-11.2-5.8-20.3-12.9-20.3c-7.1,0-12.9,9.1-12.9,20.3
			C233.5,409.2,239.3,418.3,246.4,418.3z"/>
		<path class="st4" d="M246.4,415.2c5.4,0,9.8-7.7,9.8-17.2c0-9.5-4.4-17.2-9.8-17.2c-5.4,0-9.8,7.7-9.8,17.2
			C236.6,407.5,241,415.2,246.4,415.2z"/>
		<path class="st0" d="M244.7,409.5c3.6,0,6.6-5.2,6.6-11.5c0-6.3-2.9-11.5-6.6-11.5c-3.6,0-6.6,5.2-6.6,11.5
			C238.2,404.3,241.1,409.5,244.7,409.5z"/>
		<path class="st9" d="M244.7,408c2.8,0,5-4.5,5-9.9c0-5.5-2.3-9.9-5-9.9c-2.8,0-5,4.5-5,9.9C239.7,403.5,242,408,244.7,408z"/>
		<path class="st4" d="M235.4,398c0-7,8.8-7.9,10.9-4.9c1.7,2.5,1.3,8.6,0,9.9C243.3,406.2,235.4,404.4,235.4,398z"/>
		<path class="st5" d="M253.6,398c0-8.2-3.3-15.1-7.7-16.8c-0.3-0.1-0.6-0.2-0.9-0.3c0.4-0.1,0.8-0.1,1.3-0.1c0.2,0,0.4,0,0.6,0
			c5.1,0.5,9.2,8,9.2,17.2c0,0.7,0,1.5-0.1,2.2c0,0.2,0,0.4,0,0.6c-0.6,6.9-3.6,12.5-7.5,14c-0.6,0.2-1.3,0.4-1.9,0.4
			c-0.1,0-0.2,0-0.2,0c-0.4,0-0.8,0-1.3-0.1c0.2,0,0.3-0.1,0.5-0.1c4.3-1.3,7.6-7.5,8-15.2C253.6,399.2,253.6,398.6,253.6,398z"/>
		<path class="st9" d="M238.6,394c0.6,0.5,1,1,1.3,1.7c0.2,0.5,0.4,1.1,0.6,1.9c0.4,1.3,1.4,1.7,3.4,1.6c0.9-0.1,1.9-0.2,3.1-0.4
			c0.1,0,0.3,0,0.4-0.1c-0.1,1.9-0.5,3.7-1.1,4.4c-0.1,0.1-0.2,0.2-0.3,0.3c-0.9,0.8-2.3,1.2-3.7,1.2c-0.5,0-1,0-1.4-0.1
			c-0.6-0.1-1.2-0.3-1.8-0.6c-0.8-0.4-1.6-1-2.2-1.7c-0.9-1-1.5-2.4-1.5-4.1c0-1.8,0.6-3.2,1.5-4.2c0.2-0.2,0.3-0.4,0.5-0.5
			C237.9,393.5,238.3,393.7,238.6,394z"/>
		<path class="st0" d="M236.2,398c0-1.6,0.5-2.8,1.3-3.7c0.7-0.9,1.8-1.5,2.8-1.8c1.1-0.3,2.2-0.4,3.2-0.2c0.9,0.2,1.7,0.6,2.2,1.2
			c0.7,1,1,2.8,1,4.5c0,2-0.4,3.8-0.9,4.4c-0.8,0.8-2.1,1.3-3.4,1.3c-0.8,0-1.6-0.1-2.4-0.4c-0.8-0.3-1.5-0.7-2.1-1.3
			C236.8,401.1,236.2,399.8,236.2,398L236.2,398z M236.3,393.3c-1,1.2-1.6,2.7-1.6,4.7c0,2.2,0.9,3.9,2.1,5.2
			c0.8,0.7,1.7,1.3,2.6,1.6c1,0.4,2,0.5,2.9,0.5c1.7,0,3.4-0.6,4.5-1.7c0.8-0.9,1.4-3.2,1.4-5.5c0-2-0.4-4.1-1.3-5.4
			c-0.7-0.9-1.8-1.6-3.1-1.8c-1.2-0.2-2.6-0.2-4,0.2C238.5,391.5,237.2,392.2,236.3,393.3z"/>
		<path class="st4" d="M245,432c3.9,5.3,13.4,17.9,19.4,24.8c1.7,2,3.7,3.6,6.9,4.7c3.1,1.1,7.4,1.7,13.8,1.7l60.8,0
			c0.4,2.7-0.9,4.4-2,5.7c-2,2.4-5,3-9.8,2.9c-26.5-0.4-44.8-1-57.2-0.8c-8,0.2-11.3-3.6-16.4-9.9c-3.9-4.8-10.1-12.3-11.2-13.7
			C245.1,441.4,245.6,437.7,245,432z"/>
		<path class="st9" d="M245,432c3.9,5.3,13.4,17.9,19.4,24.8c1.7,2,3.7,3.6,6.9,4.7c0.1,0-0.4,8.8-1.6,8.3c-3.4-1.6-6-4.6-9.2-8.6
			c-3.9-4.8-10.1-12.3-11.2-13.7C245.1,441.4,245.6,437.7,245,432z"/>
		<path class="st7" d="M304.8,421.9c-1.6,4.5-11.8-1.3-10.2-5.9c0.8-2.2,4.6-0.3,1.2-3.2c-2.1-1.8-6.1-4.4-7-5.1
			c-0.2-0.1-0.4-0.3-0.6-0.4c0.9,0.4,1.8,0.8,2.6,1.1c1.3,0.6,2.6,1.2,4,1.8c0.6,0.3,1.3,0.6,2,1c0.3,0.2,0.6,0.3,1,0.5
			c17.5,8.9,38.3,24.1,47.8,49.9c0,0,0,0.1,0,0.1l-6.9,0c-1.4-2.6-7-16-15.8-27C316.9,427.1,306.1,418.4,304.8,421.9z"/>
		<path class="st5" d="M338.7,463.2l7.2,0c0.4,2.7-0.9,4.4-2,5.7c-1.5,1.8-3.6,2.6-6.6,2.8c1.7-1.5,2.3-3.7,2.7-5.5
			C340.4,464.8,339.8,463.9,338.7,463.2z"/>
		<path class="st0" d="M261.4,419.2c7.3,12.7,10.7,21.5,11.3,36.5c1.4-13.7-3.4-25.5-9.8-37.3c-0.2-0.4-0.8-0.5-1.2-0.3
			S261.2,418.8,261.4,419.2z"/>
		<path class="st0" d="M268.6,472.8c3.1-0.1,2.9-9.5,2.8-10.7c-0.3,1.3-1.8,7.9-3,9.2c-0.3,0.1-0.5,0.3-0.6,0.7
			C267.8,472.4,268.1,472.8,268.6,472.8L268.6,472.8z M268.3,471.4L268.3,471.4C268.3,471.4,268.3,471.4,268.3,471.4z"/>
		<path class="st6" d="M279.1,364.6c-10.1,20-11.3,24.2-12.2,21.9c-0.9-2.4-3-4.8-3-4.8l10.3-20.2c0,0,1.9,0.4,4.8,0.2
			C280.6,361.6,279.5,364,279.1,364.6z"/>
		<path class="st5" d="M295.4,331.5c-1.7-4.3-4.4-7.2-7.6-7.7c-0.3-0.4-0.7-0.9-1.1-1.2c-0.2-0.2-0.4-0.4-0.6-0.5c0.1,0,0.3,0,0.4,0
			c0.2,0,0.4,0,0.5,0c3.9,0,7.2,3.8,9,9.3c0.2,0.7,0.4,1.4,0.6,2.1c0.2,0.7,0.3,1.5,0.4,2.3c0.2,1.4,0.3,2.9,0.3,4.4
			c0,0.7,0,1.3-0.1,1.9c0-0.1,0-0.1,0-0.2c0-2.2-0.2-4.3-0.6-6.2c-0.1-0.7-0.3-1.4-0.5-2.1C295.9,332.8,295.7,332.1,295.4,331.5z"/>
		<path class="st5" d="M286.4,323.8c-0.8,0-2.2,0-3.6-0.1c-0.5-0.6-1-1.2-1.6-1.8c1,0,2.1,0.1,3.1,0.1
			C285.1,322.5,285.8,323.1,286.4,323.8z"/>
		<path class="st0" d="M259.4,241.3c-3.5-5.8-10.5-8.9-17-9.8c-7.8-1.1-16,0.6-22.7,4.7c-6.8,4.1-12,10.7-14.5,18.2
			c-2.1,6.2-2.5,13.9,1,19.7c1.1,1.9,2.6,3.4,4.5,4.6c9.4,5.9,23.3-0.3,31.7-5.4c5.1-3.1,10.3-7.1,14.1-11.9c3.2-4,5.6-9,5.1-14.2
			C261.3,245.2,260.5,243.2,259.4,241.3z"/>
		<path class="st1" d="M256.7,243c5.3,8.7-2.8,19.5-16,27.6c-13.2,8.1-26.4,10.5-31.7,1.8c-5.3-8.7-0.8-25.3,12.4-33.4
			C234.6,231,251.3,234.3,256.7,243z"/>
		<path class="st0" d="M236,276.3c-0.3,0.2-0.6,0.1-0.7-0.2c-0.2-0.3-0.1-0.6,0.2-0.7c0.5-0.3,0.9-0.6,1.2-0.9
			c1.6-1.5,2.1-3.3,1.9-5.1c-0.2-1.9-1-3.8-1.9-5.3c-0.7-1.2-1.5-2.1-1.9-2.7c-0.2-0.2-0.2-0.6,0-0.8c0.2-0.2,0.6-0.2,0.8,0
			c0.5,0.6,1.3,1.6,2.1,2.9c1,1.6,1.9,3.7,2.1,5.7c0.2,2.1-0.3,4.3-2.3,6C237,275.7,236.6,276,236,276.3z"/>
		<path class="st0" d="M230.9,278.7c-0.3,0.5-1,0.7-1.5,0.3c-0.5-0.3-0.7-1-0.3-1.5c0.9-1.4,0.9-3.1,0.5-4.7
			c-0.7-2.8-2.6-5.3-3.5-6.4c-0.4-0.4-0.4-1.1,0.1-1.5c0.4-0.4,1.1-0.4,1.5,0.1c1.1,1.2,3.2,4.1,4,7.3
			C232.2,274.4,232.2,276.6,230.9,278.7z"/>
		<path class="st0" d="M244.3,271.8c-0.5,0.3-1.2,0.1-1.5-0.4c-0.3-0.5-0.1-1.2,0.4-1.5c0.4-0.3,0.8-0.5,1.2-0.8
			c1.5-1.3,1.9-3,1.7-4.6c-0.2-1.8-1-3.6-1.9-5.1c-0.7-1.2-1.4-2.1-1.9-2.6c-0.4-0.4-0.4-1.1,0.1-1.5c0.4-0.4,1.1-0.4,1.5,0.1
			c0.5,0.6,1.4,1.7,2.1,2.9c1,1.7,1.9,3.8,2.2,6c0.2,2.3-0.4,4.6-2.5,6.5C245.4,271.1,244.9,271.5,244.3,271.8z"/>
		<path class="st4" d="M238.3,272.4c0.4-0.9,0.5-2,0.4-3c-0.2-1.8-1-3.6-1.8-5.1c0-0.1-0.1-0.1-0.1-0.2c-0.3-0.5-0.6-1-0.9-1.4
			c-0.3,0.2-0.5,0.3-0.8,0.5c-2,1.2-4,2.3-6,3.4c1,1.5,2.2,3.5,2.7,5.7c0.3,1.1,0.4,2.3,0.3,3.4C234,274.7,236.1,273.6,238.3,272.4z
			"/>
		<path class="st9" d="M238.4,268.1c-0.3-1.3-0.9-2.6-1.6-3.8c0-0.1-0.1-0.1-0.1-0.2c-0.3-0.5-0.6-1-0.9-1.4
			c-0.3,0.2-0.5,0.3-0.8,0.5c-2,1.2-4,2.3-6,3.4c1,1.4,2,3.2,2.6,5.2c1.9-0.9,3.8-1.9,5.7-3C237.7,268.6,238,268.3,238.4,268.1z"/>
		<path class="st4" d="M239.7,269.3c0.1,0.7,0.1,1.5-0.1,2.2c1.6-1,3.2-2.1,4.7-3.1c0.5-0.4,1-0.7,1.5-1.1c0.4-0.9,0.5-1.8,0.4-2.8
			c-0.2-1.8-1-3.6-1.9-5.1c-0.4-0.6-0.8-1.2-1.1-1.7c-2.1,1.5-4.3,3-6.4,4.4c0.3,0.4,0.6,0.9,0.9,1.4c0.3,0.6,0.7,1.2,0.9,1.8
			C239.1,266.6,239.6,268,239.7,269.3z"/>
		<path class="st9" d="M245.8,262.9c-0.4-1.2-0.9-2.4-1.5-3.4c-0.4-0.6-0.8-1.2-1.1-1.7c-2.1,1.5-4.3,3-6.4,4.4
			c0.3,0.4,0.6,0.9,0.9,1.4c0.3,0.6,0.7,1.2,0.9,1.8c0.3,0.7,0.6,1.4,0.8,2.1C241.7,266,243.9,264.5,245.8,262.9z"/>
		<g>
			<path class="st0" d="M288.5,159c15.7,4.3,29.7,13.1,40.4,22.7c6.2,5.6,11.2,11.2,14.6,16.1c2.3,3.3,24,9.8,14.9-5.5
				c-4.4-7.3-10.8-15.2-18.9-22.5c-12.4-11.1-28.7-21.3-47.2-26.4L288.5,159z"/>
			<path class="st6" d="M346.2,183.8c-5.3,1.3-5.3,0.7-6-0.1c-7.9-8.2-21.5-18.1-32-21.8c-1.9-0.7-2.2,0.3-0.4,1.2
				c10.3,5.3,22,13.3,32.2,24.5c0.5,0.6,1,0,1.6-0.5c0.1-0.1,2.1-1.4,3.7-2.4C346.7,183.9,347.8,183.4,346.2,183.8z"/>
		</g>
		<path class="st0" d="M281.8,123.3c-7.1,0.8-13,6.1-16.7,11.8c-4.5,7-6.4,15.5-5.4,23.7c1,8.3,4.9,16.1,10.9,21.8
			c5,4.7,12.1,8.5,19.1,7.6c2.3-0.3,4.4-1,6.3-2.2c9.7-6.3,9.9-22.3,8.7-32.5c-1.2-10.3-5.3-25.9-16.4-29.6
			C286.2,123.2,284,123,281.8,123.3z"/>
		<path class="st8" d="M282.2,126.5c10.7-1.2,17.5,11.3,19.3,27.4c1.9,16.2-1.5,29.9-12.2,31.1c-10.7,1.2-24.6-10.4-26.5-26.6
			C261,142.3,271.5,127.7,282.2,126.5z"/>
		<path class="st1" d="M290.6,184.8c-0.4,0.1-0.8,0.2-1.3,0.2c-10.7,1.2-24.6-10.4-26.5-26.6c-1.6-13.4,5.4-25.7,13.9-30.2
			c0.7-0.2,1.3-0.3,2-0.4c10.7-1.2,17.5,11.3,19.3,27.4C299.7,168.8,297.5,180.6,290.6,184.8z"/>
		<path class="st0" d="M303.3,149.8c0-0.3-0.3-0.5-0.6-0.5c-0.3,0-0.5,0.3-0.5,0.6c0.1,0.5,0.1,1.1,0,1.5c-0.2,2.2-1.3,3.7-2.9,4.6
			c-1.6,1-3.6,1.5-5.4,1.6c-1.4,0.2-2.6,0.1-3.3,0.1c-0.3,0-0.6,0.2-0.6,0.5c0,0.3,0.2,0.6,0.5,0.6c0.8,0.1,2.1,0.1,3.5-0.1
			c1.9-0.2,4.1-0.7,5.8-1.8c1.8-1.1,3.2-2.8,3.4-5.4C303.4,151,303.4,150.4,303.3,149.8z"/>
		<path class="st0" d="M302.1,144.3c0.2-0.6-0.1-1.2-0.6-1.4c-0.6-0.2-1.2,0.1-1.4,0.6c-0.6,1.6-1.9,2.6-3.5,3.3
			c-2.6,1.1-5.8,1.2-7.2,1.1c-0.6,0-1.1,0.4-1.2,1c0,0.6,0.4,1.1,1,1.2c1.6,0.1,5.2,0.1,8.2-1.2
			C299.5,147.9,301.2,146.5,302.1,144.3z"/>
		<path class="st0" d="M304.8,159.1c-0.1-0.6-0.6-1-1.2-1c-0.6,0.1-1,0.6-1,1.2c0.1,0.5,0.1,1,0,1.4c-0.2,2-1.2,3.3-2.6,4.2
			c-1.5,0.9-3.5,1.4-5.2,1.6c-1.3,0.1-2.5,0.1-3.2,0.1c-0.6,0-1.1,0.4-1.2,1c0,0.6,0.4,1.1,1,1.2c0.8,0.1,2.1,0.1,3.6-0.1
			c2-0.2,4.2-0.7,6-1.9c2-1.2,3.4-3.1,3.7-5.9C304.9,160.4,304.9,159.8,304.8,159.1z"/>
		<path class="st4" d="M301.5,153.9c-0.5,0.9-1.3,1.6-2.1,2.1c-1.5,0.9-3.4,1.4-5.1,1.6c-0.1,0-0.2,0-0.2,0
			c-0.6,0.1-1.2,0.1-1.7,0.1c0-0.3-0.1-0.6-0.1-0.9c-0.2-2.3-0.6-4.6-1-6.9c1.8-0.1,4.1-0.4,6.1-1.3c1.1-0.5,2.1-1.1,2.9-1.9
			C300.8,149.1,301.2,151.5,301.5,153.9z"/>
		<path class="st9" d="M298.2,156.6c-1.3,0.5-2.7,0.9-4,1c-0.1,0-0.2,0-0.2,0c-0.6,0.1-1.2,0.1-1.7,0.1c0-0.3-0.1-0.6-0.1-0.9
			c-0.2-2.3-0.6-4.6-1-6.9c1.7-0.1,3.8-0.3,5.7-1.1c0.4,2,0.8,4.2,1,6.4C298.1,155.8,298.2,156.2,298.2,156.6z"/>
		<path class="st4" d="M300,156.9c0.6-0.4,1.2-0.9,1.7-1.4c0.2,1.9,0.3,3.8,0.3,5.6c0,0.6,0,1.2,0,1.8c-0.5,0.8-1.2,1.5-2,2
			c-1.5,0.9-3.5,1.4-5.2,1.6c-0.7,0.1-1.4,0.1-2,0.1c0-2.6-0.2-5.2-0.4-7.8c0.5,0,1.1-0.1,1.7-0.1c0.6-0.1,1.3-0.2,2-0.3
			C297.5,158.1,298.8,157.7,300,156.9z"/>
		<path class="st9" d="M298.5,165.7c-1.2,0.5-2.5,0.7-3.7,0.8c-0.7,0.1-1.4,0.1-2,0.1c0-2.6-0.2-5.2-0.4-7.8c0.5,0,1.1-0.1,1.7-0.1
			c0.6-0.1,1.3-0.2,2-0.3c0.7-0.2,1.5-0.4,2.2-0.7C298.6,160.5,298.6,163.2,298.5,165.7z"/>
		<path class="st0" d="M145.5,272.5c-15.2,8.9-53.1,48.1-46.9,64.6l-15.3,6.6c-9.6-25.8,32.1-71.7,54.8-85L145.5,272.5z"/>
		<path class="st6" d="M91.5,310.4c6.6-12.1,17-23.6,27.3-33.3c1-1,3.2-3.2,4.5-2.3c3.1,2.2,3,4.9-4,12.9
			c-9.1,10.3-19.2,23.9-20.9,27.2c-0.7,1.3-3,1.5-5.6,1.2C89.1,315.6,90.4,312.4,91.5,310.4z"/>
		<path class="st0" d="M125.1,447.5c6.6-8.1,9.9-18.2,3.4-35.8c-6.4-17.5-8-11.5-8-11.5S113.1,413.6,125.1,447.5z"/>
		<path class="st0" d="M92.3,376.5C92.4,376.5,92.4,376.5,92.3,376.5c0.6,0,1.2,0,1.7,0.1c4.4,0.7,7.6,4.3,9.6,8
			c2.3,4.5,3.3,9.8,3.3,14.9c0,5-1,10.4-3.3,14.9c-2,3.8-5.2,7.3-9.6,8c-0.1,0-0.2,0-0.3,0c-1.3,0.4-2.7,0.4-4,0.4
			c-1.3,0-2.7-0.3-4-0.3c-0.5,0-1.1,0-1.6-0.1c-4.4-0.7-7.6-4.3-9.6-8c-1-1.9-1.7-3.9-2.2-5.9c-3.1-1.8-4.9-5.6-4.9-9.4
			c0-3.9,1.9-7.8,5.2-9.5c0.5-1.7,1.1-3.3,1.9-4.9c2-3.8,5.2-7.3,9.6-8c0.5-0.1,1.1-0.1,1.6-0.1c1.1,0,2.2-0.2,3.3-0.2
			C90.1,376.2,91.2,376.3,92.3,376.5z"/>
		<path class="st4" d="M76.5,406.4c3.2,0,5.9-3.3,5.9-7.3c0-4-2.6-7.3-5.9-7.3c-3.2,0-5.9,3.3-5.9,7.3
			C70.6,403.1,73.2,406.4,76.5,406.4z"/>
		<path class="st0" d="M85.7,377.6c1.1,0,2.3-0.2,3.4-0.2c1.7-0.1,3.8,0,5.1,1.1c0.5,0.4,1,0.9,1.4,1.5c1.5,2.4,0.9,5.6,0.3,8.2
			c-0.6,2.9-1.5,5.8-1.9,8.8c-0.1,0.8-0.2,1.7-0.2,2.5c0,2,0.7,4.3,1.4,6.3c0.7,2.1,1.6,4.3,2.1,6.5c0.5,2.1,0.8,4.5-0.3,6.4
			c-0.1,0.2-0.3,0.5-0.4,0.7c-0.3,0.3-0.6,0.7-0.9,0.9c-1.7,1.3-3.9,1.5-5.9,1.4c-1.3,0-2.8-0.3-4.1-0.3c-0.5,0-0.9,0-1.4-0.1
			c-4.1-0.7-7-4-8.8-7.5c-2.2-4.3-3.2-9.5-3.2-14.4c0-4.8,0.9-10,3.2-14.4c1.8-3.5,4.7-6.8,8.8-7.5
			C84.7,377.6,85.2,377.6,85.7,377.6z"/>
		<path class="st7" d="M85.7,379.7c-6.2,0-11.2,8.9-11.2,19.8c0,10.9,5,19.8,11.2,19.8c2.5,0,7.4,1.2,9.2-1.2
			c2.8-3.6-3.3-12-3.3-18.5c0-8,5.1-16.3,1.2-19.4C91.4,379,87.3,379.7,85.7,379.7z"/>
		<path class="st0" d="M92.4,421.5c7.4,0,13.4-9.9,13.4-21.9c0-12.1-6-21.9-13.4-21.9c-7.4,0-13.4,9.9-13.4,21.9
			C79,411.6,85.1,421.5,92.4,421.5z"/>
		<path class="st4" d="M92.4,419.3c6.2,0,11.2-8.9,11.2-19.8c0-10.9-5-19.8-11.2-19.8c-6.2,0-11.2,8.9-11.2,19.8
			C81.2,410.4,86.2,419.3,92.4,419.3z"/>
		<path class="st0" d="M84.3,331.7c5.7,14.3,44.7,83.1,44.8,83.3l-14.1,8c-0.1-0.2-39.8-70.1-45.8-85.4L84.3,331.7z"/>
		<path class="st0" d="M95.2,381.9c-2.9,0-5.6,1.9-7.5,5.1c-2,3.2-3.2,7.6-3.2,12.5c0,4.9,1.2,9.3,3.2,12.5c1.9,3.1,4.6,5.1,7.5,5.1
			c2.9,0,5.6-1.9,7.5-5.1c2-3.2,3.2-7.6,3.2-12.5c0-4.9-1.2-9.3-3.2-12.5C100.7,383.9,98.1,381.9,95.2,381.9L95.2,381.9z
			 M86.8,386.4c2.1-3.4,5.1-5.6,8.4-5.6c3.3,0,6.3,2.1,8.4,5.6c2.1,3.4,3.4,8,3.4,13.1c0,5.1-1.3,9.7-3.4,13.1
			c-2.1,3.4-5.1,5.6-8.4,5.6c-3.3,0-6.3-2.1-8.4-5.6c-2.1-3.4-3.4-8-3.4-13.1C83.4,394.4,84.7,389.8,86.8,386.4z"/>
		<path class="st0" d="M104,400.6c0-0.7,0.3-1.4,0.8-2c1.3-1.5,3.1-1.3,4.6-0.4c0.4,0.3,0.9,0.6,1.3,0.9c1.2,1,2.4,2,3.6,3.1
			c3.3,3.1,6.5,6.7,9.2,10.4c3.6,5,7,11.6,6,17.9c-0.4,2.8-0.5,5.5-0.9,8.3c-0.6,4.1-2,7.2-4.3,10.6c-0.8,1.2-1.9,2.4-2.8,3.5
			c-1.5,1.8-3,3.7-4.5,5.5c-1.3,1.6-2.7,3.2-4,4.9c-5.5,6.8-9.6,11.3-19,11.1c-7.7-0.2-15.5,0-23.2,0.1c-11.3,0.2-22.6,0.5-33.9,0.6
			c-4.5,0.1-9.3-0.3-12.4-4.1c-2.7-3.3-3.6-6.5-2.1-10.6c6.7-18.2,19.2-32.5,35.1-43.3c11.3-7.7,23.5-13.1,36.4-17.5
			c0.6-0.2,1.1-0.2,1.7-0.1C97,399.8,101.3,400.5,104,400.6z"/>
		<path class="st2" d="M94.9,402.7c-16.5,5.6-55.3,20.5-69.4,58.9c-1.4,3.7,0.2,5.9,1.5,7.4c2,2.4,5,3,9.8,2.9
			c26.5-0.4,44.8-1,57.2-0.8c8,0.2,11.3-3.6,16.4-9.9c3.9-4.8,10.1-12.3,11.2-13.7c4.8-6.8,3.6-10.6,4.6-17.5
			c2.1-13.5-21.3-32-18.8-29C111.6,406.2,94.9,402.7,94.9,402.7z"/>
		<path class="st8" d="M94.9,402.7c-2.1,0.7-4.6,1.6-7.3,2.7c3.5,1.4,11.3,1.4,15.3,1.2c4.2-0.2,7.9,4.9,6.8,9.7
			c-1.1,4.8-7.6,11.2-9.3,20.6c-0.8,4.4-1.7,9-2.1,12.7c-0.5,4.2-0.5,7.4-2.6,8.1c-4,1.4-47.8,2.2-57.3,3.8
			c-9.5,1.6,13.2,2.1,36.4,1.8c23.2-0.2,23.1-6,24.8,7.2c4.4-1.3,7.1-4.6,10.9-9.2c3.9-4.8,10.1-12.3,11.2-13.7
			c4.8-6.8,3.6-10.6,4.6-17.5c2.1-13.5-21.3-32-18.8-29C111.6,406.2,94.9,402.7,94.9,402.7z"/>
		<path class="st0" d="M24.5,463.2c-0.4,0-0.8-0.4-0.8-0.8c0-0.4,0.4-0.8,0.8-0.8l61.3,0c6.2,0,10.3-0.6,13.3-1.6
			c2.9-1,4.7-2.4,6.2-4.2c7.7-8.8,21.1-27.1,21.1-27.1c0.3-0.4,0.8-0.4,1.1-0.2c0.4,0.3,0.4,0.8,0.2,1.1c0,0.1-13.4,18.3-21.2,27.2
			c-1.7,2-3.7,3.6-6.9,4.7c-3.1,1.1-7.4,1.7-13.8,1.7L24.5,463.2z"/>
		<path class="st0" d="M94.2,389.3c6.8,0,13.6,0,20.4,0c1.8,0,3.2,1.5,3.2,3.2v8.7c0,1.8-1.5,3.2-3.2,3.2H92.7
			c-0.6,0-1.3-0.1-1.9-0.3C84.5,401.7,85.2,389.3,94.2,389.3z"/>
		<path class="st9" d="M94.2,392.5c20.4,0,20.4,0,20.4,0v8.7H92.7C89.2,401.2,88.2,392.5,94.2,392.5z"/>
		<path class="st4" d="M94.2,392.5H113v4.6H91.1c-0.4,0-0.8-0.1-1.2-0.4C90,394.6,91.3,392.5,94.2,392.5z"/>
		<path class="st0" d="M74,349c4.2,0,7.6-4,7.6-8.8s-3.4-8.8-7.6-8.8c-4.2,0-7.6,4-7.6,8.8S69.8,349,74,349z"/>
		<path class="st4" d="M74,346.8c3,0,5.4-3,5.4-6.7c0-3.7-2.4-6.7-5.4-6.7c-3,0-5.4,3-5.4,6.7C68.6,343.8,71,346.8,74,346.8z"/>
		<path class="st0" d="M83.9,318.8c3.3,0,10.8-1,13.4,1.1c0.6,0.5,1.1,1.1,1.6,1.8c1.5,2.5,1.1,5.7,0.5,8.4
			c-0.6,2.6-1.4,5.2-1.7,7.9c-0.1,0.7-0.1,1.4-0.1,2.2c0,5.7,6.4,13.7,2.3,19c-3,3.9-11.5,2.4-15.8,2.4c-0.5,0-1,0-1.5-0.1
			c-4.1-0.7-7.1-4-9-7.5c-2.2-4.1-3.1-9.1-3.1-13.7c0-4.6,0.9-9.6,3.1-13.7c1.8-3.5,4.8-6.8,9-7.5C82.9,318.8,83.4,318.8,83.9,318.8
			z"/>
		<path class="st9" d="M83.9,322c-5.7,0-10.3,8.1-10.3,18.1c0,10,4.6,18.1,10.3,18.1c2.3,0,11.6,1.1,13.3-1.1c2.5-3.3-3-11-3-17
			c0-7.4,4.7-14.9,1.1-17.7C94,321.4,85.4,322,83.9,322z"/>
		<path class="st4" d="M83.9,322c-5.7,0-10.3,8.1-10.3,18.1c0,1.4,0.1,2.8,0.3,4.2c1.1,0.6,2.3,0.9,3.5,0.8
			c2.3-0.2,11.6,0.2,13.3-2.1c2.5-3.5-3-10.8-3-16.8c0-1.5,3-2.9,3.3-4.4C89,321.9,84.5,322,83.9,322z"/>
		<path class="st0" d="M91.1,319.6c0.3,0,0.5,0.2,0.5,0.5c0,0.3-0.3,0.5-0.6,0.5c-5.1,0-8.5,4.3-10.2,10.1c-0.8,2.6-1.3,5.5-1.4,8.4
			c-0.1,2.9,0,5.9,0.5,8.6c1.1,6.1,3.9,11,8.2,11.2c0.3,0,0.5,0.3,0.5,0.6c0,0.3-0.3,0.5-0.6,0.5c-4.9-0.2-7.9-5.4-9.2-12
			c-0.5-2.8-0.7-5.8-0.5-8.8c0.2-3,0.6-6,1.5-8.7C81.8,324.2,85.5,319.6,91.1,319.6z"/>
		<path class="st0" d="M78,355.7c1.8-1.2,6.2-1.2,8.8-0.5c3.4,0.9,6.6,4.1,6.6,4.1c-2,0.5-7.7,1.6-11.9,0.7
			C78.9,359.3,75.8,357.1,78,355.7z"/>
		<path class="st0" d="M96.8,361.5c7.5,0,13.5-9.6,13.5-21.3s-6.1-21.3-13.5-21.3s-13.5,9.6-13.5,21.3S89.3,361.5,96.8,361.5z"/>
		<path class="st4" d="M96.8,358.2c5.7,0,10.3-8.1,10.3-18.1c0-10-4.6-18.1-10.3-18.1c-5.7,0-10.3,8.1-10.3,18.1
			C86.5,350.1,91.1,358.2,96.8,358.2z"/>
		<path class="st0" d="M98.5,352.2c3.8,0,6.9-5.4,6.9-12.1c0-6.7-3.1-12.1-6.9-12.1c-3.8,0-6.9,5.4-6.9,12.1
			C91.6,346.8,94.7,352.2,98.5,352.2z"/>
		<path class="st9" d="M98.5,350.6c2.9,0,5.3-4.7,5.3-10.5c0-5.8-2.4-10.5-5.3-10.5c-2.9,0-5.3,4.7-5.3,10.5
			C93.2,345.9,95.6,350.6,98.5,350.6z"/>
		<path class="st4" d="M108.3,340.1c0-7.4-9.2-8.3-11.4-5.1c-1.8,2.7-1.4,9,0,10.5C100,348.8,108.3,346.9,108.3,340.1z"/>
		<path class="st7" d="M89.1,340.1c0-8.7,3.4-15.9,8.1-17.7c0.3-0.1,0.6-0.2,0.9-0.3c-0.4-0.1-0.9-0.1-1.3-0.1c-0.2,0-0.4,0-0.6,0
			c-5.4,0.5-9.7,8.4-9.7,18.1c0,0.8,0,1.6,0.1,2.3c0,0.2,0,0.4,0.1,0.6c0.7,7.3,3.8,13.1,7.9,14.7c0.7,0.3,1.3,0.4,2,0.4
			c0.1,0,0.2,0,0.3,0c0.4,0,0.9,0,1.3-0.1c-0.2,0-0.3-0.1-0.5-0.1c-4.5-1.4-8-7.9-8.4-16C89.1,341.4,89.1,340.8,89.1,340.1z"/>
		<path class="st9" d="M104.9,335.9c-0.6,0.5-1,1.1-1.3,1.8c-0.2,0.5-0.4,1.2-0.6,2c-0.4,1.4-1.5,1.8-3.6,1.7
			c-0.9-0.1-2-0.2-3.3-0.4c-0.1,0-0.3,0-0.4-0.1c0.1,2,0.5,3.9,1.2,4.6c0.1,0.1,0.2,0.2,0.3,0.3c1,0.9,2.4,1.3,3.9,1.3
			c0.5,0,1,0,1.5-0.1c0.7-0.1,1.3-0.3,1.9-0.6c0.9-0.4,1.7-1,2.3-1.8c0.9-1.1,1.5-2.6,1.5-4.4c0-1.9-0.6-3.4-1.5-4.4
			c-0.2-0.2-0.4-0.4-0.6-0.6C105.7,335.4,105.3,335.6,104.9,335.9z"/>
		<path class="st0" d="M107.5,340.1c0-1.7-0.5-2.9-1.3-3.9c-0.8-0.9-1.9-1.5-3-1.9c-1.1-0.3-2.3-0.4-3.4-0.2c-1,0.2-1.8,0.6-2.3,1.3
			c-0.8,1.1-1.1,2.9-1.1,4.8c0,2.1,0.4,4,1,4.7c0.8,0.9,2.2,1.3,3.6,1.3c0.8,0,1.7-0.2,2.5-0.5c0.8-0.3,1.6-0.8,2.2-1.4
			C106.8,343.4,107.5,342,107.5,340.1L107.5,340.1z M107.4,335.2c1,1.2,1.7,2.9,1.7,4.9c0,2.3-0.9,4.1-2.2,5.4
			c-0.8,0.8-1.7,1.3-2.8,1.7c-1,0.4-2.1,0.6-3.1,0.6c-1.8,0-3.6-0.6-4.7-1.8c-0.9-0.9-1.4-3.3-1.4-5.8c0-2.1,0.4-4.3,1.4-5.7
			c0.7-1,1.9-1.7,3.3-1.9c1.3-0.3,2.8-0.2,4.2,0.2C105,333.3,106.3,334,107.4,335.2z"/>
		<path class="st0" d="M116.8,378.1c0.8,0,1.8-0.1,2.6-0.2c1.8-0.1,3.7,0.1,5.1,1.3c0.4,0.4,0.8,0.8,1.1,1.3
			c1.6,2.4,1.2,5.5,0.6,8.2c-0.5,2.6-1.3,5.2-1.5,7.8c-0.1,0.6-0.1,1.2-0.1,1.8c0,5.4,5.5,12.9,2,17.8c-0.4,0.5-0.8,1-1.4,1.4
			c-1.6,1.1-3.5,1.3-5.3,1.2c-1,0-2.2-0.2-3.2-0.2c-4.2,0-7.2-3.2-9.1-6.7c-2.1-4-3-9-3-13.5c0-4.5,0.9-9.5,3-13.5
			C109.5,381.3,112.6,378.1,116.8,378.1z"/>
		<path class="st4" d="M116.8,381.1c-4.9,0-8.9,7.7-8.9,17.1c0,9.5,4,17.1,8.9,17.1c2,0,5.9,1,7.3-1.1c2.2-3.1-2.6-10.4-2.6-16
			c0-7,4.1-14.1,0.9-16.8C121.3,380.5,118.1,381.1,116.8,381.1z"/>
		<path class="st0" d="M124.6,418.3c7.1,0,12.9-9.1,12.9-20.3c0-11.2-5.8-20.3-12.9-20.3s-12.9,9.1-12.9,20.3
			C111.7,409.2,117.5,418.3,124.6,418.3z"/>
		<path class="st4" d="M124.6,415.2c5.4,0,9.8-7.7,9.8-17.2c0-9.5-4.4-17.2-9.8-17.2c-5.4,0-9.8,7.7-9.8,17.2
			C114.8,407.5,119.2,415.2,124.6,415.2z"/>
		<path class="st0" d="M126.2,409.5c3.6,0,6.6-5.2,6.6-11.5c0-6.3-2.9-11.5-6.6-11.5c-3.6,0-6.6,5.2-6.6,11.5
			C119.7,404.3,122.6,409.5,126.2,409.5z"/>
		<path class="st9" d="M126.2,408c2.8,0,5-4.5,5-9.9c0-5.5-2.3-9.9-5-9.9c-2.8,0-5,4.5-5,9.9C121.2,403.5,123.5,408,126.2,408z"/>
		<path class="st4" d="M135.5,398c0-7-8.8-7.9-10.9-4.9c-1.7,2.5-1.3,8.6,0,9.9C127.6,406.2,135.5,404.4,135.5,398z"/>
		<path class="st5" d="M117.3,398c0-8.2,3.3-15.1,7.7-16.8c0.3-0.1,0.6-0.2,0.9-0.3c-0.4-0.1-0.8-0.1-1.3-0.1c-0.2,0-0.4,0-0.6,0
			c-5.1,0.5-9.2,8-9.2,17.2c0,0.7,0,1.5,0.1,2.2c0,0.2,0,0.4,0,0.6c0.6,6.9,3.6,12.5,7.5,14c0.6,0.2,1.3,0.4,1.9,0.4
			c0.1,0,0.2,0,0.2,0c0.4,0,0.8,0,1.3-0.1c-0.2,0-0.3-0.1-0.5-0.1c-4.3-1.3-7.6-7.5-8-15.2C117.3,399.2,117.3,398.6,117.3,398z"/>
		<path class="st9" d="M132.4,394c-0.6,0.5-1,1-1.3,1.7c-0.2,0.5-0.4,1.1-0.6,1.9c-0.4,1.3-1.4,1.7-3.4,1.6
			c-0.9-0.1-1.9-0.2-3.1-0.4c-0.1,0-0.3,0-0.4-0.1c0.1,1.9,0.5,3.7,1.1,4.4c0.1,0.1,0.2,0.2,0.3,0.3c0.9,0.8,2.3,1.2,3.7,1.2
			c0.5,0,1,0,1.4-0.1c0.6-0.1,1.2-0.3,1.8-0.6c0.8-0.4,1.6-1,2.2-1.7c0.9-1,1.5-2.4,1.5-4.1c0-1.8-0.6-3.2-1.5-4.2
			c-0.2-0.2-0.3-0.4-0.5-0.5C133.1,393.5,132.7,393.7,132.4,394z"/>
		<path class="st0" d="M134.8,398c0-1.6-0.5-2.8-1.3-3.7c-0.7-0.9-1.8-1.5-2.8-1.8c-1.1-0.3-2.2-0.4-3.2-0.2
			c-0.9,0.2-1.7,0.6-2.2,1.2c-0.7,1-1,2.8-1,4.5c0,2,0.4,3.8,0.9,4.4c0.8,0.8,2.1,1.3,3.4,1.3c0.8,0,1.6-0.1,2.4-0.4
			c0.8-0.3,1.5-0.7,2.1-1.3C134.1,401.1,134.8,399.8,134.8,398L134.8,398z M134.7,393.3c1,1.2,1.6,2.7,1.6,4.7
			c0,2.2-0.9,3.9-2.1,5.2c-0.8,0.7-1.7,1.3-2.6,1.6c-1,0.4-2,0.5-2.9,0.5c-1.7,0-3.4-0.6-4.5-1.7c-0.8-0.9-1.4-3.2-1.4-5.5
			c0-2,0.4-4.1,1.3-5.4c0.7-0.9,1.8-1.6,3.1-1.8c1.2-0.2,2.6-0.2,4,0.2C132.4,391.5,133.7,392.2,134.7,393.3z"/>
		<path class="st4" d="M126,432c-3.9,5.3-13.4,17.9-19.4,24.8c-1.7,2-3.7,3.6-6.9,4.7c-3.1,1.1-7.4,1.7-13.8,1.7l-60.8,0
			c-0.4,2.7,0.9,4.4,2,5.7c2,2.4,5,3,9.8,2.9c26.5-0.4,44.8-1,57.2-0.8c8,0.2,11.3-3.6,16.4-9.9c3.9-4.8,10.1-12.3,11.2-13.7
			C125.9,441.4,125.4,437.7,126,432z"/>
		<path class="st9" d="M126,432c-3.9,5.3-13.4,17.9-19.4,24.8c-1.7,2-3.7,3.6-6.9,4.7c-0.1,0,0.4,8.8,1.6,8.3c3.4-1.6,6-4.6,9.2-8.6
			c3.9-4.8,10.1-12.3,11.2-13.7C125.9,441.4,125.4,437.7,126,432z"/>
		<path class="st7" d="M66.2,421.9c1.6,4.5,11.8-1.3,10.2-5.9c-0.8-2.2-4.6-0.3-1.2-3.2c2.1-1.8,6.1-4.4,7-5.1
			c0.2-0.1,0.4-0.3,0.6-0.4c-0.9,0.4-1.8,0.8-2.6,1.1c-1.3,0.6-2.6,1.2-4,1.8c-0.6,0.3-1.3,0.6-2,1c-0.3,0.2-0.6,0.3-1,0.5
			c-17.5,8.9-38.3,24.1-47.8,49.9c0,0,0,0.1,0,0.1l6.9,0c1.4-2.6,7-16,15.8-27C54.1,427.1,64.9,418.4,66.2,421.9z"/>
		<path class="st5" d="M32.2,463.2l-7.2,0c-0.4,2.7,0.9,4.4,2,5.7c1.5,1.8,3.6,2.6,6.6,2.8c-1.7-1.5-2.3-3.7-2.7-5.5
			C30.6,464.8,31.1,463.9,32.2,463.2z"/>
		<path class="st0" d="M109.5,419.2c-7.3,12.7-10.7,21.5-11.3,36.5c-1.4-13.7,3.4-25.5,9.8-37.3c0.2-0.4,0.8-0.5,1.2-0.3
			C109.6,418.3,109.8,418.8,109.5,419.2z"/>
		<path class="st0" d="M102.3,472.8c-3.1-0.1-2.9-9.5-2.8-10.7c0.3,1.3,1.8,7.9,3,9.2c0.3,0.1,0.5,0.3,0.6,0.7
			C103.1,472.4,102.8,472.8,102.3,472.8L102.3,472.8z M102.6,471.4L102.6,471.4C102.6,471.4,102.6,471.4,102.6,471.4z"/>
		<path class="st6" d="M91.8,364.6c10.1,20,11.3,24.2,12.2,21.9c0.9-2.4,3-4.8,3-4.8l-10.3-20.2c0,0-1.9,0.4-4.8,0.2
			C90.4,361.6,91.5,364,91.8,364.6z"/>
		<path class="st5" d="M75.5,331.5c1.7-4.3,4.4-7.2,7.6-7.7c0.3-0.4,0.7-0.9,1.1-1.2c0.2-0.2,0.4-0.4,0.6-0.5c-0.1,0-0.3,0-0.4,0
			c-0.2,0-0.4,0-0.5,0c-3.9,0-7.2,3.8-9,9.3c-0.2,0.7-0.4,1.4-0.6,2.1c-0.2,0.7-0.3,1.5-0.4,2.3c-0.2,1.4-0.3,2.9-0.3,4.4
			c0,0.7,0,1.3,0.1,1.9c0-0.1,0-0.1,0-0.2c0-2.2,0.2-4.3,0.6-6.2c0.1-0.7,0.3-1.4,0.5-2.1C75,332.8,75.3,332.1,75.5,331.5z"/>
		<path class="st5" d="M84.5,323.8c0.8,0,2.2,0,3.6-0.1c0.5-0.6,1-1.2,1.6-1.8c-1,0-2.1,0.1-3.1,0.1
			C85.8,322.5,85.2,323.1,84.5,323.8z"/>
		<path class="st0" d="M111.5,241.3c3.5-5.8,10.5-8.9,17-9.8c7.8-1.1,16,0.6,22.7,4.7c6.8,4.1,12,10.7,14.5,18.2
			c2.1,6.2,2.5,13.9-1,19.7c-1.1,1.9-2.6,3.4-4.5,4.6c-9.4,5.9-23.3-0.3-31.7-5.4c-5.1-3.1-10.3-7.1-14.1-11.9
			c-3.2-4-5.6-9-5.1-14.2C109.7,245.2,110.4,243.2,111.5,241.3z"/>
		<path class="st1" d="M114.3,243c-5.3,8.7,2.8,19.5,16,27.6c13.2,8.1,26.4,10.5,31.7,1.8c5.3-8.7,0.8-25.3-12.4-33.4
			C136.3,231,119.6,234.3,114.3,243z"/>
		<path class="st0" d="M134.9,276.3c0.3,0.2,0.6,0.1,0.7-0.2c0.2-0.3,0.1-0.6-0.2-0.7c-0.5-0.3-0.9-0.6-1.2-0.9
			c-1.7-1.5-2.1-3.3-1.9-5.1c0.2-1.9,1-3.8,1.9-5.3c0.7-1.2,1.5-2.1,2-2.7c0.2-0.2,0.2-0.6,0-0.8c-0.2-0.2-0.6-0.2-0.8,0
			c-0.5,0.6-1.3,1.6-2.1,2.9c-1,1.6-1.9,3.7-2.1,5.7c-0.2,2.1,0.3,4.3,2.3,6C133.9,275.7,134.4,276,134.9,276.3z"/>
		<path class="st0" d="M140.1,278.7c0.3,0.5,1,0.7,1.5,0.3c0.5-0.3,0.7-1,0.3-1.5c-0.9-1.4-0.9-3.1-0.5-4.7c0.7-2.8,2.6-5.3,3.5-6.4
			c0.4-0.4,0.4-1.1-0.1-1.5c-0.4-0.4-1.1-0.4-1.5,0.1c-1.1,1.2-3.2,4.1-4,7.3C138.7,274.4,138.8,276.6,140.1,278.7z"/>
		<path class="st0" d="M126.6,271.8c0.5,0.3,1.2,0.1,1.5-0.4c0.3-0.5,0.1-1.2-0.4-1.5c-0.4-0.3-0.8-0.5-1.2-0.8
			c-1.5-1.3-1.9-3-1.7-4.6c0.2-1.8,1-3.6,1.9-5.1c0.7-1.2,1.4-2.1,1.9-2.6c0.4-0.4,0.4-1.1-0.1-1.5c-0.4-0.4-1.1-0.4-1.5,0.1
			c-0.5,0.6-1.4,1.7-2.1,2.9c-1,1.7-1.9,3.8-2.2,6c-0.2,2.3,0.4,4.6,2.5,6.5C125.5,271.1,126,271.5,126.6,271.8z"/>
		<path class="st4" d="M132.7,272.4c-0.4-0.9-0.5-2-0.4-3c0.2-1.8,1-3.6,1.8-5.1c0-0.1,0.1-0.1,0.1-0.2c0.3-0.5,0.6-1,0.9-1.4
			c0.3,0.2,0.5,0.3,0.8,0.5c2,1.2,4,2.3,6,3.4c-1,1.5-2.2,3.5-2.7,5.7c-0.3,1.1-0.4,2.3-0.3,3.4
			C136.9,274.7,134.8,273.6,132.7,272.4z"/>
		<path class="st9" d="M132.5,268.1c0.3-1.3,0.9-2.6,1.6-3.8c0-0.1,0.1-0.1,0.1-0.2c0.3-0.5,0.6-1,0.9-1.4c0.3,0.2,0.5,0.3,0.8,0.5
			c2,1.2,4,2.3,6,3.4c-1,1.4-2,3.2-2.6,5.2c-1.9-0.9-3.8-1.9-5.7-3C133.3,268.6,132.9,268.3,132.5,268.1z"/>
		<path class="st4" d="M131.2,269.3c-0.1,0.7-0.1,1.5,0.1,2.2c-1.6-1-3.2-2.1-4.7-3.1c-0.5-0.4-1-0.7-1.5-1.1
			c-0.4-0.9-0.5-1.8-0.4-2.8c0.2-1.8,1-3.6,1.9-5.1c0.4-0.6,0.8-1.2,1.1-1.7c2.1,1.5,4.3,3,6.4,4.4c-0.3,0.4-0.6,0.9-0.9,1.4
			c-0.3,0.6-0.7,1.2-0.9,1.8C131.8,266.6,131.4,268,131.2,269.3z"/>
		<path class="st9" d="M125.1,262.9c0.4-1.2,0.9-2.4,1.5-3.4c0.4-0.6,0.8-1.2,1.1-1.7c2.1,1.5,4.3,3,6.4,4.4
			c-0.3,0.4-0.6,0.9-0.9,1.4c-0.3,0.6-0.7,1.2-0.9,1.8c-0.3,0.7-0.6,1.4-0.8,2.1C129.2,266,127.1,264.5,125.1,262.9z"/>
		<g>
			<path class="st0" d="M81.2,159c-15.7,4.3-29.7,13.1-40.4,22.7c-6.2,5.6-11.3,11.2-14.6,16.1c-2.3,3.3-24,9.8-14.9-5.5
				c4.4-7.3,10.8-15.2,18.9-22.5c12.4-11.1,28.7-21.3,47.2-26.4L81.2,159z"/>
			<path class="st6" d="M23.5,183.8c5.3,1.3,5.3,0.7,6-0.1c7.9-8.2,21.5-18.1,32-21.8c1.9-0.7,2.2,0.3,0.4,1.2
				c-10.3,5.3-22,13.3-32.2,24.5c-0.5,0.6-1,0-1.6-0.5c-0.1-0.1-2.1-1.4-3.7-2.4C23,183.9,21.9,183.4,23.5,183.8z"/>
		</g>
		<path class="st0" d="M87.9,123.3c7.1,0.8,13,6.1,16.7,11.8c4.5,7,6.4,15.5,5.4,23.7c-1,8.3-4.9,16.1-10.9,21.8
			c-5,4.7-12.1,8.5-19.1,7.6c-2.3-0.3-4.4-1-6.3-2.2c-9.7-6.3-9.9-22.3-8.7-32.5c1.2-10.3,5.3-25.9,16.4-29.6
			C83.4,123.2,85.6,123,87.9,123.3z"/>
		<path class="st8" d="M87.5,126.5c-10.7-1.2-17.5,11.3-19.3,27.4c-1.9,16.2,1.5,29.9,12.2,31.1c10.7,1.2,24.6-10.4,26.5-26.6
			C108.7,142.3,98.2,127.7,87.5,126.5z"/>
		<path class="st1" d="M79.1,184.8c0.4,0.1,0.8,0.2,1.3,0.2c10.7,1.2,24.6-10.4,26.5-26.6c1.6-13.4-5.4-25.7-13.9-30.2
			c-0.7-0.2-1.3-0.3-2-0.4c-10.7-1.2-17.5,11.3-19.3,27.4C70,168.8,72.1,180.6,79.1,184.8z"/>
		<path class="st0" d="M66.3,149.8c0-0.3,0.3-0.5,0.6-0.5c0.3,0,0.5,0.3,0.5,0.6c-0.1,0.5-0.1,1.1,0,1.5c0.2,2.2,1.3,3.7,2.9,4.6
			c1.6,1,3.6,1.5,5.4,1.6c1.4,0.2,2.6,0.1,3.3,0.1c0.3,0,0.6,0.2,0.6,0.5c0,0.3-0.2,0.6-0.5,0.6c-0.8,0.1-2.1,0.1-3.5-0.1
			c-1.9-0.2-4.1-0.7-5.8-1.8c-1.8-1.1-3.2-2.8-3.4-5.4C66.3,151,66.3,150.4,66.3,149.8z"/>
		<path class="st0" d="M67.6,144.3c-0.2-0.6,0.1-1.2,0.6-1.4c0.6-0.2,1.2,0.1,1.4,0.6c0.6,1.6,1.9,2.6,3.5,3.3
			c2.6,1.1,5.8,1.2,7.2,1.1c0.6,0,1.1,0.4,1.2,1c0,0.6-0.4,1.1-1,1.2c-1.6,0.1-5.2,0.1-8.2-1.2C70.2,147.9,68.4,146.5,67.6,144.3z"
			/>
		<path class="st0" d="M64.9,159.1c0.1-0.6,0.6-1,1.2-1c0.6,0.1,1,0.6,1,1.2c-0.1,0.5-0.1,1,0,1.4c0.2,2,1.2,3.3,2.6,4.2
			c1.5,0.9,3.5,1.4,5.2,1.6c1.3,0.1,2.5,0.1,3.2,0.1c0.6,0,1.1,0.4,1.2,1c0,0.6-0.4,1.1-1,1.2c-0.8,0.1-2.1,0.1-3.6-0.1
			c-2-0.2-4.2-0.7-6-1.9c-2-1.2-3.4-3.1-3.7-5.9C64.8,160.4,64.8,159.8,64.9,159.1z"/>
		<path class="st4" d="M68.1,153.9c0.5,0.9,1.3,1.6,2.1,2.1c1.5,0.9,3.4,1.4,5.1,1.6c0.1,0,0.2,0,0.2,0c0.6,0.1,1.2,0.1,1.7,0.1
			c0-0.3,0.1-0.6,0.1-0.9c0.2-2.3,0.6-4.6,1-6.9c-1.8-0.1-4.1-0.4-6.1-1.3c-1.1-0.5-2.1-1.1-2.9-1.9
			C68.8,149.1,68.4,151.5,68.1,153.9z"/>
		<path class="st9" d="M71.4,156.6c1.3,0.5,2.7,0.9,4,1c0.1,0,0.2,0,0.2,0c0.6,0.1,1.2,0.1,1.7,0.1c0-0.3,0.1-0.6,0.1-0.9
			c0.2-2.3,0.6-4.6,1-6.9c-1.7-0.1-3.8-0.3-5.7-1.1c-0.4,2-0.8,4.2-1,6.4C71.5,155.8,71.5,156.2,71.4,156.6z"/>
		<path class="st4" d="M69.7,156.9c-0.6-0.4-1.2-0.9-1.7-1.4c-0.2,1.9-0.3,3.8-0.3,5.6c0,0.6,0,1.2,0,1.8c0.5,0.8,1.2,1.5,2,2
			c1.5,0.9,3.5,1.4,5.2,1.6c0.7,0.1,1.4,0.1,2,0.1c0-2.6,0.2-5.2,0.4-7.8c-0.5,0-1.1-0.1-1.7-0.1c-0.6-0.1-1.3-0.2-2-0.3
			C72.2,158.1,70.9,157.7,69.7,156.9z"/>
		<path class="st9" d="M71.1,165.7c1.2,0.5,2.5,0.7,3.7,0.8c0.7,0.1,1.4,0.1,2,0.1c0-2.6,0.2-5.2,0.4-7.8c-0.5,0-1.1-0.1-1.7-0.1
			c-0.6-0.1-1.3-0.2-2-0.3c-0.7-0.2-1.5-0.4-2.2-0.7C71.1,160.5,71,163.2,71.1,165.7z"/>
		<path class="st0" d="M63.3,265c-7.7-5.6-20.1-18.7-32.3-34c-5.9-7.4-11.9-15.4-17.2-23.2c-1.7-2.5-4-6.5-5.5-10.7
			c-1-3,11.1-10.1,16.9-1.3c5.5,8.4,12,17.1,18.4,25.1c11.4,14.2,22.6,26.2,29.2,31L63.3,265z"/>
		<path class="st0" d="M12.2,182.9c8.9-2.6,18.3,2.6,20.8,11.6c2.6,8.9-2.6,18.3-11.6,20.8c-8.9,2.6-18.3-2.6-20.8-11.6
			C-1.9,194.7,3.3,185.4,12.2,182.9z"/>
		<path class="st9" d="M13.1,186c7.2-2.1,14.7,2.1,16.8,9.3c2.1,7.2-2.1,14.7-9.3,16.8c-7.2,2.1-14.7-2.1-16.8-9.3
			C1.7,195.6,5.9,188.1,13.1,186z"/>
		<path class="st4" d="M13.1,186c5.1-1.4,10.3,0.2,13.6,3.8c0.2,0.4,0.3,0.8,0.4,1.2c2.1,7.2-2.1,14.7-9.3,16.8
			c-5.1,1.4-10.3-0.2-13.6-3.8c-0.2-0.4-0.3-0.8-0.4-1.2C1.7,195.6,5.9,188.1,13.1,186z"/>
		<path class="st0" d="M78.2,265.5c2.8-4.2,6.9-9.9,12.3-10.6c2.6-0.3,5,0.5,7.3,1.6c2.8,1.3,5.5,2.8,8.1,4.2c0.1,0,0.1,0.1,0.1,0.1
			c2.9,1.7,6.8,4.2,9.2,6.4c2.5,2.4,4.3,6.3,3.6,9.8c-0.4,2.2-3.7,5.5-5.3,7.1c-1.5,1.5-3.2,3.2-4.9,4.5c-3.3,2.5-6.7,1.9-10.4,0.8
			c-1.5-0.4-3.4-1.6-4.7-2.5c-2-1.3-4.1-2.6-6-4c-2.7-1.9-5.4-3.8-8.1-5.8C75.4,274.1,75.4,269.5,78.2,265.5z"/>
		<path class="st9" d="M80.8,267.4c-2.1,3.1-1.7,5.5,0.6,7.2c4.2,3.2,15.2,11,17.8,11.8c2.6,0.8,5.2,1.4,7.5-0.3
			c2.3-1.7,8.7-8.1,9-9.5c0.3-1.5-0.2-4.5-2.7-6.9c-2.5-2.4-8.6-6-8.6-6C92.1,257.2,89.9,254.2,80.8,267.4z"/>
		<path class="st0" d="M65.7,280.4c2.8-4.2,6.9-9.9,12.3-10.6c2.6-0.3,5,0.5,7.3,1.6c2.8,1.3,5.5,2.8,8.1,4.2c0.1,0,0.1,0.1,0.1,0.1
			c2.9,1.7,6.8,4.2,9.2,6.4c2.5,2.4,4.3,6.3,3.6,9.8c-0.4,2.2-3.7,5.5-5.3,7.1c-1.5,1.5-3.2,3.2-4.9,4.5c-3.3,2.5-6.7,1.9-10.4,0.8
			c-1.5-0.4-3.4-1.6-4.7-2.5c-2-1.3-4.1-2.6-6-4c-2.7-1.9-5.4-3.8-8.1-5.8C63,288.9,63,284.4,65.7,280.4z"/>
		<path class="st9" d="M68.4,282.2c-2.1,3.1-1.7,5.5,0.6,7.2c4.2,3.2,15.2,11,17.8,11.8c2.6,0.8,5.2,1.4,7.5-0.3
			c2.3-1.7,8.7-8.1,9-9.5c0.3-1.5-0.2-4.5-2.7-6.9c-2.5-2.4-8.6-6-8.6-6C79.7,272.1,77.4,269.1,68.4,282.2z"/>
		<path class="st0" d="M61.7,310.9c-0.1-0.1-0.3-0.2-0.4-0.3c-0.1,0-0.1,0-0.2,0.1c-1,0.4-2.1,0.2-3-0.4c-1.5-1.1-3.1-2.2-4.6-3.4
			c-4.1-3.1-4.1-7.6-1.4-11.6c2.8-4.2,6.9-9.9,12.3-10.6c2.6-0.3,5,0.5,7.3,1.6c2.8,1.3,5.5,2.8,8.1,4.2c0.1,0,0.1,0.1,0.1,0.1
			c2.9,1.7,6.8,4.2,9.2,6.4c2.5,2.4,4.3,6.3,3.6,9.8c-0.4,2.2-3.7,5.5-5.3,7.1c-1.5,1.5-3.2,3.2-4.9,4.5c-3.3,2.5-6.7,1.9-10.4,0.8
			c-1.3-0.4-2.9-1.4-4.1-2.1c-1.8-1.1-3.5-2.2-5.2-3.4C62.1,313.1,61.6,312.1,61.7,310.9z"/>
		<path class="st9" d="M54.9,297.1c-2.1,3.1-1.7,5.5,0.6,7.2c1.1,0.8,2.7,2,4.5,3.3c0.1-0.4,0.3-0.9,0.5-1.3
			c1.2,0.5,3.6,2.4,4.8,2.8c-0.2,0.6-0.3,1.2-0.4,1.9c3.6,2.5,7,4.7,8.3,5c2.6,0.8,5.2,1.4,7.5-0.3c2.3-1.7,8.7-8.1,9-9.5
			c0.3-1.5-0.2-4.5-2.7-6.9c-2.5-2.4-8.6-6-8.6-6C66.1,287,63.9,284,54.9,297.1z"/>
		<path class="st0" d="M19.2,233.6c-3.3-3.2-4.5-8.1-4.1-12.6c0.4-5.2,2.6-10.2,6.2-14c3.6-3.8,8.5-6.3,13.7-6.9
			c4.4-0.5,9.5,0.3,12.8,3.5c1.1,1.1,2,2.3,2.5,3.8c2.6,7-3.1,15-7.6,19.8c-2.7,2.8-5.9,5.5-9.4,7.3c-3.2,1.6-6.8,2.4-10.2,1.3
			C21.6,235.4,20.3,234.6,19.2,233.6z"/>
		<path class="st8" d="M21.5,231.2c4.6,4.4,12.2,0.8,18.8-6.1c6.6-7,9.8-14.7,5.2-19c-4.6-4.4-15.3-3.7-21.9,3.2
			C17,216.3,16.9,226.9,21.5,231.2z"/>
		<path class="st0" d="M51.8,202c8.9,0,29.3,16.9,36.1,22.6c5.4,4.5,10.6,9.1,15.8,13.9c3.8,3.6,7.7,7.3,11.2,11.2
			c4,4.5,3,10.6,1.3,15.8c-0.7,2.1-3.9,6-5.4,7.8c-3.1,3.9-6.4,7.7-9.7,11.5c-2.9,3.3-5.9,6.6-8.9,9.7c-2.1,2.1-4.4,4.6-6.8,6.4
			c-2.7,2.1-5.6,4.3-9,5.1c-5.2,1.2-10.1-1.3-14.2-4.2c-1.7-1.2-3.4-2.6-5-4c-2.2-2-4.4-4-6.6-6.1c-5.4-5.2-10.5-10.7-15.5-16.3
			c-6.2-7.1-20.1-23.4-21.3-32.9c-0.6-4.9,1.4-9.8,3.9-13.9c2.8-4.7,6.7-9,10.7-12.7c5.7-5.3,15-12.2,22.7-14
			C51.3,202,51.5,202,51.8,202z"/>
		<path class="st2" d="M51.7,205.3c-12,2.7-36.5,23.4-34.8,37c1.6,13.5,37.4,50.5,46.9,57.1c9.5,6.6,13.2,3.9,19.4-0.8
			c6.2-4.8,28.6-30.4,29.8-33.9c1.5-4.4,2.3-9.3-0.6-12.6C101.5,239.5,62.3,205.3,51.7,205.3z"/>
		<path class="st8" d="M21.4,228.9c-3.1,4.6-4.9,9.3-4.4,13.3c1.6,13.5,37.4,50.5,46.9,57.1c9.5,6.6,13.2,3.9,19.4-0.8
			c6.2-4.8,28.6-30.4,29.8-33.9c1.3-3.9,2.1-8.1,0.2-11.4c-4.1,3.1-10.8,6.6-21.4,9.6C68.4,269.3,37.8,251.6,21.4,228.9z"/>
		<path class="st5" d="M51.7,205.3c-2.5,0.6-5.6,1.9-8.8,3.9c4.5-0.4,9.8,0.8,16.2,4.4c17.9,10.1,51.8,33.4,54.3,45.8
			c0.2,0.8,0.3,1.6,0.4,2.2c0.8-3.5,0.8-7-1.5-9.7C101.5,239.5,62.3,205.3,51.7,205.3z"/>
		<path class="st1" d="M65.7,289c-1.7-1.1-5.7-4.1-7.8-5.7c-3.9-2.9-18-19.1-28.4-31.7c-9.7-11.8-8.7-12.5-8.9-12.1
			c-0.2,0.3-1.9-6-2-5.7c-1.3,2.9-2,5.8-1.7,8.4c1.3,11,23.3,36.1,38.6,50.1c3.6,3.3,6.5,5.7,8.3,7c9.5,6.6,13.2,3.9,19.4-0.8
			c0.6-0.4,1.3-1,2.1-1.8c0.4-0.4,0.9-0.9,1.4-1.4c3.3-3.2,7.7-7.9,11.9-12.8c0.7-0.7,1.3-1.5,2-2.2c2.4-2.8,4.7-5.5,6.6-7.9
			c2.4-3,4.3-5.4,5.2-6.9c0.1-0.1,0.1-0.2,0.2-0.3c0.1-0.3,0.3-0.5,0.3-0.7c1.1-3.4,1.9-7.1,0.8-10.2c-0.2-0.4-1.8-2.9-2.1-3.3
			c-0.6,3.1-2.3,5.9-5.2,10.2c-3.9,5.6-9.6,12.9-15,17.8C82.3,287.6,73,293.9,65.7,289z"/>
		<path class="st0" d="M72.5,305.2c-1.9,1.9-0.3,5.3,0.6,7.3c-3.3-1.6-4.5-6-2.3-8.9c0.5-0.5,1.2-0.5,1.7,0
			C73,304,73,304.8,72.5,305.2z"/>
		<path class="st0" d="M109.7,247.7c-0.2-0.3-0.1-0.6,0.2-0.7c0.3-0.2,0.6-0.1,0.7,0.2c1.3,2,1.4,4,1.1,5.7c-0.4,1.7-1.2,3.2-2,4.4
			c-5,7.4-13.4,18.2-21.7,25.6c-5.9,5.3-11.8,8.9-16.5,8.3c-11.9-1.4-25.3-17.7-40-35.6c-1.5-1.8-2.9-3.6-4.7-5.8
			c-3.3-4-5.4-7.4-6.6-10c-1.2-2.7-1.6-4.6-1.8-5.8c-0.3-2.8,0-4.1,0-4.4c0,0,0-0.1,0-0.1c0.6-2.2,1.4-3.4,1.8-3.5
			c0.1-0.2,0.2-0.2,0.2,0c0.3,0.2,0.2,1.5-1,3.8c-0.1,0.2-0.4,1.3,0,4c0.1,1.1,0.5,2.9,1.7,5.5c1.2,2.5,3.1,5.8,6.4,9.8
			c1.4,1.7,3.1,3.7,4.7,5.8c14.5,17.7,27.7,33.8,39.3,35.2c4.4,0.5,10-2.9,15.7-8c8.2-7.4,16.5-18.1,21.5-25.4
			c0.7-1.1,1.5-2.5,1.8-4C110.9,251.1,110.7,249.4,109.7,247.7z"/>
		<path class="st0" d="M71.7,290.7c0.1-0.3,0.4-0.5,0.7-0.4c0.3,0.1,0.5,0.4,0.4,0.7c-1.1,4.2,1.1,12.4,1.1,12.4
			c0.1,0.3-0.1,0.6-0.4,0.7c-0.3,0.1-0.6-0.1-0.7-0.4C72.8,303.6,70.5,295.2,71.7,290.7z"/>
		<path class="st0" d="M21.5,209.9c0.1-0.3,0.4-0.4,0.7-0.3c0.3,0.1,0.4,0.4,0.3,0.7c-3.2,7.9,2.2,12.6,2.3,12.6
			c0.2,0.2,0.2,0.5,0,0.8c-0.2,0.2-0.5,0.2-0.8,0C24.1,223.7,18.1,218.5,21.5,209.9z"/>
		<path class="st0" d="M61.9,300.4c0.3-0.3,0.8-0.3,1.1,0c0.3,0.3,0.3,0.8,0,1.1c-2.3,2.4-2.3,5.5-2.3,6.8c0,0.3,0,0,0,0.3
			c0,0.4-0.4,0.8-0.8,0.8s-0.8-0.4-0.8-0.8c0-0.4,0-0.2,0-0.3C59.1,306.8,59.1,303.3,61.9,300.4z"/>
		<path class="st0" d="M66.3,303.3c0.3-0.4,0.8-0.4,1.1-0.2c0.4,0.3,0.4,0.8,0.2,1.1c-2.3,3.3-1.5,8.8-1.5,8.8
			c0.1,0.4-0.2,0.9-0.7,0.9c-0.4,0.1-0.9-0.2-0.9-0.7C64.5,313.3,63.6,307.1,66.3,303.3z"/>
		<path class="st5" d="M14.5,187c4.5-1.1,9.1,0.2,12.4,3.1c0-0.1-0.1-0.3-0.1-0.4c-2.8-3-7-4.6-11.2-4.2c-0.8,0.1-1.6,0.2-2.4,0.5
			c-7.2,2.1-11.4,9.6-9.3,16.8c0.1,0.4,0.3,0.8,0.4,1.2c0.2,0.3,0.5,0.5,0.8,0.8c-0.1-0.3-0.2-0.5-0.3-0.8c-0.8-2.8-0.7-5.6,0.2-8.1
			c0.1-0.7,0.3-1.4,0.5-2c0.8-2,2.3-3.9,4.3-5.2c1.5-1,3.2-1.5,4.7-1.6C14.4,187,14.5,187,14.5,187z"/>
		<path class="st9" d="M10,189.2c3.6-2.3,7.8-1.7,9.4,1.4c1.5,3.1-0.2,7.5-3.8,9.8c-3.7,2.3-7.8,1.7-9.4-1.4
			C4.7,196,6.4,191.6,10,189.2z"/>
		<path class="st0" d="M18.9,191.3c0.1,0.2,0.2,0.3,0.3,0.5c1.3,2.6-0.2,6.4-3.3,8.4c-1.3,0.8-2.7,1.2-4,1.2
			c-0.5-0.4-0.9-0.8-1.2-1.4c-1.2-2.4,0.1-5.9,3-7.8C15.5,191.1,17.4,190.8,18.9,191.3z"/>
		<path class="st0" d="M9.7,188.6c2-1.3,4.2-1.8,6.1-1.5c1.9,0.3,3.5,1.3,4.3,3c0.9,1.7,0.8,3.8,0,5.8c-0.8,2-2.3,3.9-4.3,5.2
			c-2,1.3-4.2,1.8-6.1,1.5c-1.9-0.3-3.5-1.3-4.3-3c-0.9-1.7-0.8-3.8,0-5.8C6.2,191.8,7.7,189.9,9.7,188.6L9.7,188.6z M15.2,188.7
			c-1.5-0.2-3.2,0.2-4.9,1.2c-1.6,1-2.8,2.5-3.4,4.1c-0.6,1.6-0.7,3.2,0,4.6c0.7,1.4,1.9,2.2,3.5,2.4c1.5,0.2,3.2-0.2,4.9-1.2
			c1.6-1,2.8-2.5,3.4-4.1c0.6-1.6,0.7-3.2,0-4.6C18,189.7,16.7,188.9,15.2,188.7z"/>
		<path class="st2" d="M32.3,205.6c2.9-0.2,5.6,0.3,7.7,1.4c1.3-0.8,2.6-1.5,3.8-2.2c-2.8-1.6-6.9-2-10.9-1
			c-0.6,0.2-1.3,0.3-1.9,0.6c-0.8,0.3-1.5,0.6-2.2,1c-1.1,0.6-2.2,1.3-3.3,2.1c0.9-0.4,1.8-0.8,2.7-1c1.3-0.4,2.5-0.6,3.7-0.8
			C32.1,205.7,32.2,205.6,32.3,205.6z"/>
		<path class="st4" d="M73.8,306.5c1.7,3.8,5.8,4.6,10.5,0.8c1.2-0.9,2.2-1.8,3-2.6c0.8-0.8,1.5-1.5,2-2.1c-0.1-0.3-0.2-0.6-0.4-0.8
			c-0.4-0.8-1-1.6-1.7-2.3c-0.5,0.4-1,0.9-1.5,1.2c-0.2,0.1-0.3,0.3-0.5,0.4c-0.8,0.6-1.6,1.2-2.4,1.8c-2,1.5-4.2,2.8-6.6,3.3
			C75.4,306.4,74.6,306.5,73.8,306.5z"/>
		<path class="st4" d="M91.8,294.8c0.6,1.1,1.9,2.8,4,1.5c1.5-1,3.9-3.8,5.8-6.1c0.6-0.7,1.1-1.3,1.5-1.9c-0.1-0.4-0.3-0.8-0.5-1.2
			c-0.4-0.7-0.9-1.5-1.5-2.2c0,0,0,0,0,0c-0.5,0.5-0.9,1-1.4,1.5c-0.8,0.9-1.6,1.7-2.3,2.6c-1.7,1.9-3.5,3.8-5.2,5.6
			C91.9,294.7,91.8,294.8,91.8,294.8z"/>
		<path class="st4" d="M104.7,280.6c0.9,0.9,2.3,1.4,4,0.1c2-1.6,5-4.8,6.8-7c-0.3-1.2-1-2.6-2.1-3.8c-1,1.3-2,2.6-2.7,3.4
			C108.7,275.8,106.7,278.2,104.7,280.6z"/>
		<path class="st5" d="M24.4,191.7c-0.9,0-1.7,0.8-1.7,1.7c0,0.9,0.8,1.7,1.7,1.7c0.9,0,1.7-0.8,1.7-1.7
			C26.1,192.5,25.3,191.7,24.4,191.7z"/>
		<path class="st5" d="M22,189.2c0.4,0,0.7,0.3,0.7,0.7c0,0.4-0.3,0.7-0.7,0.7c-0.4,0-0.7-0.3-0.7-0.7
			C21.2,189.5,21.6,189.2,22,189.2z"/>
		<path class="st8" d="M26.4,235.6c1.9,0,3.4-1.5,3.4-3.4s-1.5-3.4-3.4-3.4c-1.9,0-3.4,1.5-3.4,3.4S24.5,235.6,26.4,235.6z"/>
		<path class="st4" d="M27,234.4c1.4,0,2.5-1.1,2.5-2.5c0-1.4-1.1-2.5-2.5-2.5c-1.4,0-2.5,1.1-2.5,2.5
			C24.4,233.3,25.6,234.4,27,234.4z"/>
		<path class="st0" d="M27,228.8c0.8,0,1.6,0.3,2.2,0.9c0.6,0.6,0.9,1.3,0.9,2.2c0,0.8-0.3,1.6-0.9,2.2c-0.6,0.6-1.3,0.9-2.2,0.9
			c-0.8,0-1.6-0.3-2.2-0.9c-0.6-0.6-0.9-1.3-0.9-2.2c0-0.8,0.3-1.6,0.9-2.2C25.4,229.1,26.1,228.8,27,228.8L27,228.8z M28.4,230.5
			c-0.4-0.4-0.9-0.6-1.4-0.6c-0.5,0-1,0.2-1.4,0.6c-0.4,0.4-0.6,0.9-0.6,1.4c0,0.5,0.2,1,0.6,1.4c0.4,0.4,0.9,0.6,1.4,0.6
			c0.5,0,1-0.2,1.4-0.6c0.4-0.4,0.6-0.9,0.6-1.4C28.9,231.3,28.7,230.8,28.4,230.5z"/>
		<path class="st0" d="M24.6,231.4c-0.1,0-0.2-0.2-0.2-0.3c0-0.1,0.2-0.2,0.3-0.2c2.3,0.6,4.5,1.6,4.5,1.6c0.1,0.1,0.2,0.2,0.1,0.4
			c-0.1,0.1-0.2,0.2-0.4,0.1C29,233,26.9,232,24.6,231.4z"/>
		<path class="st8" d="M52.9,214c1.9,0,3.4-1.5,3.4-3.4c0-1.9-1.5-3.4-3.4-3.4c-1.9,0-3.4,1.5-3.4,3.4C49.5,212.5,51,214,52.9,214z"
			/>
		<path class="st4" d="M53.3,212.6c1.4,0,2.5-1.1,2.5-2.5c0-1.4-1.1-2.5-2.5-2.5c-1.4,0-2.5,1.1-2.5,2.5
			C50.8,211.5,51.9,212.6,53.3,212.6z"/>
		<path class="st0" d="M53.3,207c0.8,0,1.6,0.3,2.2,0.9c0.6,0.6,0.9,1.3,0.9,2.2c0,0.8-0.3,1.6-0.9,2.2c-0.6,0.6-1.3,0.9-2.2,0.9
			c-0.8,0-1.6-0.3-2.2-0.9c-0.6-0.6-0.9-1.3-0.9-2.2c0-0.8,0.3-1.6,0.9-2.2C51.7,207.4,52.5,207,53.3,207L53.3,207z M54.7,208.7
			c-0.4-0.4-0.9-0.6-1.4-0.6c-0.5,0-1,0.2-1.4,0.6c-0.4,0.4-0.6,0.9-0.6,1.4c0,0.5,0.2,1,0.6,1.4c0.4,0.4,0.9,0.6,1.4,0.6
			c0.5,0,1-0.2,1.4-0.6c0.4-0.4,0.6-0.9,0.6-1.4C55.3,209.6,55.1,209.1,54.7,208.7z"/>
		<path class="st0" d="M51.3,209.4c-0.1,0-0.2-0.2-0.2-0.3c0-0.1,0.2-0.2,0.3-0.2c2.3,0.6,4.5,1.6,4.5,1.6c0.1,0.1,0.2,0.2,0.1,0.4
			c-0.1,0.1-0.2,0.2-0.4,0.1C55.7,211,53.6,210,51.3,209.4z"/>
		<path class="st8" d="M104.4,255c1.9,0,3.4-1.5,3.4-3.4c0-1.9-1.5-3.4-3.4-3.4c-1.9,0-3.4,1.5-3.4,3.4
			C101,253.5,102.5,255,104.4,255z"/>
		<path class="st4" d="M104.9,253.6c1.4,0,2.5-1.1,2.5-2.5c0-1.4-1.1-2.5-2.5-2.5c-1.4,0-2.5,1.1-2.5,2.5
			C102.3,252.5,103.5,253.6,104.9,253.6z"/>
		<path class="st0" d="M104.9,248c0.8,0,1.6,0.3,2.2,0.9c0.6,0.6,0.9,1.3,0.9,2.2c0,0.8-0.3,1.6-0.9,2.2c-0.6,0.6-1.3,0.9-2.2,0.9
			s-1.6-0.3-2.2-0.9c-0.6-0.6-0.9-1.3-0.9-2.2c0-0.8,0.3-1.6,0.9-2.2C103.2,248.4,104,248,104.9,248L104.9,248z M106.3,249.7
			c-0.4-0.4-0.9-0.6-1.4-0.6c-0.5,0-1,0.2-1.4,0.6c-0.4,0.4-0.6,0.9-0.6,1.4c0,0.5,0.2,1,0.6,1.4c0.4,0.4,0.9,0.6,1.4,0.6
			c0.5,0,1-0.2,1.4-0.6c0.4-0.4,0.6-0.9,0.6-1.4C106.8,250.6,106.6,250.1,106.3,249.7z"/>
		<path class="st0" d="M102.8,250.5c-0.1,0-0.2-0.2-0.2-0.3c0-0.1,0.2-0.2,0.3-0.2c2.3,0.6,4.5,1.6,4.5,1.6c0.1,0.1,0.2,0.2,0.1,0.4
			c-0.1,0.1-0.2,0.2-0.4,0.1C107.3,252,105.1,251,102.8,250.5z"/>
		<path class="st8" d="M72.3,286.4c1.9,0,3.4-1.5,3.4-3.4c0-1.9-1.5-3.4-3.4-3.4c-1.9,0-3.4,1.5-3.4,3.4
			C69,284.9,70.5,286.4,72.3,286.4z"/>
		<path class="st4" d="M72.8,285c1.4,0,2.5-1.1,2.5-2.5c0-1.4-1.1-2.5-2.5-2.5c-1.4,0-2.5,1.1-2.5,2.5C70.3,283.9,71.4,285,72.8,285
			z"/>
		<path class="st0" d="M72.8,279.4c0.8,0,1.6,0.3,2.2,0.9c0.6,0.6,0.9,1.3,0.9,2.2c0,0.8-0.3,1.6-0.9,2.2c-0.6,0.6-1.3,0.9-2.2,0.9
			c-0.8,0-1.6-0.3-2.2-0.9c-0.6-0.6-0.9-1.3-0.9-2.2c0-0.8,0.3-1.6,0.9-2.2C71.2,279.8,71.9,279.4,72.8,279.4L72.8,279.4z
			 M74.2,281.1c-0.4-0.4-0.9-0.6-1.4-0.6c-0.5,0-1,0.2-1.4,0.6c-0.4,0.4-0.6,0.9-0.6,1.4c0,0.5,0.2,1,0.6,1.4
			c0.4,0.4,0.9,0.6,1.4,0.6c0.5,0,1-0.2,1.4-0.6c0.4-0.4,0.6-0.9,0.6-1.4C74.8,281.9,74.5,281.4,74.2,281.1z"/>
		<path class="st0" d="M70.8,281.8c-0.1,0-0.2-0.2-0.2-0.3c0-0.1,0.2-0.2,0.3-0.2c2.3,0.6,4.5,1.6,4.5,1.6c0.1,0.1,0.2,0.2,0.1,0.4
			c-0.1,0.1-0.2,0.2-0.4,0.1C75.2,283.4,73,282.4,70.8,281.8z"/>
		<path class="st0" d="M306.4,265c7.7-5.6,20.1-18.7,32.3-34c5.9-7.4,11.9-15.4,17.2-23.2c1.7-2.5,4-6.5,5.5-10.7
			c1-3-11.1-10.1-16.9-1.3c-5.5,8.4-12,17.1-18.4,25.1c-11.4,14.2-22.6,26.2-29.2,31L306.4,265z"/>
		<path class="st0" d="M357.4,182.9c-8.9-2.6-18.3,2.6-20.8,11.6c-2.6,8.9,2.6,18.3,11.6,20.8c8.9,2.6,18.3-2.6,20.8-11.6
			C371.6,194.7,366.4,185.4,357.4,182.9z"/>
		<path class="st9" d="M356.6,186c-7.2-2.1-14.7,2.1-16.8,9.3c-2.1,7.2,2.1,14.7,9.3,16.8c7.2,2.1,14.7-2.1,16.8-9.3
			C367.9,195.6,363.8,188.1,356.6,186z"/>
		<path class="st4" d="M356.6,186c-5.1-1.4-10.3,0.2-13.6,3.8c-0.2,0.4-0.3,0.8-0.4,1.2c-2.1,7.2,2.1,14.7,9.3,16.8
			c5.1,1.4,10.3-0.2,13.6-3.8c0.2-0.4,0.3-0.8,0.4-1.2C367.9,195.6,363.8,188.1,356.6,186z"/>
		<path class="st0" d="M291.5,265.5c-2.8-4.2-6.9-9.9-12.3-10.6c-2.6-0.3-5,0.5-7.3,1.6c-2.8,1.3-5.5,2.8-8.1,4.2
			c-0.1,0-0.1,0.1-0.1,0.1c-2.9,1.7-6.8,4.2-9.2,6.4c-2.5,2.4-4.3,6.3-3.6,9.8c0.4,2.2,3.7,5.5,5.3,7.1c1.5,1.5,3.2,3.2,4.9,4.5
			c3.3,2.5,6.7,1.9,10.4,0.8c1.5-0.4,3.4-1.6,4.7-2.5c2-1.3,4.1-2.6,6-4c2.7-1.9,5.4-3.8,8.1-5.8
			C294.3,274.1,294.3,269.5,291.5,265.5z"/>
		<path class="st9" d="M288.8,267.4c2.1,3.1,1.7,5.5-0.6,7.2c-4.2,3.2-15.2,11-17.8,11.8c-2.6,0.8-5.2,1.4-7.5-0.3
			c-2.3-1.7-8.7-8.1-9-9.5c-0.3-1.5,0.2-4.5,2.7-6.9c2.5-2.4,8.6-6,8.6-6C277.6,257.2,279.8,254.2,288.8,267.4z"/>
		<path class="st0" d="M303.9,280.4c-2.8-4.2-6.9-9.9-12.3-10.6c-2.6-0.3-5,0.5-7.3,1.6c-2.8,1.3-5.5,2.8-8.1,4.2
			c-0.1,0-0.1,0.1-0.1,0.1c-2.9,1.7-6.8,4.2-9.2,6.4c-2.5,2.4-4.3,6.3-3.6,9.8c0.4,2.2,3.7,5.5,5.3,7.1c1.5,1.5,3.2,3.2,4.9,4.5
			c3.3,2.5,6.7,1.9,10.4,0.8c1.5-0.4,3.4-1.6,4.7-2.5c2-1.3,4.1-2.6,6-4c2.7-1.9,5.4-3.8,8.1-5.8
			C306.7,288.9,306.7,284.4,303.9,280.4z"/>
		<path class="st9" d="M301.2,282.2c2.1,3.1,1.7,5.5-0.6,7.2c-4.2,3.2-15.2,11-17.8,11.8c-2.6,0.8-5.2,1.4-7.5-0.3
			c-2.3-1.7-8.7-8.1-9-9.5c-0.3-1.5,0.2-4.5,2.7-6.9c2.5-2.4,8.6-6,8.6-6C290,272.1,292.2,269.1,301.2,282.2z"/>
		<path class="st0" d="M308,310.9c0.1-0.1,0.3-0.2,0.4-0.3c0.1,0,0.1,0,0.2,0.1c1,0.4,2.1,0.2,3-0.4c1.5-1.1,3.1-2.2,4.6-3.4
			c4.1-3.1,4.1-7.6,1.4-11.6c-2.8-4.2-6.9-9.9-12.3-10.6c-2.6-0.3-5,0.5-7.3,1.6c-2.8,1.3-5.5,2.8-8.1,4.2c-0.1,0-0.1,0.1-0.1,0.1
			c-2.9,1.7-6.8,4.2-9.2,6.4c-2.5,2.4-4.3,6.3-3.6,9.8c0.4,2.2,3.7,5.5,5.3,7.1c1.5,1.5,3.2,3.2,4.9,4.5c3.3,2.5,6.7,1.9,10.4,0.8
			c1.3-0.4,2.9-1.4,4.1-2.1c1.8-1.1,3.5-2.2,5.2-3.4C307.5,313.1,308,312.1,308,310.9z"/>
		<path class="st9" d="M314.8,297.1c2.1,3.1,1.7,5.5-0.6,7.2c-1.1,0.8-2.7,2-4.5,3.3c-0.1-0.4-0.3-0.9-0.5-1.3
			c-1.2,0.5-3.6,2.4-4.8,2.8c0.2,0.6,0.3,1.2,0.4,1.9c-3.6,2.5-7,4.7-8.3,5c-2.6,0.8-5.2,1.4-7.5-0.3c-2.3-1.7-8.7-8.1-9-9.5
			c-0.3-1.5,0.2-4.5,2.7-6.9c2.5-2.4,8.6-6,8.6-6C303.5,287,305.8,284,314.8,297.1z"/>
		<path class="st0" d="M350.4,233.6c3.3-3.2,4.5-8.1,4.1-12.6c-0.4-5.2-2.6-10.2-6.2-14c-3.6-3.8-8.5-6.3-13.7-6.9
			c-4.4-0.5-9.5,0.3-12.8,3.5c-1.1,1.1-2,2.3-2.5,3.8c-2.6,7,3.1,15,7.6,19.8c2.7,2.8,5.9,5.5,9.4,7.3c3.2,1.6,6.8,2.4,10.2,1.3
			C348,235.4,349.3,234.6,350.4,233.6z"/>
		<path class="st8" d="M348.2,231.2c-4.6,4.4-12.2,0.8-18.8-6.1c-6.6-7-9.8-14.7-5.2-19c4.6-4.4,15.3-3.7,21.9,3.2
			C352.7,216.3,352.8,226.9,348.2,231.2z"/>
		<path class="st0" d="M317.9,202c-8.9,0-29.3,16.9-36.1,22.6c-5.4,4.5-10.6,9.1-15.8,13.9c-3.8,3.6-7.7,7.3-11.2,11.2
			c-4,4.5-3,10.6-1.3,15.8c0.7,2.1,3.9,6,5.4,7.8c3.1,3.9,6.4,7.7,9.7,11.5c2.9,3.3,5.9,6.6,8.9,9.7c2.1,2.1,4.4,4.6,6.8,6.4
			c2.7,2.1,5.6,4.3,9,5.1c5.2,1.2,10.1-1.3,14.2-4.2c1.7-1.2,3.4-2.6,5-4c2.2-2,4.4-4,6.6-6.1c5.4-5.2,10.5-10.7,15.5-16.3
			c6.2-7.1,20.1-23.4,21.3-32.9c0.6-4.9-1.4-9.8-3.9-13.9c-2.8-4.7-6.7-9-10.7-12.7c-5.7-5.3-15-12.2-22.7-14
			C318.4,202,318.2,202,317.9,202z"/>
		<path class="st2" d="M317.9,205.3c12,2.7,36.5,23.4,34.8,37c-1.6,13.5-37.4,50.5-46.9,57.1c-9.5,6.6-13.2,3.9-19.4-0.8
			c-6.2-4.8-28.6-30.4-29.8-33.9c-1.5-4.4-2.3-9.3,0.6-12.6C268.2,239.5,307.3,205.3,317.9,205.3z"/>
		<path class="st8" d="M348.3,228.9c3.1,4.6,4.9,9.3,4.4,13.3c-1.6,13.5-37.4,50.5-46.9,57.1c-9.5,6.6-13.2,3.9-19.4-0.8
			c-6.2-4.8-28.6-30.4-29.8-33.9c-1.3-3.9-2.1-8.1-0.2-11.4c4.1,3.1,10.8,6.6,21.4,9.6C301.3,269.3,331.9,251.6,348.3,228.9z"/>
		<path class="st5" d="M317.9,205.3c2.5,0.6,5.6,1.9,8.8,3.9c-4.5-0.4-9.8,0.8-16.2,4.4c-17.9,10.1-51.8,33.4-54.3,45.8
			c-0.2,0.8-0.3,1.6-0.4,2.2c-0.8-3.5-0.8-7,1.5-9.7C268.2,239.5,307.3,205.3,317.9,205.3z"/>
		<path class="st1" d="M303.9,289c1.7-1.1,5.7-4.1,7.8-5.7c3.9-2.9,18-19.1,28.4-31.7c9.7-11.8,8.7-12.5,8.9-12.1
			c0.2,0.3,1.9-6,2-5.7c1.3,2.9,2,5.8,1.7,8.4c-1.3,11-23.3,36.1-38.6,50.1c-3.6,3.3-6.5,5.7-8.3,7c-9.5,6.6-13.2,3.9-19.4-0.8
			c-0.6-0.4-1.3-1-2.1-1.8c-0.4-0.4-0.9-0.9-1.4-1.4c-3.3-3.2-7.7-7.9-11.9-12.8c-0.7-0.7-1.3-1.5-2-2.2c-2.4-2.8-4.7-5.5-6.6-7.9
			c-2.4-3-4.3-5.4-5.2-6.9c-0.1-0.1-0.1-0.2-0.2-0.3c-0.1-0.3-0.3-0.5-0.3-0.7c-1.1-3.4-1.9-7.1-0.8-10.2c0.2-0.4,1.8-2.9,2.1-3.3
			c0.6,3.1,2.3,5.9,5.2,10.2c3.9,5.6,9.6,12.9,15,17.8C287.4,287.6,296.7,293.9,303.9,289z"/>
		<path class="st0" d="M297.1,305.2c1.9,1.9,0.3,5.3-0.6,7.3c3.3-1.6,4.5-6,2.3-8.9c-0.5-0.5-1.2-0.5-1.7,0
			C296.7,304,296.7,304.8,297.1,305.2z"/>
		<path class="st0" d="M260,247.7c0.2-0.3,0.1-0.6-0.2-0.7c-0.3-0.2-0.6-0.1-0.7,0.2c-1.3,2-1.4,4-1.1,5.7c0.4,1.7,1.2,3.2,2,4.4
			c5,7.4,13.4,18.2,21.7,25.6c5.9,5.3,11.8,8.9,16.5,8.3c11.9-1.4,25.3-17.7,40-35.6c1.5-1.8,2.9-3.6,4.7-5.8c3.3-4,5.4-7.4,6.6-10
			c1.2-2.7,1.6-4.6,1.8-5.8c0.3-2.8,0-4.1,0-4.4c0,0,0-0.1,0-0.1c-0.6-2.2-1.4-3.4-1.8-3.5c-0.1-0.2-0.2-0.2-0.2,0
			c-0.3,0.2-0.2,1.5,1,3.8c0.1,0.2,0.4,1.3,0,4c-0.1,1.1-0.5,2.9-1.7,5.5c-1.2,2.5-3.1,5.8-6.4,9.8c-1.4,1.7-3.1,3.7-4.7,5.8
			c-14.5,17.7-27.7,33.8-39.3,35.2c-4.4,0.5-10-2.9-15.7-8c-8.2-7.4-16.5-18.1-21.5-25.4c-0.7-1.1-1.5-2.5-1.8-4
			C258.8,251.1,258.9,249.4,260,247.7z"/>
		<path class="st0" d="M298,290.7c-0.1-0.3-0.4-0.5-0.7-0.4c-0.3,0.1-0.5,0.4-0.4,0.7c1.1,4.2-1.1,12.4-1.1,12.4
			c-0.1,0.3,0.1,0.6,0.4,0.7c0.3,0.1,0.6-0.1,0.7-0.4C296.8,303.6,299.2,295.2,298,290.7z"/>
		<path class="st0" d="M348.1,209.9c-0.1-0.3-0.4-0.4-0.7-0.3c-0.3,0.1-0.4,0.4-0.3,0.7c3.2,7.9-2.2,12.6-2.3,12.6
			c-0.2,0.2-0.2,0.5,0,0.8c0.2,0.2,0.5,0.2,0.8,0C345.6,223.7,351.6,218.5,348.1,209.9z"/>
		<path class="st0" d="M307.8,300.4c-0.3-0.3-0.8-0.3-1.1,0c-0.3,0.3-0.3,0.8,0,1.1c2.3,2.4,2.3,5.5,2.3,6.8c0,0.3,0,0,0,0.3
			c0,0.4,0.4,0.8,0.8,0.8c0.4,0,0.8-0.4,0.8-0.8c0-0.4,0-0.2,0-0.3C310.5,306.8,310.6,303.3,307.8,300.4z"/>
		<path class="st0" d="M303.4,303.3c-0.3-0.4-0.8-0.4-1.1-0.2c-0.4,0.3-0.4,0.8-0.2,1.1c2.3,3.3,1.5,8.8,1.5,8.8
			c-0.1,0.4,0.2,0.9,0.7,0.9c0.4,0.1,0.9-0.2,0.9-0.7C305.1,313.3,306.1,307.1,303.4,303.3z"/>
		<path class="st5" d="M355.1,187c-4.5-1.1-9.1,0.2-12.4,3.1c0-0.1,0.1-0.3,0.1-0.4c2.8-3,7-4.6,11.2-4.2c0.8,0.1,1.6,0.2,2.4,0.5
			c7.2,2.1,11.4,9.6,9.3,16.8c-0.1,0.4-0.3,0.8-0.4,1.2c-0.2,0.3-0.5,0.5-0.8,0.8c0.1-0.3,0.2-0.5,0.3-0.8c0.8-2.8,0.7-5.6-0.2-8.1
			c-0.1-0.7-0.3-1.4-0.5-2c-0.8-2-2.3-3.9-4.3-5.2c-1.5-1-3.2-1.5-4.7-1.6C355.2,187,355.2,187,355.1,187z"/>
		<path class="st9" d="M359.6,189.2c-3.7-2.3-7.8-1.7-9.4,1.4c-1.5,3.1,0.2,7.5,3.8,9.8c3.7,2.3,7.8,1.7,9.4-1.4
			C365,196,363.3,191.6,359.6,189.2z"/>
		<path class="st0" d="M350.7,191.3c-0.1,0.2-0.2,0.3-0.3,0.5c-1.3,2.6,0.2,6.4,3.3,8.4c1.3,0.8,2.7,1.2,4,1.2
			c0.5-0.4,0.9-0.8,1.2-1.4c1.2-2.4-0.1-5.9-3-7.8C354.1,191.1,352.2,190.8,350.7,191.3z"/>
		<path class="st0" d="M359.9,188.6c-2-1.3-4.2-1.8-6.1-1.5c-1.9,0.3-3.5,1.3-4.3,3c-0.9,1.7-0.8,3.8,0,5.8c0.8,2,2.3,3.9,4.3,5.2
			c2,1.3,4.2,1.8,6.1,1.5c1.9-0.3,3.5-1.3,4.3-3c0.9-1.7,0.8-3.8,0-5.8C363.5,191.8,362,189.9,359.9,188.6L359.9,188.6z
			 M354.4,188.7c1.5-0.2,3.2,0.2,4.9,1.2c1.6,1,2.8,2.5,3.4,4.1c0.6,1.6,0.7,3.2,0,4.6c-0.7,1.4-1.9,2.2-3.5,2.4
			c-1.5,0.2-3.2-0.2-4.9-1.2c-1.6-1-2.8-2.5-3.4-4.1c-0.6-1.6-0.7-3.2,0-4.6C351.7,189.7,352.9,188.9,354.4,188.7z"/>
		<path class="st2" d="M337.3,205.6c-2.9-0.2-5.6,0.3-7.7,1.4c-1.3-0.8-2.6-1.5-3.8-2.2c2.8-1.6,6.9-2,10.9-1
			c0.6,0.2,1.3,0.3,1.9,0.6c0.8,0.3,1.5,0.6,2.2,1c1.1,0.6,2.2,1.3,3.3,2.1c-0.9-0.4-1.8-0.8-2.7-1c-1.3-0.4-2.5-0.6-3.7-0.8
			C337.6,205.7,337.4,205.6,337.3,205.6z"/>
		<path class="st4" d="M295.9,306.5c-1.7,3.8-5.8,4.6-10.5,0.8c-1.2-0.9-2.2-1.8-3-2.6c-0.8-0.8-1.5-1.5-2-2.1
			c0.1-0.3,0.2-0.6,0.4-0.8c0.4-0.8,1-1.6,1.7-2.3c0.5,0.4,1,0.9,1.5,1.2c0.2,0.1,0.3,0.3,0.5,0.4c0.8,0.6,1.6,1.2,2.4,1.8
			c2,1.5,4.2,2.8,6.6,3.3C294.3,306.4,295.1,306.5,295.9,306.5z"/>
		<path class="st4" d="M277.9,294.8c-0.6,1.1-1.9,2.8-4,1.5c-1.5-1-3.9-3.8-5.8-6.1c-0.6-0.7-1.1-1.3-1.5-1.9
			c0.1-0.4,0.3-0.8,0.5-1.2c0.4-0.7,0.9-1.5,1.5-2.2c0,0,0,0,0,0c0.5,0.5,0.9,1,1.4,1.5c0.8,0.9,1.6,1.7,2.3,2.6
			c1.7,1.9,3.5,3.8,5.2,5.6C277.8,294.7,277.8,294.8,277.9,294.8z"/>
		<path class="st4" d="M265,280.6c-0.9,0.9-2.3,1.4-4,0.1c-2-1.6-5-4.8-6.8-7c0.3-1.2,1-2.6,2.1-3.8c1,1.3,2,2.6,2.7,3.4
			C260.9,275.8,262.9,278.2,265,280.6z"/>
		<path class="st5" d="M345.3,191.7c0.9,0,1.7,0.8,1.7,1.7c0,0.9-0.8,1.7-1.7,1.7c-0.9,0-1.7-0.8-1.7-1.7
			C343.6,192.5,344.3,191.7,345.3,191.7z"/>
		<path class="st5" d="M347.7,189.2c-0.4,0-0.7,0.3-0.7,0.7c0,0.4,0.3,0.7,0.7,0.7c0.4,0,0.7-0.3,0.7-0.7
			C348.4,189.5,348.1,189.2,347.7,189.2z"/>
		<path class="st8" d="M343.3,235.6c1.9,0,3.4-1.5,3.4-3.4s-1.5-3.4-3.4-3.4c-1.9,0-3.4,1.5-3.4,3.4S341.4,235.6,343.3,235.6z"/>
		<path class="st4" d="M342.7,234.4c1.4,0,2.5-1.1,2.5-2.5c0-1.4-1.1-2.5-2.5-2.5c-1.4,0-2.5,1.1-2.5,2.5
			C340.2,233.3,341.3,234.4,342.7,234.4z"/>
		<path class="st0" d="M342.7,228.8c-0.8,0-1.6,0.3-2.2,0.9c-0.6,0.6-0.9,1.3-0.9,2.2c0,0.8,0.3,1.6,0.9,2.2
			c0.6,0.6,1.3,0.9,2.2,0.9c0.8,0,1.6-0.3,2.2-0.9c0.6-0.6,0.9-1.3,0.9-2.2c0-0.8-0.3-1.6-0.9-2.2
			C344.3,229.1,343.5,228.8,342.7,228.8L342.7,228.8z M341.3,230.5c0.4-0.4,0.9-0.6,1.4-0.6c0.5,0,1,0.2,1.4,0.6
			c0.4,0.4,0.6,0.9,0.6,1.4c0,0.5-0.2,1-0.6,1.4c-0.4,0.4-0.9,0.6-1.4,0.6c-0.5,0-1-0.2-1.4-0.6c-0.4-0.4-0.6-0.9-0.6-1.4
			C340.7,231.3,340.9,230.8,341.3,230.5z"/>
		<path class="st0" d="M345,231.4c0.1,0,0.2-0.2,0.2-0.3c0-0.1-0.2-0.2-0.3-0.2c-2.3,0.6-4.5,1.6-4.5,1.6c-0.1,0.1-0.2,0.2-0.1,0.4
			c0.1,0.1,0.2,0.2,0.4,0.1C340.6,233,342.8,232,345,231.4z"/>
		<path class="st8" d="M316.8,214c1.9,0,3.4-1.5,3.4-3.4c0-1.9-1.5-3.4-3.4-3.4c-1.9,0-3.4,1.5-3.4,3.4
			C313.4,212.5,315,214,316.8,214z"/>
		<circle class="st4" cx="316.3" cy="210.1" r="2.5"/>
		<path class="st0" d="M316.3,207c-0.8,0-1.6,0.3-2.2,0.9c-0.6,0.6-0.9,1.3-0.9,2.2c0,0.8,0.3,1.6,0.9,2.2c0.6,0.6,1.3,0.9,2.2,0.9
			c0.8,0,1.6-0.3,2.2-0.9c0.6-0.6,0.9-1.3,0.9-2.2c0-0.8-0.3-1.6-0.9-2.2C318,207.4,317.2,207,316.3,207L316.3,207z M314.9,208.7
			c0.4-0.4,0.9-0.6,1.4-0.6c0.5,0,1,0.2,1.4,0.6c0.4,0.4,0.6,0.9,0.6,1.4c0,0.5-0.2,1-0.6,1.4c-0.4,0.4-0.9,0.6-1.4,0.6
			c-0.5,0-1-0.2-1.4-0.6c-0.4-0.4-0.6-0.9-0.6-1.4C314.4,209.6,314.6,209.1,314.9,208.7z"/>
		<path class="st0" d="M318.4,209.4c0.1,0,0.2-0.2,0.2-0.3c0-0.1-0.2-0.2-0.3-0.2c-2.3,0.6-4.5,1.6-4.5,1.6
			c-0.1,0.1-0.2,0.2-0.1,0.4c0.1,0.1,0.2,0.2,0.4,0.1C313.9,211,316.1,210,318.4,209.4z"/>
		<path class="st8" d="M265.3,255c1.9,0,3.4-1.5,3.4-3.4c0-1.9-1.5-3.4-3.4-3.4c-1.9,0-3.4,1.5-3.4,3.4
			C261.9,253.5,263.4,255,265.3,255z"/>
		<path class="st4" d="M264.8,253.6c1.4,0,2.5-1.1,2.5-2.5c0-1.4-1.1-2.5-2.5-2.5c-1.4,0-2.5,1.1-2.5,2.5
			C262.3,252.5,263.4,253.6,264.8,253.6z"/>
		<path class="st0" d="M264.8,248c-0.8,0-1.6,0.3-2.2,0.9c-0.6,0.6-0.9,1.3-0.9,2.2c0,0.8,0.3,1.6,0.9,2.2c0.6,0.6,1.3,0.9,2.2,0.9
			c0.8,0,1.6-0.3,2.2-0.9c0.6-0.6,0.9-1.3,0.9-2.2c0-0.8-0.3-1.6-0.9-2.2C266.4,248.4,265.7,248,264.8,248L264.8,248z M263.4,249.7
			c0.4-0.4,0.9-0.6,1.4-0.6c0.5,0,1,0.2,1.4,0.6c0.4,0.4,0.6,0.9,0.6,1.4c0,0.5-0.2,1-0.6,1.4c-0.4,0.4-0.9,0.6-1.4,0.6
			c-0.5,0-1-0.2-1.4-0.6c-0.4-0.4-0.6-0.9-0.6-1.4C262.8,250.6,263,250.1,263.4,249.7z"/>
		<path class="st0" d="M266.8,250.5c0.1,0,0.2-0.2,0.2-0.3c0-0.1-0.2-0.2-0.3-0.2c-2.3,0.6-4.5,1.6-4.5,1.6
			c-0.1,0.1-0.2,0.2-0.1,0.4c0.1,0.1,0.2,0.2,0.4,0.1C262.4,252,264.5,251,266.8,250.5z"/>
		<path class="st8" d="M297.3,286.4c1.9,0,3.4-1.5,3.4-3.4c0-1.9-1.5-3.4-3.4-3.4c-1.9,0-3.4,1.5-3.4,3.4
			C294,284.9,295.5,286.4,297.3,286.4z"/>
		<path class="st4" d="M296.9,285c1.4,0,2.5-1.1,2.5-2.5c0-1.4-1.1-2.5-2.5-2.5c-1.4,0-2.5,1.1-2.5,2.5
			C294.4,283.9,295.5,285,296.9,285z"/>
		<path class="st0" d="M296.9,279.4c-0.8,0-1.6,0.3-2.2,0.9c-0.6,0.6-0.9,1.3-0.9,2.2c0,0.8,0.3,1.6,0.9,2.2
			c0.6,0.6,1.3,0.9,2.2,0.9c0.8,0,1.6-0.3,2.2-0.9c0.6-0.6,0.9-1.3,0.9-2.2c0-0.8-0.3-1.6-0.9-2.2
			C298.5,279.8,297.7,279.4,296.9,279.4L296.9,279.4z M295.5,281.1c0.4-0.4,0.9-0.6,1.4-0.6c0.5,0,1,0.2,1.4,0.6
			c0.4,0.4,0.6,0.9,0.6,1.4c0,0.5-0.2,1-0.6,1.4c-0.4,0.4-0.9,0.6-1.4,0.6c-0.5,0-1-0.2-1.4-0.6c-0.4-0.4-0.6-0.9-0.6-1.4
			C294.9,281.9,295.1,281.4,295.5,281.1z"/>
		<path class="st0" d="M298.9,281.8c0.1,0,0.2-0.2,0.2-0.3c0-0.1-0.2-0.2-0.3-0.2c-2.3,0.6-4.5,1.6-4.5,1.6
			c-0.1,0.1-0.2,0.2-0.1,0.4c0.1,0.1,0.2,0.2,0.4,0.1C294.5,283.4,296.6,282.4,298.9,281.8z"/>
		
			<ellipse transform="matrix(0.7071 -0.7071 0.7071 0.7071 -65.0168 180.0485)" class="st0" cx="184.8" cy="168.5" rx="108" ry="108"/>
		
			<ellipse transform="matrix(0.9703 -0.242 0.242 0.9703 -35.2907 49.7483)" class="st8" cx="184.8" cy="168.5" rx="104.8" ry="104.8"/>
		<path class="st2" d="M184.8,63.7c-124.1,0-124.1,188.2,0,188.2C308.9,251.9,308.9,63.7,184.8,63.7z"/>
		<path class="st7" d="M118.8,89.2c17.9-8.6,41-17.3,66.1-17.3c25.1,0,48.1,8.6,66.1,17.3c-6-6-13-11.2-21-15.3
			C218.5,68.4,206,65,192.8,64c-0.2,0-0.3,0-0.5,0c-0.8-0.1-1.6-0.1-2.4-0.1c-1.7-0.1-3.3-0.1-5.1-0.1c-1.7,0-3.4,0-5.1,0.1
			c-0.8,0-1.6,0.1-2.4,0.1c-0.2,0-0.3,0-0.5,0c-13.2,1-25.8,4.4-37.2,9.9C131.7,78,124.8,83.2,118.8,89.2z"/>
		<path class="st1" d="M92,119.8c-7.6,14.6-12,31.1-12,48.7c0,17.6,4.3,34.1,12,48.7c1.5-6.2,2.7-13,3.5-20.4c0.6-5,1-10.3,1.3-15.8
			c0.1-1.6,0.1-3.2,0.2-4.8c0.1-2.5,0.1-5.1,0.1-7.6c0-10-0.6-19.5-1.6-28.2c-0.4-3.4-0.9-6.7-1.4-9.9c-0.3-1.5-0.5-3-0.8-4.5
			C92.9,123.8,92.5,121.7,92,119.8L92,119.8z M101.1,105.4c2.4,7.7,4.4,16.9,5.7,27c0.8,6,1.4,12.3,1.8,18.8
			c0.1,0.9,0.1,1.8,0.1,2.7c0.2,4.7,0.4,9.6,0.4,14.5c0,12.8-0.8,25-2.3,36c-1.4,10.2-3.3,19.3-5.7,27c-2.9-3.9-5.6-8-8-12.3
			c1.7-6.6,3-14.2,4-22.3c0.6-5.4,1.1-11.1,1.4-17c0.1-1.7,0.1-3.4,0.2-5.1c0-2.1,0.1-4.2,0.1-6.3c0-10-0.6-19.5-1.6-28.4
			c-0.4-3-0.8-5.9-1.2-8.7c-0.3-1.6-0.5-3.2-0.8-4.8c-0.6-3.1-1.2-6-1.9-8.8C95.5,113.5,98.2,109.4,101.1,105.4z"/>
		<path class="st8" d="M96.4,188.6c0.2-2.5,0.4-5,0.5-7.6c0.1-1.6,0.1-3.2,0.2-4.8c0.1-2.5,0.1-5.1,0.1-7.6c0-10-0.6-19.5-1.6-28.2
			c-0.3-2.3-0.6-4.6-0.9-6.9C90.3,151.5,90.9,170.9,96.4,188.6L96.4,188.6z M102.8,111.2c1.7,6.4,3,13.5,4.1,21.3
			c0.8,6,1.4,12.3,1.8,18.8c0.1,0.9,0.1,1.8,0.1,2.7c0.2,4.7,0.4,9.6,0.4,14.5c0,12.8-0.8,25-2.3,36c-0.3,1.9-0.5,3.8-0.8,5.7
			c-3.4-5.6-6.2-11.6-8.4-17.8c0.4-4,0.7-8.2,0.9-12.5c0.1-1.7,0.1-3.4,0.2-5.1c0-2.1,0.1-4.2,0.1-6.3c0-10-0.6-19.5-1.6-28.4
			c-0.4-3-0.8-5.9-1.2-8.7c-0.1-0.6-0.2-1.2-0.3-1.8c1-3.5-0.5-11.2,0.9-14.6c0.5-1.2,4.5-9.4,4.9-8.9
			C101.6,106.5,102.5,110.5,102.8,111.2z"/>
		<path class="st0" d="M92.9,115.7c-0.1-0.3,0.1-0.6,0.4-0.7c0.3-0.1,0.6,0.1,0.7,0.4c2,7.2,3.6,15.6,4.6,24.7
			c1,8.8,1.6,18.4,1.6,28.4c0,10-0.6,19.5-1.6,28.4c-1.1,9.2-2.7,17.5-4.6,24.7c-0.1,0.3-0.4,0.5-0.7,0.4c-0.3-0.1-0.5-0.4-0.4-0.7
			c2-7.2,3.5-15.5,4.6-24.6c1-8.8,1.6-18.3,1.6-28.2c0-10-0.6-19.5-1.6-28.2C96.4,131.1,94.8,122.8,92.9,115.7z"/>
		<path class="st0" d="M101.6,102.6c-0.1-0.3,0.1-0.6,0.3-0.7c0.3-0.1,0.6,0.1,0.7,0.3c2.8,8.3,5.1,18.6,6.7,30.1
			c1.5,11.1,2.4,23.3,2.4,36.2c0,12.9-0.8,25.1-2.4,36.2c-1.6,11.5-3.9,21.7-6.7,30.1c-0.1,0.3-0.4,0.4-0.7,0.3
			c-0.3-0.1-0.4-0.4-0.3-0.7c2.8-8.3,5.1-18.5,6.7-29.9c1.5-11,2.3-23.2,2.3-36c0-12.8-0.8-25-2.3-36
			C106.7,121.1,104.5,110.9,101.6,102.6z"/>
		<path class="st7" d="M97.4,118.1c0.4-4.6,5-13,4.7-13.9c-2.9,3.8-5.6,7.8-8.1,11.9c0,0,0,0,0,0c0.9,3.3,1.7,6.8,2.4,10.5
			c0,0,0,0,0,0c0.3,1.6,0.6,3.2,0.8,4.8c0.5,2.8,0.9,5.7,1.2,8.7c1,8.8,1.6,18.3,1.6,28.3c1.5-11.4,0.4-24.8-0.8-35
			c-0.2-1.9-0.5-3.6-0.7-5.2c-0.3-2.2-0.6-4.1-0.8-5.7C97.5,120.3,97.3,119.9,97.4,118.1z"/>
		<path class="st1" d="M136.8,261.7c14.4,7.4,30.7,11.7,48.1,11.7c17.3,0,33.7-4.2,48.1-11.7l-2.9-4.4c-0.2,0.3-0.5,0.7-1,1.1
			c-0.2,0.2-0.3,0.3-0.5,0.4c-1.2,0.8-2.6,1.2-4,1c-1.4-0.2-2.7-0.8-3.7-2c-0.2-0.2-0.3-0.4-0.4-0.6c-0.3-0.5-0.6-0.9-0.8-1.3
			l-0.1-0.2c-11.8,7.9-34.5,10-52.3,6.4c-1.2-0.2-2.3-0.5-3.4-0.8c-5.3-1.3-9.9-3.2-13.6-5.6l-0.1,0.2c-0.2,0.3-0.4,0.8-0.8,1.3
			c-0.1,0.2-0.3,0.4-0.4,0.6c-1,1.1-2.3,1.8-3.7,2c-1.4,0.2-2.8-0.1-4-1c-0.2-0.1-0.4-0.3-0.5-0.4c-0.4-0.4-0.8-0.8-1-1.1l-2.4,3.7
			L136.8,261.7z"/>
		<path class="st8" d="M144.5,248.9c-1.8,0.2-3.2,1.9-2.9,3.7c0.2,1.8,1.9,3.2,3.7,2.9c1.8-0.2,3.2-1.9,2.9-3.7
			C148,250,146.3,248.7,144.5,248.9z"/>
		<path class="st4" d="M144,249.3c-1.4,0.2-2.4,1.4-2.2,2.8c0.2,1.4,1.4,2.4,2.8,2.2c1.4-0.2,2.4-1.4,2.2-2.8
			C146.7,250.1,145.4,249.1,144,249.3z"/>
		<path class="st0" d="M146.3,250.9c0.1-0.1,0.2-0.2,0.2-0.3c-0.1-0.1-0.2-0.2-0.3-0.2c-2.2,0.8-4.3,2.1-4.3,2.1
			c-0.1,0.1-0.2,0.2-0.1,0.4c0.1,0.1,0.2,0.2,0.4,0.1C142,252.9,144.1,251.7,146.3,250.9z"/>
		<path class="st1" d="M233.7,261.2l-3.8-5.7c-0.2,0.3-0.5,0.7-1,1.1c-0.2,0.2-0.3,0.3-0.5,0.4c-1.2,0.8-2.6,1.2-4,1
			c-1.4-0.2-2.7-0.8-3.7-2c-0.2-0.2-0.3-0.4-0.4-0.6c-0.3-0.5-0.6-0.9-0.8-1.3l-0.1-0.2c-16.1,10.8-53.1,10.8-69.2,0l-0.1,0.2
			c-0.2,0.3-0.4,0.8-0.8,1.3c-0.1,0.2-0.3,0.4-0.4,0.6c-1,1.1-2.3,1.8-3.7,2c-1.4,0.2-2.8-0.1-4-1c-0.2-0.1-0.4-0.3-0.5-0.4
			c-0.4-0.4-0.8-0.8-1-1.1l-3.8,5.7c-0.3-0.2-0.6-0.3-1-0.5l4.2-6.4c0.2-0.4,0.5-0.4,0.8-0.2h0c0.1,0.1,0.3,0.3,0.4,0.5
			c0.2,0.3,0.5,0.7,1,1.1c0.1,0.1,0.3,0.2,0.4,0.3c1,0.7,2.1,0.9,3.3,0.8c1.1-0.1,2.2-0.7,3-1.6c0.1-0.1,0.2-0.3,0.4-0.5
			c0.3-0.4,0.5-0.8,0.7-1.2c0.1-0.2,0.2-0.4,0.3-0.6c0.3-0.4,0.6-0.6,1-0.3l0,0c15.7,10.8,53,10.8,68.7,0l0,0c0.4-0.3,0.7-0.1,1,0.3
			c0.1,0.1,0.2,0.3,0.3,0.6c0.2,0.3,0.4,0.8,0.7,1.2c0.1,0.2,0.2,0.3,0.4,0.5c0.8,0.9,1.9,1.5,3,1.6c1.1,0.1,2.3-0.1,3.3-0.8
			c0.1-0.1,0.3-0.2,0.4-0.3c0.5-0.4,0.8-0.9,1-1.1c0.2-0.2,0.3-0.4,0.4-0.5h0c0.3-0.2,0.6-0.2,0.8,0.2l4.2,6.4
			C234.4,260.9,234.1,261,233.7,261.2z"/>
		<path class="st0" d="M144,248.7c-0.8,0.1-1.6,0.5-2,1.1c-0.5,0.6-0.7,1.4-0.6,2.3c0.1,0.8,0.5,1.6,1.1,2c0.6,0.5,1.4,0.7,2.3,0.6
			c0.8-0.1,1.6-0.5,2-1.1c0.5-0.6,0.7-1.4,0.6-2.3c-0.1-0.8-0.5-1.6-1.1-2C145.7,248.9,144.9,248.6,144,248.7L144,248.7z
			 M142.8,250.5c0.3-0.4,0.8-0.7,1.3-0.7c0.5-0.1,1.1,0.1,1.5,0.4c0.4,0.3,0.7,0.8,0.7,1.3c0.1,0.5-0.1,1.1-0.4,1.5
			c-0.3,0.4-0.8,0.7-1.3,0.7c-0.5,0.1-1.1-0.1-1.5-0.4c-0.4-0.3-0.7-0.8-0.7-1.3C142.4,251.5,142.5,250.9,142.8,250.5z"/>
		<path class="st8" d="M225.1,248.9c1.8,0.2,3.2,1.9,2.9,3.7c-0.2,1.8-1.9,3.2-3.7,2.9c-1.8-0.2-3.2-1.9-2.9-3.7
			C221.6,250,223.3,248.7,225.1,248.9z"/>
		<path class="st4" d="M225.6,249.3c1.4,0.2,2.4,1.4,2.2,2.8c-0.2,1.4-1.4,2.4-2.8,2.2c-1.4-0.2-2.4-1.4-2.2-2.8
			C222.9,250.1,224.2,249.1,225.6,249.3z"/>
		<path class="st0" d="M225.6,248.7c0.8,0.1,1.6,0.5,2,1.1c0.5,0.6,0.7,1.4,0.6,2.3c-0.1,0.8-0.5,1.6-1.1,2
			c-0.6,0.5-1.4,0.7-2.3,0.6c-0.8-0.1-1.6-0.5-2-1.1c-0.5-0.6-0.7-1.4-0.6-2.3c0.1-0.8,0.5-1.6,1.1-2
			C224,248.9,224.8,248.6,225.6,248.7L225.6,248.7z M226.8,250.5c-0.3-0.4-0.8-0.7-1.3-0.7c-0.5-0.1-1.1,0.1-1.5,0.4
			c-0.4,0.3-0.7,0.8-0.7,1.3c-0.1,0.5,0.1,1.1,0.4,1.5c0.3,0.4,0.8,0.7,1.3,0.7c0.5,0.1,1.1-0.1,1.5-0.4c0.4-0.3,0.7-0.8,0.7-1.3
			C227.3,251.5,227.1,250.9,226.8,250.5z"/>
		<path class="st0" d="M223.3,250.9c-0.1-0.1-0.2-0.2-0.2-0.3c0.1-0.1,0.2-0.2,0.3-0.2c2.2,0.8,4.3,2.1,4.3,2.1
			c0.1,0.1,0.2,0.2,0.1,0.4c-0.1,0.1-0.2,0.2-0.4,0.1C227.5,252.9,225.5,251.7,223.3,250.9z"/>
		<path class="st1" d="M277.6,119.8c7.6,14.6,12,31.1,12,48.7c0,17.6-4.3,34.1-12,48.7c-1.5-6.2-2.7-13-3.5-20.4
			c-0.6-5-1-10.3-1.3-15.8c-0.1-1.6-0.1-3.2-0.2-4.8c-0.1-2.5-0.1-5.1-0.1-7.6c0-10,0.6-19.5,1.6-28.2c0.4-3.4,0.9-6.7,1.4-9.9
			c0.3-1.5,0.5-3,0.8-4.5C276.7,123.8,277.2,121.7,277.6,119.8L277.6,119.8z M268.5,105.4c-2.4,7.7-4.4,16.9-5.7,27
			c-0.8,6-1.4,12.3-1.8,18.8c-0.1,0.9-0.1,1.8-0.1,2.7c-0.2,4.7-0.4,9.6-0.4,14.5c0,12.8,0.8,25,2.3,36c1.4,10.2,3.3,19.3,5.7,27
			c2.9-3.9,5.6-8,8-12.3c-1.7-6.6-3-14.2-4-22.3c-0.6-5.4-1.1-11.1-1.3-17c-0.1-1.7-0.1-3.4-0.2-5.1c-0.1-2.1-0.1-4.2-0.1-6.3
			c0-10,0.6-19.5,1.6-28.4c0.4-3,0.8-5.9,1.2-8.7c0.3-1.6,0.5-3.2,0.8-4.8c0.6-3.1,1.2-6,1.9-8.8
			C274.2,113.5,271.5,109.4,268.5,105.4z"/>
		<path class="st8" d="M273.3,188.6c-0.2-2.5-0.4-5-0.5-7.6c-0.1-1.6-0.1-3.2-0.2-4.8c-0.1-2.5-0.1-5.1-0.1-7.6
			c0-10,0.6-19.5,1.6-28.2c0.3-2.3,0.6-4.6,0.9-6.9C279.3,151.5,278.8,170.9,273.3,188.6L273.3,188.6z M266.9,111.2
			c-1.7,6.4-3,13.5-4.1,21.3c-0.8,6-1.4,12.3-1.8,18.8c-0.1,0.9-0.1,1.8-0.1,2.7c-0.2,4.7-0.4,9.6-0.4,14.5c0,12.8,0.8,25,2.3,36
			c0.3,1.9,0.5,3.8,0.8,5.7c3.4-5.6,6.2-11.6,8.4-17.8c-0.4-4-0.7-8.2-0.9-12.5c-0.1-1.7-0.1-3.4-0.2-5.1c-0.1-2.1-0.1-4.2-0.1-6.3
			c0-10,0.6-19.5,1.6-28.4c0.4-3,0.8-5.9,1.2-8.7c0.1-0.6,0.2-1.2,0.3-1.8c-1-3.5,0.5-11.2-0.9-14.6c-0.5-1.2-4.5-9.4-4.9-8.9
			C268.1,106.5,267.2,110.5,266.9,111.2z"/>
		<path class="st0" d="M276.8,115.7c0.1-0.3-0.1-0.6-0.4-0.7c-0.3-0.1-0.6,0.1-0.7,0.4c-2,7.2-3.6,15.6-4.6,24.7
			c-1,8.8-1.6,18.4-1.6,28.4c0,10,0.6,19.5,1.6,28.4c1.1,9.2,2.7,17.5,4.6,24.7c0.1,0.3,0.4,0.5,0.7,0.4c0.3-0.1,0.5-0.4,0.4-0.7
			c-2-7.2-3.5-15.5-4.6-24.6c-1-8.8-1.6-18.3-1.6-28.2c0-10,0.6-19.5,1.6-28.2C273.3,131.1,274.8,122.8,276.8,115.7z"/>
		<path class="st0" d="M268,102.6c0.1-0.3-0.1-0.6-0.3-0.7c-0.3-0.1-0.6,0.1-0.7,0.3c-2.8,8.3-5.1,18.6-6.7,30.1
			c-1.5,11.1-2.4,23.3-2.4,36.2c0,12.9,0.8,25.1,2.4,36.2c1.6,11.5,3.9,21.7,6.7,30.1c0.1,0.3,0.4,0.4,0.7,0.3
			c0.3-0.1,0.4-0.4,0.3-0.7c-2.8-8.3-5.1-18.5-6.7-29.9c-1.5-11-2.3-23.2-2.3-36c0-12.8,0.8-25,2.3-36
			C262.9,121.1,265.2,110.9,268,102.6z"/>
		<path class="st7" d="M272.2,118.1c-0.4-4.6-5-13-4.7-13.9c2.9,3.8,5.6,7.8,8.1,11.9c0,0,0,0,0,0c-0.9,3.3-1.7,6.8-2.4,10.5
			c0,0,0,0,0,0c-0.3,1.6-0.6,3.2-0.8,4.8c-0.5,2.8-0.9,5.7-1.2,8.7c-1,8.8-1.6,18.3-1.6,28.3c-1.5-11.4-0.4-24.8,0.8-35
			c0.2-1.9,0.5-3.6,0.7-5.2c0.3-2.2,0.6-4.1,0.8-5.7C272.1,120.3,272.4,119.9,272.2,118.1z"/>
		
			<ellipse transform="matrix(0.9783 -0.207 0.207 0.9783 -29.4944 41.7682)" class="st2" cx="184.8" cy="161.8" rx="70.2" ry="70.2"/>
		<path class="st0" d="M184.8,91.9c-19.3,0-36.8,7.8-49.4,20.5c-12.6,12.6-20.5,30.1-20.5,49.4c0,19.3,7.8,36.8,20.5,49.4
			c12.6,12.6,30.1,20.5,49.4,20.5c19.3,0,36.8-7.8,49.4-20.5c12.6-12.6,20.5-30.1,20.5-49.4s-7.8-36.8-20.5-49.4
			C221.6,99.7,204.1,91.9,184.8,91.9L184.8,91.9z M135,112c12.7-12.7,30.4-20.6,49.8-20.6c19.5,0,37.1,7.9,49.8,20.6
			c12.7,12.7,20.6,30.4,20.6,49.8c0,19.5-7.9,37.1-20.6,49.8c-12.7,12.7-30.4,20.6-49.8,20.6c-19.5,0-37.1-7.9-49.8-20.6
			c-12.7-12.7-20.6-30.4-20.6-49.8C114.4,142.4,122.3,124.8,135,112z"/>
		
			<ellipse transform="matrix(0.8016 -0.5979 0.5979 0.8016 -60.073 142.6203)" class="st0" cx="184.8" cy="161.8" rx="67.7" ry="67.7"/>
		
			<ellipse transform="matrix(0.8157 -0.5784 0.5784 0.8157 -59.5392 136.7217)" class="st9" cx="184.8" cy="161.8" rx="65.6" ry="65.6"/>
		
			<ellipse transform="matrix(0.7071 -0.7071 0.7071 0.7071 -60.2844 178.0882)" class="st4" cx="184.8" cy="161.8" rx="61.8" ry="61.8"/>
		<path class="st0" d="M184.8,100.3c-17,0-32.4,6.9-43.5,18c-11.1,11.1-18,26.5-18,43.5c0,17,6.9,32.4,18,43.5
			c11.1,11.1,26.5,18,43.5,18c17,0,32.4-6.9,43.5-18c11.1-11.1,18-26.5,18-43.5c0-17-6.9-32.4-18-43.5
			C217.2,107.1,201.8,100.3,184.8,100.3L184.8,100.3z M140.9,117.9c11.2-11.2,26.8-18.2,43.9-18.2c17.1,0,32.7,7,43.9,18.2
			c11.2,11.2,18.2,26.8,18.2,43.9s-7,32.7-18.2,43.9c-11.2,11.2-26.8,18.2-43.9,18.2c-17.1,0-32.7-7-43.9-18.2
			c-11.2-11.2-18.2-26.8-18.2-43.9S129.7,129.1,140.9,117.9z"/>
		<path class="st10" d="M184.8,108.3c29.6,0,53.5,24,53.5,53.5c0,29.6-24,53.5-53.5,53.5c-29.6,0-53.5-24-53.5-53.5
			C131.3,132.2,155.3,108.3,184.8,108.3z"/>
		<path class="st0" d="M184.8,109.9c28.7,0,51.9,23.3,51.9,51.9c0,28.7-23.3,51.9-51.9,51.9c-28.7,0-51.9-23.3-51.9-51.9
			C132.9,133.1,156.1,109.9,184.8,109.9z"/>
		<path class="st11" d="M184.8,112c-27.5,0-49.8,22.3-49.8,49.8c0,27.5,22.3,49.8,49.8,49.8c27.5,0,49.8-22.3,49.8-49.8
			C234.6,134.3,212.3,112,184.8,112z"/>
		<path class="st12" d="M184.8,112.7c-26.2,0-47.4,21.2-47.4,47.4c0,26.2,21.2,47.4,47.4,47.4c26.2,0,47.4-21.2,47.4-47.4
			C232.3,133.9,211,112.7,184.8,112.7z"/>
		<path class="st2" d="M222,114.9c0.2,1.1,0.6,2.1,1.5,2.9l5.3,5.3c0.8,0.8,1.9,1.3,2.9,1.5c1.6,0.2,3.2-0.3,4.4-1.5l0.9-0.9
			l1.5-1.5l2.2-2.2c2-2,2-5.3,0-7.4l-5.3-5.3c-2-2-5.3-2-7.4,0L226,108l-1.5,1.5l-0.9,0.9C222.3,111.7,221.8,113.4,222,114.9z"/>
		<path class="st5" d="M234.4,112.1c1.3,1.3,1.3,3.4,0,4.8c-1.3,1.3-3.4,1.3-4.8,0c-1.3-1.3-1.3-3.4,0-4.8
			C231,110.8,233.1,110.8,234.4,112.1z"/>
		<path class="st4" d="M234.5,112.7c1,1,1,2.6,0,3.6c-1,1-2.6,1-3.6,0c-1-1-1-2.6,0-3.6C231.9,111.7,233.5,111.7,234.5,112.7z"/>
		<path class="st0" d="M234.9,112.3c0.6,0.6,0.9,1.4,0.9,2.2s-0.3,1.6-0.9,2.2c-0.6,0.6-1.4,0.9-2.2,0.9c-0.8,0-1.6-0.3-2.2-0.9
			c-0.6-0.6-0.9-1.4-0.9-2.2s0.3-1.6,0.9-2.2c0.6-0.6,1.4-0.9,2.2-0.9C233.5,111.4,234.3,111.7,234.9,112.3L234.9,112.3z
			 M234.7,114.4c0-0.5-0.2-1-0.6-1.4c-0.4-0.4-0.9-0.6-1.4-0.6c-0.5,0-1,0.2-1.4,0.6c-0.4,0.4-0.6,0.9-0.6,1.4c0,0.5,0.2,1,0.6,1.4
			c0.4,0.4,0.9,0.6,1.4,0.6c0.5,0,1-0.2,1.4-0.6C234.5,115.4,234.7,114.9,234.7,114.4z"/>
		<path class="st0" d="M231.8,112.6c-0.1-0.1,0-0.3,0.1-0.4c0.1-0.1,0.3,0,0.4,0.1c1.2,2,2.1,4.3,2.1,4.3c0.1,0.1,0,0.3-0.2,0.3
			c-0.1,0.1-0.3,0-0.3-0.2C233.8,116.8,233,114.6,231.8,112.6z"/>
		<path class="st0" d="M227,105.5c0.4-0.4,1.1-0.4,1.5,0c0.4,0.4,0.4,1.1,0,1.5l-4.3,4.3c-0.5,0.5-0.8,1-1,1.6
			c-0.2,0.6-0.3,1.3-0.2,1.9c0.1,0.4,0.2,0.9,0.4,1.3c0.2,0.4,0.4,0.7,0.8,1.1l5.3,5.3c0.3,0.3,0.7,0.6,1.1,0.8
			c0.4,0.2,0.8,0.3,1.3,0.4c0.6,0.1,1.3,0,1.9-0.2c0.6-0.2,1.1-0.5,1.6-1l4.3-4.3c0.4-0.4,1.1-0.4,1.5,0c0.4,0.4,0.4,1.1,0,1.5
			l-4.3,4.3c-0.7,0.7-1.6,1.2-2.5,1.5c-0.9,0.3-1.9,0.4-2.9,0.3c-0.7-0.1-1.3-0.3-1.9-0.6c-0.6-0.3-1.1-0.7-1.6-1.2l-5.3-5.3
			c-0.5-0.5-0.9-1-1.2-1.6c-0.3-0.6-0.5-1.3-0.6-1.9c-0.1-1-0.1-2,0.3-2.9c0.3-0.9,0.8-1.8,1.5-2.5L227,105.5z"/>
		<path class="st2" d="M127.3,209.7c0.2,1.1,0.6,2.1,1.5,2.9l5.3,5.3c0.8,0.8,1.9,1.3,2.9,1.5c1.6,0.2,3.2-0.3,4.4-1.5l0.9-0.9
			l1.5-1.5l2.2-2.2c2-2,2-5.3,0-7.4l-5.3-5.3c-2-2-5.3-2-7.4,0l-2.2,2.2l-1.5,1.5l-0.9,0.9C127.6,206.4,127.1,208.1,127.3,209.7z"/>
		<path class="st5" d="M139.7,206.8c1.3,1.3,1.3,3.4,0,4.8c-1.3,1.3-3.4,1.3-4.8,0c-1.3-1.3-1.3-3.4,0-4.8
			C136.3,205.5,138.4,205.5,139.7,206.8z"/>
		<path class="st4" d="M139.8,207.4c1,1,1,2.6,0,3.6c-1,1-2.6,1-3.6,0c-1-1-1-2.6,0-3.6C137.2,206.4,138.8,206.4,139.8,207.4z"/>
		<path class="st0" d="M140.2,207c0.6,0.6,0.9,1.4,0.9,2.2c0,0.8-0.3,1.6-0.9,2.2c-0.6,0.6-1.4,0.9-2.2,0.9c-0.8,0-1.6-0.3-2.2-0.9
			c-0.6-0.6-0.9-1.4-0.9-2.2c0-0.8,0.3-1.6,0.9-2.2c0.6-0.6,1.4-0.9,2.2-0.9C138.8,206.1,139.6,206.4,140.2,207L140.2,207z
			 M140,209.2c0-0.5-0.2-1-0.6-1.4s-0.9-0.6-1.4-0.6c-0.5,0-1,0.2-1.4,0.6c-0.4,0.4-0.6,0.9-0.6,1.4c0,0.5,0.2,1,0.6,1.4
			c0.4,0.4,0.9,0.6,1.4,0.6c0.5,0,1-0.2,1.4-0.6C139.8,210.2,140,209.7,140,209.2z"/>
		<path class="st0" d="M137.1,207.3c-0.1-0.1,0-0.3,0.1-0.4c0.1-0.1,0.3,0,0.4,0.1c1.2,2,2.1,4.3,2.1,4.3c0.1,0.1,0,0.3-0.2,0.3
			c-0.1,0.1-0.3,0-0.3-0.2C139.1,211.5,138.3,209.3,137.1,207.3z"/>
		<path class="st0" d="M143.1,217.7c-0.4,0.4-1.1,0.4-1.5,0c-0.4-0.4-0.4-1.1,0-1.5l3.9-3.9c0.8-0.8,1.2-1.9,1.2-2.9
			c0-1.1-0.4-2.1-1.2-2.9l-5.3-5.3c-0.8-0.8-1.9-1.2-2.9-1.2c-1.1,0-2.1,0.4-2.9,1.2l-3.9,3.9c-0.4,0.4-1.1,0.4-1.5,0
			c-0.4-0.4-0.4-1.1,0-1.5l3.9-3.9c1.2-1.2,2.8-1.8,4.4-1.8c1.6,0,3.2,0.6,4.4,1.8l5.3,5.3c1.2,1.2,1.8,2.8,1.8,4.4
			c0,1.6-0.6,3.2-1.8,4.4L143.1,217.7z"/>
		<path class="st2" d="M231.7,199c-1.1,0.2-2.1,0.6-2.9,1.5l-5.3,5.3c-0.8,0.8-1.3,1.9-1.5,2.9c-0.2,1.6,0.3,3.2,1.5,4.4l0.9,0.9
			l1.5,1.5l2.2,2.2c2,2,5.3,2,7.4,0l5.3-5.3c2-2,2-5.3,0-7.4l-2.2-2.2l-1.5-1.5l-0.9-0.9C234.9,199.3,233.3,198.8,231.7,199z"/>
		<path class="st5" d="M234.5,211.4c-1.3,1.3-3.4,1.3-4.8,0c-1.3-1.3-1.3-3.4,0-4.8c1.3-1.3,3.4-1.3,4.8,0
			C235.9,208,235.9,210.1,234.5,211.4z"/>
		<path class="st4" d="M234,211.5c-1,1-2.6,1-3.6,0c-1-1-1-2.6,0-3.6c1-1,2.6-1,3.6,0C235,208.9,235,210.5,234,211.5z"/>
		<path class="st0" d="M234.4,211.9c-0.6,0.6-1.4,0.9-2.2,0.9c-0.8,0-1.6-0.3-2.2-0.9c-0.6-0.6-0.9-1.4-0.9-2.2
			c0-0.8,0.3-1.6,0.9-2.2c0.6-0.6,1.4-0.9,2.2-0.9c0.8,0,1.6,0.3,2.2,0.9c0.6,0.6,0.9,1.4,0.9,2.2
			C235.3,210.5,235,211.3,234.4,211.9L234.4,211.9z M232.2,211.7c0.5,0,1-0.2,1.4-0.6c0.4-0.4,0.6-0.9,0.6-1.4c0-0.5-0.2-1-0.6-1.4
			c-0.4-0.4-0.9-0.6-1.4-0.6c-0.5,0-1,0.2-1.4,0.6c-0.4,0.4-0.6,0.9-0.6,1.4c0,0.5,0.2,1,0.6,1.4
			C231.2,211.5,231.7,211.7,232.2,211.7z"/>
		<path class="st0" d="M234.1,208.8c0.1-0.1,0.3,0,0.4,0.1c0.1,0.1,0,0.3-0.1,0.4c-2,1.2-4.3,2.1-4.3,2.1c-0.1,0.1-0.3,0-0.3-0.2
			c-0.1-0.1,0-0.3,0.2-0.3C229.9,210.8,232.1,210,234.1,208.8z"/>
		<path class="st0" d="M241.2,204.1c0.4,0.4,0.4,1.1,0,1.5c-0.4,0.4-1.1,0.4-1.5,0l-4.3-4.3c-0.5-0.5-1-0.8-1.6-1
			c-0.6-0.2-1.3-0.3-1.9-0.2c-0.4,0.1-0.9,0.2-1.3,0.4c-0.4,0.2-0.7,0.4-1.1,0.8l-5.3,5.3c-0.3,0.3-0.6,0.7-0.8,1.1
			c-0.2,0.4-0.3,0.8-0.4,1.3c-0.1,0.6,0,1.3,0.2,1.9c0.2,0.6,0.5,1.1,1,1.6l4.3,4.3c0.4,0.4,0.4,1.1,0,1.5c-0.4,0.4-1.1,0.4-1.5,0
			l-4.3-4.3c-0.7-0.7-1.2-1.6-1.5-2.5c-0.3-0.9-0.4-1.9-0.3-2.9c0.1-0.7,0.3-1.3,0.6-1.9c0.3-0.6,0.7-1.1,1.2-1.6l5.3-5.3
			c0.5-0.5,1-0.9,1.6-1.2c0.6-0.3,1.3-0.5,1.9-0.6c1-0.1,2-0.1,2.9,0.3c0.9,0.3,1.8,0.8,2.5,1.5L241.2,204.1z"/>
		<path class="st2" d="M137,104.3c-1.1,0.2-2.1,0.6-2.9,1.5l-5.3,5.3c-0.8,0.8-1.3,1.9-1.5,2.9c-0.2,1.6,0.3,3.2,1.5,4.4l0.9,0.9
			l1.5,1.5l2.2,2.2c2,2,5.3,2,7.4,0l5.3-5.3c2-2,2-5.3,0-7.4l-2.2-2.2l-1.5-1.5l-0.9-0.9C140.2,104.6,138.6,104.1,137,104.3z"/>
		<path class="st8" d="M139.3,118c-1.3,1.3-3.4,1.3-4.8,0c-1.3-1.3-1.3-3.4,0-4.8c1.3-1.3,3.4-1.3,4.8,0
			C140.6,114.6,140.6,116.7,139.3,118z"/>
		<path class="st4" d="M139.3,116.8c-1,1-2.6,1-3.6,0c-1-1-1-2.6,0-3.6c1-1,2.6-1,3.6,0C140.3,114.2,140.3,115.8,139.3,116.8z"/>
		<path class="st0" d="M139.7,117.2c-0.6,0.6-1.4,0.9-2.2,0.9c-0.8,0-1.6-0.3-2.2-0.9c-0.6-0.6-0.9-1.4-0.9-2.2
			c0-0.8,0.3-1.6,0.9-2.2c0.6-0.6,1.4-0.9,2.2-0.9c0.8,0,1.6,0.3,2.2,0.9c0.6,0.6,0.9,1.4,0.9,2.2
			C140.6,115.8,140.3,116.6,139.7,117.2L139.7,117.2z M137.5,117c0.5,0,1-0.2,1.4-0.6c0.4-0.4,0.6-0.9,0.6-1.4c0-0.5-0.2-1-0.6-1.4
			c-0.4-0.4-0.9-0.6-1.4-0.6c-0.5,0-1,0.2-1.4,0.6c-0.4,0.4-0.6,0.9-0.6,1.4c0,0.5,0.2,1,0.6,1.4C136.5,116.8,137,117,137.5,117z"/>
		<path class="st0" d="M139.4,114.1c0.1-0.1,0.3,0,0.4,0.1c0.1,0.1,0,0.3-0.1,0.4c-2,1.2-4.3,2.1-4.3,2.1c-0.1,0.1-0.3,0-0.3-0.2
			c-0.1-0.1,0-0.3,0.2-0.3C135.2,116.1,137.4,115.3,139.4,114.1z"/>
		<path class="st0" d="M128.1,119.2c-0.4-0.4-0.4-1.1,0-1.5c0.4-0.4,1.1-0.4,1.5,0l4.7,4.7c0.8,0.8,1.9,1.2,2.9,1.2
			c1.1,0,2.1-0.4,2.9-1.2l5.3-5.3c0.8-0.8,1.2-1.9,1.2-2.9c0-1.1-0.4-2.1-1.2-2.9l-4.7-4.7c-0.4-0.4-0.4-1.1,0-1.5
			c0.4-0.4,1.1-0.4,1.5,0l4.7,4.7c1.2,1.2,1.8,2.8,1.8,4.4s-0.6,3.2-1.8,4.4l-5.3,5.3c-1.2,1.2-2.8,1.8-4.4,1.8
			c-1.6,0-3.2-0.6-4.4-1.8L128.1,119.2z"/>
		<g>
			<path class="st11" d="M185.4,112.7v94.8c-0.2,0-0.4,0-0.6,0c-0.2,0-0.4,0-0.6,0v-94.8c0.2,0,0.4,0,0.6,0
				C185,112.7,185.2,112.7,185.4,112.7z"/>
			<path class="st11" d="M197.6,114.4l-24.6,91.6c-0.4-0.1-0.7-0.2-1.1-0.3l24.6-91.6C196.9,114.2,197.3,114.3,197.6,114.4z"/>
			<path class="st11" d="M209,119.3l-47.4,82.1c-0.3-0.2-0.6-0.4-1-0.6l47.4-82.1C208.4,118.9,208.7,119.1,209,119.3z"/>
			<path class="st11" d="M218.7,127L151.7,194c-0.3-0.3-0.5-0.5-0.8-0.8l67.1-67.1C218.2,126.4,218.5,126.7,218.7,127z"/>
			<path class="st11" d="M226.2,136.9L144,184.3c-0.2-0.3-0.4-0.6-0.6-1l82.1-47.4C225.8,136.2,226,136.5,226.2,136.9z"/>
			<path class="st11" d="M230.8,148.4l-91.6,24.6c-0.1-0.4-0.2-0.7-0.3-1.1l91.6-24.6C230.6,147.6,230.7,148,230.8,148.4z"/>
			<path class="st11" d="M232.2,160.7h-94.8c0-0.2,0-0.4,0-0.6c0-0.2,0-0.4,0-0.6h94.8c0,0.2,0,0.4,0,0.6
				C232.3,160.3,232.2,160.5,232.2,160.7z"/>
			<path class="st11" d="M230.5,172.9l-91.6-24.6c0.1-0.4,0.2-0.7,0.3-1.1l91.6,24.6C230.7,172.2,230.6,172.6,230.5,172.9z"/>
			<path class="st11" d="M225.6,184.3l-82.1-47.4c0.2-0.3,0.4-0.6,0.6-1l82.1,47.4C226,183.7,225.8,184,225.6,184.3z"/>
			<path class="st11" d="M218,194L150.9,127c0.3-0.3,0.5-0.5,0.8-0.8l67.1,67.1C218.5,193.5,218.2,193.8,218,194z"/>
			<path class="st11" d="M208.1,201.4l-47.4-82.1c0.3-0.2,0.6-0.4,1-0.6l47.4,82.1C208.7,201.1,208.4,201.3,208.1,201.4z"/>
			<path class="st11" d="M196.6,206.1L172,114.4c0.4-0.1,0.7-0.2,1.1-0.3l24.6,91.6C197.3,205.9,196.9,206,196.6,206.1z"/>
		</g>
		<path class="st0" d="M184.9,179.1c9.5,0,17.3-7.8,17.3-17.3s-7.8-17.3-17.3-17.3c-9.5,0-17.3,7.8-17.3,17.3
			S175.4,179.1,184.9,179.1z"/>
		<path class="st5" d="M184.9,178c8.9,0,16.2-7.3,16.2-16.2c0-8.9-7.3-16.2-16.2-16.2c-8.9,0-16.2,7.3-16.2,16.2
			C168.7,170.7,176,178,184.9,178z"/>
		<path class="st13" d="M184.9,176.2c8,0,14.5-6.5,14.5-14.5c0-8-6.5-14.5-14.5-14.5c-8,0-14.5,6.5-14.5,14.5
			C170.5,169.7,177,176.2,184.9,176.2z"/>
		<g>
			<path class="st0" d="M186.8,150v23.5c-0.6,0.1-1.2,0.1-1.9,0.1c-0.6,0-1.3-0.1-1.9-0.1V150c0.6-0.1,1.2-0.1,1.9-0.1
				C185.6,149.8,186.2,149.9,186.8,150z"/>
			<path class="st0" d="M192.4,152.5l-11.7,20.3c-1.2-0.5-2.3-1.1-3.2-1.9l11.7-20.3C190.4,151.1,191.5,151.7,192.4,152.5z"/>
			<path class="st0" d="M196.1,157.5l-20.3,11.7c-0.8-1-1.4-2.1-1.9-3.2l20.3-11.7C195,155.2,195.6,156.3,196.1,157.5z"/>
			<path class="st0" d="M196.7,163.6h-23.5c-0.1-0.6-0.1-1.2-0.1-1.9c0-0.6,0.1-1.3,0.1-1.9h23.5c0.1,0.6,0.1,1.2,0.1,1.9
				C196.8,162.4,196.8,163,196.7,163.6z"/>
			<path class="st0" d="M194.2,169.2l-20.3-11.7c0.5-1.2,1.1-2.3,1.9-3.2l20.3,11.7C195.6,167.2,195,168.3,194.2,169.2z"/>
			<path class="st0" d="M189.2,172.8l-11.7-20.3c1-0.8,2.1-1.4,3.2-1.9l11.7,20.3C191.5,171.8,190.4,172.4,189.2,172.8z"/>
		</g>
		<path class="st0" d="M184.8,168.6c4.7,0,8.5-3.8,8.5-8.5c0-4.7-3.8-8.5-8.5-8.5c-4.7,0-8.5,3.8-8.5,8.5
			C176.3,164.8,180.1,168.6,184.8,168.6z"/>
		<path class="st14" d="M184.8,166.1c3.3,0,6-2.7,6-6c0-3.3-2.7-6-6-6c-3.3,0-6,2.7-6,6C178.8,163.4,181.5,166.1,184.8,166.1z"/>
		<path class="st0" d="M184.8,164.8c3.3,0,6-2.6,6-5.9c0-3.2-2.7-5.9-6-5.9c-3.3,0-6,2.6-6,5.9C178.8,162.2,181.5,164.8,184.8,164.8
			z"/>
		<path class="st5" d="M189.5,150.8c-1.5-0.9-3.2-0.8-3.7,0.2c-0.6,1,0.8,1.5,2.3,2.4c1.5,0.9,2.7,1.8,3.2,0.8
			C191.7,153.1,191,151.7,189.5,150.8z"/>
		<path class="st5" d="M199,128.4c7,3.1,12.6,8.6,15.7,15.5c2.8,0,5.6,0,8.5,0c3.5,0,3.3,0.4,1.8-3.2c-4.4-10.6-13.1-19-23.9-23
			c-2.4-0.9-2.1-1.1-2.1,1.4C199,122.2,199,125.3,199,128.4z"/>
		<path class="st5" d="M170.7,190.3c-7-2.9-12.7-8.4-16-15.2c-2.8,0.1-5.6,0.1-8.5,0.2c-3.5,0.1-3.3-0.4-1.7,3.2
			c4.6,10.5,13.5,18.7,24.3,22.6c2.5,0.9,2.1,1,2-1.4C170.9,196.5,170.8,193.4,170.7,190.3z"/>
		<path d="M184.9,112.1c-27.6,0-50.1,22.3-50.1,49.6s22.5,49.6,50.1,49.6s50.1-22.3,50.1-49.6S212.6,112.1,184.9,112.1z
			 M206.7,161.7c0,11.9-9.8,21.6-21.8,21.6c-12,0-21.8-9.7-21.8-21.6s9.8-21.6,21.8-21.6C197,140.1,206.7,149.8,206.7,161.7z
			 M177.7,197.9c2.3,0.5,4.7,0.7,7.2,0.7s4.9-0.2,7.2-0.7l0.1,0l-7.3,12.5L177.7,197.9L177.7,197.9z M220.1,149.9
			c-1.6-4.6-4.1-8.8-7.2-12.4l0-0.1h14.6L220.1,149.9L220.1,149.9z M212.2,136.7c-3.3-3.5-7.2-6.4-11.6-8.4l0-0.1l13.3-5.9
			l-1.5,14.4H212.2z M200.3,127.6l-4.5-13.6c6.4,1.4,12.4,4.1,17.6,7.8L200.3,127.6L200.3,127.6z M199.7,127.9L199.7,127.9
			c-4.4-1.8-9.2-2.9-14.2-2.9l-0.1-0.1l9.8-10.7L199.7,127.9L199.7,127.9z M184.4,124.9c-5,0.1-9.8,1.1-14.1,3l-0.1,0l4.5-13.7
			L184.4,124.9L184.4,124.9z M169.6,127.6l-13.2-5.8c5.2-3.7,11.2-6.4,17.6-7.8L169.6,127.6L169.6,127.6z M169.4,128.2L169.4,128.2
			c-4.4,2.1-8.4,5-11.7,8.5h-0.1l-1.5-14.4L169.4,128.2z M157,137.5c-3.2,3.6-5.6,7.8-7.2,12.4l-0.1,0l-7.3-12.5H157L157,137.5
			L157,137.5z M149.1,150.2l-13.2,5.8c0.8-6.5,2.9-12.7,6-18.2L149.1,150.2L149.1,150.2z M149.4,150.8L149.4,150.8
			c-1,3.5-1.6,7.2-1.6,11c0,1.1,0.1,2.2,0.2,3.3l-0.1,0.1l-11.8-8.5L149.4,150.8L149.4,150.8z M148.1,166.1
			c0.6,4.9,2.1,9.5,4.5,13.6l0,0.1l-14.2-3L148.1,166.1L148.1,166.1L148.1,166.1z M152.3,180.4l-4.5,13.6
			c-4.2-4.8-7.6-10.4-9.7-16.5L152.3,180.4L152.3,180.4z M152.9,180.6l0.1,0c2.5,4.1,5.8,7.7,9.6,10.6l0,0.1l-14.3,3L152.9,180.6
			L152.9,180.6z M163.5,191.8c3.9,2.7,8.4,4.7,13.2,5.8l0,0.1l-11.8,8.5l-1.5-14.4L163.5,191.8z M177.1,198.3l7.2,12.4
			c-6.7-0.1-13.1-1.5-18.9-4L177.1,198.3z M192.8,198.3l11.7,8.4c-5.8,2.5-12.2,3.9-18.9,4L192.8,198.3z M193.1,197.7L193.1,197.7
			c4.9-1.2,9.3-3.2,13.2-5.9l0.1,0l-1.5,14.4L193.1,197.7L193.1,197.7z M207.2,191.2c3.9-2.9,7.2-6.5,9.7-10.6l0.1,0l4.5,13.7
			L207.2,191.2L207.2,191.2L207.2,191.2z M217.6,180.4l14.1-3c-2.1,6.2-5.4,11.8-9.7,16.5L217.6,180.4z M217.4,179.8L217.4,179.8
			c2.3-4.2,3.8-8.8,4.4-13.7l0.1-0.1l9.7,10.7L217.4,179.8L217.4,179.8z M222,165.1c0.1-1.1,0.2-2.2,0.2-3.3c0-3.8-0.6-7.5-1.7-10.9
			l0-0.1l13.3,5.9L222,165.1L222,165.1L222,165.1z M220.8,150.2l7.2-12.4c3.1,5.5,5.2,11.6,6,18.2L220.8,150.2z M227.4,136.7H213
			l1.5-14.2C219.7,126.3,224.1,131.2,227.4,136.7z M194.6,113.7l-9.7,10.6l-9.7-10.6c3.1-0.6,6.4-0.9,9.7-0.9
			C188.3,112.8,191.5,113.1,194.6,113.7L194.6,113.7z M155.4,122.5l1.5,14.2h-14.4C145.8,131.2,150.2,126.4,155.4,122.5z
			 M135.7,157.2l11.7,8.4l-9.7,10.6c-1.4-4.6-2.2-9.5-2.2-14.6C135.5,160.2,135.6,158.7,135.7,157.2z M148.7,194.9l14.1-3l1.5,14.2
			C158.4,203.5,153.1,199.6,148.7,194.9L148.7,194.9z M205.6,206.2l1.5-14.2l14.1,3C216.8,199.6,211.5,203.5,205.6,206.2
			L205.6,206.2z M232.1,176.3l-9.7-10.6l11.7-8.4c0.1,1.5,0.2,3,0.2,4.5C234.4,166.8,233.6,171.7,232.1,176.3z"/>
	</g>
	<g>
		<g>
			<g>
				<path d="M1087,144.6c-19.7-18.4-46.7-28.2-78.4-28.2h-71.5c-5.3,0-9.8,4.6-9.8,10.1v184.9c0,5.6,4.6,10.1,9.8,10.1h71.5
					c31.7,0,58.8-9.7,78.4-28c19.9-18.6,30.4-44.3,30.4-74.4C1117.4,189.1,1106.9,163.2,1087,144.6 M1052.5,260.7
					c-10.8,11.3-26,17.3-44,17.3h-30c-2.1,0-3.8-1.7-3.8-3.8V163.9c0-2.1,1.7-3.8,3.8-3.8h30c36.8,0,59.6,22.7,59.6,59.2
					C1068.1,235.4,1062.6,250.2,1052.5,260.7"/>
				<path d="M1199.2,160H1305c4.3,0,7.7-3.5,7.7-7.7v-26.4c0-5.2-4.2-9.4-10.7-9.4h-145.1c-4.2,0-8.8,4.6-8.8,10.1v184.9
					c0,5.6,4.6,10.1,8.8,10.1H1302c6.5,0,10.7-4.2,10.7-9.4v-26.4c0-4.3-3.4-7.7-7.7-7.7h-105.8c-2.1,0-3.8-1.7-3.8-3.8v-30.2
					c0-2.1,1.7-3.8,3.8-3.8h104.6c4.3,0,7.7-3.5,7.7-7.7v-28.1c0-4.3-3.5-7.7-7.7-7.7h-104.6c-2.1,0-3.8-1.7-3.8-3.8v-29
					C1195.3,161.8,1197.1,160,1199.2,160"/>
				<path d="M883.1,225.3c-4.6-4-10.2-7.4-16.8-10c-1.9-0.7-2.1-3.3-0.4-4.3c4.8-2.9,9.1-6.3,12.6-10.2c8.6-9.3,13-21.3,13-34.7
					c0-16.3-7-29.1-20.8-38.2c-13.1-8.6-30.9-12.9-52.9-12.9c-20,0-37.8,3.8-53.9,11.4c-3.9,1.8-6.2,6.5-4.4,11.2
					c0.2,0.4,0.3,0.8,0.6,1.1c4.3,7.4,8,15.4,11,23.6c1.2,3.4,4.5,5.6,8.1,5.6c1.3,0,2.8-0.3,4-1c4.8-2.5,9.2-4.3,13.3-5.5
					c6.2-1.9,12-2.9,18.4-2.9c21,0,23.7,8.8,23.7,16.4c0,7.4-2.6,12.7-8.1,15.7c-6.5,3.5-17.3,5.3-32.1,5.3h-9.4
					c-0.7,0-1.4,0.1-2,0.2c-4.4,1.1-7,5.2-6.6,9.3c0.4,4.6,0.6,9.3,0.6,14.1c0,2.9-0.1,5.9-0.3,9c-0.1,2.4,0.7,4.8,2.4,6.5
					c1.6,1.7,3.9,2.8,6.3,2.8h8.8c16.2,0,28,1.7,35,5.1c6,2.9,8.7,7.3,8.7,14.3c0,8.3-2.5,13.4-7.8,17c-5.8,3.9-15.7,6-28.6,6
					c-8.8,0-17.3-1.1-26.3-3.4c-0.7-0.2-1.5-0.3-2.3-0.3c-3.5,0-6.6,2.1-7.9,5.3c-3.1,7.5-6.9,15-11.2,22c-1.5,2.4-1.7,5.2-0.7,7.9
					c1,2.6,3.3,4.4,5.9,5.2c14.4,4.2,29.9,6.2,47.2,6.2c27.4,0,49-5.5,64-16.4c15.6-11.4,23.6-26.9,23.6-47.1
					C897.6,245.3,892.7,233.8,883.1,225.3"/>
			</g>
			<g>
				<path d="M757.1,376.7c0-9.4,7.4-16.9,17-16.9c9.6,0,17,7.5,17,16.9c0,9.3-7.3,16.8-17,16.8C764.3,393.5,757.1,386.1,757.1,376.7
					z M783.5,376.7c-0.1-5.7-4.3-9.7-9.4-9.7c-5.2,0-9.4,4.1-9.4,9.7c0,5.5,4.2,9.6,9.4,9.6C779.4,386.3,783.6,382.3,783.5,376.7z"
					/>
				<path d="M833.7,371.5c0,5.7-3.5,10.7-12.3,10.7h-4.7V393h-7.3v-32.6h12.4C830.3,360.4,833.7,365.8,833.7,371.5z M826.2,371.3
					c0-2.2-1.6-4.2-4.3-4.2h-5.2v8.5h4.9C824.8,375.6,826.2,373.5,826.2,371.3z"/>
				<path d="M851.3,360.4H874v6.8h-15.4v6h14.3v6.7h-14.3v6.2h15.4v6.8h-22.7V360.4z"/>
				<path d="M921.3,360.4V393H916l-15.9-18.8V393h-7.2v-32.6h4.9l16.3,19v-19H921.3z"/>
				<path d="M962.5,390.3l3-5.8c3,1.7,5.5,2.4,7.4,2.4c3.1,0,4.8-1.5,4.8-3.5c0-2-1.7-3.4-4.4-3.4h-4.2v-6.5h3.4
					c2.9,0,4.5-1.4,4.5-3.4c0-2.1-1.8-3.3-4-3.3c-1.9,0-3.7,0.7-6.2,2.4l-3.4-5.2c2.6-2.4,6.5-4,10.6-4c5.9,0,10.5,3.7,10.5,8.4
					c0,3.6-2.5,6.2-5.5,7.3v0.2c4.2,0.9,6.4,4.2,6.4,8c0,5.7-4.9,9.7-11.9,9.7C969.3,393.5,965.8,392.3,962.5,390.3z"/>
				<path d="M1003.7,360.4h13c10,0,15.9,6.3,15.9,16.3s-6,16.3-16.1,16.3h-12.8V360.4z M1016.8,386c5.5,0,8.3-4.3,8.3-9.3
					c0-5-2.8-9.3-8.3-9.3h-5.8V386H1016.8z"/>
				<path d="M1075.2,360.4h22.7v6.8h-15.4v6h14.3v6.7h-14.3v6.2h15.4v6.8h-22.7V360.4z"/>
				<path d="M1145.2,360.4V393h-5.2l-15.9-18.8V393h-7.2v-32.6h4.9l16.3,19v-19H1145.2z"/>
				<path d="M1163.5,376.7c0-9.9,7.6-16.9,17.3-16.9c5.5,0,10.2,2.2,13,5.1l-4.7,5.3c-2.1-2-5.1-3.4-8.4-3.4c-5.7,0-9.8,4.2-9.8,9.8
					c0,5.4,3.9,9.9,9.8,9.9c3.3,0,6.4-1.4,8.1-3.1v-3.8h-8.3v-6.2h14.9v13.7c-4,4-9.1,6.4-14.8,6.4
					C1170.6,393.4,1163.5,386.4,1163.5,376.7z"/>
				<path d="M1221.5,360.4V393h-7.3v-32.6H1221.5z"/>
				<path d="M1269.9,360.4V393h-5.2l-15.9-18.8V393h-7.2v-32.6h4.9l16.3,19v-19H1269.9z"/>
				<path d="M1290,360.4h22.7v6.8h-15.4v6h14.3v6.7h-14.3v6.2h15.4v6.8H1290V360.4z"/>
			</g>
		</g>
		<g>
			<path class="st15" d="M693.5,268.7l6.5,20l6.6,20.2c12.7-14.1,22.4-30.6,28.4-49.1l-20.7,4.4L693.5,268.7L693.5,268.7z"/>
			<path class="st16" d="M605.4,354c19.7,0,38.5-4.2,55.3-11.8l-17.1-12.5l-17-12.4L616,335.6L605.4,354"/>
			<path class="st16" d="M665.2,300.2l-2.2,21l-2.2,21.1c17.5-7.8,33.1-19.2,45.8-33.3l-20.7-4.4L665.2,300.2L665.2,300.2z"/>
			<path class="st17" d="M517.4,268.7l-20.7-4.4l-20.7-4.4c6,18.3,15.7,35,28.4,49.1l6.6-20.2L517.4,268.7L517.4,268.7z"/>
			<path class="st17" d="M706.6,228.5l14.1,15.6l14.2,15.8c4.3-13.2,6.6-27.4,6.6-42.1c0-4.8-0.2-9.6-0.7-14.3L723.6,216
				L706.6,228.5L706.6,228.5z"/>
			<path class="st17" d="M702.1,186.4l19.3,8.6l19.4,8.6c-2-19.5-8.1-37.7-17.5-53.9l-10.6,18.4L702.1,186.4L702.1,186.4z"/>
			<path class="st17" d="M545.6,300.2l-20.7,4.4l-20.7,4.4c12.7,14.1,28.3,25.5,45.8,33.3l-2.2-21.1L545.6,300.2L545.6,300.2z"/>
			<path class="st17" d="M605.4,354l-10.5-18.3l-10.5-18.3l-17.1,12.4L550,342.3C567,349.8,585.7,354,605.4,354"/>
			<path class="st17" d="M626.6,317.3l17,12.4l17.2,12.5l2.2-21.1l2.2-21C653.8,308.3,640.8,314.3,626.6,317.3L626.6,317.3z"/>
			<path class="st17" d="M693.5,268.7c-7.1,12.3-16.9,23.1-28.3,31.4v0.1l20.7,4.4l20.7,4.4l-6.6-20.2L693.5,268.7L693.5,268.7z"/>
			<path class="st18" d="M646.8,124.8l-6.5-20.1l-6.6-20.2l-14.2,15.7L605.5,116C620.2,116,634.2,119.1,646.8,124.8L646.8,124.8z"/>
			<path class="st18" d="M605.4,116.1l-14.1-15.7l-14.2-15.7l-6.6,20.2l-6.5,20C576.7,119.2,590.7,116.1,605.4,116.1L605.4,116.1z"
				/>
			<path class="st18" d="M529.8,149.7c9.5-10.6,21.1-19.1,34.2-24.9l-19.3-8.6l-19.3-8.6l2.2,21.1L529.8,149.7L529.8,149.7z"/>
			<path class="st18" d="M529.8,149.7l-21.1-0.1h-21.3l10.6,18.4l10.5,18.2C513.1,172.6,520.5,160.1,529.8,149.7z"/>
			<path class="st18" d="M470,203.6l17.2,12.5l17.1,12.4c-0.3-3.5-0.6-7-0.6-10.6c0-11,1.8-21.6,4.9-31.5l-19.3,8.6L470,203.6z"/>
			<path class="st19" d="M529.8,149.7l-2.2-21l-2.2-21.1c-15.4,11.2-28.3,25.5-37.8,42.1H529.8z"/>
			<path class="st19" d="M489.4,194.8l19.3-8.6L498.2,168l-10.6-18.3c-9.3,16.1-15.5,34.4-17.5,53.9L489.4,194.8L489.4,194.8z"/>
			<path class="st19" d="M564,124.8l6.5-20l6.6-20.2c-18.9,4-36.5,12-51.7,23.1l19.4,8.6L564,124.8L564,124.8z"/>
			<path class="st19" d="M605.4,116l14.1-15.6l14.2-15.8c-9.2-2-18.6-2.9-28.3-2.9s-19.2,1.1-28.3,2.9l14.2,15.8L605.4,116
				L605.4,116z"/>
			<path class="st19" d="M702.1,186.4l10.5-18.2l10.6-18.4H681v0.1C690.4,160.1,697.7,172.6,702.1,186.4z"/>
			<path class="st19" d="M646.8,124.8c13,5.8,24.7,14.3,34.2,24.9h0.1l2.2-21l2.2-21.1l-19.3,8.6L646.8,124.8L646.8,124.8z"/>
			<path class="st19" d="M504.3,228.5l-14.2,15.6L476,259.8l20.7,4.4l20.7,4.4C510.4,256.6,505.8,243,504.3,228.5L504.3,228.5z"/>
			<path class="st19" d="M545.6,300.2c-11.5-8.4-21.1-19.1-28.3-31.5l-6.5,20l-6.6,20.2l20.7-4.4L545.6,300.2L545.6,300.2z"/>
			<path class="st20" d="M504.2,228.5L487.1,216L470,203.6c-0.5,4.7-0.7,9.4-0.7,14.3c0,14.7,2.4,28.9,6.6,42.1l14.2-15.9
				L504.2,228.5z"/>
			<path class="st20" d="M681,149.7h42.3c-9.6-16.5-22.5-30.9-37.8-42.1l-2.2,21.1L681,149.7L681,149.7z"/>
			<path class="st20" d="M646.8,124.8l19.3-8.6l19.4-8.6c-15.2-11.1-32.7-19.1-51.7-23.1l6.6,20.2L646.8,124.8L646.8,124.8z"/>
			<path class="st20" d="M605.4,354l10.6-18.4l10.5-18.3c-6.8,1.5-13.9,2.2-21.1,2.2c-7.2,0-14.3-0.7-21.1-2.2l10.5,18.3L605.4,354"
				/>
			<path class="st20" d="M693.5,268.7l20.7-4.4l20.7-4.4l-14.3-15.8l-14.1-15.6C705.1,243,700.5,256.6,693.5,268.7L693.5,268.7z"/>
			<path class="st20" d="M707.1,217.8c0,3.6-0.2,7.1-0.6,10.6l17.1-12.4l17.2-12.5l-19.4-8.6l-19.3-8.6
				C705.4,196.2,707.1,206.8,707.1,217.8z"/>
			<path class="st20" d="M545.6,300.2l2.2,21l2.2,21.1l17.2-12.5l17.1-12.4C570.1,314.3,557,308.3,545.6,300.2L545.6,300.2z"/>
			<path d="M605.4,116c-56.2,0-101.7,45.6-101.7,101.8s45.5,101.8,101.7,101.8c56.2,0,101.7-45.5,101.7-101.8S661.6,116,605.4,116
				C605.4,116,605.4,116,605.4,116z M605.4,283.7c-36.4,0-66-29.5-66-66s29.5-66,66-66c36.4,0,66,29.5,66,66
				S641.9,283.7,605.4,283.7L605.4,283.7z"/>
		</g>
	</g>
</g>
</svg>
