<svg width="75" height="76" viewBox="0 0 75 76" fill="none" xmlns="http://www.w3.org/2000/svg">
<g clip-path="url(#clip0_1_77)">
<path d="M60.9268 0.000115563C59.5812 -0.0051606 58.1199 0.170341 56.4776 0.503867C50.6384 1.68974 46.4758 7.68246 45.2913 12.6797C44.1069 17.6769 44.4872 21.5171 43.1271 24.8C42.3184 26.7519 39.6925 28.5788 37.1618 30.1803C34.6573 28.5916 32.0801 26.7837 31.2804 24.8532C29.9203 21.5703 30.3006 17.7302 29.1162 12.733C27.9317 7.73572 23.7691 1.743 17.9299 0.557127C12.0906 -0.628743 8.53962 0.183495 4.34379 4.01398C0.147966 7.84447 -1.66195 16.5937 1.89518 22.2545C5.4523 27.9152 14.1847 30.5435 19.1065 30.5763C24.0283 30.6091 26.874 30.4136 28.9829 31.7489C29.5897 32.1331 30.4212 33.1129 31.2975 34.3119C29.7121 35.6912 28.6243 36.8618 25.9958 40.0377C22.6596 44.0688 14.7893 56.8004 12.2382 62.0854C9.68709 67.3705 11.0097 71.5415 14.7417 75.2735L37.185 43.406L59.6657 75.3268C63.3978 71.5947 64.7204 67.4237 62.1693 62.1387C59.6182 56.8536 51.7478 44.122 48.4117 40.091C45.7569 36.8833 44.6743 35.7215 43.0627 34.3239C43.9563 33.0954 44.8069 32.0867 45.4246 31.6956C47.5334 30.3604 50.3792 30.5558 55.301 30.523C60.2228 30.4902 68.9552 27.8619 72.5123 22.2012C76.0694 16.5405 74.2595 7.79121 70.0637 3.96072C67.0479 1.20756 64.3654 0.013599 60.9268 0.000115563ZM59.9332 6.61243C64.7109 6.65641 68.4422 10.241 67.9943 15.3288C67.5001 20.9431 64.4744 23.0376 58.7994 24.2681C53.1244 25.4985 50.9431 22.4371 50.7953 17.2215C50.6474 12.0059 52.9465 7.49854 58.4203 6.71471C58.9335 6.64123 59.4389 6.60788 59.9332 6.61243ZM14.4743 6.66575C14.9685 6.6612 15.474 6.69449 15.9872 6.76797C21.4609 7.5518 23.7601 12.0592 23.6122 17.2748C23.4643 22.4904 21.2831 25.5518 15.6081 24.3213C9.93306 23.0908 6.9074 20.9964 6.4132 15.3822C5.96533 10.2943 9.69662 6.70974 14.4743 6.66575Z" fill="#007D1F"/>
</g>
<defs>
<clipPath id="clip0_1_77">
<rect width="75" height="76" fill="white"/>
</clipPath>
</defs>
</svg>
