<svg width="229" height="13" viewBox="0 0 229 13" fill="none" xmlns="http://www.w3.org/2000/svg">
<g clip-path="url(#clip0_1_23)">
<path d="M142.807 12.9024C142.807 12.4967 142.807 12.1197 142.807 11.745C142.807 11.356 142.807 10.967 142.807 10.5781C142.807 10.201 142.809 9.8216 142.807 9.44456C142.802 9.06991 142.83 8.69525 142.786 8.33252C142.462 8.25139 132.008 8.24423 131.645 8.32298C131.637 8.39696 131.617 8.47809 131.62 8.55923C131.64 9.12956 131.673 9.70229 131.686 10.2726C131.701 11.0076 131.709 11.7402 131.709 12.4752C131.709 12.9286 131.696 12.931 131.224 12.931C130.731 12.931 130.241 12.931 129.748 12.931C129.623 12.931 129.498 12.9191 129.342 12.9119C129.332 12.752 129.319 12.616 129.316 12.48C129.316 9.18684 129.321 5.89368 129.309 2.60291C129.306 1.71758 129.773 1.08997 130.486 0.576907C130.976 0.226114 131.569 0.125888 132.166 0.0614567C132.526 0.0232752 132.891 0.00895713 133.251 0.00895713C136.014 0.00418444 138.78 0.00895713 141.543 0.00895713C142.036 0.00895713 142.523 0.0590704 143.004 0.166456C144.186 0.426567 144.998 1.27849 145.1 2.40246C145.143 2.89643 145.169 3.39279 145.172 3.88915C145.177 6.73845 145.172 9.59013 145.169 12.4394C145.169 12.7703 144.988 12.9366 144.625 12.9382C144.132 12.9382 143.642 12.9382 143.149 12.9382C143.057 12.9382 142.965 12.9239 142.809 12.9095L142.807 12.9024ZM137.286 6.3972C137.695 6.3972 138.106 6.3972 138.514 6.3972C139.789 6.39004 141.065 6.3805 142.34 6.37095C142.421 6.37095 142.503 6.36379 142.585 6.35425C142.705 6.34231 142.774 6.27311 142.792 6.16572C142.802 6.10129 142.807 6.03686 142.807 5.97243C142.807 4.76494 142.809 3.55745 142.807 2.34757C142.807 2.0469 142.776 2.00871 142.455 1.98485C142.013 1.95144 141.568 1.91803 141.124 1.91565C138.269 1.91087 135.414 1.91565 132.559 1.91803C132.386 1.91803 132.209 1.93712 132.038 1.96576C131.735 2.01826 131.671 2.09224 131.671 2.38337C131.671 3.55984 131.671 4.73392 131.676 5.91039C131.676 6.24209 131.735 6.30652 132.097 6.33516C132.447 6.36379 132.797 6.38766 133.147 6.39004C134.528 6.3972 135.907 6.39243 137.289 6.39243L137.286 6.3972Z" fill="black"/>
<path d="M75.9126 3.08376C75.9101 2.80217 75.9075 2.56831 75.9024 2.33206C75.8947 2.02422 75.8769 1.9932 75.55 1.97172C75.0955 1.9407 74.6384 1.91683 74.1813 1.91683C72.4831 1.91206 70.785 1.92161 69.0869 1.91683C68.1037 1.91445 67.1206 1.88581 66.1349 1.88342C65.7978 1.88342 65.4557 1.90967 65.1237 1.96456C64.8173 2.01467 64.7406 2.12683 64.7381 2.41797C64.733 2.83796 64.7381 3.26034 64.7381 3.68034C64.7457 4.7709 64.756 5.86146 64.7662 6.95202C64.7764 8.04258 64.7866 9.13314 64.7994 10.2237C64.7994 10.343 64.807 10.4623 64.8198 10.5793C64.853 10.8561 64.8913 10.9181 65.1977 10.9611C65.5655 11.016 65.9408 11.047 66.3162 11.0565C66.9725 11.0732 67.6288 11.0661 68.285 11.0661C69.7253 11.0661 71.1655 11.0661 72.6083 11.0589C73.4637 11.0541 74.3166 11.0303 75.1721 11.0112C75.3227 11.0088 75.4785 10.9969 75.6241 10.9682C75.8411 10.9253 75.8871 10.8656 75.8998 10.6556C75.905 10.5912 75.8998 10.5268 75.8998 10.4623C75.8998 9.70586 75.8998 8.95178 75.8998 8.1953C75.8998 8.06883 75.8871 7.93997 75.8794 7.78247C75.7211 7.77054 75.5858 7.75383 75.4504 7.75383C74.5592 7.75145 73.6706 7.75383 72.7794 7.75144C72.1307 7.75144 72.1103 7.72758 72.095 7.13815C72.0873 6.84702 72.0797 6.55589 72.0873 6.26475C72.095 6.00225 72.1869 5.91635 72.4627 5.88532C72.6134 5.86862 72.7666 5.86623 72.9198 5.86623C74.1379 5.86623 75.3559 5.87101 76.574 5.87101C76.7502 5.87101 76.9238 5.84953 77.1 5.84953C77.358 5.84953 77.6159 5.84714 77.8712 5.86862C78.1445 5.89248 78.1955 5.9426 78.2211 6.18839C78.244 6.40316 78.2543 6.61793 78.2594 6.83509C78.2824 7.83974 78.3002 8.842 78.3258 9.84665C78.336 10.2905 78.3053 10.7296 78.17 11.1615C77.9529 11.856 77.455 12.3141 76.7604 12.6029C76.2088 12.8344 75.6241 12.9346 75.0189 12.9346C71.8805 12.9346 68.7396 12.9346 65.6012 12.9346C64.7815 12.9346 64.0358 12.7341 63.377 12.2592C62.7616 11.813 62.4756 11.2283 62.4118 10.5291C62.4041 10.4432 62.4067 10.3573 62.4067 10.269C62.4067 7.77531 62.4067 5.28158 62.4067 2.78785C62.4067 2.56353 62.422 2.33206 62.4705 2.11251C62.6927 1.11263 63.4 0.518435 64.4138 0.20821C64.9041 0.0578707 65.4173 0.00537109 65.9357 0.00537109C68.829 0.0101438 71.7222 0.00775744 74.6154 0.00537109C75.1823 0.00537109 75.7364 0.0769614 76.2752 0.239233C77.3835 0.573321 78.0295 1.27252 78.2032 2.33683C78.2313 2.51581 78.2364 2.70194 78.2313 2.8833C78.2287 3.00262 78.1547 3.08376 78.0066 3.08376C77.3273 3.08376 76.6506 3.08376 75.905 3.08376H75.9126Z" fill="black"/>
<path d="M7.91365 12.9335C6.37893 12.9335 4.84678 12.9335 3.31207 12.9335C2.76815 12.9335 2.23956 12.8524 1.72884 12.6829C0.761028 12.3632 -0.00760401 11.5088 5.67693e-05 10.4636C0.00771755 9.33011 -0.00249682 8.19659 0.00771755 7.06308C0.0153783 6.42593 0.0638966 5.79116 0.0690038 5.15401C0.074111 4.55026 0.0332535 3.94652 0.0306999 3.34277C0.0306999 2.89175 0.0511287 2.43835 0.0766646 1.98733C0.102201 1.52438 0.398417 1.1879 0.730385 0.875291C1.2743 0.369386 1.95866 0.14507 2.70942 0.0615477C2.98776 0.0305252 3.26866 0.00666176 3.54955 0.00666176C6.45299 0.00188907 9.35643 0.00427542 12.2599 0.00666176C12.7782 0.00666176 13.2839 0.0734794 13.7869 0.192797C14.8696 0.448135 15.7736 1.37881 15.817 2.45744C15.8272 2.73664 15.8528 3.01823 15.8528 3.29743C15.8553 5.46662 15.8579 7.6358 15.8528 9.80499C15.8528 10.0961 15.8349 10.3873 15.8094 10.676C15.7455 11.3848 15.3446 11.9312 14.7905 12.3942C14.673 12.492 14.5147 12.5588 14.364 12.6113C13.7461 12.8333 13.1025 12.9359 12.4412 12.9359C10.932 12.9359 9.42027 12.9359 7.91109 12.9359L7.91365 12.9335ZM8.21497 11.0674C8.21497 11.0674 8.21497 11.0745 8.21497 11.0793C9.77266 11.0602 11.3278 11.0387 12.8855 11.022C13.4958 11.0149 13.4958 11.0173 13.4958 10.4708C13.4958 7.80523 13.4958 5.13969 13.4958 2.47414C13.4958 2.39778 13.4984 2.3238 13.4932 2.24744C13.4779 2.0613 13.4473 2.01596 13.2532 1.98971C13.0106 1.95631 12.7655 1.92528 12.5203 1.92528C10.9397 1.91812 9.35898 1.92051 7.7783 1.91812C6.30233 1.91812 4.8289 1.90858 3.35293 1.91335C3.13332 1.91335 2.91115 1.94676 2.6941 1.98255C2.4847 2.01835 2.3749 2.15199 2.36469 2.35005C2.36213 2.41448 2.35958 2.47891 2.35958 2.54335C2.36724 5.12298 2.37745 7.70262 2.38767 10.2799C2.38767 10.3562 2.38767 10.4302 2.39277 10.5066C2.41576 10.8932 2.49747 10.9838 2.91371 11.0125C3.36825 11.0435 3.82534 11.065 4.28243 11.0674C5.59243 11.0745 6.90497 11.0698 8.21497 11.0698V11.0674Z" fill="black"/>
<path d="M190.008 12.9388C188.486 12.9388 186.964 12.9388 185.442 12.9388C184.972 12.9388 184.51 12.8934 184.058 12.7598C183.129 12.4854 182.138 11.5475 182.151 10.3329C182.181 7.76516 182.179 5.19507 182.151 2.62736C182.138 1.43181 183.22 0.393747 184.257 0.167044C184.74 0.0620449 185.225 0.00238634 185.718 0.00238634C188.655 0 191.594 0 194.533 0C195.284 0 195.991 0.162271 196.665 0.467723C197.104 0.66579 197.418 0.966469 197.633 1.36976C197.914 1.89476 198.013 2.45793 198.019 3.03304C198.029 4.23099 198.024 5.42893 198.024 6.62688C198.024 7.57664 198.029 8.52641 198.034 9.47617C198.034 9.97253 198.003 10.4665 197.901 10.9581C197.735 11.7456 197.219 12.2634 196.453 12.5975C195.868 12.8505 195.248 12.9388 194.609 12.9388C193.075 12.9388 191.543 12.9388 190.008 12.9388ZM190.138 11.0583V11.0655C191.801 11.0655 193.463 11.0655 195.125 11.0655C195.628 11.0655 195.651 11.0535 195.651 10.5715C195.651 9.2972 195.651 8.02528 195.651 6.75097C195.651 5.33825 195.651 3.92315 195.651 2.51043C195.651 2.0451 195.651 2.03078 195.133 1.97828C194.75 1.93771 194.364 1.92101 193.979 1.92101C191.18 1.92101 188.384 1.92578 185.585 1.92817C185.468 1.92817 185.35 1.92817 185.235 1.93532C184.648 1.98305 184.553 2.07612 184.556 2.61305C184.561 5.27859 184.566 7.94414 184.574 10.6097C184.574 10.9175 184.638 10.9843 184.982 11.001C185.463 11.0249 185.94 11.0512 186.42 11.0535C187.661 11.0607 188.902 11.0559 190.143 11.0559L190.138 11.0583Z" fill="black"/>
<path d="M112.56 12.915H110.28C110.16 12.7862 110.203 12.6406 110.203 12.5046C110.201 11.1659 110.203 9.82712 110.203 8.48838C110.203 7.51714 110.203 6.5459 110.203 5.57466C110.203 5.46011 110.191 5.34795 110.186 5.22864C109.991 5.22148 109.92 5.33364 109.841 5.41716C109.425 5.85624 109.001 6.28817 108.61 6.74635C108.14 7.2976 107.711 7.87748 107.246 8.4335C106.782 8.98951 106.302 9.53121 105.821 10.0777C105.571 10.364 105.318 10.6456 105.055 10.9225C104.928 11.0585 104.777 11.1778 104.58 11.3568C104.501 11.2518 104.445 11.1706 104.381 11.0943C103.853 10.4762 103.319 9.86053 102.793 9.24008C102.244 8.59577 101.713 7.93714 101.146 7.30237C100.587 6.67715 99.9993 6.07579 99.417 5.46966C99.3123 5.35988 99.177 5.27398 99.0646 5.1833C98.9191 5.26682 98.9497 5.37182 98.9523 5.4625C98.9804 6.07579 99.0263 6.68908 99.0366 7.30237C99.0646 8.96326 99.08 10.6265 99.0978 12.2874C99.0978 12.4783 99.0851 12.6716 99.0774 12.8482C98.8016 12.9413 97.3078 12.9652 96.7792 12.896C96.677 12.8005 96.7102 12.674 96.7102 12.5595C96.7051 12.1395 96.7102 11.7171 96.7102 11.2971C96.7102 8.5552 96.7102 5.81329 96.7102 3.07138V2.63229C96.8583 2.61559 96.9707 2.58934 97.0856 2.58934C97.7776 2.58695 98.4671 2.59411 99.1591 2.58457C99.4528 2.58218 99.6622 2.68241 99.8486 2.89479C100.781 3.96149 101.738 5.01148 102.668 6.08056C103.186 6.67953 103.664 7.30714 104.162 7.92043C104.307 8.10179 104.465 8.27361 104.644 8.48122C104.762 8.38338 104.877 8.31179 104.958 8.21634C105.306 7.81066 105.635 7.39066 105.985 6.98737C106.876 5.95886 107.775 4.9375 108.666 3.90899C108.973 3.55581 109.271 3.19547 109.555 2.8232C109.675 2.66332 109.813 2.58457 110.017 2.58457C110.742 2.58457 111.47 2.57979 112.195 2.58695C112.517 2.58934 112.578 2.65138 112.581 2.95922C112.588 3.75865 112.588 4.55569 112.591 5.35511C112.596 7.72952 112.599 10.1039 112.599 12.4783C112.599 12.6048 112.581 12.7313 112.571 12.9007L112.56 12.915Z" fill="black"/>
<path d="M200.193 2.62487C200.316 2.61293 200.431 2.59384 200.543 2.59384C203.587 2.59384 206.631 2.58907 209.675 2.59623C210.178 2.59623 210.676 2.67498 211.163 2.80623C211.871 2.99714 212.402 3.39804 212.808 3.95167C213.01 4.2261 213.104 4.5411 213.137 4.86564C213.214 5.62927 213.245 6.39529 213.15 7.15892C213.132 7.30926 213.096 7.45721 213.056 7.60278C212.938 8.01323 212.703 8.34493 212.31 8.58834C211.595 9.02981 210.837 9.33288 209.953 9.31617C209.7 9.3114 209.445 9.3472 209.174 9.36629C209.205 9.57867 209.35 9.68129 209.475 9.78151C209.848 10.0774 210.224 10.3686 210.614 10.6454C211.199 11.0606 211.797 11.4567 212.384 11.8696C212.711 12.0987 213.028 12.3373 213.342 12.5783C213.439 12.6523 213.52 12.7406 213.628 12.8408C213.554 12.8814 213.518 12.9172 213.482 12.9172C212.688 12.9386 211.891 12.984 211.1 12.8838C210.676 12.8313 210.275 12.7024 209.935 12.4614C209.378 12.0676 208.832 11.662 208.285 11.2563C207.639 10.7742 206.993 10.2898 206.358 9.8006C205.926 9.4689 205.438 9.30186 204.874 9.3114C204.243 9.32095 203.61 9.31379 202.977 9.31379C202.918 9.31379 202.859 9.31379 202.8 9.31617C202.55 9.33288 202.489 9.38777 202.494 9.61447C202.504 10.0345 202.517 10.4545 202.532 10.8768C202.553 11.4042 202.578 11.934 202.601 12.4614C202.606 12.5688 202.606 12.6761 202.601 12.7859C202.599 12.9005 202.537 12.9697 202.407 12.9673C201.695 12.953 200.98 12.9386 200.267 12.9219C200.247 12.9219 200.226 12.9029 200.208 12.8909C200.134 12.6404 200.114 3.10213 200.193 2.62725V2.62487ZM206.812 7.38562C206.812 7.38562 206.812 7.4071 206.812 7.41903C207.805 7.41903 208.801 7.41903 209.795 7.41903C210.017 7.41903 210.239 7.41426 210.461 7.39994C210.773 7.37846 210.826 7.33074 210.826 7.04199C210.831 6.33086 210.831 5.61734 210.826 4.90621C210.826 4.63417 210.78 4.59599 210.474 4.5769C210.134 4.5578 209.797 4.53871 209.458 4.53871C207.491 4.52917 205.525 4.52201 203.559 4.52201C203.314 4.52201 203.068 4.55303 202.828 4.5936C202.581 4.63655 202.545 4.68667 202.542 4.9253C202.542 5.61496 202.542 6.30699 202.545 6.99665C202.545 7.21619 202.578 7.26631 202.816 7.3021C203.114 7.34744 203.418 7.37846 203.722 7.38085C204.751 7.3904 205.78 7.38562 206.812 7.38562Z" fill="black"/>
<path d="M149.639 12.9121H147.335C147.325 12.7904 147.305 12.6878 147.305 12.5828C147.305 9.36598 147.305 6.14919 147.305 2.9324C147.305 2.84649 147.317 2.76297 147.325 2.64127C147.463 2.62456 147.596 2.59831 147.731 2.59831C148.622 2.59354 149.511 2.59831 150.402 2.59831C152.534 2.59831 154.664 2.59831 156.796 2.59831C157.302 2.59831 157.8 2.64843 158.288 2.77729C159.447 3.07797 160.226 3.98478 160.302 5.09204C160.343 5.69579 160.377 6.29953 160.292 6.90089C160.257 7.16816 160.198 7.43305 160.116 7.69077C160.029 7.9652 159.835 8.18474 159.618 8.38758C158.967 8.99372 158.17 9.28246 157.253 9.30633C156.996 9.31348 156.738 9.32303 156.482 9.33973C156.395 9.34451 156.311 9.37553 156.194 9.40178C156.324 9.58553 156.472 9.70246 156.628 9.81223C157.575 10.4804 158.528 11.1462 159.47 11.8215C159.848 12.0936 160.203 12.3919 160.565 12.683C160.629 12.7355 160.675 12.8047 160.757 12.8978C160.652 12.9145 160.596 12.9288 160.543 12.9288C159.805 12.9312 159.067 12.9288 158.329 12.936C158.002 12.9383 157.7 12.8644 157.43 12.6997C157.128 12.516 156.827 12.3274 156.546 12.1151C155.632 11.423 154.728 10.719 153.816 10.0246C153.574 9.83848 153.313 9.67144 153.058 9.50201C152.841 9.36121 152.591 9.30394 152.328 9.30394C151.554 9.30394 150.783 9.29917 150.009 9.30394C149.687 9.30394 149.654 9.34451 149.659 9.64996C149.672 10.4589 149.69 11.2679 149.7 12.0793C149.703 12.3465 149.728 12.6162 149.634 12.9073L149.639 12.9121ZM157.961 4.6625C157.769 4.62909 157.611 4.58614 157.453 4.57421C157.116 4.54557 156.776 4.51693 156.436 4.51693C154.437 4.51216 152.435 4.51455 150.435 4.51455C150.318 4.51455 150.2 4.51932 150.086 4.53125C149.705 4.57182 149.672 4.60523 149.667 4.95125C149.659 5.61942 149.651 6.2876 149.649 6.95816C149.649 7.25884 149.718 7.34236 150.05 7.37577C150.387 7.41157 150.727 7.43305 151.064 7.43305C152.912 7.4402 154.761 7.4402 156.61 7.43543C156.901 7.43543 157.195 7.41873 157.486 7.39486C157.933 7.35668 157.986 7.3018 157.989 6.8985C157.991 6.26135 157.989 5.62658 157.989 4.98943C157.989 4.89398 157.976 4.79852 157.963 4.6625H157.961Z" fill="black"/>
<path d="M80.9814 12.9293C80.9712 12.7646 80.9609 12.6477 80.9609 12.5331C80.9609 10.1038 80.9788 7.67455 80.9533 5.24764C80.938 3.96617 82.0207 2.95913 83.1009 2.77061C83.5707 2.68948 84.0482 2.61073 84.5258 2.60595C86.704 2.58925 88.8822 2.59641 91.0604 2.59879C91.6248 2.59879 92.1814 2.66323 92.7126 2.85652C93.2182 3.04265 93.6753 3.29322 94.0226 3.69651C94.3265 4.04731 94.4848 4.44582 94.5154 4.8873C94.5435 5.28582 94.5639 5.68434 94.5639 6.08286C94.569 8.23057 94.5691 10.3783 94.5691 12.526C94.5691 12.5904 94.569 12.6548 94.5639 12.7193C94.5486 12.8577 94.4669 12.9341 94.3111 12.9293C94.2422 12.9293 94.1707 12.9293 94.0992 12.9293C93.6063 12.9293 93.1161 12.9293 92.6232 12.9293C92.5083 12.9293 92.3934 12.9293 92.2402 12.9293C92.2274 12.7861 92.2095 12.6716 92.2095 12.5594C92.207 11.9222 92.2095 11.2851 92.2095 10.6479C92.2095 10.2757 92.1687 10.2375 91.778 10.216C91.6605 10.2088 91.543 10.2088 91.4256 10.2088C89.0941 10.2041 86.7653 10.1969 84.4338 10.1969C84.1785 10.1969 83.918 10.2184 83.6678 10.2566C83.415 10.2971 83.3307 10.3926 83.3103 10.6288C83.2924 10.8317 83.3026 11.0393 83.3051 11.2445C83.3103 11.655 83.3179 12.0654 83.323 12.4759C83.323 12.5618 83.3179 12.6477 83.3026 12.7336C83.2847 12.8553 83.2107 12.9269 83.0677 12.9269C82.391 12.9269 81.7117 12.9269 80.9865 12.9269L80.9814 12.9293ZM83.3996 8.24966C83.8797 8.32841 91.8852 8.30932 92.1482 8.24011C92.23 7.94182 92.2249 4.93025 92.1355 4.65105C91.7269 4.54605 91.2953 4.51742 90.8638 4.51503C88.8975 4.50787 86.9287 4.5031 84.9624 4.50787C84.5539 4.50787 84.1427 4.53412 83.7367 4.5723C83.3869 4.60571 83.3434 4.66775 83.346 4.98514C83.3511 5.9349 83.3537 6.88467 83.3588 7.83443C83.3588 7.97284 83.3869 8.10886 83.3996 8.25204V8.24966Z" fill="black"/>
<path d="M226.562 9.33032C226.366 9.32316 226.228 9.31122 226.087 9.31122C225.163 9.31122 224.239 9.31122 223.312 9.31122C223.217 9.31122 223.125 9.31361 223.031 9.31122C222.745 9.29691 222.707 9.2635 222.714 9.001C222.729 8.56907 222.747 8.13953 222.77 7.7076C222.781 7.50715 222.844 7.44272 223.064 7.41169C223.156 7.39738 223.25 7.39976 223.345 7.39976C224.88 7.40454 226.412 7.40692 227.946 7.41408C228.169 7.41408 228.391 7.41408 228.613 7.43317C228.825 7.45226 228.868 7.49999 228.909 7.69328C228.93 7.78874 228.942 7.88658 228.942 7.98203C228.932 8.84589 228.909 9.70736 228.904 10.5712C228.899 11.5377 227.967 12.5232 227.117 12.7237C226.626 12.8406 226.139 12.9409 225.63 12.9409C223.452 12.9432 221.274 12.9409 219.096 12.9409C218.636 12.9409 218.187 12.8836 217.747 12.7499C216.976 12.5161 216.478 11.9982 216.088 11.3778C215.94 11.1439 215.888 10.8719 215.888 10.5975C215.888 8.7743 215.871 6.94874 215.899 5.12558C215.911 4.26172 216.323 3.57445 217.16 3.12343C217.635 2.8681 218.143 2.71776 218.682 2.66048C219.042 2.6223 219.405 2.59844 219.767 2.59605C221.593 2.58889 223.422 2.59605 225.247 2.59367C225.814 2.59367 226.368 2.65332 226.91 2.80605C227.878 3.08048 228.508 3.67229 228.83 4.54808C228.896 4.73183 228.947 4.92274 228.986 5.11126C229.032 5.32842 228.978 5.40478 228.753 5.41671C228.192 5.44296 227.632 5.46921 227.071 5.4716C226.672 5.4716 226.596 5.38092 226.573 5.00149C226.552 4.67694 226.522 4.63399 226.174 4.58149C225.955 4.54808 225.733 4.5266 225.51 4.52422C223.603 4.51467 221.693 4.5099 219.785 4.5099C219.458 4.5099 219.131 4.54092 218.805 4.56717C218.702 4.57672 218.6 4.61251 218.501 4.64354C218.34 4.69603 218.261 4.80103 218.261 4.96331C218.263 5.23296 218.261 5.50262 218.261 5.77228C218.261 7.05613 218.261 8.33998 218.258 9.62622C218.258 9.90542 218.243 10.187 218.23 10.4662C218.21 10.8433 218.263 10.9268 218.677 10.9793C219.024 11.0222 219.377 11.0437 219.726 11.0485C220.464 11.0556 221.202 11.0413 221.938 11.0437C223.261 11.0461 224.583 11.0556 225.906 11.0604C226.047 11.0604 226.187 11.0556 226.325 11.0389C226.453 11.0246 226.547 10.953 226.555 10.8289C226.578 10.3469 226.578 9.86247 226.555 9.33509L226.562 9.33032Z" fill="black"/>
<path d="M57.7621 10.2841C57.7672 10.1863 57.78 10.0932 57.78 10.0001C57.7775 8.6089 57.78 7.21527 57.7672 5.82403C57.7596 4.97211 57.7289 4.12018 57.7111 3.26826C57.7085 3.13939 57.7085 3.00815 57.7238 2.87928C57.7494 2.67644 57.8158 2.61679 58.0379 2.60247C58.2116 2.59054 58.3878 2.59531 58.564 2.59531C58.9853 2.59531 59.4066 2.59054 59.828 2.59769C60.0731 2.60247 60.1114 2.64304 60.1268 2.86497C60.1319 2.95087 60.1293 3.03678 60.1293 3.12508C60.1293 6.2321 60.1293 9.3415 60.1293 12.4485C60.1293 12.5965 60.1114 12.7444 60.0987 12.9091C59.9608 12.9186 59.8586 12.933 59.7539 12.933C59.0874 12.933 58.4184 12.9258 57.7519 12.9377C57.4225 12.9449 57.1595 12.8423 56.9373 12.6275C56.6386 12.3388 56.3449 12.0452 56.041 11.7613C54.3735 10.2149 52.7009 8.67333 51.0385 7.12459C50.6606 6.77141 50.3184 6.38721 49.9558 6.01971C49.7745 5.83596 49.5983 5.64744 49.4042 5.47801C49.2919 5.37779 49.1489 5.3062 49.0263 5.22506C48.8833 5.33483 48.9165 5.4446 48.9241 5.5496C48.9573 5.95767 49.0186 6.36573 49.0212 6.7738C49.0314 8.67333 49.0263 10.5729 49.0263 12.4724C49.0263 12.6084 49.0084 12.7468 48.9982 12.8733C48.7071 12.9473 47.1443 12.9616 46.6974 12.8948C46.6897 12.7802 46.6719 12.6561 46.6719 12.532C46.6719 11.4964 46.6719 10.4607 46.6719 9.42502C46.6719 7.31072 46.6719 5.19404 46.6719 3.07974C46.6719 2.94133 46.6719 2.80292 46.6719 2.64065C46.8353 2.62394 46.9604 2.60247 47.0856 2.60008C47.775 2.59769 48.4671 2.60485 49.1565 2.59531C49.4859 2.59054 49.7285 2.69315 49.9456 2.93178C50.6836 3.74075 51.4956 4.48768 52.3051 5.23938C53.4593 6.31085 54.5906 7.40379 55.7371 8.48481C56.0155 8.7473 56.3066 8.99787 56.5926 9.25321C56.8862 9.51571 57.1952 9.76389 57.4123 10.0932C57.5144 10.2459 57.5246 10.2412 57.7698 10.2913L57.7621 10.2841Z" fill="black"/>
<path d="M32.6432 2.65847C32.947 2.57494 42.5077 2.5296 43.8943 2.59881C44.0067 2.60358 44.119 2.6346 44.2365 2.65369C44.2493 2.7396 44.2697 2.80403 44.2671 2.86608C44.2595 3.31948 44.2518 3.77289 44.239 4.22629C44.2288 4.53652 44.1752 4.57231 43.833 4.55322C43.4832 4.53413 43.1308 4.5055 42.7809 4.5055C40.521 4.50072 38.2611 4.50311 36.0012 4.5055C35.756 4.5055 35.5083 4.5222 35.2683 4.55561C34.995 4.59379 34.9516 4.65345 34.9491 4.89447C34.944 5.43378 34.9414 5.9731 34.9363 6.51241C34.9363 6.7582 34.9823 6.82502 35.2504 6.85366C35.5645 6.88707 35.8811 6.91332 36.1952 6.9157C37.472 6.92048 38.7488 6.91809 40.0231 6.91332C40.4546 6.91332 40.8887 6.88707 41.3203 6.87513C41.402 6.87513 41.4863 6.87275 41.5654 6.88229C41.7621 6.90854 41.8361 6.97059 41.8438 7.15434C41.8591 7.60774 41.8668 8.06115 41.8642 8.51455C41.8642 8.71023 41.808 8.75796 41.591 8.77944C41.4633 8.79137 41.3331 8.78898 41.2054 8.78898C39.3081 8.78898 37.4107 8.78898 35.5134 8.78898C35.3525 8.78898 35.1917 8.8033 35.0052 8.81285C34.9899 8.92978 34.9669 9.02284 34.9644 9.11591C34.9567 9.64568 34.9542 10.1731 34.9491 10.7028C34.9491 10.9176 34.9874 10.9749 35.2121 11.0178C35.3704 11.0489 35.5364 11.0608 35.6998 11.0608C38.0313 11.0608 40.3601 11.0608 42.6916 11.0608C43.0899 11.0608 43.4883 11.0489 43.8866 11.0512C44.1931 11.0512 44.2467 11.1157 44.2518 11.3973C44.2595 11.8077 44.2825 12.2158 44.2978 12.6262C44.3003 12.7097 44.2978 12.7933 44.2978 12.9102C44.1318 12.9221 43.9965 12.9364 43.8611 12.9364C42.6303 12.9364 41.402 12.9364 40.1712 12.9364C37.8295 12.9364 35.4879 12.9364 33.1462 12.9364C32.9854 12.9364 32.8245 12.9245 32.6942 12.9197C32.6559 12.8863 32.6483 12.8792 32.6406 12.8696C32.6355 12.8601 32.6279 12.8505 32.6279 12.841C32.6202 12.767 32.6074 12.6907 32.6074 12.6167C32.6074 9.33546 32.6074 6.05423 32.6125 2.77301C32.6125 2.74199 32.6279 2.71097 32.6406 2.66324L32.6432 2.65847Z" fill="black"/>
<path d="M124.387 8.78851C124.216 8.78851 124.065 8.78851 123.914 8.78851C121.958 8.78851 120.002 8.78851 118.046 8.78851C117.574 8.78851 117.579 8.78851 117.61 9.21805C117.62 9.36839 117.602 9.51873 117.599 9.67146C117.592 10.039 117.574 10.4041 117.576 10.7716C117.576 11.0078 117.658 11.0722 117.914 11.0937C117.96 11.0985 118.008 11.0937 118.054 11.0937C120.431 11.0818 122.809 11.0722 125.186 11.0579C125.536 11.0579 125.888 11.0388 126.238 11.0293C126.333 11.0269 126.427 11.0197 126.519 11.0269C126.762 11.0436 126.826 11.0961 126.872 11.3133C126.882 11.3562 126.887 11.3992 126.889 11.4421C126.905 11.8406 126.923 12.2416 126.93 12.6401C126.935 12.8906 126.9 12.924 126.637 12.936C126.542 12.9408 126.45 12.936 126.356 12.936C122.842 12.936 119.328 12.936 115.814 12.936C115.654 12.936 115.49 12.936 115.288 12.936C115.276 12.7809 115.258 12.6568 115.258 12.5327C115.258 11.6808 115.258 10.8264 115.258 9.97452C115.258 7.69557 115.258 5.41899 115.258 3.14004C115.258 2.9897 115.258 2.83936 115.258 2.66754C115.365 2.64129 115.449 2.61504 115.536 2.60311C115.618 2.59356 115.7 2.60072 115.781 2.60072C119.213 2.60072 122.645 2.60072 126.077 2.60072C126.264 2.60072 126.453 2.61265 126.637 2.63652C126.838 2.66277 126.866 2.70095 126.889 2.88708C126.897 2.95151 126.897 3.01595 126.897 3.08038C126.905 3.43594 126.912 3.79389 126.918 4.14946C126.923 4.46207 126.856 4.52173 126.506 4.52411C126.483 4.52411 126.46 4.52411 126.435 4.52411C123.881 4.52411 121.328 4.51934 118.774 4.51934C118.47 4.51934 118.166 4.53366 117.862 4.5623C117.638 4.58377 117.602 4.62911 117.602 4.83195C117.602 5.39274 117.607 5.95354 117.617 6.51671C117.622 6.81501 117.717 6.89853 118.036 6.91762C118.131 6.92239 118.223 6.92 118.317 6.92C120.179 6.9033 122.04 6.88898 123.902 6.87228C124.415 6.8675 124.461 6.90569 124.466 7.38773C124.471 7.75284 124.466 8.12034 124.456 8.48545C124.453 8.57851 124.412 8.66919 124.379 8.7909L124.387 8.78851Z" fill="black"/>
<path d="M18.0162 12.9028V2.68923C18.149 2.56037 18.3099 2.59855 18.4554 2.59855C19.8599 2.59616 21.267 2.59855 22.6714 2.59855C24.2751 2.59855 25.8813 2.59616 27.485 2.59855C27.988 2.59855 28.4885 2.65105 28.9737 2.78946C29.6376 2.97559 30.1484 3.35979 30.585 3.83706C30.8353 4.11149 30.9349 4.45035 30.9783 4.79398C31.083 5.60057 31.0753 6.41193 30.9732 7.21612C30.9042 7.76021 30.631 8.20646 30.156 8.56202C29.4563 9.08463 28.6596 9.2994 27.7761 9.30179C26.7802 9.30418 25.7843 9.30179 24.7909 9.30179C23.4681 9.30179 22.1454 9.30179 20.8201 9.30179C20.6822 9.30179 20.5417 9.30179 20.3732 9.30179C20.3553 9.42588 20.3323 9.51656 20.3323 9.60963C20.3374 10.6023 20.3502 11.5951 20.3528 12.5878C20.3528 12.8789 20.2966 12.9266 19.9825 12.929C19.4207 12.9338 18.8589 12.929 18.2971 12.929C18.218 12.929 18.1362 12.9147 18.0137 12.9004L18.0162 12.9028ZM28.6571 4.66035C28.486 4.62694 28.3506 4.58876 28.2153 4.57683C27.8782 4.54819 27.5386 4.51956 27.2015 4.51717C25.225 4.51001 23.2485 4.51001 21.2721 4.51001C21.1214 4.51001 20.9682 4.51717 20.8175 4.53865C20.4294 4.5983 20.363 4.66751 20.3604 5.02307C20.3553 5.6483 20.3604 6.27352 20.3604 6.89874C20.3604 6.95363 20.363 7.00613 20.3655 7.06101C20.3706 7.19703 20.4472 7.28294 20.5877 7.31874C20.6771 7.3426 20.769 7.36646 20.8609 7.37362C21.2338 7.39749 21.6066 7.42851 21.982 7.4309C23.5601 7.43805 25.1408 7.4309 26.7189 7.43328C27.2092 7.43328 27.702 7.4476 28.1923 7.43805C28.629 7.4309 28.68 7.37362 28.6826 6.98704C28.6851 6.3284 28.6826 5.67216 28.6826 5.01353C28.6826 4.90853 28.6698 4.80114 28.6622 4.65796L28.6571 4.66035Z" fill="black"/>
<path d="M162.51 4.55497V2.68408C162.648 2.56238 162.806 2.59817 162.954 2.59817C164.91 2.59817 166.866 2.59817 168.822 2.59817C170.86 2.59817 172.898 2.59817 174.936 2.59817C175.135 2.59817 175.331 2.62442 175.531 2.63874C175.686 2.65067 175.76 2.72942 175.768 2.87021C175.776 3.02055 175.791 3.17089 175.788 3.32362C175.783 3.61475 175.776 3.90589 175.758 4.19702C175.74 4.48338 175.679 4.52395 175.365 4.52395C173.912 4.52157 172.461 4.51918 171.008 4.52395C170.857 4.52395 170.707 4.54782 170.554 4.56213C170.398 4.57645 170.331 4.66236 170.331 4.80315C170.331 4.92247 170.329 5.04179 170.329 5.15872C170.329 7.58802 170.329 10.0173 170.329 12.4442C170.329 12.5922 170.311 12.7401 170.301 12.9024C170.178 12.9143 170.086 12.9334 169.997 12.9334C169.422 12.9358 168.85 12.9382 168.276 12.9358C167.977 12.9358 167.926 12.8929 167.918 12.6184C167.911 12.3917 167.926 12.165 167.928 11.9383C167.934 11.3895 167.936 10.8382 167.939 10.2894C167.944 9.16778 167.949 8.04381 167.957 6.92223C167.959 6.2636 167.969 5.60497 167.969 4.94633C167.969 4.65043 167.895 4.58361 167.538 4.56691C167.025 4.54066 166.509 4.51679 165.993 4.51679C164.938 4.51918 163.886 4.54066 162.832 4.55497C162.74 4.55497 162.648 4.55497 162.51 4.55497Z" fill="black"/>
<path d="M179.39 12.8861C179.02 12.9601 177.475 12.9577 177.14 12.8861C177.13 12.8336 177.11 12.7715 177.11 12.7095C177.107 12.2466 177.102 11.7836 177.11 11.3206C177.112 11.051 177.166 10.9913 177.462 10.9937C178.011 10.9961 178.557 11.0152 179.106 11.0462C179.362 11.0605 179.426 11.1154 179.446 11.3374C179.492 11.8504 179.512 12.3659 179.392 12.8861H179.39Z" fill="black"/>
</g>
<defs>
<clipPath id="clip0_1_23">
<rect width="229" height="13" fill="white"/>
</clipPath>
</defs>
</svg>
