<svg width="169" height="75" viewBox="0 0 169 75" fill="none" xmlns="http://www.w3.org/2000/svg">
<path d="M63.767 43.7957C76.321 43.7957 85.894 34.0506 85.894 21.9552C85.894 9.8024 76.207 0 63.824 0C51.442 0 41.755 9.7451 41.755 22.0698C41.755 34.2225 51.156 43.7957 63.767 43.7957ZM63.824 35.4264C56.372 35.4264 50.583 29.6939 50.583 21.9552C50.583 14.1591 56.487 8.3693 63.824 8.3693C71.105 8.3693 77.066 14.0444 77.066 21.9552C77.124 29.6939 71.277 35.4264 63.824 35.4264ZM104.858 43.7957C114.145 43.7957 120.393 38.4072 120.393 30.8977C120.393 25.5093 117.298 22.3564 113.17 20.3501C110.304 18.917 106.062 17.3119 103.826 16.2801C102.107 15.4202 100.387 14.2164 100.387 12.0954C100.387 9.6878 102.451 8.0254 105.833 8.0254C108.756 8.0254 112.597 9.3438 115.119 11.9807L119.648 5.7897C115.693 1.777 110.648 0.0572987 105.718 0.0572987C97.12 0.0572987 91.272 5.4458 91.272 12.4393C91.272 17.7132 94.253 20.866 97.979 22.987C100.96 24.6494 104.457 25.6812 107.151 26.9424C109.33 27.9742 110.992 29.2353 110.992 31.3563C110.992 33.9932 108.47 35.8849 104.916 35.8849C100.616 35.8849 96.489 33.8213 93.68 29.9806L88.808 35.8849C92.419 41.1015 98.381 43.7957 104.858 43.7957Z" fill="black"/>
<path d="M9.625 74.6328C12.875 74.6328 15.8 73.3078 18.05 70.9578V63.3578H9.575V66.5828H14.675V69.1078C13.55 70.2328 11.7 71.0828 9.725 71.0828C6.225 71.0828 3.8 68.4328 3.8 65.1078C3.8 61.6828 6.32499 59.1328 9.77499 59.1328C11.725 59.1328 13.525 59.9328 14.8 61.2078L17.225 58.5578C15.625 56.8578 12.875 55.5578 9.77499 55.5578C4.32499 55.5578 0 59.5078 0 65.1328C0 70.6078 4.025 74.6328 9.625 74.6328ZM31.2142 60.7328V62.3578C30.1892 61.2328 28.7892 60.3828 26.8642 60.3828C22.9892 60.3828 20.1142 63.3828 20.1142 67.4828C20.1142 71.5328 22.9142 74.6828 26.8642 74.6828C28.7892 74.6828 30.2142 73.8578 31.2142 72.7828V74.3578H34.564V60.7328H31.2142ZM27.4392 71.4828C25.1892 71.4828 23.6392 69.7078 23.6392 67.5328C23.6392 65.4078 25.1642 63.6078 27.4392 63.6078C29.6892 63.6078 31.2642 65.4078 31.2642 67.5328C31.2642 69.6828 29.6892 71.4828 27.4392 71.4828ZM54.209 60.3578C52.209 60.3578 50.334 61.2328 49.334 62.7578C48.559 61.1078 46.959 60.3578 45.334 60.3578C43.584 60.3328 41.959 61.2328 41.184 62.6828V60.7328H37.734V74.3578H41.259V66.9078C41.259 64.8078 42.559 63.6078 44.234 63.6078C45.884 63.6078 46.984 64.7578 46.984 66.8078V74.3578H50.509V66.8828C50.509 64.8578 51.784 63.6078 53.509 63.6078C55.084 63.6078 56.234 64.6328 56.234 66.7828V74.3578H59.759V66.1328C59.759 62.3828 57.309 60.3578 54.209 60.3578ZM76.008 67.2328C76.008 62.9078 73.058 60.3828 69.183 60.3828C64.933 60.3828 62.083 63.4578 62.083 67.5328C62.083 71.1828 64.383 74.6578 69.483 74.6578C72.008 74.6578 74.133 73.7328 75.433 72.7828L74.033 70.3078C72.883 71.1078 71.133 71.6828 69.633 71.6828C67.308 71.6828 66.083 70.4328 65.658 68.7828H75.883C75.958 68.2828 76.008 67.7828 76.008 67.2328ZM69.183 63.3078C70.983 63.3078 72.258 64.4078 72.583 66.1578H65.658C66.083 64.3828 67.408 63.3078 69.183 63.3078ZM93.509 74.6328C97.059 74.6328 100.034 72.9328 101.659 70.7078L99.109 68.3828C97.809 70.0078 95.909 71.0828 93.734 71.0828C90.409 71.0828 87.859 68.6078 87.859 65.1828C87.859 61.6578 90.459 59.1328 93.759 59.1328C95.934 59.1328 97.759 60.2328 99.034 61.8078L101.509 59.3828C99.909 57.1328 96.984 55.5578 93.559 55.5578C88.359 55.5578 84.009 59.4828 84.009 65.1828C84.009 70.8328 88.234 74.6328 93.509 74.6328ZM107.25 74.3578V55.3578H103.725V74.3578H107.25ZM116.989 74.7078C121.339 74.7078 124.289 71.5078 124.289 67.5328C124.289 63.6078 121.339 60.3578 116.989 60.3578C112.639 60.3578 109.689 63.6078 109.689 67.5328C109.689 71.5078 112.639 74.7078 116.989 74.7078ZM116.989 71.4328C114.864 71.4328 113.214 69.7078 113.214 67.5328C113.214 65.3828 114.864 63.6578 116.989 63.6578C119.114 63.6578 120.764 65.3828 120.764 67.5328C120.764 69.7078 119.114 71.4328 116.989 71.4328ZM126.772 74.3578H130.297V67.0578C130.297 65.0078 131.572 63.6078 133.422 63.6078C135.122 63.6078 136.297 64.7828 136.297 66.9828V74.3578H139.822V66.0328C139.822 62.1828 137.247 60.3578 134.497 60.3578C132.472 60.3578 130.922 61.3578 130.222 62.6328V60.7328H126.772V74.3578ZM156.061 67.2328C156.061 62.9078 153.111 60.3828 149.236 60.3828C144.986 60.3828 142.136 63.4578 142.136 67.5328C142.136 71.1828 144.436 74.6578 149.536 74.6578C152.061 74.6578 154.186 73.7328 155.486 72.7828L154.086 70.3078C152.936 71.1078 151.186 71.6828 149.686 71.6828C147.361 71.6828 146.136 70.4328 145.711 68.7828H155.936C156.011 68.2828 156.061 67.7828 156.061 67.2328ZM149.236 63.3078C151.036 63.3078 152.311 64.4078 152.636 66.1578H145.711C146.136 64.3828 147.461 63.3078 149.236 63.3078ZM162.962 74.7078C166.287 74.7078 168.387 72.8078 168.387 70.3328C168.387 68.7328 167.612 67.6828 166.087 66.8828C165.012 66.3328 163.662 65.8828 162.812 65.5578C161.912 65.2578 161.612 64.7828 161.612 64.3078C161.612 63.6828 162.187 63.1578 163.162 63.1578C164.087 63.1578 165.262 63.5328 166.287 64.5078L168.037 62.2328C166.712 60.8578 165.012 60.2828 163.262 60.2828C160.162 60.2828 158.162 62.0078 158.162 64.3828C158.162 65.9578 158.962 67.1578 160.512 67.9078C161.337 68.3328 163.137 68.9078 163.887 69.2578C164.537 69.5578 164.862 69.9328 164.862 70.4328C164.862 71.2078 164.062 71.7578 162.987 71.7578C161.612 71.7578 160.187 71.0328 159.212 69.8578L157.337 72.0828C158.712 73.8328 160.787 74.7078 162.962 74.7078Z" fill="black"/>
</svg>
