<svg width="18" height="26" viewBox="0 0 18 26" fill="none" xmlns="http://www.w3.org/2000/svg">
                                            <g clip-path="url(#clip0_3141_16309)">
                                                <path d="M8.64357 25.4756C7.57871 25.2854 6.73702 24.7155 6.0724 23.8996C5.64265 23.3713 5.2424 22.808 4.90794 22.216C3.81357 20.2786 3.18584 18.1712 2.70505 16.0142C2.33493 14.3538 2.08839 12.6744 1.91624 10.9835C1.90579 10.8789 1.87259 10.7731 1.87997 10.6697C1.90517 10.3352 2.22488 10.1145 2.57286 10.205C5.56456 10.9841 8.60914 10.9547 11.6611 10.7896C12.919 10.7217 14.1646 10.5505 15.3844 10.2166C15.8074 10.1004 16.1148 10.3744 16.0718 10.8122C15.7927 13.6664 15.3143 16.482 14.3866 19.2059C13.8314 20.8363 13.141 22.405 12.0331 23.7529C11.4016 24.5216 10.662 25.1472 9.66048 25.3925C9.55042 25.4194 9.44099 25.4475 9.33093 25.475H8.64357V25.4756ZM2.95282 11.4067C3.21965 12.9087 3.44468 14.3697 3.74409 15.816C4.14926 17.7706 4.73641 19.6731 5.66048 21.4552C6.11606 22.334 6.65894 23.1499 7.42562 23.8042C8.25377 24.5112 9.23256 24.6274 10.145 24.0856C10.6872 23.7633 11.1084 23.3077 11.4773 22.8056C12.389 21.5629 12.9682 20.1587 13.449 18.7112C14.0792 16.8153 14.4794 14.8663 14.7715 12.8934C14.8434 12.4066 14.895 11.9167 14.9577 11.4171C10.967 12.1039 7.00816 12.1045 2.95282 11.4061V11.4067Z" fill="black" />
                                                <path d="M8.99167 9.8321C7.71285 9.83393 6.44264 9.75015 5.2253 9.31472C4.26004 8.96918 3.43311 8.4463 2.97999 7.47881C2.6277 6.7272 2.63877 5.94685 2.83797 5.16589C3.57022 2.29644 6.10449 0.402437 9.09558 0.478271C10.7783 0.52108 12.2711 1.04947 13.4921 2.22734C14.6142 3.3098 15.2505 4.62894 15.2647 6.19514C15.2776 7.60051 14.5017 8.51663 13.2782 9.09822C12.1734 9.62356 10.9818 9.76666 9.77679 9.83026C9.51611 9.84372 9.25359 9.8321 8.99229 9.8321H8.99167ZM9.12079 8.81629C9.5155 8.79183 10.0399 8.7796 10.5595 8.72211C11.4054 8.62854 12.2404 8.47688 13.0021 8.06407C13.7719 7.64699 14.2619 7.03482 14.2152 6.13338C14.134 4.56839 13.3931 3.34221 12.1211 2.44933C10.905 1.59498 9.52841 1.395 8.07621 1.59498C6.03317 1.8763 4.33874 3.38624 3.85611 5.37198C3.70978 5.97437 3.6772 6.5792 3.99321 7.15101C4.29263 7.69286 4.78202 8.00903 5.33536 8.23653C6.50658 8.71844 7.74851 8.77654 9.12017 8.81629H9.12079Z" fill="black" />
                                                <path d="M0.507403 11.9454C0.789604 11.9423 0.985731 12.119 1.03861 12.4444C1.15604 13.166 1.25502 13.8913 1.3829 14.6111C1.7893 16.9051 2.35431 19.1575 3.30175 21.2955C3.63682 22.0514 4.07088 22.7626 4.449 23.5002C4.52769 23.6531 4.60516 23.8329 4.5984 23.9968C4.58979 24.2108 4.43424 24.3619 4.20922 24.4114C3.96268 24.4658 3.76532 24.3759 3.64359 24.1686C3.31835 23.6145 2.97774 23.0672 2.69615 22.4911C1.73273 20.5225 1.10132 18.4395 0.654345 16.3033C0.397966 15.0882 0.215365 13.8571 0.0124756 12.6303C-0.0551543 12.2212 0.158187 11.949 0.506789 11.9454H0.507403Z" fill="black" />
                                                <path d="M18.0002 12.4511C17.8674 13.2889 17.7567 14.0613 17.6202 14.8294C17.2734 16.7846 16.7951 18.7067 16.1028 20.5708C15.6411 21.8147 15.097 23.0225 14.3592 24.1349C14.227 24.3343 14.0592 24.4554 13.8089 24.4199C13.5815 24.3875 13.4216 24.2511 13.3878 24.0352C13.3663 23.8958 13.3952 23.7172 13.4696 23.5986C15.1554 20.9089 15.9706 17.9166 16.5473 14.8429C16.6974 14.0448 16.8093 13.2394 16.9365 12.4364C16.9728 12.2083 17.0816 12.0107 17.3079 11.974C17.4646 11.9484 17.67 11.9979 17.7997 12.089C17.9129 12.1685 17.9504 12.3538 18.0002 12.4504V12.4511Z" fill="black" />
                                                <path d="M10.0258 13.4933C10.027 13.7777 9.8057 14.0034 9.52104 14.0077C9.23085 14.0119 8.98615 13.771 8.9923 13.4872C8.99783 13.2163 9.24376 12.9778 9.5149 12.979C9.79095 12.9808 10.0252 13.2163 10.0258 13.4933Z" fill="black" />
                                                <path d="M5.31643 14.0076C5.03177 14.0051 4.80859 13.7801 4.80859 13.4963C4.80859 13.218 5.03915 12.9832 5.31705 12.9795C5.59802 12.9759 5.85071 13.2309 5.84272 13.5085C5.83411 13.7856 5.5974 14.0106 5.31705 14.0076H5.31643Z" fill="black" />
                                                <path d="M7.42237 14.0071C7.13894 14.0101 6.90592 13.7893 6.8967 13.5086C6.88809 13.2279 7.13709 12.976 7.41991 12.979C7.69412 12.9821 7.93328 13.2218 7.9339 13.4946C7.9339 13.7741 7.70457 14.004 7.42237 14.0071Z" fill="black" />
                                                <path d="M6.22979 5.17041C6.93129 5.17714 7.3961 5.44317 7.78896 5.84619C7.98386 6.04617 7.97648 6.35745 7.79634 6.55315C7.61804 6.7464 7.34199 6.7727 7.10898 6.61125C7.02229 6.55131 6.94789 6.47426 6.86428 6.41004C6.52551 6.14952 6.19474 6.15258 5.8609 6.41799C5.80372 6.46386 5.75146 6.51523 5.69613 6.56355C5.46741 6.76292 5.19321 6.77637 4.98724 6.59779C4.77636 6.41494 4.73332 6.09876 4.92576 5.87554C5.29649 5.445 5.76621 5.1912 6.22917 5.17163L6.22979 5.17041Z" fill="black" />
                                                <path d="M11.4667 5.17005C12.1811 5.178 12.6367 5.44586 13.0234 5.84399C13.2226 6.04947 13.2158 6.35342 13.0332 6.55095C12.8457 6.7546 12.5709 6.77295 12.325 6.59865C12.2985 6.57969 12.2733 6.5589 12.2481 6.53811C11.7169 6.10451 11.482 6.1039 10.9656 6.53321C10.6797 6.7705 10.392 6.77723 10.1829 6.55034C9.96898 6.31917 10.0016 6.01033 10.2721 5.75347C10.6453 5.39938 11.0787 5.17861 11.4673 5.16943L11.4667 5.17005Z" fill="black" />
                                            </g>
                                            <defs>
                                                <clipPath id="clip0_3141_16309">
                                                    <rect width="18" height="25" fill="white" transform="translate(0 0.475586)" />
                                                </clipPath>
                                            </defs>
                                        </svg>
