<svg width="380" height="86" viewBox="0 0 380 86" fill="none" xmlns="http://www.w3.org/2000/svg">
<path d="M278.304 24.3308C269.443 19.3069 257.267 16.6543 242.979 16.6543H210.786C208.391 16.6543 206.351 17.8896 206.351 19.4116V69.8436C206.351 71.3657 208.391 72.601 210.786 72.601H242.979C257.276 72.601 269.443 69.9594 278.295 64.9686C287.256 59.9116 292.001 52.8914 292.001 44.6745C292.001 36.4576 287.265 29.4153 278.304 24.3363V24.3308ZM262.759 56.0072C257.905 59.09 251.056 60.7223 242.951 60.7223H229.446C228.49 60.7223 227.716 60.2536 227.716 59.6745V29.5808C227.716 29.0017 228.49 28.533 229.446 28.533H242.951C259.508 28.533 269.798 34.715 269.798 44.669C269.798 49.0973 267.303 53.123 262.759 56.0072Z" fill="#010000"/>
<path d="M328.847 28.533H376.521C378.443 28.533 380 27.59 380 26.4264V19.2186C380 17.8069 378.106 16.6543 375.164 16.6543H309.786C307.883 16.6543 305.834 17.8896 305.834 19.4116V69.8436C305.834 71.3657 307.874 72.601 309.786 72.601H375.164C378.097 72.601 380 71.4539 380 70.0367V62.8289C380 61.6653 378.443 60.7223 376.521 60.7223H328.847C327.891 60.7223 327.117 60.2536 327.117 59.6745V51.4741C327.117 50.8951 327.891 50.4264 328.847 50.4264H375.975C377.896 50.4264 379.453 49.4833 379.453 48.3197V40.6543C379.453 39.4907 377.896 38.5477 375.975 38.5477H328.847C327.891 38.5477 327.117 38.0789 327.117 37.4999V29.5863C327.117 29.0072 327.891 28.5385 328.847 28.5385V28.533Z" fill="#010000"/>
<path d="M186.453 46.3343C184.404 45.2258 181.863 44.3159 178.867 43.6155C178.011 43.417 177.92 42.7111 178.703 42.4299C180.879 41.6413 182.774 40.7093 184.385 39.6394C188.265 37.1027 190.223 33.8435 190.223 30.1762C190.223 25.7424 187.072 22.2405 180.861 19.7644C174.969 17.4207 166.955 16.2295 157.029 16.2295C148.004 16.2295 139.99 17.2718 132.723 19.3232C130.965 19.8196 129.936 21.0935 130.737 22.3839C130.801 22.4942 130.892 22.5935 130.992 22.6927C132.905 24.7221 134.58 26.8949 135.955 29.1449C136.52 30.0659 137.986 30.6835 139.598 30.6835C140.217 30.6835 140.837 30.5898 141.392 30.4188C143.541 29.746 145.554 29.2442 147.394 28.9188C150.18 28.3949 152.803 28.1302 155.663 28.1302C165.106 28.1302 166.318 30.5181 166.318 32.5971C166.318 34.6762 165.152 36.0549 162.675 36.8766C159.733 37.8306 154.861 38.3104 148.204 38.3104H143.951C143.642 38.3104 143.332 38.3269 143.031 38.3766C141.037 38.6854 139.899 39.8049 140.054 40.9243C140.236 42.1817 140.327 43.4666 140.327 44.7516C140.327 45.5402 140.29 46.3674 140.208 47.2056C140.145 47.8563 140.536 48.5016 141.265 48.9813C142.002 49.4556 143.041 49.7313 144.106 49.7313H148.049C155.344 49.7313 160.653 50.2001 163.822 51.121C166.527 51.9152 167.729 53.1174 167.729 55.031C167.729 57.2975 166.618 58.6982 164.232 59.6688C161.6 60.7332 157.147 61.2957 151.364 61.2957C147.412 61.2957 143.578 60.9813 139.534 60.3692C139.197 60.3141 138.851 60.281 138.496 60.281C136.93 60.281 135.527 60.8545 134.917 61.7368C133.506 63.7883 131.803 65.8122 129.854 67.7534C129.198 68.4041 129.089 69.1872 129.553 69.8931C130.009 70.5935 131.02 71.1119 132.203 71.3159C138.678 72.4464 145.682 73.0199 153.477 73.0199C165.835 73.0199 175.543 71.5144 182.336 68.542C189.385 65.4482 192.955 61.1909 192.955 55.6872C192.955 51.7938 190.76 48.6449 186.435 46.3288L186.453 46.3343Z" fill="#010000"/>
<path d="M61.9263 7.125C27.7849 7.125 0 23.9504 0 44.625C0 65.2996 27.7849 82.125 61.9263 82.125C96.0678 82.125 123.853 65.2996 123.853 44.625C123.853 23.9504 96.0769 7.125 61.9263 7.125ZM88.8643 44.625C88.8643 53.6195 76.7795 60.9375 61.9263 60.9375C47.0731 60.9375 34.9884 53.6195 34.9884 44.625C34.9884 35.6305 47.0731 28.3125 61.9263 28.3125C76.7795 28.3125 88.8643 35.6305 88.8643 44.625ZM53.0108 71.9118C55.8976 72.2592 58.8755 72.4412 61.9263 72.4412C64.9771 72.4412 67.955 72.2537 70.8419 71.9118L70.9239 71.9504L61.9263 81.3915L52.9197 71.9504L53.0017 71.9118H53.0108ZM105.402 35.6691C103.444 32.1949 100.384 29.0349 96.4776 26.3272L96.4958 26.239H114.518L105.502 35.6912L105.402 35.6636V35.6691ZM95.5851 25.7316C91.5417 23.0901 86.6604 20.9283 81.1964 19.3897L81.1599 19.318L97.6068 14.8842L95.7217 25.7261H95.5851V25.7316ZM80.8958 18.8327L75.3862 8.55882C83.3456 9.64522 90.713 11.6801 97.1606 14.4485L80.8958 18.8327ZM80.1217 19.0423L80.0216 19.0699C74.6486 17.6691 68.7564 16.8805 62.5729 16.8254L62.5001 16.7757L74.5575 8.66912L80.1217 19.0423ZM61.2889 16.8254C55.0962 16.875 49.2041 17.6691 43.8311 19.0699L43.7309 19.0423L49.3043 8.6636L61.3617 16.7757L61.2889 16.8254ZM42.9568 18.8327L26.6921 14.4485C33.1397 11.6801 40.5162 9.64522 48.4756 8.55882L42.9659 18.8327H42.9568ZM42.6927 19.3235L42.6563 19.3897C37.2013 20.9228 32.3201 23.0901 28.2675 25.7316H28.1218L26.2367 14.8897L42.6836 19.3235H42.6927ZM27.3842 26.3327C23.4774 29.0349 20.4175 32.2004 18.4595 35.6691L18.3593 35.6967L9.3527 26.2445H27.366L27.3842 26.3327ZM17.5853 35.9062L1.28406 40.296C2.24028 35.3548 4.8084 30.7059 8.66969 26.5533L17.5853 35.9007V35.9062ZM18.0133 36.3529L18.0588 36.3971C16.7201 39 16.0007 41.7684 16.0007 44.6305C16.0007 45.4798 16.0735 46.3235 16.201 47.1562L16.1282 47.2059L1.53905 40.7868L18.0042 36.3474L18.0133 36.3529ZM16.3376 47.9338C17.0571 51.6176 18.9786 55.0864 21.8472 58.1912L21.8108 58.2629L4.19824 55.9963L16.2466 47.8952L16.3376 47.9338ZM21.5467 58.7537L16.0462 69.0055C10.8098 65.3934 6.71172 61.1581 4.10717 56.5092L21.5467 58.7537ZM22.3845 58.8585L22.5029 58.875C25.5901 61.9963 29.6427 64.7206 34.4238 66.8934V66.9651L16.8112 69.2316L22.3754 58.8585H22.3845ZM35.4984 67.3511C40.325 69.4191 45.8346 70.9357 51.7813 71.7518L51.836 71.8125L37.256 78.2261L35.3709 67.3732L35.4984 67.3566V67.3511ZM52.2549 72.2537L61.1705 81.6066C52.8924 81.546 44.9968 80.4816 37.8206 78.6066L52.2549 72.2537ZM71.6342 72.2537L86.0685 78.6066C78.8832 80.4816 70.9967 81.546 62.7186 81.6066L71.6342 72.2537ZM72.0622 71.807L72.1169 71.7463C78.0545 70.9301 83.5641 69.4136 88.3907 67.3511L88.5182 67.3676L86.6331 78.2206L72.0622 71.807ZM89.4562 66.8879C94.2464 64.7151 98.2989 61.9853 101.386 58.864L101.505 58.8474L107.069 69.2261L89.438 66.954V66.8824L89.4562 66.8879ZM102.351 58.7426L119.8 56.4982C117.186 61.1471 113.098 65.3824 107.852 69L102.351 58.7482V58.7426ZM102.087 58.2518L102.051 58.1801C104.92 55.0754 106.841 51.6121 107.561 47.9228L107.652 47.8842L119.7 55.9853L102.087 58.2518ZM107.697 47.1452C107.825 46.3125 107.898 45.4743 107.898 44.625C107.898 41.7629 107.178 38.9945 105.839 36.3915L105.885 36.3474L122.35 40.7868L107.779 47.2004L107.706 47.1507L107.697 47.1452ZM106.313 35.9007L115.229 26.5478C119.09 30.7004 121.658 35.3493 122.614 40.296L106.313 35.9007ZM114.445 25.7261H96.6142L98.4811 14.989C104.892 17.8952 110.329 21.546 114.445 25.7261ZM73.8836 8.35478L61.9354 16.3897L49.9782 8.35478C53.8486 7.88603 57.8374 7.63787 61.9263 7.63787C66.0153 7.63787 70.0132 7.88603 73.8745 8.35478H73.8836ZM25.408 14.9945L27.2749 25.7261H9.45287C13.5692 21.546 19.0059 17.8952 25.4171 14.9945H25.408ZM1.11103 41.2335L15.5453 47.5864L3.59719 55.6213C1.81226 52.1471 0.846934 48.4577 0.846934 44.6305C0.846934 43.4835 0.947109 42.3529 1.11103 41.2335ZM17.0935 69.7169L34.5148 67.4724L36.3817 78.2151C29.0598 76.1636 22.512 73.2629 17.0935 69.7169ZM87.4709 78.2206L89.3378 67.4779L106.768 69.7224C101.35 73.2684 94.8019 76.1691 87.48 78.2206H87.4709ZM120.265 55.6213L108.316 47.5864L122.751 41.239C122.924 42.3585 123.015 43.489 123.015 44.636C123.015 48.4632 122.05 52.1526 120.265 55.6268V55.6213Z" fill="#010000"/>
<path d="M89.1328 7.37549L159.843 78.0862" stroke="#FF0000" stroke-width="10" stroke-linecap="square"/>
</svg>
