<svg width="93" height="115" viewBox="0 0 93 115" fill="none" xmlns="http://www.w3.org/2000/svg">
<path opacity="0.15" d="M46.5 4.99999V110.102L51.2865 107.795C61.1909 103.021 69.7457 95.8484 76.1736 86.9282C84.2142 75.7701 88.5409 62.3652 88.5409 48.6119V19.7143L46.5 4.99999Z" fill="#0AC1C7"/>
<path d="M46.4991 5L4.45898 20.2398V49.0134C4.45898 62.6093 8.72251 75.8629 16.6495 86.9088V86.9088C23.1633 95.9854 31.8921 103.244 42.0049 107.992L46.4991 110.102L51.2857 107.795C61.1901 103.021 69.7448 95.8484 76.1728 86.9282V86.9282C84.2134 75.7701 88.54 62.3653 88.54 48.6119V19.7143L46.4991 5Z" stroke="#0BB0B6" stroke-width="8"/>
</svg>
