<svg width="251" height="52" viewBox="0 0 251 52" fill="none" xmlns="http://www.w3.org/2000/svg">
<path d="M75.7937 16.1042C72.623 16.1042 71.0372 17.1502 71.0364 19.2422C71.0227 19.671 71.125 20.0955 71.3324 20.4711C71.5398 20.8466 71.8446 21.1592 72.2147 21.376C73.0003 21.8706 74.8408 22.5818 77.736 23.5098C80.632 24.4378 82.661 25.4968 83.825 26.6867C84.99 27.8649 85.571 29.6766 85.571 32.1217C85.571 35.2363 84.625 37.5927 82.735 39.191C80.844 40.7892 78.37 41.5896 75.3143 41.5921C73.0455 41.5921 70.2671 41.2428 66.9793 40.5441L65.4082 40.239L66.0193 35.5685C69.917 36.094 72.8991 36.3563 74.9655 36.3555C78.05 36.3555 79.592 35.0748 79.592 32.5133C79.592 31.5845 79.236 30.854 78.522 30.3306C77.808 29.8071 76.3885 29.2398 74.2677 28.6285C70.8912 27.6687 68.5136 26.5269 67.1349 25.2031C65.7562 23.8793 65.0647 22.0383 65.0605 19.6802C65.0605 16.713 65.9624 14.5017 67.7661 13.0465C69.5698 11.5914 72.0428 10.8638 75.1851 10.8638C77.338 10.8638 80.074 11.1566 83.391 11.7424L84.954 12.0424L84.476 16.8046C80.375 16.3393 77.481 16.1059 75.7937 16.1042Z" fill="#525252"/>
<path d="M95.74 41.0702H89.891V10.5176H95.74V27.8882L97.965 27.4953L102.285 19.2462H108.832L103.159 29.5915L109.138 41.0702H102.548L98.139 32.5588L95.74 32.9491V41.0702Z" fill="#525252"/>
<path d="M117.846 35.55C118.529 36.1467 119.511 36.4454 120.79 36.4463C123.497 36.4463 125.912 36.3588 128.036 36.1839L129.259 36.0584L129.344 40.3788C125.998 41.1938 122.972 41.6013 120.267 41.6013C116.979 41.6013 114.594 40.7281 113.114 38.9817C111.633 37.2354 110.891 34.3986 110.889 30.4715C110.889 22.6442 114.104 18.7305 120.534 18.7305C126.876 18.7305 130.047 22.0182 130.047 28.5938L129.613 32.6531H116.775C116.805 33.9869 117.161 34.9526 117.846 35.55ZM124.282 28.1946C124.282 26.4482 124.006 25.2349 123.453 24.5546C122.9 23.8742 121.933 23.5328 120.551 23.5303C119.168 23.5303 118.193 23.8864 117.627 24.5985C117.062 25.3106 116.763 26.5106 116.731 28.1984L124.282 28.1946Z" fill="#525252"/>
<path d="M146.319 24.2259H140.95V33.1741C140.95 34.0465 140.973 34.6666 141.014 35.0306C141.057 35.3904 141.227 35.7228 141.495 35.9669C141.771 36.2297 142.2 36.3607 142.781 36.3598L146.098 36.2732L146.36 40.9413C144.41 41.3793 142.929 41.5965 141.908 41.5965C139.29 41.5965 137.501 41.0065 136.541 39.8267C135.58 38.6468 135.1 36.4711 135.1 33.2997V24.2183H132.527V19.2465H135.1V13.1802H140.948V19.2465H146.319V24.2259Z" fill="#525252"/>
<path d="M158.279 18.7222C159.794 18.7222 161.73 18.9548 164.086 19.4201L165.262 19.6824L165.087 24.309C162.79 24.0764 161.088 23.9601 159.981 23.9601C157.973 23.9601 156.643 24.3894 155.989 25.2479C155.336 26.1065 155.008 27.7286 155.007 30.1143C155.007 32.5008 155.334 34.138 155.989 35.0259C156.644 35.9137 157.989 36.3576 160.025 36.3576L165.087 36.0087L165.262 40.6767C162.149 41.2893 159.779 41.5947 158.149 41.593C154.919 41.593 152.598 40.6843 151.187 38.8668C149.775 37.0492 149.069 34.1317 149.068 30.1143C149.068 26.0977 149.796 23.1953 151.251 21.407C152.705 19.6188 155.048 18.7238 158.279 18.7222Z" fill="#525252"/>
<path d="M175.433 41.0702H169.584V10.5176H175.433V20.2943C177.441 19.2466 179.245 18.7228 180.844 18.7228C183.755 18.7228 185.763 19.5813 186.868 21.2984C187.973 23.0155 188.525 25.6648 188.524 29.2463V41.0702H182.676V29.3718C182.676 27.5384 182.459 26.1782 182.024 25.2912C181.589 24.4042 180.716 23.9603 179.405 23.9594C178.25 23.9625 177.102 24.139 175.999 24.4829L175.433 24.6573V41.0702Z" fill="#525252"/>
<path d="M200.615 24.2257V41.0704H194.767V24.2257H192.41V19.2464H194.767V18.2887C194.767 15.1457 195.232 12.9779 196.162 11.7855C197.093 10.5931 198.752 9.99641 201.14 9.99561C202.189 9.99561 203.542 10.1412 205.199 10.4324L206.114 10.5579L206.026 15.3151C204.746 15.2574 203.67 15.2285 202.797 15.2285C201.924 15.2285 201.343 15.4611 201.051 15.9264C200.758 16.3921 200.615 17.1929 200.615 18.3276V19.2439H205.895V24.2257H200.615Z" fill="#525252"/>
<path d="M226.015 26.0558V35.1346C226.073 35.835 226.19 36.3207 226.364 36.5981C226.539 36.8755 226.902 37.0713 227.456 37.1856L227.28 41.5938C225.797 41.5938 224.611 41.4925 223.723 41.29C222.76 41.0514 221.851 40.6365 221.04 40.0662C219.047 41.061 216.852 41.5837 214.625 41.5938C210.112 41.5938 207.857 39.2089 207.859 34.4392C207.859 32.1137 208.484 30.4628 209.734 29.4862C210.984 28.5097 212.904 27.9348 215.495 27.7616L220.165 27.4126V26.0558C220.165 25.1533 219.959 24.537 219.554 24.1993C219.148 23.8617 218.49 23.6973 217.59 23.6973L209.385 24.0462L209.211 19.9869C212.323 19.1434 215.283 18.7217 218.091 18.7217C220.898 18.7217 222.92 19.3037 224.157 20.4677C225.398 21.6341 226.018 23.4969 226.015 26.0558ZM216.196 31.8171C214.566 31.9627 213.751 32.8355 213.751 34.4354C213.751 36.0354 214.462 36.8358 215.884 36.8366C217.109 36.8198 218.327 36.6439 219.506 36.3132L220.161 36.1387V31.4682L216.196 31.8171Z" fill="#525252"/>
<path d="M242.161 18.7228C245.216 18.7228 247.449 19.5596 248.861 21.2332C250.272 22.9067 250.978 25.897 250.979 30.204C250.979 34.5085 250.164 37.4833 248.534 39.1284C246.905 40.7736 244.097 41.5961 240.112 41.5961C238.857 41.5961 236.572 41.4505 233.257 41.1593L231.6 40.9849V10.5176H237.447V19.9014C239.31 19.1156 240.881 18.7228 242.161 18.7228ZM240.112 36.3582C242.062 36.3582 243.371 35.885 244.039 34.9386C244.708 33.9922 245.043 32.2968 245.043 29.8526C245.043 25.9247 243.821 23.9611 241.377 23.9619C240.256 23.9562 239.14 24.1032 238.06 24.3988L237.449 24.5305V36.1838C238.786 36.3001 239.674 36.3582 240.112 36.3582Z" fill="#525252"/>
<path d="M25.9751 1.7915C12.5828 1.7915 1.7305 12.6502 1.7305 26.0406C1.7305 39.431 12.5841 50.2896 25.9751 50.2896C39.3661 50.2896 50.2223 39.4322 50.2223 26.0406C50.2223 12.6489 39.3687 1.7915 25.9751 1.7915Z" fill="white"/>
<path d="M25.9764 0C11.6304 0 0 11.6331 0 25.9825C0 40.3318 11.6304 51.965 25.9764 51.965C40.3224 51.965 51.9528 40.3318 51.9528 25.9825C51.9528 11.6331 40.3287 0 25.9764 0ZM23.7176 41.4439L12.5214 34.9785V21.9332L23.7176 27.9908V41.4439ZM25.7129 24.9143L12.4611 17.8852L25.7129 10.2286L38.9659 17.8852L25.7129 24.9143ZM38.9772 35.0023L27.8199 41.4465V28.036L38.9772 22.0111V35.0023Z" fill="#00A8D3"/>
</svg>
