<svg width="125" height="92" viewBox="0 0 125 92" fill="none" xmlns="http://www.w3.org/2000/svg">
<path d="M60.3254 73.4963C59.6345 75.8874 58.4571 78.1251 56.8604 80.0817C55.2637 82.0384 53.2789 83.6756 51.0195 84.8999C48.76 86.1243 46.2701 86.9117 43.6919 87.2173C41.1137 87.523 38.4977 87.3408 35.9932 86.6812C33.4888 86.0216 31.1449 84.8975 29.0955 83.373C27.046 81.8486 25.3312 79.9538 24.0488 77.7966C22.7664 75.6395 21.9416 73.2623 21.6215 70.8008C21.3013 68.3393 21.4922 65.8417 22.1831 63.4507" stroke="#0BB0B6" stroke-width="7.46437" stroke-linecap="square"/>
<path d="M4.53516 37.8689L120.464 5.6665V82.9523L4.53516 57.1904V37.8689Z" fill="white" stroke="#0AC1C7" stroke-width="7.46437" stroke-linecap="square"/>
</svg>
