<svg width="76" height="93" viewBox="0 0 76 93" fill="none" xmlns="http://www.w3.org/2000/svg">
<mask id="mask0_1_39" style="mask-type:luminance" maskUnits="userSpaceOnUse" x="11" y="19" width="54" height="54">
<path d="M38.0894 72.5897C52.8941 72.5897 64.8957 60.6943 64.8957 46.0207C64.8957 31.347 52.8941 19.4517 38.0894 19.4517C23.2848 19.4517 11.2832 31.347 11.2832 46.0207C11.2832 60.6943 23.2848 72.5897 38.0894 72.5897Z" fill="white"/>
</mask>
<g mask="url(#mask0_1_39)">
<path fill-rule="evenodd" clip-rule="evenodd" d="M38.7982 62.1519V73.0641H36.9004V62.1519H38.7982Z" fill="#006798"/>
<path d="M34.0547 62.6266L37.8503 55.9844L41.6458 62.6266H34.0547Z" fill="#006798"/>
<path fill-rule="evenodd" clip-rule="evenodd" d="M27.2517 58.1424L19.6357 65.7584L18.2394 64.3621L25.8555 56.7461L27.2517 58.1424Z" fill="#006798"/>
<path d="M23.5056 55.0325L30.9947 53.0015L28.9638 60.4906L23.5056 55.0325Z" fill="#006798"/>
<path fill-rule="evenodd" clip-rule="evenodd" d="M21.7168 46.9696H11.279V45.0718H21.7168V46.9696Z" fill="#006798"/>
<path d="M21.2406 42.2251L27.8828 46.0207L21.2406 49.8162V42.2251Z" fill="#006798"/>
<path fill-rule="evenodd" clip-rule="evenodd" d="M25.8537 35.2947L18.2377 27.6787L19.634 26.2824L27.25 33.8984L25.8537 35.2947Z" fill="#006798"/>
<path d="M28.9646 31.55L30.9955 39.0391L23.5064 37.0082L28.9646 31.55Z" fill="#006798"/>
<path fill-rule="evenodd" clip-rule="evenodd" d="M48.6994 58.1429L56.3155 65.7589L57.7117 64.3626L50.0957 56.7466L48.6994 58.1429Z" fill="#006798"/>
<path d="M52.4456 55.033L44.9565 53.002L46.9874 60.4911L52.4456 55.033Z" fill="#006798"/>
<path fill-rule="evenodd" clip-rule="evenodd" d="M53.9785 46.9696H64.8908V45.0718H53.9785V46.9696Z" fill="#006798"/>
<path d="M54.4528 42.2251L47.8105 46.0207L54.4528 49.8162V42.2251Z" fill="#006798"/>
<path fill-rule="evenodd" clip-rule="evenodd" d="M50.1033 35.2947L57.7193 27.6787L56.3231 26.2824L48.707 33.8984L50.1033 35.2947Z" fill="#006798"/>
<path d="M46.9924 31.55L44.9615 39.0391L52.4506 37.0082L46.9924 31.55Z" fill="#006798"/>
</g>
<path fill-rule="evenodd" clip-rule="evenodd" d="M50.5586 22.9455C52.5826 23.8429 54.8422 25.0572 56.8927 27.1077C60.6333 30.8484 63.1807 35.6143 64.2128 40.8027C65.2448 45.9912 64.7152 51.3692 62.6907 56.2566C60.6663 61.144 57.238 65.3213 52.8395 68.2604C48.4409 71.1994 43.2696 72.7681 37.9795 72.7681C32.6894 72.7681 27.5181 71.1994 23.1195 68.2604C18.721 65.3213 15.2927 61.144 13.2683 56.2566C11.2438 51.3692 10.7141 45.9912 11.7462 40.8027C12.7782 35.6143 15.3257 30.8484 19.0663 27.1077L24.3976 32.4389C21.7113 35.1252 19.882 38.5477 19.1408 42.2736C18.3997 45.9995 18.7801 49.8616 20.2339 53.3713C21.6876 56.8811 24.1495 59.8809 27.3082 61.9915C30.4669 64.1021 34.1806 65.2286 37.9795 65.2286C41.7784 65.2286 45.4921 64.1021 48.6508 61.9915C51.8095 59.8809 54.2714 56.8811 55.7251 53.3713C57.1789 49.8616 57.5593 45.9995 56.8182 42.2736C56.077 38.5477 54.2477 35.1252 51.5614 32.4389C50.4385 31.316 49.1201 30.555 47.5028 29.8379C46.8478 29.5475 46.2 29.2875 45.4875 29.0016C45.2919 28.9231 45.0915 28.8426 44.8847 28.7591C43.965 28.3874 42.951 27.9659 41.9456 27.4585C39.8903 26.4214 37.7597 24.9726 36.0298 22.5675C34.3144 20.1826 33.1932 17.1373 32.6576 13.21L40.128 12.1913C40.5445 15.2454 41.3352 17.0316 42.1505 18.1651C42.9513 19.2785 43.9703 20.0352 45.3423 20.7275C46.0505 21.0849 46.8195 21.4091 47.7096 21.7688C47.8779 21.8368 48.0526 21.9069 48.2323 21.979C48.9596 22.2707 49.768 22.5949 50.5586 22.9455Z" fill="#006798"/>
<path d="M35.7735 0C35.7735 0 32.5318 11.9553 28.5698 16.3832C24.6077 20.8111 39.0152 10.8926 43.8777 15.9404C48.7402 20.9882 35.7735 0 35.7735 0Z" fill="#006798"/>
<path d="M4.63867 75.9113L7.86405 83.5024H9.31546L11.2809 78.8766L13.2464 83.5024H14.6978L17.9232 75.9113H15.9376L13.9721 80.5371L12.0066 75.9113H10.5552L8.58975 80.5371L6.62429 75.9113H4.63867Z" fill="#666666"/>
<path d="M18.873 83.5024H20.7708V75.9113H18.873V83.5024Z" fill="#666666"/>
<path d="M23.1426 83.5024H24.9596V75.9113H23.1426V83.5024ZM24.0511 79.7069L27.6852 83.5024H30.2593L26.6252 79.7069L30.2593 75.9113H27.6852L24.0511 79.7069Z" fill="#666666"/>
<path d="M31.6797 83.5024H33.103V75.9113H31.6797V83.5024Z" fill="#666666"/>
<path d="M35.4785 83.5024H37.2933V78.5893L39.5113 80.9088L41.7294 78.5893V83.5024H43.5441V75.9113H41.7294L39.5113 78.2308L37.2933 75.9113H35.4785V83.5024Z" fill="#666666"/>
<path d="M45.4414 83.5024H50.6603V81.921H47.248V80.3395H50.6603V78.758H47.248V77.4928H50.6603V75.9113H45.4414V83.5024Z" fill="#666666"/>
<path d="M52.5586 83.5024H56.1169C57.0607 83.5024 57.9658 83.1026 58.6331 82.3907C59.3004 81.6789 59.6753 80.7135 59.6753 79.7069C59.6753 78.7002 59.3004 77.7348 58.6331 77.023C57.9658 76.3112 57.0607 75.9113 56.1169 75.9113H52.5586V83.5024ZM54.3378 81.921V77.4928H55.5239C56.0744 77.4928 56.6024 77.7261 56.9916 78.1413C57.3809 78.5565 57.5996 79.1197 57.5996 79.7069C57.5996 80.2941 57.3809 80.8572 56.9916 81.2725C56.6024 81.6877 56.0744 81.921 55.5239 81.921H54.3378Z" fill="#666666"/>
<path d="M60.623 83.5024H62.5208V75.9113H60.623V83.5024Z" fill="#666666"/>
<path d="M63.4707 83.5024H65.3782L67.2663 78.7263L69.1543 83.5024H71.0619L68.1422 75.9113H66.3904L63.4707 83.5024ZM65.2225 82.2373H69.602V80.9721H65.2225V82.2373Z" fill="#666666"/>
<path d="M15.5563 87.0608C15.1745 86.7781 14.6875 86.5854 14.1571 86.507C13.6267 86.4286 13.0767 86.4681 12.5768 86.6206C12.0769 86.773 11.6495 87.0314 11.3488 87.3632C11.048 87.6949 10.8875 88.085 10.8875 88.4841C10.8875 88.8832 11.048 89.2734 11.3488 89.6051C11.6495 89.9369 12.0769 90.1953 12.5768 90.3477C13.0767 90.5001 13.6267 90.5396 14.1571 90.4613C14.6875 90.3829 15.1745 90.1902 15.5563 89.9075V91.4494C14.9118 91.8051 14.1634 92.0087 13.3909 92.0386C12.6183 92.0686 11.8504 91.9237 11.1689 91.6195C10.4874 91.3153 9.91786 90.863 9.52081 90.3109C9.12375 89.7588 8.91406 89.1275 8.91406 88.4841C8.91406 87.8408 9.12375 87.2094 9.52081 86.6573C9.91786 86.1052 10.4874 85.653 11.1689 85.3488C11.8504 85.0445 12.6183 84.8997 13.3909 84.9296C14.1634 84.9596 14.9118 85.1632 15.5563 85.5188V87.0608Z" fill="#666666"/>
<path d="M16.5059 88.4841C16.5059 87.5404 16.9307 86.6353 17.687 85.968C18.4433 85.3007 19.4691 84.9258 20.5387 84.9258C21.6082 84.9258 22.634 85.3007 23.3903 85.968C24.1466 86.6353 24.5715 87.5404 24.5715 88.4841C24.5715 89.4279 24.1466 90.3329 23.3903 91.0003C22.634 91.6676 21.6082 92.0425 20.5387 92.0425C19.4691 92.0425 18.4433 91.6676 17.687 91.0003C16.9307 90.3329 16.5059 89.4279 16.5059 88.4841ZM18.5223 88.4841C18.5223 89.0189 18.7347 89.5318 19.1128 89.9099C19.491 90.2881 20.0039 90.5005 20.5387 90.5005C21.0734 90.5005 21.5863 90.2881 21.9645 89.9099C22.3426 89.5318 22.5551 89.0189 22.5551 88.4841C22.5551 87.9493 22.3426 87.4365 21.9645 87.0583C21.5863 86.6802 21.0734 86.4677 20.5387 86.4677C20.0039 86.4677 19.491 86.6802 19.1128 87.0583C18.7347 87.4365 18.5223 87.9493 18.5223 88.4841Z" fill="#666666"/>
<path d="M25.5215 92.0425H27.3362V87.4364L29.5543 89.6109L31.7723 87.4364V92.0425H33.5871V84.9258H31.7723L29.5543 87.1003L27.3362 84.9258H25.5215V92.0425Z" fill="#666666"/>
<path d="M35.4824 92.0425H37.2972V87.4364L39.5152 89.6109L41.7333 87.4364V92.0425H43.548V84.9258H41.7333L39.5152 87.1003L37.2972 84.9258H35.4824V92.0425Z" fill="#666666"/>
<path d="M44.498 88.4841C44.498 87.5404 44.9229 86.6353 45.6792 85.968C46.4355 85.3007 47.4613 84.9258 48.5308 84.9258C49.6004 84.9258 50.6262 85.3007 51.3825 85.968C52.1388 86.6353 52.5636 87.5404 52.5636 88.4841C52.5636 89.4279 52.1388 90.3329 51.3825 91.0003C50.6262 91.6676 49.6004 92.0425 48.5308 92.0425C47.4613 92.0425 46.4355 91.6676 45.6792 91.0003C44.9229 90.3329 44.498 89.4279 44.498 88.4841ZM46.5144 88.4841C46.5144 89.0189 46.7269 89.5318 47.105 89.9099C47.4832 90.2881 47.9961 90.5005 48.5308 90.5005C49.0656 90.5005 49.5785 90.2881 49.9567 89.9099C50.3348 89.5318 50.5472 89.0189 50.5472 88.4841C50.5472 87.9493 50.3348 87.4365 49.9567 87.0583C49.5785 86.6802 49.0656 86.4677 48.5308 86.4677C47.9961 86.4677 47.4832 86.6802 47.105 87.0583C46.7269 87.4365 46.5144 87.9493 46.5144 88.4841Z" fill="#666666"/>
<path d="M53.5137 92.0425H55.2616V87.7527L58.408 92.0425H60.1559V84.9258H58.408V89.2156L55.2616 84.9258H53.5137V92.0425Z" fill="#666666"/>
<path d="M62.5273 91.2221C63.2892 91.9041 64.1977 92.0425 64.9693 92.0425C66.5322 92.0425 67.7043 90.5005 67.1183 89.1563C66.5322 87.812 64.2367 87.644 64.2367 86.8532C64.2367 86.0625 65.9949 86.0131 67.1671 87.0509V85.5683C66.6299 85.2223 65.9949 84.9258 64.9205 84.9258C63.846 84.9258 62.0389 85.9636 62.6739 87.4957C63.3088 89.0278 65.6042 89.0772 65.6042 89.8679C65.6042 90.6587 63.846 90.8564 62.5273 89.6208V91.2221Z" fill="#666666"/>
<path d="M37.8485 55.0358C42.827 55.0358 46.863 50.9999 46.863 46.0213C46.863 41.0428 42.827 37.0068 37.8485 37.0068C32.8699 37.0068 28.834 41.0428 28.834 46.0213C28.834 50.9999 32.8699 55.0358 37.8485 55.0358Z" fill="#A2000B"/>
</svg>
